<svg id="Layer_1" data-name="Layer 1" xmlns="http://www.w3.org/2000/svg" viewBox="0 0 167.14 95.98"><defs><style>.cls-1{fill:#231f20;stroke:#231f20;stroke-width:0.63px;}.cls-1,.cls-2{stroke-miterlimit:10;}.cls-2{fill:#aadfed;stroke:#fff;stroke-width:3.34px;}</style></defs><path class="cls-1" d="M109.65,12.62l-12.86-.07S99,4.82,91.22,4.82s-6.49,7.42-6.49,7.42H70.5l-.61,34.32s15.19-3.43,15.46,8.66C85.65,69.13,70.5,67,70.5,67l-.31,13.6L86.58,80s.31,11.44,7.73,11.44,7.11-12.06,7.11-12.06l9.59.31Z"/><path class="cls-2" d="M142.1,39.58,139.34,8.47l-10.19.85s.61,10.31-4.35,10.79-5.53-9.42-5.53-9.42l-9.92,1q.87,7,1.73,13.93s-6.34-1.87-8.35,1.23-1.84,8.88,1.33,9.82,6.75-1.9,6.75-1.9l1.34,9.83L122,43.19c-.73-11.55,2.86-11.57,3.89-11.58,3.77-.78,5.27,10.69,5.27,10.69h0Z"/></svg>