<?xml version="1.0" standalone="no"?>
<!DOCTYPE svg PUBLIC "-//W3C//DTD SVG 20010904//EN"
 "http://www.w3.org/TR/2001/REC-SVG-20010904/DTD/svg10.dtd">
<svg version="1.0" xmlns="http://www.w3.org/2000/svg"
 width="960.000000pt" height="960.000000pt" viewBox="0 0 960.000000 960.000000"
 preserveAspectRatio="xMidYMid meet">
<metadata>
Created by potrace 1.14, written by Peter Selinger 2001-2017
</metadata>
<g transform="translate(0.000000,960.000000) scale(0.100000,-0.100000)"
fill="#000000" stroke="none">
<path d="M3850 8354 c-145 -31 -253 -102 -317 -211 -15 -26 -28 -52 -29 -58
-1 -5 -8 -23 -15 -40 -6 -16 -13 -37 -15 -45 -11 -54 -17 -113 -17 -162 0 -52
-2 -58 -21 -59 -12 -1 -266 -2 -566 -3 l-544 -1 -2 -349 c-2 -192 -5 -355 -8
-362 -3 -8 0 -14 7 -14 8 0 6 -4 -3 -10 -9 -6 -11 -10 -3 -10 7 0 10 -6 7 -14
-9 -22 -10 -276 -1 -276 5 0 5 -5 1 -12 -7 -11 -14 -656 -17 -1723 -2 -454 1
-569 11 -567 74 14 395 20 457 8 17 -4 48 -9 70 -12 94 -12 274 -73 283 -96 2
-4 8 -8 14 -8 5 0 16 -6 24 -14 7 -8 24 -23 37 -33 66 -52 108 -156 108 -268
-1 -161 -71 -302 -195 -390 -15 -11 -40 -30 -54 -42 -15 -13 -35 -23 -44 -23
-10 0 -18 -4 -18 -8 0 -12 -242 -100 -290 -106 -8 -1 -31 -5 -50 -9 -97 -19
-192 -30 -272 -31 -32 -1 -59 -3 -59 -6 -1 -3 -3 -63 -5 -135 -1 -71 -3 -130
-4 -130 -2 0 -11 -485 -13 -695 l-2 -175 55 2 c48 1 180 6 515 18 50 1 171 6
270 10 99 5 245 8 325 9 l144 1 2 -35 c1 -35 12 -122 18 -150 1 -8 6 -33 10
-55 18 -94 78 -272 107 -315 5 -8 17 -32 26 -52 9 -21 20 -38 25 -38 4 0 8 -4
8 -10 0 -43 186 -199 256 -216 16 -4 34 -10 39 -14 21 -14 205 -20 260 -8 150
33 277 149 357 326 31 67 65 165 72 209 3 13 7 31 10 41 14 50 35 217 40 332
1 26 7 44 13 43 11 -2 355 -13 518 -17 50 -1 95 -5 102 -9 6 -4 14 -4 17 1 4
7 42 8 71 2 6 -1 18 -2 28 -1 18 1 18 14 12 284 -3 155 -6 288 -6 295 2 27 1
44 -3 247 -3 116 -8 329 -11 475 -3 146 -8 389 -11 540 -3 151 -7 355 -8 453
-2 97 -5 180 -8 183 -4 3 -2 18 2 34 4 16 6 31 3 33 -4 5 -15 504 -17 806 l-1
144 48 20 c26 11 49 18 51 16 2 -2 7 -26 10 -54 3 -27 8 -66 11 -85 2 -19 7
-57 11 -84 3 -27 7 -56 9 -65 1 -9 6 -41 10 -71 3 -30 8 -66 10 -80 3 -14 7
-45 10 -70 18 -137 12 -130 105 -116 25 3 63 9 85 12 22 3 51 7 65 9 14 2 48
6 75 10 28 3 61 7 75 9 14 3 61 10 105 16 44 6 91 13 105 15 14 2 48 6 75 9
49 6 133 18 148 22 4 1 19 2 33 3 l26 1 -5 106 c-3 59 -8 108 -11 111 -2 2 -1
17 3 31 4 15 4 40 0 56 -5 16 -5 34 -2 39 3 5 7 37 9 71 8 188 55 329 125 370
14 9 50 16 78 17 46 2 55 -1 86 -31 68 -66 151 -279 191 -490 2 -14 9 -50 16
-80 6 -30 12 -71 13 -90 1 -19 3 -43 4 -52 1 -12 9 -18 26 -18 14 0 25 3 25 8
0 4 10 8 23 8 21 1 50 7 85 18 9 3 28 7 42 10 14 2 54 12 90 21 36 10 74 19
85 21 11 2 56 13 100 24 44 12 89 23 100 25 37 9 60 14 200 50 77 20 149 37
160 38 18 2 20 9 18 57 -1 30 -4 80 -7 110 -6 56 -13 137 -21 225 -13 163 -16
194 -20 230 -3 22 -7 74 -10 115 -3 41 -8 95 -10 120 -3 25 -7 74 -10 110 -3
36 -7 83 -9 105 -3 22 -7 76 -11 120 -4 44 -9 96 -11 115 -2 19 -6 67 -9 105
-8 104 -15 184 -21 240 -3 28 -7 79 -9 115 -2 36 -6 76 -9 90 -2 14 -7 66 -11
115 -11 137 -22 273 -30 340 -1 15 -9 20 -31 19 -37 -2 -196 -14 -248 -20 -21
-2 -70 -6 -110 -9 -39 -3 -96 -7 -126 -10 -30 -4 -77 -8 -105 -10 -27 -2 -88
-7 -135 -11 -76 -6 -123 -10 -142 -13 -3 -1 -6 -56 -5 -123 1 -158 -9 -254
-40 -373 -8 -33 -18 -64 -21 -70 -4 -5 -7 -16 -9 -24 -1 -8 -8 -18 -15 -22 -7
-5 -9 -9 -5 -9 16 0 -41 -71 -80 -99 -36 -26 -48 -29 -101 -27 -61 2 -78 10
-125 61 -41 43 -99 165 -113 234 -3 14 -7 28 -10 32 -2 4 -7 26 -10 49 -7 48
-12 75 -14 75 -4 0 -17 134 -19 192 -1 17 -6 21 -23 18 -13 -2 -54 -6 -93 -10
-38 -3 -88 -8 -110 -11 -53 -6 -149 -15 -205 -18 -25 -2 -67 -7 -95 -10 -27
-4 -77 -9 -110 -11 -33 -2 -60 -5 -60 -5 0 -1 -21 -3 -46 -5 -26 -1 -70 -6
-98 -10 l-52 -7 6 -52 c3 -28 7 -67 10 -86 9 -70 17 -136 21 -165 1 -16 5 -50
9 -75 12 -94 15 -116 21 -165 3 -27 7 -61 9 -75 2 -14 6 -52 10 -85 4 -33 9
-69 11 -80 2 -11 6 -46 9 -78 3 -32 6 -64 8 -70 1 -7 -3 -11 -8 -10 -6 1 -30
4 -54 7 -52 6 -55 8 -52 48 3 45 3 25 -4 303 -3 138 -8 333 -10 435 -2 102 -4
187 -4 190 -1 3 -227 7 -503 8 -340 2 -504 6 -509 13 -3 6 -3 25 1 43 14 63 3
209 -21 284 -13 40 -27 72 -31 72 -4 0 -8 6 -8 14 0 21 -93 108 -142 132 -47
24 -75 35 -98 40 -122 26 -239 29 -340 8z"/>
</g>
</svg>
