<svg xmlns="http://www.w3.org/2000/svg" xmlns:xlink="http://www.w3.org/1999/xlink" viewBox="0 0 246.53 264.07"><defs><style>.cls-1,.cls-10,.cls-17,.cls-24,.cls-31,.cls-6{fill:#231f20;}.cls-1,.cls-10,.cls-14,.cls-16,.cls-17,.cls-18,.cls-2,.cls-21,.cls-22,.cls-23,.cls-24,.cls-25,.cls-26,.cls-27,.cls-28,.cls-29,.cls-3,.cls-30,.cls-31,.cls-4,.cls-5,.cls-6,.cls-7,.cls-8,.cls-9{stroke:#231f20;}.cls-1,.cls-10,.cls-18,.cls-2,.cls-22,.cls-25,.cls-26,.cls-27,.cls-28,.cls-3,.cls-30,.cls-31,.cls-4,.cls-5,.cls-6,.cls-7,.cls-8,.cls-9{stroke-miterlimit:10;}.cls-1,.cls-21,.cls-26{stroke-width:0.5px;}.cls-13,.cls-2{fill:#fff;}.cls-2,.cls-3,.cls-4,.cls-5,.cls-6,.cls-7{stroke-width:0.78px;}.cls-11,.cls-14,.cls-15,.cls-16,.cls-19,.cls-20,.cls-22,.cls-23,.cls-25,.cls-26,.cls-27,.cls-28,.cls-29,.cls-3,.cls-30,.cls-9{fill:none;}.cls-4{fill:url(#linear-gradient);}.cls-5{fill:url(#linear-gradient-2);}.cls-7{fill:url(#linear-gradient-3);}.cls-8,.cls-9{stroke-width:0.76px;}.cls-8{fill:url(#linear-gradient-4);}.cls-10{stroke-width:0.7px;}.cls-11,.cls-19,.cls-20{stroke:#fff;}.cls-11,.cls-14,.cls-15,.cls-16,.cls-17,.cls-19,.cls-20,.cls-21,.cls-23,.cls-24,.cls-29,.cls-30{stroke-linecap:round;}.cls-11,.cls-14,.cls-15,.cls-16,.cls-17,.cls-19,.cls-20,.cls-21,.cls-23,.cls-24,.cls-29{stroke-linejoin:round;}.cls-11{stroke-width:1.5px;}.cls-12,.cls-21{fill:#aadfed;}.cls-14{stroke-width:0.86px;}.cls-15{stroke:#414042;stroke-width:0.7px;}.cls-16{stroke-width:4px;}.cls-17{stroke-width:0.77px;}.cls-18,.cls-27,.cls-29,.cls-30{stroke-width:0.75px;}.cls-18{fill:url(#linear-gradient-5);}.cls-19{stroke-width:0.43px;}.cls-25{stroke-width:0.47px;}.cls-28{stroke-width:0.51px;}.cls-31{stroke-width:0.06px;}</style><linearGradient id="linear-gradient" x1="199.01" y1="188.18" x2="226.45" y2="188.18" gradientUnits="userSpaceOnUse"><stop offset="0.17" stop-color="#c2b59b"/><stop offset="0.39" stop-color="#bdae96"/><stop offset="0.71" stop-color="#ae9c89"/><stop offset="1" stop-color="#9b8579"/></linearGradient><linearGradient id="linear-gradient-2" x1="183.61" y1="89.03" x2="209.12" y2="89.03" xlink:href="#linear-gradient"/><linearGradient id="linear-gradient-3" x1="173.26" y1="222.84" x2="228.08" y2="222.84" xlink:href="#linear-gradient"/><linearGradient id="linear-gradient-4" x1="59.92" y1="210.52" x2="132.62" y2="210.52" gradientUnits="userSpaceOnUse"><stop offset="0.17" stop-color="#c2b59b"/><stop offset="0.31" stop-color="#bdae96"/><stop offset="0.52" stop-color="#ae9c89"/><stop offset="0.71" stop-color="#9b8579"/></linearGradient><linearGradient id="linear-gradient-5" x1="157.75" y1="171.42" x2="199.97" y2="204.47" gradientTransform="translate(2.38 3.81) rotate(-1.2)" gradientUnits="userSpaceOnUse"><stop offset="0" stop-color="#e6e7e8"/><stop offset="0.42" stop-color="#fff"/><stop offset="0.56" stop-color="#f8f9f9"/><stop offset="0.76" stop-color="#e6e7e7"/><stop offset="0.93" stop-color="#d1d3d4"/></linearGradient></defs><g id="Layer_2" data-name="Layer 2"><circle class="cls-1" cx="59.63" cy="138.2" r="2.04"/></g><g id="Layer_3" data-name="Layer 3"><path class="cls-2" d="M210.56,216.82l-8.06.2-31.4.76s-6.32-28.88-25.51-31.16h0c-.63-.07-1.27-.11-1.92-.13H143c-.26,0-.51,0-.76,0a19,19,0,0,0-3.19.41l.89-.48c-.54-.05-1.1-.06-1.65-.06H138l-.52,0h-.13a14.46,14.46,0,0,0-9.08,4q-.2.17-.39.36l-.3.3c-7.8,8.1-8.83,23.75-8.83,23.75l.48.51L59.92,213l.81-55.13.15-9.84S31.52,143.18,31,124.89s25-19.26,25-19.26l-1-58.72,128.51,2.41,7.22,63.53s-25.51,3.37-20.21,22.14a22.1,22.1,0,0,0,1.69,4.27h0c7.34,13.79,26.7,10.16,26.7,10.16Z"/><path class="cls-3" d="M140,186.44l-.89.48a18.07,18.07,0,0,0-7.45,3.53c-.15.12-.31.24-.46.38l-.36.31c-8.7,7.59-10.9,22.06-11.16,24l0,.22h-.37l-.48-.51s1-15.65,8.83-23.75l.3-.3q.19-.2.39-.36a14.46,14.46,0,0,1,9.08-4h.13l.52,0h.3C138.85,186.38,139.41,186.39,140,186.44Z"/><polygon class="cls-4" points="226.45 226.92 210.56 216.82 199.01 149.43 213.93 160.5 226.45 226.92"/><path class="cls-5" d="M209.12,128.74h0l-18.28-15.88-7.22-63.53,20.7,13.48Z"/><path class="cls-6" d="M209.11,128.73c-.54-.28-22.23-11.47-29.83-5.77-5.21,3.91-7.33,10.23-7,16.3a22.1,22.1,0,0,1-1.69-4.27c-5.3-18.77,20.21-22.14,20.21-22.14Z"/><polyline class="cls-7" points="171.1 217.78 186.02 228.85 226.45 226.92 210.56 216.82"/><path class="cls-6" d="M60.88,148l-.15,9.84c-6.74-.67-20.19-2.9-25.84-10.32C27.19,137.4,31,124.89,31,124.89,31.52,143.18,60.88,148,60.88,148Z"/><path class="cls-8" d="M132.62,229.89,79.41,229,59.92,213l59.31,2.4h.37l0-.22c.26-2,2.46-16.42,11.16-24C122.38,198.68,120,213,119.66,215.8l-.06.48Z"/><polyline class="cls-9" points="133.63 229.91 133.34 229.91 132.62 229.89"/><path class="cls-10" d="M140,186.44l-.89.48a24.75,24.75,0,0,0-10.21,11.38c-5.56,11.8,0,24.41,2.26,28.79.49.92.83,1.47.9,1.59l-1.52-1.58-10.83-11.3-.43-.44-.48-.51s1-15.65,8.83-23.75l.3-.3q.19-.2.39-.36a14.46,14.46,0,0,1,9.08-4h.13l.52,0h.3C138.85,186.38,139.41,186.39,140,186.44Z"/><path class="cls-10" d="M55.8,70.77,72.94,58.23l5.85,5s3.76-5.85,7.11-2.51-1.26,8-1.26,8l6.69,5.85L85.48,80.8s-3.35-4.18-6.69-.84,0,5.43,0,5.43l-7.52,6.27L55.39,75.78"/><polyline class="cls-11" points="70.85 65.75 70.1 72.45 63.81 70.86"/><line class="cls-11" x1="67.51" y1="77.04" x2="70.85" y2="80.38"/><path class="cls-12" d="M169,90.07l-27.8,21.82h0a19.7,19.7,0,0,1-7.59-6.55,19.44,19.44,0,0,1-2-3.71l29.73-23.16a19.6,19.6,0,0,1,5.82,6.65A19.23,19.23,0,0,1,169,90.07Z"/><path class="cls-13" d="M156.56,76.07l-25.5,19.51v0a19.8,19.8,0,0,1,.82-6.47l18.43-13.87A19.9,19.9,0,0,1,156.56,76.07Z"/><path class="cls-13" d="M161.78,79.31l-29.73,23.16a18.42,18.42,0,0,1-1-3.06l28.19-21.63A19.78,19.78,0,0,1,161.78,79.31Z"/><path class="cls-13" d="M169,99.74c-.09.37-.18.72-.29,1.08h0l-.4.33L153.09,113.6l-1.23,1c-.37,0-.75.06-1.12.08l1.12-.92L168.66,100h0Z"/><line class="cls-14" x1="159.91" y1="112.18" x2="159.88" y2="112.14"/><line class="cls-14" x1="165.91" y1="108.3" x2="165.73" y2="107.96"/><path class="cls-12" d="M159.29,77.36,131.1,99a19,19,0,0,1-.45-3.41l25.5-19.51A19.18,19.18,0,0,1,159.29,77.36Z"/><path class="cls-12" d="M149.9,75.61,131.47,89.48a19.68,19.68,0,0,1,18-13.86Z"/><path class="cls-12" d="M168.66,101c-.12.4-.25.79-.4,1.17a19.61,19.61,0,0,1-15.17,12.44c-.41.07-.82.13-1.23.17Z"/><line class="cls-15" x1="141.07" y1="85.05" x2="149.01" y2="79.62"/><line class="cls-15" x1="144.79" y1="90.68" x2="148.17" y2="87.98"/><line class="cls-15" x1="135.35" y1="97.93" x2="139.71" y2="94.35"/><ellipse class="cls-16" cx="150.6" cy="94.94" rx="19.53" ry="19.75" transform="translate(-5.9 10.07) rotate(-3.76)"/><polyline class="cls-17" points="167.04 108.3 179.28 122.96 173.38 126.77 161.55 112.18"/><path class="cls-18" d="M172.64,217.08v0l35.17-.64-.21-.94-12.23-54s-1.41-7.49-5.6-7.82-23-.35-28.83.6-4,8-4,8l6.32,34.71"/><path class="cls-19" d="M147.75,75.61a9.27,9.27,0,0,1,5.93-.29c3.65.87,4.1,1.6,4.1,1.6"/><line class="cls-20" x1="167.14" y1="110.89" x2="174.25" y2="119.25"/><path class="cls-21" d="M170.73,211.29l25.62-2.3-.86-9.77s-8.49.47-9-4.28,7.68-5.2,7.68-5.2l-1-9.51-11.46,1.51s1.45-6.06-1.14-8-7.35-1.85-8.08,1.17,1.67,6.49,1.67,6.49l-8.08,1.17,1.29,9.48c9.5-.58,9.57,2.86,9.6,3.85.7,3.62-8.73,4.93-8.73,4.93h0Z"/><polyline class="cls-22" points="183.28 165.22 184.95 157.7 188.29 165.64"/><line class="cls-23" x1="186.25" y1="160.78" x2="184.25" y2="160.87"/><polygon class="cls-24" points="185.81 167.47 183.77 171.55 186.84 174.28 189.22 170.19 185.81 167.47"/><polyline class="cls-25" points="160.58 180.56 155.36 168.49 148.52 152.65"/><polygon class="cls-1" points="111.02 169.7 91.58 178.54 84.04 160.26 103.52 151.67 111.02 169.7"/><polygon class="cls-1" points="118.19 186.94 98.73 195.89 91.58 178.54 111.02 169.7 118.19 186.94"/><polygon class="cls-1" points="148.52 152.65 132 160.16 124.55 142.38 141.08 135.09 148.52 152.65"/><line class="cls-26" x1="124.55" y1="142.38" x2="103.52" y2="151.67"/><line class="cls-26" x1="132" y1="160.17" x2="132" y2="160.16"/><polygon class="cls-1" points="139.16 177.29 118.19 186.94 111.02 169.7 132 160.17 139.16 177.29"/><line class="cls-26" x1="155.72" y1="169.66" x2="139.16" y2="177.29"/><line class="cls-26" x1="124.3" y1="201.64" x2="118.19" y2="186.94"/><line class="cls-26" x1="143.01" y1="186.48" x2="139.16" y2="177.29"/><line class="cls-26" x1="132" y1="160.17" x2="132" y2="160.16"/><line class="cls-27" x1="135.2" y1="164.43" x2="138.92" y2="163.36"/><path class="cls-27" d="M135,161.89a20.37,20.37,0,0,0,1.17-1.78c.59-1,1,4.06,1,4.06"/><line class="cls-28" x1="156.68" y1="190.89" x2="161.73" y2="188.97"/><ellipse class="cls-27" cx="145" cy="165.81" rx="4.72" ry="4.84"/><polyline class="cls-29" points="147.11 180.15 151.3 178.48 155.49 176.8"/><line class="cls-30" x1="153.99" y1="185.56" x2="151.3" y2="178.48"/><polyline class="cls-26" points="119.68 207.66 106.4 214.5 98.73 195.89"/><polygon class="cls-26" points="45.62 142.47 56 125.41 73.42 133.94 63.78 151.74 45.62 142.47"/><polyline class="cls-26" points="63.78 151.74 78.98 150.25 87.51 132.83 73.42 133.94"/><polyline class="cls-26" points="56 125.41 72.31 124.3 87.51 132.83"/><ellipse class="cls-31" cx="59.63" cy="138.2" rx="1.26" ry="1.39"/><ellipse class="cls-31" cx="81.55" cy="137.42" rx="1.26" ry="1.39"/><ellipse class="cls-31" cx="76.55" cy="142.42" rx="1.26" ry="1.39"/><ellipse class="cls-31" cx="71.55" cy="146.42" rx="1.26" ry="1.39"/><ellipse class="cls-31" cx="77.55" cy="130.42" rx="1.26" ry="1.39"/><ellipse class="cls-31" cx="66.55" cy="127.42" rx="1.26" ry="1.39"/></g></svg>