<svg xmlns="http://www.w3.org/2000/svg" xmlns:xlink="http://www.w3.org/1999/xlink" viewBox="0 0 413.27 276.44"><defs><style>.cls-1,.cls-10,.cls-17,.cls-24,.cls-31,.cls-6{fill:#231f20;}.cls-1,.cls-10,.cls-14,.cls-16,.cls-17,.cls-18,.cls-2,.cls-21,.cls-22,.cls-23,.cls-24,.cls-25,.cls-26,.cls-27,.cls-28,.cls-29,.cls-3,.cls-30,.cls-31,.cls-4,.cls-5,.cls-6,.cls-7,.cls-8,.cls-9{stroke:#231f20;}.cls-1,.cls-10,.cls-18,.cls-2,.cls-22,.cls-25,.cls-26,.cls-27,.cls-28,.cls-3,.cls-30,.cls-31,.cls-4,.cls-5,.cls-6,.cls-7,.cls-8,.cls-9{stroke-miterlimit:10;}.cls-1,.cls-21,.cls-26{stroke-width:0.5px;}.cls-13,.cls-2{fill:#fff;}.cls-2,.cls-3,.cls-4,.cls-5,.cls-6,.cls-7{stroke-width:0.78px;}.cls-11,.cls-14,.cls-15,.cls-16,.cls-19,.cls-20,.cls-22,.cls-23,.cls-25,.cls-26,.cls-27,.cls-28,.cls-29,.cls-3,.cls-30,.cls-9{fill:none;}.cls-4{fill:url(#linear-gradient);}.cls-5{fill:url(#linear-gradient-2);}.cls-7{fill:url(#linear-gradient-3);}.cls-8,.cls-9{stroke-width:0.76px;}.cls-8{fill:url(#linear-gradient-4);}.cls-10{stroke-width:0.7px;}.cls-11,.cls-19,.cls-20{stroke:#fff;}.cls-11,.cls-14,.cls-15,.cls-16,.cls-17,.cls-19,.cls-20,.cls-21,.cls-23,.cls-24,.cls-29,.cls-30{stroke-linecap:round;}.cls-11,.cls-14,.cls-15,.cls-16,.cls-17,.cls-19,.cls-20,.cls-21,.cls-23,.cls-24,.cls-29{stroke-linejoin:round;}.cls-11{stroke-width:1.5px;}.cls-12,.cls-21{fill:#aadfed;}.cls-14{stroke-width:0.86px;}.cls-15{stroke:#414042;stroke-width:0.7px;}.cls-16{stroke-width:4px;}.cls-17{stroke-width:0.77px;}.cls-18,.cls-27,.cls-29,.cls-30{stroke-width:0.75px;}.cls-18{fill:url(#linear-gradient-5);}.cls-19{stroke-width:0.43px;}.cls-25{stroke-width:0.47px;}.cls-28{stroke-width:0.51px;}.cls-31{stroke-width:0.06px;}</style><linearGradient id="linear-gradient" x1="365.74" y1="200.55" x2="393.18" y2="200.55" gradientUnits="userSpaceOnUse"><stop offset="0.17" stop-color="#c2b59b"/><stop offset="0.39" stop-color="#bdae96"/><stop offset="0.71" stop-color="#ae9c89"/><stop offset="1" stop-color="#9b8579"/></linearGradient><linearGradient id="linear-gradient-2" x1="350.34" y1="101.4" x2="375.85" y2="101.4" xlink:href="#linear-gradient"/><linearGradient id="linear-gradient-3" x1="340" y1="235.21" x2="394.82" y2="235.21" xlink:href="#linear-gradient"/><linearGradient id="linear-gradient-4" x1="226.65" y1="222.89" x2="299.35" y2="222.89" gradientUnits="userSpaceOnUse"><stop offset="0.17" stop-color="#c2b59b"/><stop offset="0.31" stop-color="#bdae96"/><stop offset="0.52" stop-color="#ae9c89"/><stop offset="0.71" stop-color="#9b8579"/></linearGradient><linearGradient id="linear-gradient-5" x1="330.71" y1="183.9" x2="372.92" y2="216.96" gradientTransform="translate(-4.06 7.3) rotate(-1.2)" gradientUnits="userSpaceOnUse"><stop offset="0" stop-color="#e6e7e8"/><stop offset="0.42" stop-color="#fff"/><stop offset="0.56" stop-color="#f8f9f9"/><stop offset="0.76" stop-color="#e6e7e7"/><stop offset="0.93" stop-color="#d1d3d4"/></linearGradient></defs><g id="Layer_2" data-name="Layer 2"><circle class="cls-1" cx="226.36" cy="150.58" r="2.04"/></g><g id="Layer_3" data-name="Layer 3"><path class="cls-2" d="M377.29,229.19l-8.06.2-31.4.76s-6.32-28.88-25.51-31.16h0c-.63-.07-1.27-.11-1.92-.13h-.65c-.26,0-.51,0-.76,0a19,19,0,0,0-3.19.41l.89-.48c-.54-.05-1.1-.06-1.65-.06h-.3l-.52,0h-.13a14.46,14.46,0,0,0-9.08,4q-.19.16-.39.36l-.3.3c-7.8,8.1-8.83,23.75-8.83,23.75l.48.51-59.31-2.4.81-55.13.15-9.84s-29.36-4.81-29.84-23.1,25-19.26,25-19.26l-1-58.72,128.51,2.41,7.22,63.53s-25.51,3.37-20.21,22.14a22.1,22.1,0,0,0,1.69,4.27h0c7.34,13.79,26.7,10.16,26.7,10.16Z"/><path class="cls-3" d="M306.68,198.81l-.89.48a18.07,18.07,0,0,0-7.45,3.53c-.15.12-.31.24-.46.38l-.36.31c-8.7,7.59-10.9,22.06-11.16,24l0,.22H286l-.48-.51s1-15.65,8.83-23.75l.3-.3q.19-.19.39-.36a14.46,14.46,0,0,1,9.08-4h.13l.52,0h.3C305.58,198.75,306.14,198.76,306.68,198.81Z"/><polygon class="cls-4" points="393.18 239.29 377.29 229.19 365.74 161.8 380.66 172.87 393.18 239.29"/><path class="cls-5" d="M375.85,141.11h0l-18.28-15.88-7.22-63.53L371,75.17Z"/><path class="cls-6" d="M375.84,141.1c-.54-.28-22.23-11.47-29.83-5.77-5.21,3.91-7.33,10.23-7,16.3a22.1,22.1,0,0,1-1.69-4.27c-5.3-18.77,20.21-22.14,20.21-22.14Z"/><polyline class="cls-7" points="337.83 230.15 352.75 241.22 393.18 239.29 377.29 229.19"/><path class="cls-6" d="M227.61,160.36l-.15,9.84c-6.74-.67-20.19-2.9-25.84-10.32-7.7-10.11-3.85-22.62-3.85-22.62C198.25,155.55,227.61,160.36,227.61,160.36Z"/><path class="cls-8" d="M299.35,242.26l-53.21-.92-19.49-16,59.31,2.4h.37l0-.22c.26-2,2.46-16.42,11.16-24-8.41,7.54-10.75,21.87-11.13,24.66l-.06.48Z"/><polyline class="cls-9" points="300.36 242.28 300.07 242.28 299.35 242.26"/><path class="cls-10" d="M306.68,198.81l-.89.48a24.75,24.75,0,0,0-10.21,11.38c-5.56,11.8,0,24.41,2.26,28.79.49.92.83,1.47.9,1.59l-1.52-1.58-10.83-11.3-.43-.44-.48-.51s1-15.65,8.83-23.75l.3-.3q.19-.19.39-.36a14.46,14.46,0,0,1,9.08-4h.13l.52,0h.3C305.58,198.75,306.14,198.76,306.68,198.81Z"/><path class="cls-10" d="M222.54,83.14,239.67,70.6l5.85,5s3.77-5.86,7.11-2.51-1.25,7.94-1.25,7.94l6.68,5.85-5.85,6.27s-3.34-4.18-6.69-.84,0,5.44,0,5.44L238,104,222.12,88.15"/><polyline class="cls-11" points="237.58 78.12 236.83 84.82 230.54 83.23"/><line class="cls-11" x1="234.24" y1="89.41" x2="237.58" y2="92.75"/><path class="cls-12" d="M335.75,102.44,308,124.26h0a19.7,19.7,0,0,1-7.59-6.55,19.44,19.44,0,0,1-2-3.71l29.73-23.16a19.6,19.6,0,0,1,5.82,6.65A19.23,19.23,0,0,1,335.75,102.44Z"/><path class="cls-13" d="M323.3,88.44,297.8,108v0a19.8,19.8,0,0,1,.82-6.47l18.43-13.87A19.9,19.9,0,0,1,323.3,88.44Z"/><path class="cls-13" d="M328.51,91.68l-29.73,23.16a18.42,18.42,0,0,1-.95-3.06L326,90.15A19.78,19.78,0,0,1,328.51,91.68Z"/><path class="cls-13" d="M335.68,112.11c-.09.37-.18.72-.29,1.08h0l-.4.33L319.82,126l-1.23,1c-.37,0-.75.06-1.12.08l1.12-.92,16.8-13.78h0Z"/><line class="cls-14" x1="326.64" y1="124.55" x2="326.61" y2="124.51"/><line class="cls-14" x1="332.64" y1="120.67" x2="332.46" y2="120.33"/><path class="cls-12" d="M326,89.73l-28.19,21.63a19,19,0,0,1-.45-3.41l25.5-19.51A19.18,19.18,0,0,1,326,89.73Z"/><path class="cls-12" d="M316.63,88,298.2,101.85a19.68,19.68,0,0,1,18-13.86Z"/><path class="cls-12" d="M335.39,113.36c-.12.4-.25.79-.4,1.17A19.61,19.61,0,0,1,319.82,127c-.41.07-.82.13-1.23.17Z"/><line class="cls-15" x1="307.8" y1="97.42" x2="315.74" y2="91.99"/><line class="cls-15" x1="311.52" y1="103.05" x2="314.9" y2="100.35"/><line class="cls-15" x1="302.08" y1="110.3" x2="306.44" y2="106.72"/><ellipse class="cls-16" cx="317.33" cy="107.31" rx="19.53" ry="19.75" transform="translate(-6.35 21.02) rotate(-3.76)"/><polyline class="cls-17" points="333.77 120.67 346.01 135.33 340.11 139.14 328.28 124.55"/><path class="cls-18" d="M339.38,229.45v0l35.16-.63-.21-1-12.23-54s-1.41-7.49-5.59-7.82-23-.35-28.84.6-4,8-4,8l6.33,34.7"/><path class="cls-19" d="M314.49,88a9.17,9.17,0,0,1,5.92-.29c3.65.87,4.11,1.59,4.11,1.59"/><line class="cls-20" x1="333.88" y1="123.26" x2="340.98" y2="131.62"/><path class="cls-21" d="M337.47,223.66l25.61-2.3-.85-9.77s-8.5.48-9-4.28,7.68-5.2,7.68-5.2L360,192.6l-11.46,1.51s1.44-6.06-1.14-8-7.36-1.85-8.08,1.18,1.67,6.48,1.67,6.48l-8.08,1.17,1.28,9.48c9.5-.57,9.58,2.87,9.6,3.85.7,3.63-8.73,4.93-8.73,4.93h0Z"/><polyline class="cls-22" points="350.01 177.6 351.69 170.07 355.03 178.01"/><line class="cls-23" x1="352.98" y1="173.15" x2="350.98" y2="173.24"/><polygon class="cls-24" points="352.55 179.84 350.51 183.92 353.57 186.65 355.95 182.56 352.55 179.84"/><polyline class="cls-25" points="327.31 192.93 322.1 180.86 315.25 165.02"/><polygon class="cls-1" points="277.75 182.07 258.31 190.91 250.77 172.63 270.25 164.04 277.75 182.07"/><polygon class="cls-1" points="284.92 199.31 265.46 208.26 258.31 190.91 277.75 182.07 284.92 199.31"/><polygon class="cls-1" points="315.25 165.02 298.73 172.53 291.28 154.75 307.81 147.46 315.25 165.02"/><line class="cls-26" x1="291.28" y1="154.75" x2="270.25" y2="164.04"/><line class="cls-26" x1="298.73" y1="172.54" x2="298.73" y2="172.53"/><polygon class="cls-1" points="305.89 189.66 284.92 199.31 277.75 182.07 298.73 172.54 305.89 189.66"/><line class="cls-26" x1="322.45" y1="182.03" x2="305.89" y2="189.66"/><line class="cls-26" x1="291.03" y1="214.01" x2="284.92" y2="199.31"/><line class="cls-26" x1="309.74" y1="198.85" x2="305.89" y2="189.66"/><line class="cls-26" x1="298.73" y1="172.54" x2="298.73" y2="172.53"/><line class="cls-27" x1="301.93" y1="176.8" x2="305.65" y2="175.73"/><path class="cls-27" d="M301.74,174.26a16.63,16.63,0,0,0,1.17-1.78c.59-1,1,4.07,1,4.07"/><line class="cls-28" x1="323.41" y1="203.26" x2="328.46" y2="201.35"/><ellipse class="cls-27" cx="311.73" cy="178.19" rx="4.72" ry="4.84"/><polyline class="cls-29" points="313.84 192.53 318.03 190.85 322.23 189.17"/><line class="cls-30" x1="320.72" y1="197.94" x2="318.03" y2="190.85"/><polyline class="cls-26" points="286.41 220.03 273.13 226.87 265.46 208.26"/><polygon class="cls-26" points="212.35 154.84 222.73 137.78 240.16 146.31 230.52 164.11 212.35 154.84"/><polyline class="cls-26" points="230.52 164.11 245.72 162.63 254.25 145.2 240.16 146.31"/><polyline class="cls-26" points="222.73 137.78 239.04 136.67 254.25 145.2"/><ellipse class="cls-31" cx="226.36" cy="150.58" rx="1.26" ry="1.39"/><ellipse class="cls-31" cx="248.29" cy="149.8" rx="1.26" ry="1.39"/><ellipse class="cls-31" cx="243.29" cy="154.8" rx="1.26" ry="1.39"/><ellipse class="cls-31" cx="238.29" cy="158.8" rx="1.26" ry="1.39"/><ellipse class="cls-31" cx="244.29" cy="142.8" rx="1.26" ry="1.39"/><ellipse class="cls-31" cx="233.29" cy="139.8" rx="1.26" ry="1.39"/></g></svg>