<svg xmlns="http://www.w3.org/2000/svg" viewBox="0 0 200.87 187.14"><defs><style>.cls-1,.cls-2{fill:#aadfed;}.cls-1,.cls-2,.cls-3,.cls-4,.cls-5,.cls-6,.cls-7,.cls-8{stroke:#231f20;stroke-miterlimit:10;}.cls-2,.cls-4,.cls-6,.cls-8{stroke-width:0.96px;}.cls-3,.cls-4{fill:#f8abad;}.cls-5,.cls-6{fill:#faf6b8;}.cls-7,.cls-8{fill:#fff;}</style></defs><g id="Layer_6" data-name="Layer 6"><rect class="cls-1" x="44.42" y="78.85" width="22.15" height="23.26" rx="4.46"/><rect class="cls-2" x="47.41" y="82.66" width="15.85" height="15.58" rx="3.22"/><rect class="cls-1" x="43.56" y="55.04" width="22.15" height="23.26" rx="4.46"/><rect class="cls-2" x="46.54" y="58.84" width="15.85" height="15.58" rx="3.22"/><rect class="cls-1" x="43.17" y="30.9" width="22.15" height="23.26" rx="4.46"/><rect class="cls-2" x="46.15" y="34.71" width="15.85" height="15.58" rx="3.22"/><rect class="cls-1" x="44.54" y="103.16" width="22.15" height="23.26" rx="4.46"/><rect class="cls-2" x="47.53" y="106.97" width="15.85" height="15.58" rx="3.22"/><rect class="cls-3" x="44.94" y="127.69" width="22.15" height="23.26" rx="4.46"/><rect class="cls-4" x="47.92" y="131.5" width="15.85" height="15.58" rx="3.22"/><rect class="cls-3" x="67.93" y="127.23" width="22.15" height="23.26" rx="4.46"/><rect class="cls-4" x="70.91" y="131.04" width="15.85" height="15.58" rx="3.22"/><rect class="cls-3" x="91.09" y="127.03" width="22.15" height="23.26" rx="4.46"/><rect class="cls-4" x="94.07" y="130.84" width="15.85" height="15.58" rx="3.22"/><rect class="cls-3" x="90.92" y="102.86" width="22.15" height="23.26" rx="4.46"/><rect class="cls-4" x="93.91" y="106.67" width="15.85" height="15.58" rx="3.22"/><rect class="cls-5" x="68.1" y="102.2" width="22.15" height="23.26" rx="4.46"/><rect class="cls-6" x="71.08" y="106.01" width="15.85" height="15.58" rx="3.22"/><rect class="cls-5" x="67.99" y="77.87" width="22.15" height="23.26" rx="4.46"/><rect class="cls-6" x="70.98" y="81.67" width="15.85" height="15.58" rx="3.22"/><rect class="cls-5" x="91.45" y="76.94" width="22.15" height="23.26" rx="4.46"/><rect class="cls-6" x="94.43" y="80.75" width="15.85" height="15.58" rx="3.22"/><rect class="cls-5" x="90.27" y="52.43" width="22.15" height="23.26" rx="4.46"/><rect class="cls-6" x="93.25" y="56.24" width="15.85" height="15.58" rx="3.22"/><rect class="cls-7" x="114.37" y="125.85" width="22.15" height="23.26" rx="4.46"/><rect class="cls-8" x="117.36" y="129.66" width="15.85" height="15.58" rx="3.22"/><rect class="cls-7" x="115" y="102.2" width="22.15" height="23.26" rx="4.46"/><rect class="cls-8" x="117.99" y="106.01" width="15.85" height="15.58" rx="3.22"/><rect class="cls-7" x="138.81" y="100.86" width="22.15" height="23.26" rx="4.46"/><rect class="cls-8" x="141.79" y="104.67" width="15.85" height="15.58" rx="3.22"/><rect class="cls-7" x="115" y="77.37" width="22.15" height="23.26" rx="4.46"/><rect class="cls-8" x="117.99" y="81.18" width="15.85" height="15.58" rx="3.22"/></g></svg>