<svg xmlns="http://www.w3.org/2000/svg" viewBox="0 0 200.87 187.14"><defs><style>.cls-1{fill:#aadfed;}.cls-1,.cls-2,.cls-3,.cls-4,.cls-5{stroke:#231f20;}.cls-1,.cls-2,.cls-3{stroke-miterlimit:10;}.cls-1,.cls-2,.cls-3,.cls-4{stroke-width:2.39px;}.cls-2{fill:#231f20;}.cls-3,.cls-4,.cls-5{fill:none;}.cls-4,.cls-5{stroke-linecap:round;stroke-linejoin:round;}.cls-5{stroke-width:2.03px;}</style></defs><g id="Layer_6" data-name="Layer 6"><path class="cls-1" d="M117.61,79.09a32.64,32.64,0,0,1-8.64,22.1l-.41.43a34.4,34.4,0,0,1-22.63,10.65c-.83.06-1.69.1-2.55.1-18.91,0-34.24-14.91-34.24-33.28S64.47,45.81,83.38,45.81,117.61,60.71,117.61,79.09Z"/><path class="cls-2" d="M160.35,150.53a10,10,0,0,1-13.86,0l-29.08-28.27a9.34,9.34,0,0,1-.15-13.32,1.1,1.1,0,0,1,.15-.16,10,10,0,0,1,13.87,0l29.07,28.27A9.33,9.33,0,0,1,160.35,150.53Z"/><polyline class="cls-3" points="108.56 101.62 117.26 108.94 119.64 110.95"/><line class="cls-4" x1="85.93" y1="112.26" x2="85.93" y2="121.02"/><line class="cls-4" x1="92.6" y1="121.02" x2="78.58" y2="121.02"/><line class="cls-4" x1="65.17" y1="107.65" x2="60.53" y2="115.16"/><line class="cls-4" x1="66.25" y1="118.5" x2="54.23" y2="111.49"/><line class="cls-4" x1="50.36" y1="92.02" x2="41.46" y2="93.44"/><line class="cls-4" x1="42.55" y1="99.85" x2="40.27" y2="86.4"/><line class="cls-4" x1="50.38" y1="65.46" x2="42.17" y2="61.86"/><line class="cls-4" x1="39.42" y1="67.77" x2="45.19" y2="55.35"/><line class="cls-4" x1="74.12" y1="45.71" x2="71.57" y2="37.31"/><line class="cls-4" x1="65.17" y1="39.15" x2="78.62" y2="35.29"/><line class="cls-4" x1="101.89" y1="49.29" x2="105.96" y2="41.47"/><line class="cls-4" x1="100" y1="38.54" x2="112.51" y2="44.69"/><line class="cls-4" x1="115.44" y1="64.82" x2="123.4" y2="60.7"/><line class="cls-4" x1="120.25" y1="54.97" x2="126.85" y2="67"/><line class="cls-4" x1="116.61" y1="89.83" x2="124.82" y2="93.43"/><line class="cls-4" x1="127.57" y1="87.51" x2="121.81" y2="99.93"/><polyline class="cls-5" points="64.23 86.3 70.25 71.05 78.19 95.71 85.65 59.37 92.64 84.03 103.95 83.7"/></g></svg>