<svg xmlns="http://www.w3.org/2000/svg" xmlns:xlink="http://www.w3.org/1999/xlink" viewBox="0 0 141.46 188.36"><defs><style>.cls-1,.cls-21,.cls-5{fill:none;}.cls-10,.cls-18,.cls-2,.cls-22,.cls-23{fill:#fff;}.cls-2,.cls-21,.cls-22,.cls-23,.cls-3,.cls-5,.cls-6{stroke:#231f20;}.cls-2,.cls-23,.cls-3,.cls-4,.cls-5,.cls-6{stroke-miterlimit:10;}.cls-2{stroke-width:1.06px;}.cls-3{fill:#231f20;stroke-width:1.06px;}.cls-4{fill:#a7a9ac;stroke:#414042;stroke-width:1px;}.cls-5{stroke-width:0.99px;}.cls-6{fill:#d1d3d4;stroke-width:1px;}.cls-7{fill:#8f9ec2;}.cls-8{clip-path:url(#clip-path);}.cls-9{clip-path:url(#clip-path-2);}.cls-11,.cls-17{fill:#0d1e3f;}.cls-12{fill:#475778;}.cls-13{fill:#ffc73e;}.cls-14{clip-path:url(#clip-path-3);}.cls-15{fill:#e93938;}.cls-16{fill:#f99b1c;}.cls-17{opacity:0.3;isolation:isolate;}.cls-18{font-size:5.2px;font-family:Calibre-Regular, Calibre;}.cls-19{letter-spacing:0em;}.cls-20{letter-spacing:-0.01em;}.cls-21,.cls-22{stroke-linecap:round;stroke-linejoin:round;}.cls-21{stroke-width:1.02px;}.cls-22{stroke-width:0.72px;}.cls-23{stroke-width:0.51px;}</style><clipPath id="clip-path"><rect class="cls-1" x="37.14" y="28.22" width="72.86" height="141.28" rx="7.37"/></clipPath><clipPath id="clip-path-2"><rect class="cls-1" x="37.14" y="26.35" width="74.71" height="142.56"/></clipPath><clipPath id="clip-path-3"><rect class="cls-1" x="49.38" y="46.4" width="53.13" height="60.59"/></clipPath></defs><g id="Layer_4" data-name="Layer 4"><path class="cls-2" d="M105.25,11.3H40.55a13.19,13.19,0,0,0-13,13.4V161.85a13.18,13.18,0,0,0,13,13.4h64.7a13.19,13.19,0,0,0,13-13.4V24.7A13.2,13.2,0,0,0,105.25,11.3ZM115,158.4A12.67,12.67,0,0,1,110.7,168a11.88,11.88,0,0,1-7.9,3H43.14a13.55,13.55,0,0,1-1.43-.08h0A12.43,12.43,0,0,1,31,158.4V27.83a12.63,12.63,0,0,1,4.83-10,11.79,11.79,0,0,1,7.33-2.55H102.8c.38,0,.76,0,1.14.05h0a12.44,12.44,0,0,1,11,12.52Z"/><path class="cls-3" d="M111.38,163.48a23.15,23.15,0,0,1-.68,4.45,11.85,11.85,0,0,1-7.9,3H43.14a13.55,13.55,0,0,1-1.43-.08h0a16.3,16.3,0,0,1-5.59-7.34c-3.68-8.94-1.23-141.33-1.23-141.33a21,21,0,0,1,.94-5.38,11.74,11.74,0,0,1,7.33-2.56H102.8c.38,0,.76,0,1.14.05h0a16,16,0,0,1,6.31,7.83C113.94,31.1,111.38,163.48,111.38,163.48Z"/><path class="cls-4" d="M41.69,170.88A12.48,12.48,0,0,1,31,158.31V26.89A12.79,12.79,0,0,1,35.81,16.8a21,21,0,0,0-.94,5.38S32.42,154.6,36.1,163.54A16.3,16.3,0,0,0,41.69,170.88Z"/><path class="cls-5" d="M42.64,176.63h0"/><path class="cls-6" d="M115,26.92V158.33A12.79,12.79,0,0,1,110.7,168a23.15,23.15,0,0,0,.68-4.45s2.56-132.4-1.11-141.34A16,16,0,0,0,104,14.32,12.48,12.48,0,0,1,115,26.92Z"/><polyline class="cls-5" points="103.94 15.31 103.95 15.31 103.96 15.31"/><rect class="cls-7" x="41.11" y="23.98" width="63.57" height="133.24" rx="3.95"/><g class="cls-8"><g class="cls-9"><rect class="cls-10" x="37.14" y="26.35" width="74.71" height="142.56"/><path class="cls-11" d="M44.94,145.48l-.37-1s0-.07,0-.11l0-.13-.07.24-.38,1Zm.67.94h-.25a.08.08,0,0,1-.07,0,.15.15,0,0,1,0-.06l-.22-.61H44l-.22.61,0,.06a.09.09,0,0,1-.07,0h-.25l.95-2.56h.33ZM46.87,145a.93.93,0,0,1,.2-.29.4.4,0,0,1,.28-.1h.11l.08,0,0,.24s0,0-.05,0H47.3l-.14,0-.11.08a.62.62,0,0,0-.09.12s-.05.1-.07.16v1.14h-.3v-1.8h.17a.07.07,0,0,1,.09.09Zm2,.34a.64.64,0,0,0,0-.2.8.8,0,0,0-.08-.16.5.5,0,0,0-.14-.1.48.48,0,0,0-.18,0,.46.46,0,0,0-.34.14.66.66,0,0,0-.15.36Zm.24.85a.8.8,0,0,1-.13.13l-.16.08-.18.05-.19,0a.87.87,0,0,1-.32-.06.79.79,0,0,1-.25-.19.74.74,0,0,1-.17-.3,1.31,1.31,0,0,1-.06-.41,1.36,1.36,0,0,1,0-.36.85.85,0,0,1,.16-.28.79.79,0,0,1,.25-.19.66.66,0,0,1,.32-.07.61.61,0,0,1,.28.06.57.57,0,0,1,.23.15.65.65,0,0,1,.14.26.9.9,0,0,1,.06.34.22.22,0,0,1,0,.1l0,0H47.93a2,2,0,0,0,0,.3.82.82,0,0,0,.11.21.52.52,0,0,0,.17.13.51.51,0,0,0,.22,0,.58.58,0,0,0,.19,0l.14-.06.09-.06.07,0s0,0,.06,0Zm1-.63a.33.33,0,0,0,.15,0,.24.24,0,0,0,.12-.07.41.41,0,0,0,.07-.11.77.77,0,0,0,0-.15.32.32,0,0,0-.36-.36.41.41,0,0,0-.28.09.4.4,0,0,0-.09.27.77.77,0,0,0,0,.15.41.41,0,0,0,.07.11.24.24,0,0,0,.12.07A.38.38,0,0,0,50.08,145.54Zm.53,1a.15.15,0,0,0,0-.11l-.09-.06a.49.49,0,0,0-.14,0l-.16,0H50l-.17,0a.61.61,0,0,0-.15.12.25.25,0,0,0-.06.17.23.23,0,0,0,0,.11l.09.09a.52.52,0,0,0,.15.06l.21,0,.21,0a.48.48,0,0,0,.16-.07.24.24,0,0,0,.1-.1A.2.2,0,0,0,50.61,146.52Zm.3-1.83v.12s0,.06-.07.07l-.19,0a.55.55,0,0,1,.06.26.6.6,0,0,1-.05.24.59.59,0,0,1-.13.18.67.67,0,0,1-.2.12.69.69,0,0,1-.25,0,.85.85,0,0,1-.23,0l-.08.08a.11.11,0,0,0,0,.08.14.14,0,0,0,0,.1l.13,0,.18,0h.21l.21,0a.48.48,0,0,1,.18.06.27.27,0,0,1,.13.13.39.39,0,0,1,.05.2.54.54,0,0,1-.05.22.62.62,0,0,1-.16.2.84.84,0,0,1-.25.13.82.82,0,0,1-.33,0,1.51,1.51,0,0,1-.32,0,1,1,0,0,1-.23-.11.66.66,0,0,1-.14-.15.39.39,0,0,1,0-.18.36.36,0,0,1,.08-.23.57.57,0,0,1,.21-.15.24.24,0,0,1-.16-.25.19.19,0,0,1,0-.08.36.36,0,0,1,0-.09l.07-.08a.47.47,0,0,1,.09-.06.52.52,0,0,1-.19-.2.57.57,0,0,1-.07-.29.61.61,0,0,1,0-.24.62.62,0,0,1,.14-.18.56.56,0,0,1,.2-.12.71.71,0,0,1,.26,0l.2,0,.17.08Zm.62-.07v1.8h-.3v-1.8Zm.06-.57a.29.29,0,0,1,0,.09.25.25,0,0,1,0,.07l-.07,0-.08,0-.09,0-.06,0,0-.07a.41.41,0,0,1,0-.18l0-.07.06,0,.09,0,.08,0,.07,0a.25.25,0,0,1,0,.07A.29.29,0,0,1,51.59,144.05Zm1.4.87a.06.06,0,0,1-.06,0h-.06l-.07-.05-.11,0a.34.34,0,0,0-.15,0,.32.32,0,0,0-.14,0l-.1.05a.18.18,0,0,0-.06.09.16.16,0,0,0,0,.1.2.2,0,0,0,0,.11.25.25,0,0,0,.1.08l.14.07.16.05.16.06.14.09a.5.5,0,0,1,.1.14.48.48,0,0,1,0,.18.85.85,0,0,1,0,.23.59.59,0,0,1-.13.19.56.56,0,0,1-.2.12.73.73,0,0,1-.27,0,.83.83,0,0,1-.32-.06.78.78,0,0,1-.24-.16l.07-.12s0,0,0,0l0,0a.09.09,0,0,1,.06,0l.08,0,.12.06a.42.42,0,0,0,.17,0,.39.39,0,0,0,.15,0,.41.41,0,0,0,.11-.07.2.2,0,0,0,.06-.09.43.43,0,0,0,0-.11.2.2,0,0,0,0-.13.27.27,0,0,0-.1-.08l-.14-.06-.16-.06-.16-.06-.14-.09a.71.71,0,0,1-.1-.14.54.54,0,0,1,0-.2.58.58,0,0,1,0-.19.52.52,0,0,1,.12-.17.52.52,0,0,1,.19-.12.66.66,0,0,1,.25,0,.73.73,0,0,1,.3.06.57.57,0,0,1,.23.15Zm1,1.53a.39.39,0,0,1-.31-.12.5.5,0,0,1-.11-.34v-1.11H53.3s0,0,0-.06v-.12l.27,0,.07-.56a.05.05,0,0,1,0,0l.05,0h.15v.62h.48v.23h-.48V146a.29.29,0,0,0,0,.17.19.19,0,0,0,.13.05h.08l.06,0,0,0h0s0,0,0,0l.08.15a.54.54,0,0,1-.4.16Zm1.79-1.13a.64.64,0,0,0,0-.2.51.51,0,0,0-.09-.16.41.41,0,0,0-.13-.1.39.39,0,0,0-.18,0A.43.43,0,0,0,55,145a.63.63,0,0,0-.15.36Zm.23.85a.37.37,0,0,1-.13.12.51.51,0,0,1-.16.09l-.18.05-.18,0a.88.88,0,0,1-.33-.06.92.92,0,0,1-.25-.19.87.87,0,0,1-.17-.3,1.33,1.33,0,0,1-.06-.42,1,1,0,0,1,.06-.35.69.69,0,0,1,.15-.28.67.67,0,0,1,.25-.19.72.72,0,0,1,.33-.07.87.87,0,0,1,.28,0,.69.69,0,0,1,.22.16.87.87,0,0,1,.15.25,1.23,1.23,0,0,1,.05.35.25.25,0,0,1,0,.1l-.06,0H54.83a1,1,0,0,0,0,.3A.7.7,0,0,0,55,146a.4.4,0,0,0,.16.13.78.78,0,0,0,.22,0,.54.54,0,0,0,.19,0l.14-.06.1-.06a.11.11,0,0,1,.07,0,.05.05,0,0,1,0,0Zm.67-1.19a.93.93,0,0,1,.2-.29.41.41,0,0,1,.28-.11l.11,0,.08,0,0,.23a0,0,0,0,1-.05,0h-.17a.32.32,0,0,0-.14,0,.28.28,0,0,0-.11.08.62.62,0,0,0-.09.12s0,.1-.07.16v1.14h-.3v-1.8h.17s.06,0,.07,0a.08.08,0,0,1,0,.06Zm2,.34a.64.64,0,0,0,0-.2.8.8,0,0,0-.08-.16.36.36,0,0,0-.14-.1.34.34,0,0,0-.18,0,.46.46,0,0,0-.34.14.63.63,0,0,0-.15.36Zm.24.85a.49.49,0,0,1-.13.12.56.56,0,0,1-.17.09l-.17.05-.19,0a.71.71,0,0,1-.32-.07.64.64,0,0,1-.25-.18.74.74,0,0,1-.17-.3,1.33,1.33,0,0,1-.06-.42,1.34,1.34,0,0,1,0-.35.85.85,0,0,1,.16-.28.67.67,0,0,1,.25-.19.66.66,0,0,1,.32-.07.82.82,0,0,1,.28,0,.73.73,0,0,1,.23.16.68.68,0,0,1,.14.25,1,1,0,0,1,.06.35.14.14,0,0,1,0,.09.05.05,0,0,1,0,0H57.72a1.36,1.36,0,0,0,0,.3,1,1,0,0,0,.11.21.52.52,0,0,0,.17.13.72.72,0,0,0,.22,0,.58.58,0,0,0,.19,0l.14-.06.09-.06.07,0a.07.07,0,0,1,.06,0Zm1.49-1.12a.56.56,0,0,0-.18-.17.54.54,0,0,0-.22,0,.4.4,0,0,0-.36.18.92.92,0,0,0-.13.52,1.39,1.39,0,0,0,0,.3.53.53,0,0,0,.09.2.25.25,0,0,0,.13.12.34.34,0,0,0,.18,0,.41.41,0,0,0,.25-.07,1,1,0,0,0,.21-.2Zm.29-1.25v2.62H60.5a.07.07,0,0,1-.08-.06l0-.22a.88.88,0,0,1-.25.22.55.55,0,0,1-.32.09.58.58,0,0,1-.26-.06.57.57,0,0,1-.2-.18,1,1,0,0,1-.13-.29,1.56,1.56,0,0,1,0-.39,1.52,1.52,0,0,1,.05-.38.87.87,0,0,1,.14-.29.55.55,0,0,1,.23-.2.61.61,0,0,1,.3-.08.57.57,0,0,1,.27.06.74.74,0,0,1,.2.16v-1Zm2.49,1.14,0,0h0L63,145a.18.18,0,0,0-.07-.05l-.11,0a.38.38,0,0,0-.16,0,.54.54,0,0,0-.22,0,.52.52,0,0,0-.16.14.67.67,0,0,0-.09.21.89.89,0,0,0,0,.29,1.29,1.29,0,0,0,0,.29.59.59,0,0,0,.1.21.5.5,0,0,0,.15.14.65.65,0,0,0,.21,0,.4.4,0,0,0,.17,0l.12-.06.08-.06a.09.09,0,0,1,.06,0,.05.05,0,0,1,.05,0l.09.12a.49.49,0,0,1-.13.12.46.46,0,0,1-.15.09l-.17.05-.18,0a.73.73,0,0,1-.29-.07.58.58,0,0,1-.23-.18.81.81,0,0,1-.16-.29,1.18,1.18,0,0,1-.06-.39,1.52,1.52,0,0,1,0-.38.9.9,0,0,1,.16-.29.63.63,0,0,1,.24-.19.77.77,0,0,1,.34-.07.79.79,0,0,1,.32.06.81.81,0,0,1,.24.17Zm.71-.08a.76.76,0,0,1,.24-.2.6.6,0,0,1,.3-.07.47.47,0,0,1,.24,0,.4.4,0,0,1,.18.14.6.6,0,0,1,.11.21,1.27,1.27,0,0,1,0,.28v1.15h-.29v-1.15a.51.51,0,0,0-.09-.32.34.34,0,0,0-.27-.11.44.44,0,0,0-.24.07.6.6,0,0,0-.21.18v1.33h-.3V143.8h.3Zm2.47.75a1.69,1.69,0,0,0-.35,0,1,1,0,0,0-.24.07.36.36,0,0,0-.13.11.28.28,0,0,0,0,.13.51.51,0,0,0,0,.13l.06.08.09.05.11,0,.14,0a.33.33,0,0,0,.12-.05l.11-.08.11-.1Zm-1-.74a.89.89,0,0,1,.3-.22,1,1,0,0,1,.36-.07.66.66,0,0,1,.25,0,.62.62,0,0,1,.18.14.66.66,0,0,1,.12.22,1.12,1.12,0,0,1,0,.27v1.16h-.2a.16.16,0,0,1,0-.07l0-.17-.13.12-.13.09-.15.05-.18,0a.57.57,0,0,1-.18,0,.38.38,0,0,1-.15-.09.31.31,0,0,1-.1-.15.46.46,0,0,1,0-.21.54.54,0,0,1,0-.21.59.59,0,0,1,.18-.17,1.41,1.41,0,0,1,.32-.13,2.17,2.17,0,0,1,.49-.05v-.15a.46.46,0,0,0-.09-.31.31.31,0,0,0-.25-.11.48.48,0,0,0-.18,0l-.13.07-.09.06a.13.13,0,0,1-.08,0l0,0s0,0,0,0Zm2,.11a.7.7,0,0,1,.19-.29.42.42,0,0,1,.29-.11h.1l.08,0,0,.24a0,0,0,0,1,0,0l-.06,0h-.11a.32.32,0,0,0-.14,0,.41.41,0,0,0-.11.07l-.09.13a1.26,1.26,0,0,0-.07.16v1.14h-.29v-1.81h.17a.1.1,0,0,1,.07,0l0,.07Zm1.24-.37v1.81h-.3v-1.81Zm.06-.56a.19.19,0,0,1,0,.08.35.35,0,0,1,0,.08s0,0-.06,0a.13.13,0,0,1-.08,0,.15.15,0,0,1-.09,0l-.06,0,0-.08a.19.19,0,0,1,0-.08.28.28,0,0,1,0-.09l0-.07.06,0,.09,0,.08,0a.15.15,0,0,1,.06,0,.18.18,0,0,1,0,.07A.29.29,0,0,1,68.66,144.05Zm.94,2.4a.4.4,0,0,1-.31-.12.52.52,0,0,1-.1-.35v-1.1H69l0,0a.08.08,0,0,1,0-.05v-.13l.28,0,.06-.56s0,0,0,0a.06.06,0,0,1,0,0h.15v.62H70v.23h-.49V146a.25.25,0,0,0,0,.17.18.18,0,0,0,.14.06l.07,0a.06.06,0,0,0,.06,0l0,0,0,0a.05.05,0,0,1,0,0l.09.15a.76.76,0,0,1-.19.12A.54.54,0,0,1,69.6,146.45Zm2.12-1.84L70.79,147s0,0,0,.06l-.07,0h-.22l.31-.72-.7-1.7h.26l.06,0,0,.05.45,1.14a.83.83,0,0,1,0,.15,1,1,0,0,0,0-.16l.44-1.13,0-.05.06,0Zm2.13.43a.52.52,0,0,0-.18-.16.4.4,0,0,0-.22,0,.43.43,0,0,0-.36.18.92.92,0,0,0-.12.51,1.26,1.26,0,0,0,0,.3.4.4,0,0,0,.08.21.49.49,0,0,0,.13.12.58.58,0,0,0,.18,0,.45.45,0,0,0,.26-.08.63.63,0,0,0,.2-.2Zm.29-1.25v2.63H74a.08.08,0,0,1-.08-.07l0-.22a.87.87,0,0,1-.24.23.69.69,0,0,1-.32.08.53.53,0,0,1-.26-.06.56.56,0,0,1-.21-.17,1.1,1.1,0,0,1-.12-.29,1.62,1.62,0,0,1,0-.4,1.5,1.5,0,0,1,0-.37,1,1,0,0,1,.14-.3.87.87,0,0,1,.23-.2.74.74,0,0,1,.31-.07.53.53,0,0,1,.26.06.59.59,0,0,1,.2.15v-1Zm1.6,1.53a.6.6,0,0,0,0-.2.35.35,0,0,0-.09-.16.35.35,0,0,0-.13-.11l-.18,0A.42.42,0,0,0,75,145a.66.66,0,0,0-.15.37Zm.24.84a.58.58,0,0,1-.14.13l-.16.08a.61.61,0,0,1-.18,0,.55.55,0,0,1-.18,0,.88.88,0,0,1-.33-.06.64.64,0,0,1-.25-.19.87.87,0,0,1-.17-.3,1.31,1.31,0,0,1-.06-.41,1,1,0,0,1,.06-.35.89.89,0,0,1,.15-.29.79.79,0,0,1,.25-.19.88.88,0,0,1,.33-.07.67.67,0,0,1,.28.06.5.5,0,0,1,.22.16.76.76,0,0,1,.15.25,1.16,1.16,0,0,1,0,.34.25.25,0,0,1,0,.1.06.06,0,0,1-.06,0H74.81a.85.85,0,0,0,0,.29A.65.65,0,0,0,75,146a.52.52,0,0,0,.17.12.46.46,0,0,0,.21,0l.19,0,.14-.06.1-.06.07,0a.05.05,0,0,1,0,0ZM77.46,145a.39.39,0,0,0-.18-.16.36.36,0,0,0-.21,0,.4.4,0,0,0-.36.18.84.84,0,0,0-.13.51,1.26,1.26,0,0,0,0,.3.51.51,0,0,0,.08.21.41.41,0,0,0,.14.12.48.48,0,0,0,.18,0,.44.44,0,0,0,.25-.08.63.63,0,0,0,.2-.2Zm.3-1.25v2.63h-.18a.08.08,0,0,1-.08-.07l0-.22a1,1,0,0,1-.24.23.66.66,0,0,1-.32.08.56.56,0,0,1-.46-.23.86.86,0,0,1-.13-.29,1.62,1.62,0,0,1,0-.4,1.44,1.44,0,0,1,0-.37,1.05,1.05,0,0,1,.15-.3.7.7,0,0,1,.22-.2.64.64,0,0,1,.31-.07.53.53,0,0,1,.26.06.59.59,0,0,1,.2.15v-1Zm.78.82v1.81h-.3v-1.81Zm.06-.57a.24.24,0,0,1,0,.09.18.18,0,0,1,0,.07l-.06.05-.09,0-.08,0-.06-.05a.18.18,0,0,1,0-.07.25.25,0,0,1,0-.09.22.22,0,0,1,0-.08.22.22,0,0,1,0-.08l.06,0h.17l.06,0a.22.22,0,0,1,0,.08A.19.19,0,0,1,78.6,144Zm1.59.89,0,0h0a.07.07,0,0,1-.06,0l-.07,0-.11-.05-.15,0a.48.48,0,0,0-.22,0,.34.34,0,0,0-.16.13.55.55,0,0,0-.1.22,1.2,1.2,0,0,0,0,.28,1.39,1.39,0,0,0,0,.3,1,1,0,0,0,.1.21.4.4,0,0,0,.16.13.46.46,0,0,0,.2,0,.48.48,0,0,0,.18,0l.11-.06.08-.06a.07.07,0,0,1,.12,0l.08.11-.12.13-.16.09-.16.05h-.18a.73.73,0,0,1-.3-.06.66.66,0,0,1-.23-.18.9.9,0,0,1-.16-.29,1.62,1.62,0,0,1,0-.4,1.11,1.11,0,0,1,0-.37.73.73,0,0,1,.15-.29.69.69,0,0,1,.25-.2.89.89,0,0,1,.34-.07.62.62,0,0,1,.31.07.66.66,0,0,1,.24.17Zm1.33.67-.35,0a.9.9,0,0,0-.23.07.4.4,0,0,0-.14.11.28.28,0,0,0,0,.13.21.21,0,0,0,0,.12.19.19,0,0,0,0,.09l.09.05h.25l.13-.05.11-.08a.94.94,0,0,0,.1-.1Zm-1-.73a1.15,1.15,0,0,1,.3-.22.86.86,0,0,1,.36-.07.62.62,0,0,1,.25,0,.52.52,0,0,1,.19.14.7.7,0,0,1,.11.21,1.26,1.26,0,0,1,0,.28v1.16h-.13l-.07,0a.09.09,0,0,1,0-.06l0-.17-.13.12-.13.08a.44.44,0,0,1-.15,0,.5.5,0,0,1-.18,0,.55.55,0,0,1-.18,0,.38.38,0,0,1-.15-.09.4.4,0,0,1-.1-.15.46.46,0,0,1,0-.21.39.39,0,0,1,.06-.21.48.48,0,0,1,.17-.18,1.19,1.19,0,0,1,.32-.12,3.12,3.12,0,0,1,.49-.06v-.14a.51.51,0,0,0-.09-.32.28.28,0,0,0-.24-.1.5.5,0,0,0-.19,0,.52.52,0,0,0-.13.06l-.09.07a.11.11,0,0,1-.08,0l0,0,0,0Zm2.19,1.57a.41.41,0,0,1-.31-.12.48.48,0,0,1-.1-.34v-1.1h-.21l0,0a.08.08,0,0,1,0-.05v-.13l.28,0,.07-.56a.08.08,0,0,1,0,0l0,0h.15v.63h.49v.23h-.49V146a.26.26,0,0,0,.05.17.17.17,0,0,0,.14.05h.08l.06,0,0,0h0s0,0,0,0l.09.15a.52.52,0,0,1-.19.12A.54.54,0,0,1,82.75,146.44Zm1.79-1.12a.66.66,0,0,0,0-.21.53.53,0,0,0-.08-.15.36.36,0,0,0-.32-.14.45.45,0,0,0-.34.13.66.66,0,0,0-.15.37Zm.24.84a.8.8,0,0,1-.13.13l-.17.08a.48.48,0,0,1-.17,0l-.19,0a.83.83,0,0,1-.32-.06.79.79,0,0,1-.26-.19.86.86,0,0,1-.16-.3,1.31,1.31,0,0,1-.06-.41,1.36,1.36,0,0,1,.05-.36.85.85,0,0,1,.16-.28.79.79,0,0,1,.25-.19.66.66,0,0,1,.32-.07.64.64,0,0,1,.28.06.57.57,0,0,1,.23.15.72.72,0,0,1,.14.26.9.9,0,0,1,.06.34.22.22,0,0,1,0,.1s0,0-.05,0H83.61a1.21,1.21,0,0,0,0,.3.68.68,0,0,0,.11.21.52.52,0,0,0,.17.13.51.51,0,0,0,.22,0,.58.58,0,0,0,.19,0,.59.59,0,0,0,.14-.06l.09-.06.07,0a.09.09,0,0,1,.06,0ZM86.27,145a.56.56,0,0,0-.18-.17.54.54,0,0,0-.22,0,.4.4,0,0,0-.36.18.91.91,0,0,0-.13.51,1.26,1.26,0,0,0,0,.3,1,1,0,0,0,.08.21.53.53,0,0,0,.14.12.48.48,0,0,0,.18,0,.41.41,0,0,0,.25-.07.79.79,0,0,0,.21-.2Zm.29-1.25v2.62h-.18a.07.07,0,0,1-.07-.06l0-.22a.86.86,0,0,1-.25.22.57.57,0,0,1-.32.09.58.58,0,0,1-.26-.06.57.57,0,0,1-.2-.18.91.91,0,0,1-.13-.28,1.64,1.64,0,0,1,0-.4,1.11,1.11,0,0,1,0-.37.83.83,0,0,1,.14-.3.63.63,0,0,1,.23-.2.6.6,0,0,1,.3-.07.72.72,0,0,1,.27,0,.74.74,0,0,1,.2.16v-1Zm1.83,2.65a.38.38,0,0,1-.3-.12A.5.5,0,0,1,88,146v-1.11h-.25a.08.08,0,0,1,0-.05v-.13l.28,0,.07-.56a.08.08,0,0,1,0,0l0,0h.15v.62h.48v.23h-.48V146a.23.23,0,0,0,0,.17.19.19,0,0,0,.13.05h.08l.06,0,0,0h0s0,0,0,0l.09.15a.57.57,0,0,1-.18.12A.62.62,0,0,1,88.39,146.44Zm1.38-1.86a.72.72,0,0,1,.33.07.64.64,0,0,1,.25.18.86.86,0,0,1,.16.3,1.12,1.12,0,0,1,.06.38,1.23,1.23,0,0,1-.06.39.9.9,0,0,1-.16.29.64.64,0,0,1-.25.18.72.72,0,0,1-.33.07.74.74,0,0,1-.34-.07.64.64,0,0,1-.25-.18.9.9,0,0,1-.16-.29,1.23,1.23,0,0,1-.06-.39,1.12,1.12,0,0,1,.06-.38.72.72,0,0,1,.16-.3.64.64,0,0,1,.25-.18A.74.74,0,0,1,89.77,144.58Zm0,1.61a.42.42,0,0,0,.37-.18.88.88,0,0,0,.12-.5.9.9,0,0,0-.12-.5.42.42,0,0,0-.37-.18.48.48,0,0,0-.22,0,.34.34,0,0,0-.16.13.63.63,0,0,0-.09.22,1.2,1.2,0,0,0,0,.28.88.88,0,0,0,.12.5A.43.43,0,0,0,89.77,146.19Zm-45,3.21,0,0h0l-.06,0a.18.18,0,0,0-.07,0l-.11-.05a.38.38,0,0,0-.16,0,.54.54,0,0,0-.22.05.52.52,0,0,0-.16.14.67.67,0,0,0-.09.21,1.42,1.42,0,0,0,0,.58.68.68,0,0,0,.1.21.37.37,0,0,0,.15.13.46.46,0,0,0,.21,0,.48.48,0,0,0,.18,0l.11-.06.08-.06.06,0a.05.05,0,0,1,0,0l.09.12a.49.49,0,0,1-.13.12.38.38,0,0,1-.15.09l-.17,0-.18,0a.73.73,0,0,1-.29-.07.58.58,0,0,1-.23-.18.81.81,0,0,1-.16-.29,1.18,1.18,0,0,1-.06-.39,1.16,1.16,0,0,1,.06-.38.73.73,0,0,1,.15-.29.67.67,0,0,1,.25-.19.7.7,0,0,1,.33-.07.79.79,0,0,1,.32.06.81.81,0,0,1,.24.17Zm1.09-.35a.9.9,0,0,1,.34.06.92.92,0,0,1,.25.19.9.9,0,0,1,.16.29,1.19,1.19,0,0,1,.05.39,1.13,1.13,0,0,1-.05.38.81.81,0,0,1-.16.29.67.67,0,0,1-.25.19.9.9,0,0,1-.34.06.88.88,0,0,1-.33-.06.67.67,0,0,1-.25-.19.68.68,0,0,1-.16-.29,1.12,1.12,0,0,1-.06-.38,1.23,1.23,0,0,1,.06-.39.75.75,0,0,1,.16-.29.79.79,0,0,1,.25-.19A.88.88,0,0,1,45.87,149.05Zm0,1.61a.44.44,0,0,0,.38-.18.9.9,0,0,0,.12-.5.88.88,0,0,0-.12-.5.44.44,0,0,0-.38-.18.54.54,0,0,0-.22,0,.4.4,0,0,0-.15.14.82.82,0,0,0-.1.21,1.29,1.29,0,0,0,0,.29.9.9,0,0,0,.13.5A.42.42,0,0,0,45.87,150.66Zm1.46-1.32a.43.43,0,0,1,.11-.12l.13-.09.15-.06a.65.65,0,0,1,.41,0,.46.46,0,0,1,.18.13.74.74,0,0,1,.1.22.82.82,0,0,1,0,.28v1.15h-.3v-1.15a.58.58,0,0,0-.08-.32.34.34,0,0,0-.27-.11.4.4,0,0,0-.24.07.6.6,0,0,0-.21.18v1.33h-.3v-1.81h.18s.06,0,.07.07Zm1.85,0a.46.46,0,0,1,.12-.12.38.38,0,0,1,.13-.09.35.35,0,0,1,.14-.06.65.65,0,0,1,.41,0,.46.46,0,0,1,.18.13.76.76,0,0,1,.11.22,1.2,1.2,0,0,1,0,.28v1.15H50v-1.15a.51.51,0,0,0-.08-.32.34.34,0,0,0-.27-.11.42.42,0,0,0-.24.07.6.6,0,0,0-.21.18v1.33h-.3v-1.81h.18a.08.08,0,0,1,.08.07Zm2.7.44a.64.64,0,0,0,0-.2.42.42,0,0,0-.09-.16.26.26,0,0,0-.13-.1.34.34,0,0,0-.18,0,.44.44,0,0,0-.34.13.66.66,0,0,0-.15.37Zm.24.85-.13.12-.17.09-.18,0h-.18a.79.79,0,0,1-.32-.06.68.68,0,0,1-.26-.18,1,1,0,0,1-.16-.31,1.27,1.27,0,0,1-.06-.41,1,1,0,0,1,.05-.35.9.9,0,0,1,.16-.29.75.75,0,0,1,.24-.19.88.88,0,0,1,.33-.07.67.67,0,0,1,.28.06.6.6,0,0,1,.22.16.53.53,0,0,1,.15.25.9.9,0,0,1,0,.34.25.25,0,0,1,0,.1.06.06,0,0,1-.06,0H51a1.19,1.19,0,0,0,0,.29.65.65,0,0,0,.11.22.52.52,0,0,0,.17.12.46.46,0,0,0,.21,0,.53.53,0,0,0,.19,0l.14-.06.1-.06.07,0a.05.05,0,0,1,.05,0Zm1.56-1.24s0,0,0,0h0a.06.06,0,0,1,0,0l-.08,0-.1,0a.41.41,0,0,0-.16,0,.51.51,0,0,0-.22.05.52.52,0,0,0-.16.14.67.67,0,0,0-.09.21.86.86,0,0,0,0,.28,1.36,1.36,0,0,0,0,.3.68.68,0,0,0,.1.21.37.37,0,0,0,.15.13.46.46,0,0,0,.21,0,.4.4,0,0,0,.17,0l.12-.06.07-.06.07,0a.05.05,0,0,1,0,0l.09.11a.53.53,0,0,1-.13.13l-.15.09-.17,0h-.18a.72.72,0,0,1-.29-.06.69.69,0,0,1-.24-.18,1.13,1.13,0,0,1-.15-.29,1.25,1.25,0,0,1-.06-.4,1.5,1.5,0,0,1,.05-.37.9.9,0,0,1,.16-.29.78.78,0,0,1,.24-.2.89.89,0,0,1,.34-.07.74.74,0,0,1,.31.07.62.62,0,0,1,.25.17Zm2,1.49h-.29v-1.54h-.87v1.08a.26.26,0,0,0,0,.17.18.18,0,0,0,.14.06l.08,0,.05,0,0,0h0a.05.05,0,0,1,0,0l.09.15a.76.76,0,0,1-.19.12.54.54,0,0,1-.22,0,.4.4,0,0,1-.31-.12.52.52,0,0,1-.1-.35v-1.1H54a.05.05,0,0,1,0,0,.08.08,0,0,1,0,0v-.13l.28,0,.06-.55s0,0,0-.05h.2v.62h1.16Zm.08-2.39a.29.29,0,0,1,0,.09.26.26,0,0,1-.12.12l-.08,0-.08,0-.06,0a.18.18,0,0,1,0-.07.28.28,0,0,1,0-.09.19.19,0,0,1,0-.08.22.22,0,0,1,0-.08l.06-.05h.16a.18.18,0,0,1,.07.05.22.22,0,0,1,.05.08A.19.19,0,0,1,55.73,148.49Zm.69.84.11-.12.13-.09.15-.06.17,0a.6.6,0,0,1,.24.05.62.62,0,0,1,.18.14.64.64,0,0,1,.1.22.82.82,0,0,1,0,.28v1.15h-.3v-1.15a.51.51,0,0,0-.09-.32.28.28,0,0,0-.26-.11.54.54,0,0,0-.25.06.89.89,0,0,0-.2.19v1.33h-.3v-1.81h.18s.06,0,.07.07Zm2.16.66a.34.34,0,0,0,.15,0,.25.25,0,0,0,.12-.08.41.41,0,0,0,.07-.11.77.77,0,0,0,0-.15.36.36,0,0,0-.09-.26.36.36,0,0,0-.27-.1.37.37,0,0,0-.28.1.36.36,0,0,0-.09.26.77.77,0,0,0,0,.15.41.41,0,0,0,.07.11.25.25,0,0,0,.12.08A.39.39,0,0,0,58.58,150Zm.53,1a.13.13,0,0,0,0-.1.22.22,0,0,0-.09-.07l-.14,0h-.16l-.18,0h-.17a.58.58,0,0,0-.15.11.27.27,0,0,0-.06.17.2.2,0,0,0,0,.11.2.2,0,0,0,.09.09.34.34,0,0,0,.15.06.75.75,0,0,0,.42,0,.49.49,0,0,0,.16-.06.26.26,0,0,0,.1-.11A.18.18,0,0,0,59.11,151Zm.3-1.83v.12s0,.06-.07.08l-.19,0a.58.58,0,0,1,.06.26.6.6,0,0,1-.05.24.64.64,0,0,1-.13.19.49.49,0,0,1-.2.11.69.69,0,0,1-.25,0,.85.85,0,0,1-.23,0l-.08.08a.13.13,0,0,0,0,.08.12.12,0,0,0,0,.1l.13,0h.18l.21,0,.21,0a.75.75,0,0,1,.18.07.3.3,0,0,1,.13.12.31.31,0,0,1,.05.2.59.59,0,0,1-.05.23.7.7,0,0,1-.16.19.74.74,0,0,1-.25.14,1,1,0,0,1-.33.05,1.47,1.47,0,0,1-.32,0,.7.7,0,0,1-.23-.11.5.5,0,0,1-.14-.15.39.39,0,0,1,0-.18.38.38,0,0,1,.08-.23.46.46,0,0,1,.21-.14.4.4,0,0,1-.12-.1.25.25,0,0,1,0-.16.22.22,0,0,1,0-.08.36.36,0,0,1,0-.09l.07-.08.09-.06a.52.52,0,0,1-.19-.2.54.54,0,0,1-.07-.29.47.47,0,0,1,.05-.24.46.46,0,0,1,.13-.18.56.56,0,0,1,.2-.12.71.71,0,0,1,.26,0,.64.64,0,0,1,.2,0,.51.51,0,0,1,.17.07Zm2.07.92-.35,0a1,1,0,0,0-.24.07.36.36,0,0,0-.13.11.28.28,0,0,0,0,.13.37.37,0,0,0,0,.12l.06.09.09,0h.25l.12,0,.11-.08.11-.1Zm-1-.73a.89.89,0,0,1,.3-.22.86.86,0,0,1,.36-.07.66.66,0,0,1,.25.05.49.49,0,0,1,.18.14.72.72,0,0,1,.12.21,1.26,1.26,0,0,1,0,.28v1.16h-.14l-.06,0a.09.09,0,0,1,0-.06l0-.17-.13.12-.13.08a.94.94,0,0,1-.15.06h-.18a.55.55,0,0,1-.18,0,.38.38,0,0,1-.15-.09.31.31,0,0,1-.1-.15.46.46,0,0,1,0-.21.5.5,0,0,1,.05-.21.62.62,0,0,1,.18-.18,1.07,1.07,0,0,1,.32-.12,2.84,2.84,0,0,1,.49-.06v-.14a.51.51,0,0,0-.09-.32.29.29,0,0,0-.25-.1.48.48,0,0,0-.18,0,.52.52,0,0,0-.13.06l-.09.07a.13.13,0,0,1-.08,0l0,0,0,0Zm2.67,0a.07.07,0,0,1-.06,0l-.05,0-.08,0-.11,0-.15,0-.13,0a.27.27,0,0,0-.17.14.3.3,0,0,0,0,.1.21.21,0,0,0,0,.12l.1.08.14.06.16,0,.16.07a.34.34,0,0,1,.14.09.32.32,0,0,1,.1.13.34.34,0,0,1,0,.18.56.56,0,0,1,0,.23.52.52,0,0,1-.12.19.82.82,0,0,1-.2.12.79.79,0,0,1-.28,0,.78.78,0,0,1-.31-.06.87.87,0,0,1-.25-.15l.07-.13,0,0h.05a.07.07,0,0,1,.06,0l.08.06.12.05a.4.4,0,0,0,.17,0,.33.33,0,0,0,.15,0,.39.39,0,0,0,.11-.06.21.21,0,0,0,.06-.1.2.2,0,0,0,0-.11.16.16,0,0,0,0-.12.2.2,0,0,0-.09-.09l-.14-.06-.17-.05-.16-.07a.42.42,0,0,1-.14-.09.5.5,0,0,1-.1-.14.54.54,0,0,1,0-.19.45.45,0,0,1,0-.2.39.39,0,0,1,.11-.17.62.62,0,0,1,.19-.12,1,1,0,0,1,.25,0,.7.7,0,0,1,.3.06.76.76,0,0,1,.23.15Zm.76,1.07a.48.48,0,0,0,.18.17.46.46,0,0,0,.21,0,.4.4,0,0,0,.36-.18.84.84,0,0,0,.13-.51,1.26,1.26,0,0,0,0-.3.71.71,0,0,0-.08-.21.41.41,0,0,0-.14-.12.48.48,0,0,0-.18,0,.44.44,0,0,0-.25.08.63.63,0,0,0-.2.2Zm0-1.09a1.09,1.09,0,0,1,.25-.23.66.66,0,0,1,.32-.08.56.56,0,0,1,.46.23.86.86,0,0,1,.13.29,1.62,1.62,0,0,1,0,.4,1.44,1.44,0,0,1,0,.37.84.84,0,0,1-.15.3.74.74,0,0,1-.23.2.6.6,0,0,1-.3.07.76.76,0,0,1-.27-.05,1,1,0,0,1-.19-.16v.8h-.3v-2.42h.18a.08.08,0,0,1,.08.07Zm1.9-.28v1.8h-.3v-1.81Zm.06-.57a.29.29,0,0,1,0,.09.18.18,0,0,1-.05.07l-.06.05-.09,0-.08,0-.06-.05a.18.18,0,0,1,0-.07.28.28,0,0,1,0-.09.19.19,0,0,1,0-.08.22.22,0,0,1,0-.08l.06-.05h.17l.06.05a.22.22,0,0,1,.05.08A.19.19,0,0,1,65.89,148.5Zm.7.93a.79.79,0,0,1,.2-.29.39.39,0,0,1,.28-.1h.1l.09,0,0,.24s0,0,0,0H67l-.14,0-.11.08a.27.27,0,0,0-.09.12.77.77,0,0,0-.07.16v1.14h-.3v-1.8h.17l.07,0a.1.1,0,0,1,0,.07Zm1.24-.36v1.8h-.29v-1.8Zm.07-.57a.29.29,0,0,1,0,.09.26.26,0,0,1-.12.12l-.08,0-.08,0a.15.15,0,0,1-.06-.05.18.18,0,0,1-.05-.07.29.29,0,0,1,0-.09.19.19,0,0,1,0-.08.22.22,0,0,1,.05-.08.15.15,0,0,1,.06-.05l.08,0,.08,0a.18.18,0,0,1,.07.05.22.22,0,0,1,0,.08A.19.19,0,0,1,67.9,148.5Zm.7.83.11-.12.13-.09a.47.47,0,0,1,.15-.06l.17,0a.6.6,0,0,1,.24.05.39.39,0,0,1,.17.14.53.53,0,0,1,.11.21.86.86,0,0,1,0,.28v1.15h-.3v-1.15a.48.48,0,0,0-.09-.31.29.29,0,0,0-.26-.12.55.55,0,0,0-.25.07,1.12,1.12,0,0,0-.2.18v1.33h-.3v-1.8h.18s.06,0,.07.07Zm2.16.66a.33.33,0,0,0,.15,0,.24.24,0,0,0,.12-.07.41.41,0,0,0,.07-.11.77.77,0,0,0,0-.15.32.32,0,0,0-.36-.36.39.39,0,0,0-.28.09.4.4,0,0,0-.09.27.77.77,0,0,0,0,.15.41.41,0,0,0,.07.11.24.24,0,0,0,.12.07A.38.38,0,0,0,70.76,150Zm.53,1a.15.15,0,0,0,0-.11l-.09-.06a.49.49,0,0,0-.14,0l-.16,0h-.18l-.17,0a.61.61,0,0,0-.15.12.25.25,0,0,0-.06.17.23.23,0,0,0,0,.11.38.38,0,0,0,.09.09.52.52,0,0,0,.15.06l.21,0,.21,0a.48.48,0,0,0,.16-.07.24.24,0,0,0,.1-.1A.2.2,0,0,0,71.29,151Zm.3-1.83v.12s0,.06-.07.07l-.19,0a.55.55,0,0,1,0,.26.61.61,0,0,1,0,.24.59.59,0,0,1-.13.18.67.67,0,0,1-.2.12.69.69,0,0,1-.25,0,.85.85,0,0,1-.23,0l-.08.08a.11.11,0,0,0,0,.08.14.14,0,0,0,0,.1l.13,0,.18,0H71l.21,0a.48.48,0,0,1,.18.06.27.27,0,0,1,.13.13.39.39,0,0,1,0,.2.54.54,0,0,1,0,.22.62.62,0,0,1-.16.2.84.84,0,0,1-.25.13.82.82,0,0,1-.33.05,1.51,1.51,0,0,1-.32,0,1,1,0,0,1-.23-.11.49.49,0,0,1-.14-.15.39.39,0,0,1,0-.18.31.31,0,0,1,.08-.23.57.57,0,0,1,.21-.15.24.24,0,0,1-.16-.25.19.19,0,0,1,0-.08.36.36,0,0,1,0-.09l.07-.08.09-.06a.52.52,0,0,1-.19-.2.57.57,0,0,1-.07-.29.61.61,0,0,1,0-.24.62.62,0,0,1,.14-.18.56.56,0,0,1,.2-.12.71.71,0,0,1,.26,0l.2,0,.17.08Zm2.13.23a.06.06,0,0,1-.06,0h0l-.08,0-.11,0a.34.34,0,0,0-.15,0,.27.27,0,0,0-.13,0l-.11,0s0,.05-.06.09a.16.16,0,0,0,0,.1.2.2,0,0,0,0,.11.25.25,0,0,0,.1.08.35.35,0,0,0,.14.06l.16.06.16.06.14.09a.36.36,0,0,1,.1.14.34.34,0,0,1,0,.18.85.85,0,0,1,0,.23.59.59,0,0,1-.13.19.62.62,0,0,1-.19.12.79.79,0,0,1-.28,0,.87.87,0,0,1-.32-.06.78.78,0,0,1-.24-.16l.07-.12s0,0,0,0l0,0,.06,0,.08.05.12.06a.42.42,0,0,0,.17,0,.34.34,0,0,0,.15,0,.41.41,0,0,0,.11-.07.15.15,0,0,0,.06-.09.43.43,0,0,0,0-.11.18.18,0,0,0,0-.13.24.24,0,0,0-.09-.08l-.15-.06-.16-.06-.16-.06-.14-.09a.71.71,0,0,1-.1-.14.56.56,0,0,1,0-.2.41.41,0,0,1,0-.19.39.39,0,0,1,.11-.17.62.62,0,0,1,.19-.12.66.66,0,0,1,.25,0,.73.73,0,0,1,.3.06.51.51,0,0,1,.23.15Zm1,1.53a.39.39,0,0,1-.31-.12.5.5,0,0,1-.11-.34v-1.11H74s0,0,0-.06v-.12l.27,0,.07-.56a.05.05,0,0,1,0,0l.05,0h.15v.62h.49v.23h-.49v1.09a.29.29,0,0,0,0,.17.21.21,0,0,0,.13,0h.08l.06,0,0,0h0a.05.05,0,0,1,0,0l.08.15a.54.54,0,0,1-.4.16Zm2-1.83v1.8h-.17a.08.08,0,0,1-.08-.06l0-.2a1,1,0,0,1-.25.21.64.64,0,0,1-.56,0,.39.39,0,0,1-.17-.14.53.53,0,0,1-.11-.21,1.26,1.26,0,0,1,0-.28v-1.15h.3v1.15a.51.51,0,0,0,.09.32.32.32,0,0,0,.26.11.45.45,0,0,0,.25-.07,1.12,1.12,0,0,0,.21-.18v-1.33Zm1.57.43a.56.56,0,0,0-.18-.17.54.54,0,0,0-.22-.05.43.43,0,0,0-.36.18.93.93,0,0,0-.12.52,1.39,1.39,0,0,0,0,.3.49.49,0,0,0,.08.21.28.28,0,0,0,.13.11.39.39,0,0,0,.18,0,.44.44,0,0,0,.26-.07,1,1,0,0,0,.2-.2Zm.29-1.25v2.62h-.17a.08.08,0,0,1-.08-.06l0-.22a1,1,0,0,1-.24.22.59.59,0,0,1-.32.09.53.53,0,0,1-.26-.06.6.6,0,0,1-.21-.18,1,1,0,0,1-.12-.29,1.48,1.48,0,0,1-.05-.39,1.38,1.38,0,0,1,.05-.37.83.83,0,0,1,.14-.3.72.72,0,0,1,.23-.2.62.62,0,0,1,.31-.08.53.53,0,0,1,.26.06.74.74,0,0,1,.2.16v-1Zm1.6,1.52a.64.64,0,0,0,0-.2.51.51,0,0,0-.09-.16.32.32,0,0,0-.13-.1.39.39,0,0,0-.18,0,.46.46,0,0,0-.34.13.69.69,0,0,0-.15.37Zm.24.85a.41.41,0,0,1-.14.12.51.51,0,0,1-.16.09l-.18,0-.18,0a.78.78,0,0,1-.58-.25.87.87,0,0,1-.17-.3,1.33,1.33,0,0,1-.06-.42,1,1,0,0,1,.06-.35.84.84,0,0,1,.15-.28.67.67,0,0,1,.25-.19.72.72,0,0,1,.33-.07.87.87,0,0,1,.28.05.69.69,0,0,1,.22.16.87.87,0,0,1,.15.25,1.21,1.21,0,0,1,0,.34.22.22,0,0,1,0,.1.06.06,0,0,1-.06,0H79.28a1,1,0,0,0,0,.3.7.7,0,0,0,.11.21.43.43,0,0,0,.17.13.65.65,0,0,0,.21,0,.5.5,0,0,0,.19,0l.14-.06.1-.06a.11.11,0,0,1,.07,0,.05.05,0,0,1,0,0Zm.66-1.29a.68.68,0,0,1,.12-.12.38.38,0,0,1,.13-.09.39.39,0,0,1,.15-.06.41.41,0,0,1,.16,0,.49.49,0,0,1,.25.05.39.39,0,0,1,.17.14.53.53,0,0,1,.11.21,1.26,1.26,0,0,1,0,.28v1.15h-.3v-1.15a.53.53,0,0,0-.09-.32.32.32,0,0,0-.26-.11.45.45,0,0,0-.25.07.84.84,0,0,0-.21.18v1.33h-.29v-1.8H81a.08.08,0,0,1,.08.06Zm2.07,1.57a.41.41,0,0,1-.31-.12.49.49,0,0,1-.1-.34v-1.11h-.25a.11.11,0,0,1,0-.06v-.12l.28,0,.06-.56s0,0,0,0a.05.05,0,0,1,0,0h.15v.62h.49v.23h-.49v1.08a.25.25,0,0,0,0,.17.18.18,0,0,0,.14.06h.08l.06,0,0,0,0,0a.05.05,0,0,1,0,0l.09.16a.62.62,0,0,1-.19.12A.78.78,0,0,1,83.18,150.9Zm1.65-1.54a.05.05,0,0,1-.06,0,.06.06,0,0,1,0,0l-.08,0-.11,0a.33.33,0,0,0-.15,0,.28.28,0,0,0-.13,0l-.11,0a.24.24,0,0,0-.06.08.22.22,0,0,0,0,.11.2.2,0,0,0,0,.11.39.39,0,0,0,.1.08l.14.06.16.06.16.06.14.09a.41.41,0,0,1,.1.13.38.38,0,0,1,0,.19.85.85,0,0,1,0,.23.46.46,0,0,1-.13.18.56.56,0,0,1-.2.12.68.68,0,0,1-.27.05.87.87,0,0,1-.32-.06,1,1,0,0,1-.24-.16l.07-.12,0,0h0l.06,0,.08.05.12.06.17,0,.15,0a.41.41,0,0,0,.11-.07.24.24,0,0,0,.06-.09.5.5,0,0,0,0-.12.16.16,0,0,0,0-.12.21.21,0,0,0-.1-.08.3.3,0,0,0-.14-.06l-.16-.06-.16-.06a.71.71,0,0,1-.14-.1.45.45,0,0,1-.1-.13.6.6,0,0,1,0-.2.48.48,0,0,1,0-.2.36.36,0,0,1,.11-.16.62.62,0,0,1,.19-.12.66.66,0,0,1,.25,0,.94.94,0,0,1,.3.05.63.63,0,0,1,.23.16Zm1.83,1.54a.39.39,0,0,1-.31-.12.51.51,0,0,1-.11-.34v-1.11H86a.05.05,0,0,1,0,0s0,0,0-.05v-.13l.27,0,.07-.56a.05.05,0,0,1,0,0s0,0,0,0h.15v.62H87v.23h-.48v1.08a.25.25,0,0,0,0,.17.16.16,0,0,0,.13.06h.08l.06,0,0,0,0,0,0,0,.08.15a.46.46,0,0,1-.18.13A.85.85,0,0,1,86.66,150.9ZM88,149a.88.88,0,0,1,.33.06.79.79,0,0,1,.25.19.75.75,0,0,1,.16.29,1.18,1.18,0,0,1,.06.39,1.12,1.12,0,0,1-.06.38.75.75,0,0,1-.16.29.67.67,0,0,1-.25.19.88.88,0,0,1-.33.06.93.93,0,0,1-.34-.06.76.76,0,0,1-.25-.19.81.81,0,0,1-.16-.29,1.13,1.13,0,0,1,0-.38,1.19,1.19,0,0,1,0-.39.9.9,0,0,1,.16-.29.92.92,0,0,1,.25-.19A.93.93,0,0,1,88,149Zm0,1.61a.41.41,0,0,0,.37-.18.9.9,0,0,0,.12-.5.88.88,0,0,0-.12-.5.41.41,0,0,0-.37-.18.51.51,0,0,0-.22,0,.43.43,0,0,0-.16.14.58.58,0,0,0-.09.21,1.29,1.29,0,0,0,0,.29.9.9,0,0,0,.12.5A.44.44,0,0,0,88,150.65Zm2.32-1.35a.88.88,0,0,1,.24-.19.7.7,0,0,1,.54,0,.51.51,0,0,1,.18.14.76.76,0,0,1,.11.22,1.18,1.18,0,0,1,0,.28v1.15h-.3v-1.15a.51.51,0,0,0-.09-.32.33.33,0,0,0-.26-.11.45.45,0,0,0-.25.07.7.7,0,0,0-.21.18v1.33h-.3v-2.63h.3Zm2.68.47a.61.61,0,0,0-.11-.36.28.28,0,0,0-.14-.1.34.34,0,0,0-.18,0,.45.45,0,0,0-.34.13.66.66,0,0,0-.15.37Zm.24.85-.13.12-.17.09-.17,0h-.19a.87.87,0,0,1-.32-.06.64.64,0,0,1-.25-.18.85.85,0,0,1-.17-.31,1.27,1.27,0,0,1-.06-.41,1.29,1.29,0,0,1,0-.35.9.9,0,0,1,.16-.29.74.74,0,0,1,.57-.26.64.64,0,0,1,.28.06.73.73,0,0,1,.23.16.61.61,0,0,1,.14.25.9.9,0,0,1,.06.34.22.22,0,0,1,0,.1.05.05,0,0,1,0,0H92.1a1.19,1.19,0,0,0,0,.29.9.9,0,0,0,.11.22.66.66,0,0,0,.17.12.51.51,0,0,0,.22,0l.19,0,.14-.06.09-.06.07,0a.07.07,0,0,1,.06,0Zm1.3-.56a1.83,1.83,0,0,0-.35,0,1,1,0,0,0-.23.07.36.36,0,0,0-.13.11.2.2,0,0,0,0,.13.27.27,0,0,0,0,.13.16.16,0,0,0,.06.08.19.19,0,0,0,.09,0h.25l.12,0,.11-.08a.94.94,0,0,0,.1-.1Zm-.95-.74a.89.89,0,0,1,.3-.22.78.78,0,0,1,.35-.07.62.62,0,0,1,.25.05.45.45,0,0,1,.19.14.51.51,0,0,1,.11.22.77.77,0,0,1,0,.27v1.16h-.13l-.07,0,0-.06,0-.17a.49.49,0,0,1-.13.12l-.13.09-.15,0-.17,0a.58.58,0,0,1-.19,0,.46.46,0,0,1-.15-.09.56.56,0,0,1-.1-.15.65.65,0,0,1,0-.21.42.42,0,0,1,.06-.21.43.43,0,0,1,.18-.17.79.79,0,0,1,.32-.13,2.84,2.84,0,0,1,.48-.06v-.14a.52.52,0,0,0-.08-.31.28.28,0,0,0-.25-.11.54.54,0,0,0-.19,0l-.12.06-.1.07a.11.11,0,0,1-.07,0l-.05,0,0,0Zm2-1.08v2.63h-.3v-2.63Zm1,2.66a.41.41,0,0,1-.31-.12.52.52,0,0,1-.1-.35v-1.1H96l0,0a.08.08,0,0,1,0-.05v-.13l.28,0,.07-.55a.08.08,0,0,1,0,0h.19v.62H97v.23h-.49v1.08a.22.22,0,0,0,.06.17.15.15,0,0,0,.13.06l.08,0,.06,0,0,0h0s0,0,0,0l.09.15a.52.52,0,0,1-.19.12A.54.54,0,0,1,96.61,150.9Zm1-1.6a.88.88,0,0,1,.24-.19.61.61,0,0,1,.3-.08.62.62,0,0,1,.25.05.47.47,0,0,1,.17.14.51.51,0,0,1,.11.22,1.18,1.18,0,0,1,0,.28v1.15h-.3v-1.15a.51.51,0,0,0-.09-.32.29.29,0,0,0-.26-.11.54.54,0,0,0-.25.06,1.2,1.2,0,0,0-.21.19v1.33h-.29v-2.63h.3Zm-53,4.53a.07.07,0,0,1-.06,0l-.06,0-.08,0-.1,0-.15,0-.14,0a.21.21,0,0,0-.1.06.27.27,0,0,0-.07.08.3.3,0,0,0,0,.1.16.16,0,0,0,0,.12.44.44,0,0,0,.1.08l.14.06.16.05.16.07a.42.42,0,0,1,.14.09.45.45,0,0,1,.1.13.48.48,0,0,1,0,.18.56.56,0,0,1,0,.23.47.47,0,0,1-.12.19.56.56,0,0,1-.2.12.77.77,0,0,1-.27,0,.79.79,0,0,1-.32-.06.6.6,0,0,1-.24-.16l.07-.12,0,0h0a.1.1,0,0,1,.07,0l.08.06.11.05a.47.47,0,0,0,.17,0,.33.33,0,0,0,.15,0,.29.29,0,0,0,.11-.06.27.27,0,0,0,.09-.21.21.21,0,0,0,0-.12.28.28,0,0,0-.1-.09l-.14-.06-.16,0-.16-.07a.42.42,0,0,1-.14-.09.36.36,0,0,1-.1-.14.38.38,0,0,1,0-.19.45.45,0,0,1,0-.2.52.52,0,0,1,.12-.17.52.52,0,0,1,.19-.12.87.87,0,0,1,.25,0,.73.73,0,0,1,.3.06.91.91,0,0,1,.23.15Zm1.63,0,0,0h0l0,0-.08-.05-.1,0-.16,0a.51.51,0,0,0-.22.05.4.4,0,0,0-.16.13.63.63,0,0,0-.09.22.82.82,0,0,0,0,.28,1.19,1.19,0,0,0,0,.29.5.5,0,0,0,.1.22.47.47,0,0,0,.15.13.46.46,0,0,0,.21,0,.42.42,0,0,0,.17,0A.35.35,0,0,0,46,155l.07-.06.07,0a.05.05,0,0,1,0,0l.08.11a.49.49,0,0,1-.12.13l-.15.08a.48.48,0,0,1-.17.05l-.18,0a.72.72,0,0,1-.29-.06.69.69,0,0,1-.24-.18,1.13,1.13,0,0,1-.15-.29,1.25,1.25,0,0,1-.06-.4,1.44,1.44,0,0,1,0-.37.9.9,0,0,1,.16-.29.66.66,0,0,1,.24-.2.85.85,0,0,1,.65,0,.69.69,0,0,1,.24.18Zm.72-.32v1.8h-.29v-1.8ZM47,153a.29.29,0,0,1,0,.09.26.26,0,0,1-.12.12l-.08,0-.08,0-.06,0a.18.18,0,0,1,0-.07.28.28,0,0,1,0-.09.19.19,0,0,1,0-.08.22.22,0,0,1,0-.08l.06-.05.08,0,.08,0a.18.18,0,0,1,.07.05.22.22,0,0,1,.05.08A.19.19,0,0,1,47,153Zm1.55,1.27a.64.64,0,0,0,0-.2.51.51,0,0,0-.09-.16l-.13-.1a.58.58,0,0,0-.18,0,.43.43,0,0,0-.34.14.66.66,0,0,0-.15.37Zm.23.85a.53.53,0,0,1-.13.13.8.8,0,0,1-.16.08l-.18.05-.18,0a.88.88,0,0,1-.33-.06.92.92,0,0,1-.25-.19.87.87,0,0,1-.17-.3,1.31,1.31,0,0,1-.06-.41,1,1,0,0,1,.06-.36.69.69,0,0,1,.15-.28.79.79,0,0,1,.25-.19.72.72,0,0,1,.33-.07.67.67,0,0,1,.28.06.54.54,0,0,1,.22.15.81.81,0,0,1,.15.26,1.16,1.16,0,0,1,0,.34.25.25,0,0,1,0,.1l-.06,0H47.63a.87.87,0,0,0,0,.3.6.6,0,0,0,.11.21.48.48,0,0,0,.16.13.62.62,0,0,0,.41,0l.14-.06.1-.06a.1.1,0,0,1,.07,0,.05.05,0,0,1,.05,0Zm.67-1.29.12-.12.13-.09a.35.35,0,0,1,.14-.06l.17,0a.6.6,0,0,1,.24.05.42.42,0,0,1,.18.14.7.7,0,0,1,.11.21,1.26,1.26,0,0,1,0,.28v1.15h-.3v-1.15a.48.48,0,0,0-.09-.31.31.31,0,0,0-.26-.12.55.55,0,0,0-.25.07l-.21.18v1.33h-.3v-1.8h.18a.08.08,0,0,1,.08.06Zm2.75.06,0,0h0l0,0-.08-.05a.31.31,0,0,0-.1,0l-.16,0a.47.47,0,0,0-.38.18.9.9,0,0,0-.1.22,1.2,1.2,0,0,0,0,.28.85.85,0,0,0,0,.29.5.5,0,0,0,.1.22.47.47,0,0,0,.15.13.45.45,0,0,0,.2,0l.18,0A.35.35,0,0,0,52,155l.07-.06a.09.09,0,0,1,.06,0,.06.06,0,0,1,.06,0l.08.12a.49.49,0,0,1-.12.13l-.15.08-.17.05-.18,0a.72.72,0,0,1-.29-.06,1.08,1.08,0,0,1-.24-.18,1.05,1.05,0,0,1-.15-.3,1.14,1.14,0,0,1-.06-.39,1.44,1.44,0,0,1,.05-.37,1,1,0,0,1,.16-.3.65.65,0,0,1,.24-.19.85.85,0,0,1,.65,0,.81.81,0,0,1,.24.17Zm1.51.38a.64.64,0,0,0,0-.2.51.51,0,0,0-.09-.16.32.32,0,0,0-.13-.1.48.48,0,0,0-.18,0,.44.44,0,0,0-.34.14.63.63,0,0,0-.15.36Zm.24.85a.49.49,0,0,1-.13.12.7.7,0,0,1-.17.09l-.18.05-.18,0a.79.79,0,0,1-.32-.06.83.83,0,0,1-.26-.19.86.86,0,0,1-.16-.3,1.33,1.33,0,0,1-.06-.42,1,1,0,0,1,0-.35,1.06,1.06,0,0,1,.15-.28.67.67,0,0,1,.25-.19.72.72,0,0,1,.33-.07.87.87,0,0,1,.28.05.6.6,0,0,1,.22.16.7.7,0,0,1,.15.25,1,1,0,0,1,0,.35.25.25,0,0,1,0,.1l-.06,0H52.79a1.28,1.28,0,0,0,0,.3.7.7,0,0,0,.11.21.43.43,0,0,0,.17.13.46.46,0,0,0,.21,0,.5.5,0,0,0,.19,0l.14-.06.1-.06.07,0a.05.05,0,0,1,0,0Zm1.37-1.25a.09.09,0,0,1-.07,0,.06.06,0,0,1,0,0l-.08,0-.11,0a.34.34,0,0,0-.15,0,.27.27,0,0,0-.13,0,.23.23,0,0,0-.1.05.31.31,0,0,0-.07.09.3.3,0,0,0,0,.1.15.15,0,0,0,0,.11.21.21,0,0,0,.1.08.31.31,0,0,0,.13.06l.16.06.16.06.14.09a.31.31,0,0,1,.1.13.41.41,0,0,1,0,.19.59.59,0,0,1,0,.23.76.76,0,0,1-.12.19.67.67,0,0,1-.2.12.79.79,0,0,1-.28,0,.78.78,0,0,1-.31-.06.72.72,0,0,1-.25-.16l.07-.12,0,0,0,0a.09.09,0,0,1,.06,0l.08.05.12.06.17,0a.34.34,0,0,0,.15,0,.41.41,0,0,0,.11-.07.15.15,0,0,0,.06-.09.22.22,0,0,0,0-.11.25.25,0,0,0,0-.13.39.39,0,0,0-.1-.08.35.35,0,0,0-.14-.06l-.16-.06-.17-.06-.14-.09a.71.71,0,0,1-.1-.14.56.56,0,0,1,0-.2.41.41,0,0,1,0-.19.39.39,0,0,1,.11-.17.76.76,0,0,1,.19-.12.71.71,0,0,1,.26,0,.65.65,0,0,1,.29.06.51.51,0,0,1,.23.15Zm2-.33a.88.88,0,0,1,.33.06.83.83,0,0,1,.26.19.86.86,0,0,1,.16.3,1.47,1.47,0,0,1,0,.76,1,1,0,0,1-.16.3.68.68,0,0,1-.26.18.7.7,0,0,1-.33.07.72.72,0,0,1-.33-.07.68.68,0,0,1-.26-.18.86.86,0,0,1-.16-.3,1.47,1.47,0,0,1,0-.76.86.86,0,0,1,.16-.3.83.83,0,0,1,.26-.19A.88.88,0,0,1,57.34,153.5Zm0,1.61a.41.41,0,0,0,.37-.18,1,1,0,0,0,0-1,.41.41,0,0,0-.37-.18.51.51,0,0,0-.22,0,.7.7,0,0,0-.16.14.67.67,0,0,0-.09.21,1.29,1.29,0,0,0,0,.29.9.9,0,0,0,.12.5A.44.44,0,0,0,57.34,155.11Zm1.47-.21a.52.52,0,0,0,.18.16.54.54,0,0,0,.22.05.42.42,0,0,0,.36-.18.91.91,0,0,0,.13-.51,1.42,1.42,0,0,0,0-.31.53.53,0,0,0-.09-.2.25.25,0,0,0-.13-.12.39.39,0,0,0-.18,0,.46.46,0,0,0-.26.07,1,1,0,0,0-.2.2Zm0-1.09a.87.87,0,0,1,.24-.23.62.62,0,0,1,.59,0,.57.57,0,0,1,.2.18A1,1,0,0,1,60,154a1.64,1.64,0,0,1,0,.4,1.5,1.5,0,0,1,0,.37,1,1,0,0,1-.14.3.87.87,0,0,1-.23.2.74.74,0,0,1-.31.07.53.53,0,0,1-.26-.06.74.74,0,0,1-.2-.16v.8h-.29v-2.41h.17a.07.07,0,0,1,.08.06Zm1.88,1.09a.51.51,0,0,0,.17.16.54.54,0,0,0,.22.05.4.4,0,0,0,.36-.18.91.91,0,0,0,.13-.51,1.42,1.42,0,0,0,0-.31.53.53,0,0,0-.09-.2.25.25,0,0,0-.13-.12.34.34,0,0,0-.18,0,.46.46,0,0,0-.26.07,1.26,1.26,0,0,0-.2.2Zm0-1.09a.78.78,0,0,1,.25-.23.54.54,0,0,1,.31-.09.6.6,0,0,1,.27.06.57.57,0,0,1,.2.18,1,1,0,0,1,.13.29,1.59,1.59,0,0,1,0,.4,1.14,1.14,0,0,1,0,.37,1,1,0,0,1-.14.3.6.6,0,0,1-.23.19.61.61,0,0,1-.3.08.54.54,0,0,1-.27-.06.58.58,0,0,1-.19-.16v.8h-.3v-2.41h.18a.07.07,0,0,1,.07.06ZM63,153.5a.88.88,0,0,1,.33.06.79.79,0,0,1,.25.19.75.75,0,0,1,.16.29,1.23,1.23,0,0,1,.06.39,1.12,1.12,0,0,1-.06.38.68.68,0,0,1-.16.29.58.58,0,0,1-.25.19.88.88,0,0,1-.33.07.89.89,0,0,1-.34-.07.58.58,0,0,1-.25-.19.81.81,0,0,1-.16-.29,1.12,1.12,0,0,1-.06-.38,1.23,1.23,0,0,1,.06-.39.9.9,0,0,1,.16-.29.79.79,0,0,1,.25-.19A.9.9,0,0,1,63,153.5Zm0,1.61a.42.42,0,0,0,.37-.18.9.9,0,0,0,.12-.5.88.88,0,0,0-.12-.5.42.42,0,0,0-.37-.18.48.48,0,0,0-.22,0,.43.43,0,0,0-.16.14.58.58,0,0,0-.09.21,1.29,1.29,0,0,0,0,.29.9.9,0,0,0,.12.5A.43.43,0,0,0,63,155.11Zm1.45-1.22a.82.82,0,0,1,.2-.29.41.41,0,0,1,.28-.11l.1,0a.19.19,0,0,1,.09,0l0,.24s0,.05,0,.05h-.07l-.1,0a.32.32,0,0,0-.14,0,.41.41,0,0,0-.11.07l-.09.13a.59.59,0,0,0-.07.16v1.14h-.3v-1.8h.24a.14.14,0,0,1,0,.07Zm1.45,1.47a.4.4,0,0,1-.31-.12.49.49,0,0,1-.1-.34v-1.11h-.21a0,0,0,0,1,0,0,.08.08,0,0,1,0-.05v-.13l.28,0,.06-.56s0,0,0,0a.06.06,0,0,1,0,0h.15v.62h.49v.23h-.49v1.08a.25.25,0,0,0,0,.17.18.18,0,0,0,.14.06H66l.06,0s0,0,0,0l0,0a.05.05,0,0,1,0,0l.09.15a.5.5,0,0,1-.19.13A.78.78,0,0,1,65.85,155.36Zm2.06-1.84v1.81h-.18a.08.08,0,0,1-.08-.07l0-.19a1,1,0,0,1-.25.21.62.62,0,0,1-.31.08.6.6,0,0,1-.24-.05.49.49,0,0,1-.18-.14.7.7,0,0,1-.11-.21,1.27,1.27,0,0,1,0-.28v-1.16h.29v1.16a.48.48,0,0,0,.09.31.32.32,0,0,0,.27.12.55.55,0,0,0,.24-.07.76.76,0,0,0,.21-.19v-1.33Zm.74.27.12-.12a.38.38,0,0,1,.13-.09.42.42,0,0,1,.14-.06.5.5,0,0,1,.17,0,.45.45,0,0,1,.24.05.4.4,0,0,1,.18.13.76.76,0,0,1,.11.22,1.18,1.18,0,0,1,0,.28v1.15h-.3v-1.15a.51.51,0,0,0-.09-.32.33.33,0,0,0-.26-.11.45.45,0,0,0-.25.07.84.84,0,0,0-.21.18v1.33h-.3v-1.81h.18a.08.08,0,0,1,.08.07Zm1.89-.27v1.81h-.3v-1.81Zm.06-.56a.19.19,0,0,1,0,.08.3.3,0,0,1,0,.08l-.07,0a.12.12,0,0,1-.08,0,.11.11,0,0,1-.08,0l-.07,0a.3.3,0,0,1,0-.08.11.11,0,0,1,0-.08.15.15,0,0,1,0-.09.16.16,0,0,1,0-.07.18.18,0,0,1,.07-.05.11.11,0,0,1,.08,0,.12.12,0,0,1,.08,0l.07.05a.16.16,0,0,1,0,.07A.29.29,0,0,1,70.6,153Zm2,2.37h-.29v-1.54h-.87v1.08a.25.25,0,0,0,0,.17.18.18,0,0,0,.14.06l.08,0,.06,0,0,0,0,0a.05.05,0,0,1,0,0l.09.15a.62.62,0,0,1-.19.12.54.54,0,0,1-.22.05.4.4,0,0,1-.31-.12.52.52,0,0,1-.1-.35v-1.1h-.21l0,0a.08.08,0,0,1,0-.05v-.13l.28,0,.06-.55s0,0,0,0,0,0,0,0h.15v.62h1.16Zm.08-2.39a.29.29,0,0,1,0,.09.18.18,0,0,1,0,.07l-.06.05-.09,0-.08,0-.06-.05a.18.18,0,0,1,0-.07.25.25,0,0,1,0-.09.19.19,0,0,1,0-.08.22.22,0,0,1,0-.08l.06-.05h.17l.06.05a.22.22,0,0,1,0,.08A.19.19,0,0,1,72.66,152.94Zm1.54,1.29a.6.6,0,0,0,0-.2.42.42,0,0,0-.09-.16.31.31,0,0,0-.13-.1.39.39,0,0,0-.18,0,.42.42,0,0,0-.34.13.66.66,0,0,0-.15.37Zm.23.84a.53.53,0,0,1-.13.13l-.16.09-.18.05h-.18a.88.88,0,0,1-.33-.06.72.72,0,0,1-.25-.18,1,1,0,0,1-.17-.31,1.31,1.31,0,0,1-.06-.41A1,1,0,0,1,73,154a.73.73,0,0,1,.15-.29.79.79,0,0,1,.25-.19.88.88,0,0,1,.33-.07.67.67,0,0,1,.28.06.69.69,0,0,1,.22.16.76.76,0,0,1,.15.25,1.16,1.16,0,0,1,0,.34.25.25,0,0,1,0,.1.06.06,0,0,1-.06,0H73.27a.85.85,0,0,0,0,.29.65.65,0,0,0,.11.22.48.48,0,0,0,.16.12.54.54,0,0,0,.22,0l.19,0,.14-.06.1-.06a.11.11,0,0,1,.07,0,.05.05,0,0,1,0,0Zm1.37-1.25a.05.05,0,0,1-.06,0l0,0-.08,0-.11-.05-.15,0-.13,0a.39.39,0,0,0-.11.06.24.24,0,0,0-.06.08.18.18,0,0,0,0,.1.21.21,0,0,0,0,.12.39.39,0,0,0,.1.08l.14.06.16.05.16.07a.42.42,0,0,1,.14.09.32.32,0,0,1,.1.13.36.36,0,0,1,0,.19.85.85,0,0,1,0,.23.46.46,0,0,1-.13.18.56.56,0,0,1-.2.12.68.68,0,0,1-.27.05.87.87,0,0,1-.32-.06,1.43,1.43,0,0,1-.24-.16l.07-.12,0,0h0l.06,0,.08.06a.33.33,0,0,0,.12,0,.4.4,0,0,0,.17,0,.33.33,0,0,0,.15,0,.24.24,0,0,0,.11-.06.21.21,0,0,0,.06-.1.36.36,0,0,0,0-.11.16.16,0,0,0,0-.12.22.22,0,0,0-.1-.09l-.14-.06-.16-.05-.16-.07a.42.42,0,0,1-.14-.09.64.64,0,0,1-.1-.13.6.6,0,0,1,0-.2.54.54,0,0,1,.15-.37.59.59,0,0,1,.19-.11.66.66,0,0,1,.25,0,.73.73,0,0,1,.3.06.76.76,0,0,1,.23.15Z"/><path class="cls-11" d="M43.35,116.58v-7.51h2.41a2.9,2.9,0,0,1,2,.67,2.31,2.31,0,0,1,.73,1.79,2.5,2.5,0,0,1-.33,1.31,2.21,2.21,0,0,1-1,.86,3.25,3.25,0,0,1-1.49.31h-1v2.57Zm2.27-6.23h-.85v2.39h.85a1.6,1.6,0,0,0,1.09-.34,1.12,1.12,0,0,0,.37-.86,1.09,1.09,0,0,0-.37-.86A1.6,1.6,0,0,0,45.62,110.35Zm3.81,6.22v-5H50.6l.06.72a1.57,1.57,0,0,1,1.4-.82,2.06,2.06,0,0,1,.63.1l-.19,1.25a1.46,1.46,0,0,0-.53-.1,1.06,1.06,0,0,0-.87.43,2,2,0,0,0-.33,1.22v2.2Zm3.59-2.5a2.75,2.75,0,0,1,.32-1.33,2.35,2.35,0,0,1,.89-.93,2.38,2.38,0,0,1,1.28-.34,2.38,2.38,0,0,1,2.16,1.27,2.65,2.65,0,0,1,.32,1.33,2.68,2.68,0,0,1-.32,1.34,2.54,2.54,0,0,1-.88.93,2.49,2.49,0,0,1-1.28.33,2.46,2.46,0,0,1-1.28-.33,2.56,2.56,0,0,1-.89-.93A2.79,2.79,0,0,1,53,114.07Zm1.31,0a1.44,1.44,0,0,0,.33,1,1.14,1.14,0,0,0,1.7,0,1.44,1.44,0,0,0,.33-1,1.4,1.4,0,0,0-.33-1,1.09,1.09,0,0,0-.85-.39,1.07,1.07,0,0,0-.85.39A1.42,1.42,0,0,0,54.33,114.07Zm4.42,1.87.64-1.09a6.53,6.53,0,0,0,.73.46,1.42,1.42,0,0,0,.61.16.52.52,0,0,0,.33-.1.32.32,0,0,0,.12-.25.41.41,0,0,0-.23-.37q-.24-.14-.54-.27l-.66-.33a1.79,1.79,0,0,1-.55-.47,1.21,1.21,0,0,1-.22-.75,1.3,1.3,0,0,1,.47-1.05,2,2,0,0,1,1.32-.41,3.92,3.92,0,0,1,.88.11,2.83,2.83,0,0,1,.85.36l-.59,1.1a2.18,2.18,0,0,0-.53-.26,2,2,0,0,0-.56-.11.83.83,0,0,0-.29.06.22.22,0,0,0-.15.22.35.35,0,0,0,.21.3,5.11,5.11,0,0,0,.52.25c.21.09.43.2.66.32a1.59,1.59,0,0,1,.57.49,1.22,1.22,0,0,1,.24.79,1.41,1.41,0,0,1-.25.84,1.65,1.65,0,0,1-.67.55,2.34,2.34,0,0,1-.93.18,3,3,0,0,1-1-.18A3.36,3.36,0,0,1,58.75,115.94Zm4.91-4.37h1.27l0,.54a2,2,0,0,1,.69-.47,2,2,0,0,1,.84-.17,2,2,0,0,1,1.17.34,2.34,2.34,0,0,1,.81.92,3.24,3.24,0,0,1,0,2.68,2.45,2.45,0,0,1-.81.93,2.11,2.11,0,0,1-1.17.33,2.16,2.16,0,0,1-.81-.15,2.41,2.41,0,0,1-.68-.44v3H63.66Zm2.53,1.15a1.09,1.09,0,0,0-.85.38,1.45,1.45,0,0,0-.34,1,1.41,1.41,0,0,0,.34,1,1.07,1.07,0,0,0,.85.39A1.09,1.09,0,0,0,67,115a1.4,1.4,0,0,0,.33-1,1.44,1.44,0,0,0-.33-1A1.11,1.11,0,0,0,66.19,112.72Zm4.54,1.78a1.31,1.31,0,0,0,.46.67,1.23,1.23,0,0,0,.79.26,1.77,1.77,0,0,0,.81-.16,2.69,2.69,0,0,0,.58-.44l.81,1a3.09,3.09,0,0,1-1.07.63,3.39,3.39,0,0,1-1,.17,2.65,2.65,0,0,1-1.37-.34,2.38,2.38,0,0,1-.93-.93,2.7,2.7,0,0,1-.33-1.35,2.61,2.61,0,0,1,.32-1.32,2.34,2.34,0,0,1,.87-.92,2.39,2.39,0,0,1,1.27-.34,2.33,2.33,0,0,1,2.12,1.25,2.79,2.79,0,0,1,.32,1.34v.44Zm2.26-.8a1.27,1.27,0,0,0-.41-.71,1,1,0,0,0-.72-.27,1.11,1.11,0,0,0-.75.27,1.34,1.34,0,0,0-.41.71Zm6.5,2.23a2.44,2.44,0,0,1-.82.54,2.61,2.61,0,0,1-1,.2,2.5,2.5,0,0,1-1.32-.34,2.46,2.46,0,0,1-.92-.92,2.89,2.89,0,0,1,0-2.68,2.54,2.54,0,0,1,.91-.93,2.66,2.66,0,0,1,1.33-.34,2.61,2.61,0,0,1,1,.2,2.44,2.44,0,0,1,.82.54l-.95,1a1,1,0,0,0-.89-.44,1.06,1.06,0,0,0-.85.38,1.45,1.45,0,0,0-.34,1,1.42,1.42,0,0,0,.34,1,1.07,1.07,0,0,0,.85.39,1.05,1.05,0,0,0,.89-.45Zm.76-4.37H81v-1.25h1.35v1.25h1.13v1.25H82.36v1.85a.71.71,0,0,0,.75.76,1.18,1.18,0,0,0,.5-.12v1.18a2.36,2.36,0,0,1-.87.19,1.66,1.66,0,0,1-1.28-.48,1.93,1.93,0,0,1-.44-1.37v-2h-.77Zm4.23-1.7a.81.81,0,0,1,.21-.58.77.77,0,0,1,1.08,0,.81.81,0,0,1,.21.58.79.79,0,0,1-.21.58.77.77,0,0,1-1.08,0A.79.79,0,0,1,84.48,109.86Zm.08,6.71v-5H85.9v5Zm2-5H88l.85,2.44c0,.13.09.31.14.55s.1.47.13.66h0c0-.19.08-.41.14-.65s.11-.43.15-.56l.78-2.44h1.41l-1.84,5h-1.3Zm6.58,2.93a1.28,1.28,0,0,0,1.25.94,1.72,1.72,0,0,0,.8-.17,2.48,2.48,0,0,0,.59-.43l.81,1a3.16,3.16,0,0,1-1.08.62,3.06,3.06,0,0,1-1,.17,2.74,2.74,0,0,1-1.36-.33,2.44,2.44,0,0,1-.93-.93,2.76,2.76,0,0,1-.34-1.35,2.65,2.65,0,0,1,.33-1.33,2.34,2.34,0,0,1,.87-.92,2.37,2.37,0,0,1,1.27-.34,2.3,2.3,0,0,1,1.25.34,2.41,2.41,0,0,1,.87.92,2.76,2.76,0,0,1,.31,1.34v.43Zm2.25-.8A1.29,1.29,0,0,0,95,113a1,1,0,0,0-.73-.27,1.07,1.07,0,0,0-.74.28,1.25,1.25,0,0,0-.41.7Zm-52,14.47v-7.51h1.86l1.54,3.54.21.59c.07.19.14.39.2.58.07-.2.13-.4.21-.6s.15-.39.22-.57l1.54-3.54h1.81v7.51H49.52c0-.92,0-1.81,0-2.68s.05-1.74.1-2.62c-.08.23-.17.46-.26.69s-.17.45-.27.67l-1.18,2.71H46.36l-1.17-2.7c-.1-.25-.19-.5-.28-.74l-.27-.74c0,.58.06,1.14.08,1.68s0,1.11.05,1.71,0,1.27,0,2Zm9.9-2.07a1.26,1.26,0,0,0,.46.67,1.27,1.27,0,0,0,.79.26,1.73,1.73,0,0,0,.8-.16,2.28,2.28,0,0,0,.58-.44l.82,1a3.48,3.48,0,0,1-1.08.63,3.34,3.34,0,0,1-1,.17,2.64,2.64,0,0,1-1.36-.34,2.31,2.31,0,0,1-.93-.93,2.66,2.66,0,0,1-.34-1.35,2.75,2.75,0,0,1,.32-1.33,2.51,2.51,0,0,1,.88-.92,2.46,2.46,0,0,1,1.27-.34,2.3,2.3,0,0,1,1.25.34,2.38,2.38,0,0,1,.86.92,2.68,2.68,0,0,1,.32,1.34v.43Zm2.25-.81a1.29,1.29,0,0,0-.4-.71,1,1,0,0,0-.73-.27,1.12,1.12,0,0,0-.74.28,1.25,1.25,0,0,0-.41.71Zm2.09.37a3,3,0,0,1,.29-1.33,2.37,2.37,0,0,1,.81-.93,2.16,2.16,0,0,1,1.17-.34,2.22,2.22,0,0,1,.82.16,2.29,2.29,0,0,1,.67.44v-3h1.34v7.5H61.42l0-.55a1.91,1.91,0,0,1-.68.48,2.19,2.19,0,0,1-2-.17,2.31,2.31,0,0,1-.8-.92A3,3,0,0,1,57.59,125.65Zm1.39,0a1.4,1.4,0,0,0,.34,1,1.13,1.13,0,0,0,1.69,0,1.4,1.4,0,0,0,.34-1,1.38,1.38,0,0,0-.34-1,1.11,1.11,0,0,0-1.69,0A1.39,1.39,0,0,0,59,125.65Zm4.92-4.2a.85.85,0,0,1,.2-.58.7.7,0,0,1,.54-.22.71.71,0,0,1,.55.22.94.94,0,0,1,0,1.16.7.7,0,0,1-.54.22.71.71,0,0,1-.55-.22A.85.85,0,0,1,63.9,121.45Zm.07,6.7v-5h1.35v5Zm6.72-.64a2.32,2.32,0,0,1-.82.55,2.61,2.61,0,0,1-1,.19,2.65,2.65,0,0,1-1.33-.33,2.54,2.54,0,0,1-.91-.93,2.69,2.69,0,0,1-.34-1.34,2.66,2.66,0,0,1,.34-1.33,2.39,2.39,0,0,1,.91-.93,2.56,2.56,0,0,1,1.33-.34,2.61,2.61,0,0,1,1,.19,2.46,2.46,0,0,1,.82.55l-1,1a1.11,1.11,0,0,0-1.74-.06,1.38,1.38,0,0,0-.34,1,1.45,1.45,0,0,0,.34,1,1.09,1.09,0,0,0,.85.38,1.07,1.07,0,0,0,.89-.44Zm.89-.73a1.54,1.54,0,0,1,.26-.9,1.88,1.88,0,0,1,.74-.62,2.38,2.38,0,0,1,1.08-.23,1.82,1.82,0,0,1,.4,0l.43.06a1,1,0,0,0-1.11-.81,1.79,1.79,0,0,0-1.13.46l-.46-1.22a4.33,4.33,0,0,1,.95-.37,3.72,3.72,0,0,1,.9-.12,2.41,2.41,0,0,1,1.17.27,1.9,1.9,0,0,1,.77.77,2.3,2.3,0,0,1,.28,1.17v2.89H74.73l-.09-.53a1.78,1.78,0,0,1-.64.46,1.83,1.83,0,0,1-.82.17,1.65,1.65,0,0,1-1.16-.41A1.39,1.39,0,0,1,71.58,126.78Zm1.34-.33a.5.5,0,0,0,.18.4.72.72,0,0,0,.47.15.94.94,0,0,0,.67-.26.83.83,0,0,0,.28-.64V126a2.11,2.11,0,0,0-.38-.09,1.69,1.69,0,0,0-.38,0,1.09,1.09,0,0,0-.62.15A.48.48,0,0,0,72.92,126.45Zm5.55-6v7.7H77.13v-7.7ZM43.36,139.74v-7.5h2.42a2.92,2.92,0,0,1,2,.66,2.29,2.29,0,0,1,.73,1.8A2.52,2.52,0,0,1,48.2,136a2.15,2.15,0,0,1-1,.86,3.34,3.34,0,0,1-1.48.31h-1v2.56Zm2.26-6.23h-.84v2.39h.84a1.58,1.58,0,0,0,1.1-.34,1.17,1.17,0,0,0,0-1.71A1.58,1.58,0,0,0,45.62,133.51Zm3.81,6.23v-5H50.6l.07.71a1.57,1.57,0,0,1,1.4-.81,2,2,0,0,1,.62.1L52.51,136a1.69,1.69,0,0,0-.53-.09,1,1,0,0,0-.88.43,1.94,1.94,0,0,0-.33,1.21v2.21Zm3.6-2.5a2.68,2.68,0,0,1,.32-1.34,2.36,2.36,0,0,1,.88-.92,2.43,2.43,0,0,1,1.28-.34,2.4,2.4,0,0,1,2.16,1.26,2.89,2.89,0,0,1,0,2.68,2.29,2.29,0,0,1-.88.92,2.37,2.37,0,0,1-1.27.34,2.4,2.4,0,0,1-2.17-1.26A2.68,2.68,0,0,1,53,137.24Zm1.3,0a1.36,1.36,0,0,0,.34,1,1.11,1.11,0,0,0,1.69,0,1.38,1.38,0,0,0,.34-1,1.4,1.4,0,0,0-.34-1,1.13,1.13,0,0,0-1.69,0A1.4,1.4,0,0,0,54.33,137.24Zm5.19-2.5v-.68a2.11,2.11,0,0,1,.25-1,1.72,1.72,0,0,1,.65-.66,1.81,1.81,0,0,1,.88-.23,2.23,2.23,0,0,1,.62.1,2.4,2.4,0,0,1,.62.31l-.52,1a.57.57,0,0,0-.25-.14,1.09,1.09,0,0,0-.24,0,.61.61,0,0,0-.48.22,1,1,0,0,0-.18.65v.49H62V136H60.87v3.75H59.53V136h-.77v-1.25Zm4.57,2.93a1.31,1.31,0,0,0,.46.67,1.23,1.23,0,0,0,.79.26,1.74,1.74,0,0,0,.81-.16,2.47,2.47,0,0,0,.58-.44l.81,1a3.26,3.26,0,0,1-1.07.63,3.39,3.39,0,0,1-1,.17,2.68,2.68,0,0,1-1.37-.34,2.44,2.44,0,0,1-.93-.93,2.73,2.73,0,0,1-.33-1.35,2.58,2.58,0,0,1,.32-1.32A2.43,2.43,0,0,1,64,135a2.49,2.49,0,0,1,1.27-.34,2.36,2.36,0,0,1,1.25.34,2.34,2.34,0,0,1,.87.92,2.79,2.79,0,0,1,.32,1.34v.44Zm2.26-.8a1.38,1.38,0,0,0-.4-.72,1.08,1.08,0,0,0-.73-.27,1.12,1.12,0,0,0-.75.28,1.3,1.3,0,0,0-.41.71Zm2.13,2.23.64-1.08a5.19,5.19,0,0,0,.73.45,1.45,1.45,0,0,0,.61.17.54.54,0,0,0,.33-.1.35.35,0,0,0,.13-.26.43.43,0,0,0-.24-.37l-.54-.27q-.33-.15-.66-.33a1.79,1.79,0,0,1-.55-.47,1.17,1.17,0,0,1-.22-.75,1.36,1.36,0,0,1,.47-1.05,2,2,0,0,1,1.33-.41,3.51,3.51,0,0,1,.88.12,2.57,2.57,0,0,1,.85.36l-.6,1.09a2,2,0,0,0-.53-.25,1.71,1.71,0,0,0-.56-.12.88.88,0,0,0-.29.06.22.22,0,0,0-.15.22.35.35,0,0,0,.21.31,5.2,5.2,0,0,0,.52.24,6.65,6.65,0,0,1,.66.32,1.83,1.83,0,0,1,.58.49,1.22,1.22,0,0,1,.23.79,1.42,1.42,0,0,1-.25.85,1.64,1.64,0,0,1-.67.54,2.34,2.34,0,0,1-.93.19,3,3,0,0,1-1-.18A3.53,3.53,0,0,1,68.48,139.1Zm4.63,0,.64-1.09a5.34,5.34,0,0,0,.73.46,1.42,1.42,0,0,0,.61.16.48.48,0,0,0,.33-.1.31.31,0,0,0,.13-.25.43.43,0,0,0-.24-.37l-.54-.27q-.33-.15-.66-.33a1.79,1.79,0,0,1-.55-.47,1.19,1.19,0,0,1-.22-.75,1.35,1.35,0,0,1,.47-1.05,2,2,0,0,1,1.33-.41,3.51,3.51,0,0,1,.88.12,2.57,2.57,0,0,1,.85.36l-.6,1.09a2,2,0,0,0-.53-.25,1.71,1.71,0,0,0-.56-.12.88.88,0,0,0-.29.06.22.22,0,0,0-.15.22.35.35,0,0,0,.21.31,5.2,5.2,0,0,0,.52.24,6.65,6.65,0,0,1,.66.32,1.71,1.71,0,0,1,.58.49,1.22,1.22,0,0,1,.24.79,1.38,1.38,0,0,1-.26.84,1.58,1.58,0,0,1-.67.55,2.32,2.32,0,0,1-.92.18,2.73,2.73,0,0,1-1-.17A3.53,3.53,0,0,1,73.11,139.1ZM77.87,133a.81.81,0,0,1,.21-.58.69.69,0,0,1,.54-.22.7.7,0,0,1,.54.22.94.94,0,0,1,0,1.16.77.77,0,0,1-1.08,0A.81.81,0,0,1,77.87,133Zm.08,6.7v-5h1.34v5Zm2.3-2.5a2.75,2.75,0,0,1,.32-1.33,2.35,2.35,0,0,1,.89-.93,2.38,2.38,0,0,1,1.28-.34A2.34,2.34,0,0,1,84,135a2.39,2.39,0,0,1,.89.92,2.82,2.82,0,0,1,.32,1.34,2.79,2.79,0,0,1-.32,1.34,2.54,2.54,0,0,1-.88.93,2.49,2.49,0,0,1-1.28.33,2.38,2.38,0,0,1-2.17-1.26A2.79,2.79,0,0,1,80.25,137.23Zm1.3,0a1.45,1.45,0,0,0,.34,1,1.09,1.09,0,0,0,.85.38,1.11,1.11,0,0,0,.85-.38,1.44,1.44,0,0,0,.33-1,1.4,1.4,0,0,0-.33-1,1.09,1.09,0,0,0-.85-.39,1.07,1.07,0,0,0-.85.39A1.41,1.41,0,0,0,81.55,137.23Zm4.71,2.5v-5h1.17l.06.61a1.89,1.89,0,0,1,.66-.53,2,2,0,0,1,.84-.18,1.58,1.58,0,0,1,1.3.58,2.37,2.37,0,0,1,.49,1.6v2.92H89.43v-2.64c0-.81-.28-1.21-.85-1.21a.86.86,0,0,0-.71.34,1.57,1.57,0,0,0-.27,1v2.53Zm5.64-1.38a1.53,1.53,0,0,1,.26-.89,2,2,0,0,1,.74-.63A2.52,2.52,0,0,1,94,136.6l.4,0,.43.06a1,1,0,0,0-1.11-.81,1.84,1.84,0,0,0-1.13.45l-.46-1.21a4.21,4.21,0,0,1,1-.37,3.58,3.58,0,0,1,.89-.12,2.41,2.41,0,0,1,1.17.27,1.9,1.9,0,0,1,.77.77,2.3,2.3,0,0,1,.28,1.17v2.89H95.05l-.09-.54a1.69,1.69,0,0,1-.64.47,2,2,0,0,1-.82.17,1.69,1.69,0,0,1-1.16-.41A1.4,1.4,0,0,1,91.9,138.35Zm1.34-.33a.51.51,0,0,0,.18.41.72.72,0,0,0,.47.15.94.94,0,0,0,.67-.26.83.83,0,0,0,.28-.64v-.1l-.38-.1-.38,0a1.09,1.09,0,0,0-.62.15A.47.47,0,0,0,93.24,138Zm5.55-6v7.71H97.45V132Zm1.08,7.07.63-1.08a5.88,5.88,0,0,0,.74.45,1.45,1.45,0,0,0,.61.17.59.59,0,0,0,.33-.1.32.32,0,0,0,.12-.26.41.41,0,0,0-.23-.36,4,4,0,0,0-.55-.28c-.21-.09-.43-.2-.65-.32a1.82,1.82,0,0,1-.55-.48,1.17,1.17,0,0,1-.22-.75,1.32,1.32,0,0,1,.46-1,1.94,1.94,0,0,1,1.33-.41,3,3,0,0,1,.88.11,2.48,2.48,0,0,1,.85.36l-.59,1.1a1.94,1.94,0,0,0-.54-.26,1.57,1.57,0,0,0-.55-.11.83.83,0,0,0-.29.06.21.21,0,0,0-.15.22.35.35,0,0,0,.21.3l.52.25a6.57,6.57,0,0,1,.66.32,1.66,1.66,0,0,1,.57.48,1.24,1.24,0,0,1,.24.79,1.42,1.42,0,0,1-.25.85,1.62,1.62,0,0,1-.67.54,2.18,2.18,0,0,1-.93.19,3.07,3.07,0,0,1-1-.18A3.35,3.35,0,0,1,99.87,139.09Z"/><path class="cls-12" d="M99.92,105.87c-7.67,0-18.13-.15-28.6-9.18-5-4.28-8.88-6.9-23.17-15.54s-15-16.91-15-30.45c0-9.75,1.66-30.89-24.41-28.3C-14,24.67,2.38,45.21-35.33,36c-10.22-2.5,0-6.4,0-19.2l150.54,0C115.21,44.29,157.81,100.36,99.92,105.87Z"/><path class="cls-10" d="M99.38,34.37V33h6.23v1.33Z"/><path class="cls-10" d="M99.38,37V35.7h6.23V37Z"/><path class="cls-10" d="M99.38,39.71V38.38h6.23v1.34Z"/><rect class="cls-1" x="43.35" y="33.04" width="24.18" height="10.69"/><path class="cls-13" d="M45.84,158.45H57.1a3.2,3.2,0,0,1,3.09,3.31h0a3.2,3.2,0,0,1-3.08,3.31H45.85a3.2,3.2,0,0,1-3.09-3.31h0A3.21,3.21,0,0,1,45.84,158.45Z"/><path class="cls-11" d="M46,162.73v-2.62h.73a1.46,1.46,0,0,1,.62.12,1,1,0,0,1,.42.31A1.24,1.24,0,0,1,48,161a1.62,1.62,0,0,1,.08.49,1.51,1.51,0,0,1-.1.53,1.36,1.36,0,0,1-.27.39,1.16,1.16,0,0,1-.39.26,1.26,1.26,0,0,1-.47.08Zm.48-.5h.28a.81.81,0,0,0,.59-.2.75.75,0,0,0,.23-.6.93.93,0,0,0-.08-.41.67.67,0,0,0-.2-.26.57.57,0,0,0-.23-.12l-.2,0h-.39Zm1.89-.29a.85.85,0,0,1,.1-.43.72.72,0,0,1,.3-.3.86.86,0,0,1,.43-.11.83.83,0,0,1,.43.11.63.63,0,0,1,.28.3.84.84,0,0,1,.1.42.92.92,0,0,1-.1.44.73.73,0,0,1-.28.3.83.83,0,0,1-.43.11,1,1,0,0,1-.43-.1.74.74,0,0,1-.29-.29A.84.84,0,0,1,48.35,161.94Zm.47,0a.46.46,0,0,0,.1.31.3.3,0,0,0,.25.12.32.32,0,0,0,.26-.12.52.52,0,0,0,.09-.31.5.5,0,0,0-.09-.31.32.32,0,0,0-.26-.12.3.3,0,0,0-.25.12A.46.46,0,0,0,48.82,161.94Zm2-.76,0,.24a.69.69,0,0,1,.22-.23.62.62,0,0,1,.34-.09.45.45,0,0,1,.34.13.46.46,0,0,1,.14.34v1.16h-.46v-1a.25.25,0,0,0,0-.16.22.22,0,0,0-.16-.07.29.29,0,0,0-.26.17.73.73,0,0,0-.1.41v.63h-.46v-1.55Zm2.16,1.6a.78.78,0,0,1-.37-.09.68.68,0,0,1-.26-.27,1,1,0,0,1-.09-.46,1,1,0,0,1,.1-.46.7.7,0,0,1,.26-.3.61.61,0,0,1,.34-.1.58.58,0,0,1,.33.07.59.59,0,0,1,.18.17l0-.17h.43v1.56h-.46v-.19l-.1.09-.16.1A.56.56,0,0,1,52.94,162.78Zm.13-.41a.38.38,0,0,0,.36-.24v-.38a.49.49,0,0,0-.14-.18.45.45,0,0,0-.23-.07.34.34,0,0,0-.26.12.45.45,0,0,0-.11.31.51.51,0,0,0,.05.22.44.44,0,0,0,.14.16A.35.35,0,0,0,53.07,162.37Zm1.44-1.88H55v.68h.35v.39H55v1.17h-.46v-1.17h-.23v-.39h.23Zm1.88,2.28a.88.88,0,0,1-.45-.1.68.68,0,0,1-.28-.3,1,1,0,0,1-.1-.43.8.8,0,0,1,.12-.43.86.86,0,0,1,.3-.3.88.88,0,0,1,.42-.11.69.69,0,0,1,.51.19,1,1,0,0,1,.26.56l-1.06.37a.35.35,0,0,0,.29.13.4.4,0,0,0,.15,0l.14-.07.21.37-.26.11A.73.73,0,0,1,56.39,162.77Zm-.37-.86v0l.64-.23a.31.31,0,0,0-.1-.15.24.24,0,0,0-.2-.07.3.3,0,0,0-.24.11A.45.45,0,0,0,56,161.91Z"/><g class="cls-14"><path class="cls-15" d="M86.4,56.87V73.32a1.71,1.71,0,0,1-1.64,1.76H81.43a1.7,1.7,0,0,1-1.59-1.75V56.87a1.7,1.7,0,0,1,1.64-1.75h3.29A1.69,1.69,0,0,1,86.4,56.87Z"/><path class="cls-15" d="M92.43,63.39v3.53a1.71,1.71,0,0,1-1.64,1.75H75.45a1.69,1.69,0,0,1-1.64-1.75V63.39a1.7,1.7,0,0,1,1.63-1.75H90.79A1.7,1.7,0,0,1,92.43,63.39Z"/><path class="cls-11" d="M74.67,52.4c-1,3.31-8.84,13.23-11.23,13.46-3.28.33-3.1-1.32-6.18-1s-3.89-3.83-1.6-5.73c1.78-1.46,1.39-5.49,5.12-6.43,2.48-.62,2.67-1.44,4-3.16a6.29,6.29,0,0,1,4.72-2.94C72.6,46.27,75.46,49.66,74.67,52.4Z"/><path class="cls-16" d="M77.44,89l-3,14.57c-.65,2.81-3.77,1.73-3.78-.76l.57-14.28-.06-.23-1.44-4.64-.35-1.09,0-.09L67.78,77.6c-.32-1.58,1.45-3.58,3-4.24a2.42,2.42,0,0,1,.5-.16,3.1,3.1,0,0,1,3.73,2.46L77.3,86.88c0,.1,0,.2,0,.3h0A3.63,3.63,0,0,1,77.44,89Z"/><path class="cls-7" d="M84.12,71.83l-8-2.36-2.4-7a2.31,2.31,0,0,0-3-1.49,2.56,2.56,0,0,0-1.38,3.22l3.39,7.68a2.41,2.41,0,0,0,.66,1,2.3,2.3,0,0,0,1.24.65l9.11.86A1.32,1.32,0,0,0,84.12,71.83Z"/><path class="cls-10" d="M82.41,70.92l-.07.38-.48,3,0,.28v.08L75,74a.9.9,0,0,1-.16,0,2.65,2.65,0,0,1-1.25-.71,2.68,2.68,0,0,1-.71-1.08.42.42,0,0,1,0-.1l0-.11-3.87-8.74a3,3,0,0,1,1.6-3.7,2.65,2.65,0,0,1,3.46,1.71l2.77,8Z"/><path class="cls-16" d="M71.28,76.29l-1,3.36-.91,2.94-.31,1h0l-1.12,3.58a3.65,3.65,0,0,1-1.72,2.1L54,95.66C51.8,96.8,51.29,92.94,52.45,92L62,84.08,64,74c.53-1.71,3.52-2.44,5.19-1.85a3.4,3.4,0,0,1,2.07,4.17Z"/><path class="cls-10" d="M69.66,57.83c-3.14-.12-5.07,2.44-5.18,5.8l-1.05,11,11.38.41-.16-10.81C74.77,60.9,72.8,57.94,69.66,57.83Z"/><path class="cls-7" d="M74.11,55c-1.13,3.83-3.9,4.18-5.8,3.15a5.17,5.17,0,0,1-2.8-6.08,4.47,4.47,0,0,1,5.67-3.15A4.91,4.91,0,0,1,74.11,55Z"/><path class="cls-11" d="M73.58,73.38l-5.29-6.64-7.62,7L66,80.35Z"/><path class="cls-7" d="M68.65,78.15l-3.46-8.07,3.43-6.48a2.61,2.61,0,0,0-.87-3.42,2.26,2.26,0,0,0-3.19.94l-3.29,7.74a2.5,2.5,0,0,0-.3,1.19,2.6,2.6,0,0,0,.33,1.43l5.25,8C67.59,80.78,69.27,79.77,68.65,78.15Z"/><path class="cls-11" d="M72.57,48.81c.51,1.32-1.94,3.71-4.23,4.79-.54.26-2.92,1.37-3.6.56-.87-1,.82-5.21,3.85-6.14C70.11,47.54,72.18,47.81,72.57,48.81Z"/><path class="cls-10" d="M69.57,63c-.2.43-.45.84-.66,1.26L67,68c-.45.84-.9,1.7-1.35,2.55.82,1.91,1.65,3.84,2.48,5.75l-1,.65-2,1.24-4-6a3.07,3.07,0,0,1-.38-1.64,2.89,2.89,0,0,1,.36-1.37l3.79-8.91a2.59,2.59,0,0,1,3.67-1.09,2.89,2.89,0,0,1,.49.39,4.08,4.08,0,0,1,.31.36l.13.18a2.89,2.89,0,0,1,.36,1.16A3.81,3.81,0,0,1,69.57,63Z"/><path class="cls-11" d="M75.92,103.83c-1.08-.52-4.48-1.51-4.48-1.51a1.81,1.81,0,0,0-2.09,1.54,1.93,1.93,0,0,0,1.27,2.35s3.47.63,4.64.76C77.21,107.2,77.8,104.73,75.92,103.83Z"/><path class="cls-11" d="M54.61,97.26c-.3-1.22-1.73-4.68-1.73-4.68a1.72,1.72,0,0,0-2.43-.76,2,2,0,0,0-.9,2.54s1.74,3.28,2.38,4.33C53,100.46,55.14,99.39,54.61,97.26Z"/><path class="cls-17" d="M81.86,74.31l0,.25a0,0,0,0,1,0,0L75,74a.9.9,0,0,1-.16,0v-.35l-.09-5.79a.05.05,0,1,1,.1,0,18.11,18.11,0,0,0,.65,4.13c.56,2.32,4.35,1.93,6.35,2.32A.12.12,0,0,1,81.86,74.31Z"/><path class="cls-17" d="M69.25,63.64C68.6,64.82,67.46,67,67,68c-.35.69-.8,1.55-1.35,2.55.82,1.91,1.65,3.84,2.48,5.75l-1,.65-2.13-5.78a.92.92,0,0,1,.07-.79c.85-1.41,3.45-5.62,4.18-6.79C69.35,63.27,69.36,63.45,69.25,63.64Z"/><path class="cls-17" d="M70.21,79.56c0-.08.14,0,.12,0-.1.43-.2.9-.29,1.38-.18,1-.3,1.87-.38,2.7l-.35-1.09-.31,1c.09-.36.18-.72.29-1.09C69.58,81.46,69.89,80.48,70.21,79.56Z"/><path class="cls-7" d="M91.1,48a.59.59,0,1,0-.55-.59A.57.57,0,0,0,91.1,48Z"/><path class="cls-7" d="M93.79,49.3a.58.58,0,0,0,.55-.59.55.55,0,1,0-1.1,0A.58.58,0,0,0,93.79,49.3Z"/><path class="cls-7" d="M91.1,54.3A2.87,2.87,0,0,1,89.79,54a3.4,3.4,0,0,1-1.44-4.35l0,0v0L89.8,46.4l1.41.71-.2.45-1-.51-1.24,2.8A2.86,2.86,0,0,0,90,53.53a2.51,2.51,0,0,0,3.44-1.3l0,0,1.21-2.73-1-.51.21-.45,1.41.72L93.88,52.4s0,0,0,0A3,3,0,0,1,91.1,54.3Z"/><path class="cls-7" d="M89.9,54.35a.56.56,0,0,0,.54-.59.55.55,0,1,0-.54.59Z"/><path class="cls-7" d="M90.38,58.27a1.73,1.73,0,0,1-.63-.13,2.07,2.07,0,0,1-1.24-1.54,3.68,3.68,0,0,1,1.27-3.12l.33.36A3.19,3.19,0,0,0,89,56.5a1.56,1.56,0,0,0,.94,1.18c.64.26,1,0,1.51-.38a3,3,0,0,1,2.5-.71l-.07.49a2.63,2.63,0,0,0-2.18.63A2.14,2.14,0,0,1,90.38,58.27Z"/><path class="cls-7" d="M94.31,58a.85.85,0,0,1-.38-.09.93.93,0,0,1-.45-.54,1,1,0,0,1,0-.72.87.87,0,0,1,.5-.48.82.82,0,0,1,.67,0,.9.9,0,0,1,.45.54,1,1,0,0,1,0,.72.87.87,0,0,1-.5.48A.93.93,0,0,1,94.31,58Zm0-1.39a.35.35,0,0,0-.14,0,.43.43,0,0,0-.23.23.45.45,0,0,0,0,.34.42.42,0,0,0,.22.25.37.37,0,0,0,.31,0,.4.4,0,0,0,.23-.23.45.45,0,0,0,0-.34.44.44,0,0,0-.21-.25A.29.29,0,0,0,94.31,56.59Z"/><path class="cls-10" d="M98.59,67.7l-1.17-1.19a1.84,1.84,0,0,1-.06-2.46A1.56,1.56,0,0,1,99.65,64l1.17,1.2Z"/><path class="cls-15" d="M99.77,68.9,98.6,67.7l2.23-2.51L102,66.38a1.83,1.83,0,0,1,.06,2.46A1.55,1.55,0,0,1,99.77,68.9Z"/><path class="cls-11" d="M88.53,85.36,84.7,80a.14.14,0,0,1,0-.19l.24-.19a.11.11,0,0,1,.17,0L89,85a.14.14,0,0,1,0,.19l-.24.19A.12.12,0,0,1,88.53,85.36Z"/><path class="cls-11" d="M87.35,83.48,86.08,81.7l-1.85,1.51L85.5,85Z"/><path class="cls-7" d="M88.22,84l-2.35-3.29,5.87-4.82a.44.44,0,0,1,.65.09l1.78,2.49a.51.51,0,0,1-.09.7Z"/><path class="cls-11" d="M85.35,86.06l-2.11-3a.21.21,0,0,1,0-.29l.35-.29a.19.19,0,0,1,.27,0l2.11,3a.22.22,0,0,1,0,.29l-.35.29A.18.18,0,0,1,85.35,86.06Z"/><path class="cls-11" d="M96,75.09l-1.77,1.45a0,0,0,0,1-.07,0l-.08-.1a.06.06,0,0,1,0-.08l1.78-1.45s0,0,.07,0l.07.1A.05.05,0,0,1,96,75.09Z"/><path class="cls-10" d="M93.41,79.71l-1.18-1.65-.17.14,1.18,1.65Z"/><path class="cls-10" d="M92.53,80.44l-.65-.91-.17.14.65.91Z"/><path class="cls-10" d="M91.61,81.19l-1.17-1.65-.17.14,1.17,1.65Z"/><path class="cls-10" d="M90.73,81.92,90.08,81l-.17.14.65.91Z"/><path class="cls-10" d="M89.92,82.58l-1.18-1.65-.17.14,1.18,1.65Z"/><path class="cls-10" d="M89,83.31l-.65-.91-.17.14.65.91Z"/><path class="cls-7" d="M93.76,78.16l-1.2-1.69,1-.84a.43.43,0,0,1,.64.09l.65.91a.52.52,0,0,1-.09.69Z"/><path class="cls-10" d="M98.35,68.76l.84-.32a.89.89,0,0,1,1.15.59,1,1,0,0,1-.55,1.22l-.85.32Z"/><path class="cls-15" d="M97.5,69.08l.85-.32.59,1.81-.84.32A.89.89,0,0,1,97,70.3,1,1,0,0,1,97.5,69.08Z"/></g></g></g><text class="cls-18" transform="translate(42.17 21.25) scale(0.97 1)">9<tspan class="cls-19" x="2.6" y="0">:</tspan><tspan class="cls-20" x="3.5" y="0">4</tspan><tspan x="6.07" y="0">1</tspan></text><line class="cls-21" x1="67.97" y1="172.72" x2="83.93" y2="172.72"/><line class="cls-22" x1="90.76" y1="17.65" x2="90.76" y2="22.09"/><rect class="cls-23" x="93.11" y="16.53" width="9.66" height="5.45" rx="1.22"/><rect class="cls-23" x="93.91" y="17.23" width="8.06" height="4.05" rx="0.96"/></g></svg>