<svg xmlns="http://www.w3.org/2000/svg" xmlns:xlink="http://www.w3.org/1999/xlink" viewBox="0 0 200.87 187.14"><defs><style>.cls-1,.cls-20,.cls-29,.cls-41{fill:#aadfed;}.cls-1,.cls-19,.cls-27,.cls-28,.cls-41{stroke:#fff;}.cls-1,.cls-10,.cls-11,.cls-12,.cls-13,.cls-14,.cls-15,.cls-16,.cls-17,.cls-18,.cls-2,.cls-26,.cls-3,.cls-30,.cls-33,.cls-34,.cls-35,.cls-36,.cls-38,.cls-39,.cls-40,.cls-41,.cls-9{stroke-miterlimit:10;}.cls-1{stroke-width:0.26px;}.cls-14,.cls-18,.cls-2,.cls-25,.cls-32,.cls-39,.cls-9{fill:#231f20;}.cls-10,.cls-11,.cls-12,.cls-13,.cls-14,.cls-15,.cls-16,.cls-17,.cls-18,.cls-2,.cls-22,.cls-24,.cls-25,.cls-26,.cls-29,.cls-3,.cls-30,.cls-31,.cls-32,.cls-33,.cls-34,.cls-35,.cls-36,.cls-37,.cls-38,.cls-39,.cls-9{stroke:#231f20;}.cls-10,.cls-21,.cls-3{fill:#fff;}.cls-4{fill:#847c78;}.cls-5{fill:#282a36;}.cls-6{fill:#ac93c5;}.cls-7{fill:#eff1ae;}.cls-8{fill:#ec7eb2;}.cls-29,.cls-34,.cls-9{stroke-width:0.09px;}.cls-10,.cls-11,.cls-12,.cls-13,.cls-14,.cls-15{stroke-width:0.13px;}.cls-11,.cls-17,.cls-19,.cls-22,.cls-23,.cls-24,.cls-27,.cls-28,.cls-30,.cls-31,.cls-33,.cls-34,.cls-35,.cls-36,.cls-37,.cls-38,.cls-40{fill:none;}.cls-12{fill:url(#linear-gradient);}.cls-13{fill:url(#linear-gradient-2);}.cls-15{fill:url(#linear-gradient-3);}.cls-16,.cls-17{stroke-width:0.13px;}.cls-16{fill:url(#linear-gradient-4);}.cls-18{stroke-width:0.12px;}.cls-19,.cls-22,.cls-23,.cls-24,.cls-25,.cls-27,.cls-28,.cls-29,.cls-31,.cls-32,.cls-37,.cls-38{stroke-linecap:round;}.cls-19,.cls-22,.cls-23,.cls-24,.cls-25,.cls-27,.cls-28,.cls-29,.cls-31,.cls-32,.cls-37{stroke-linejoin:round;}.cls-19{stroke-width:0.26px;}.cls-22{stroke-width:0.15px;}.cls-23{stroke:#414042;stroke-width:0.12px;}.cls-24{stroke-width:0.69px;}.cls-25{stroke-width:0.13px;}.cls-26,.cls-35,.cls-37,.cls-38{stroke-width:0.13px;}.cls-26{fill:url(#linear-gradient-5);}.cls-27{stroke-width:0.07px;}.cls-28,.cls-30,.cls-31,.cls-32{stroke-width:0.17px;}.cls-33{stroke-width:0.08px;}.cls-36{stroke-width:0.09px;}.cls-39{stroke-width:0.01px;}.cls-40{stroke:#aadfed;stroke-width:0.84px;}.cls-41{stroke-width:0.23px;}</style><linearGradient id="linear-gradient" x1="158.48" y1="109.68" x2="163.22" y2="109.68" gradientUnits="userSpaceOnUse"><stop offset="0.17" stop-color="#c2b59b"/><stop offset="0.39" stop-color="#bdae96"/><stop offset="0.71" stop-color="#ae9c89"/><stop offset="1" stop-color="#9b8579"/></linearGradient><linearGradient id="linear-gradient-2" x1="155.82" y1="92.56" x2="160.23" y2="92.56" xlink:href="#linear-gradient"/><linearGradient id="linear-gradient-3" x1="154.03" y1="115.67" x2="163.5" y2="115.67" xlink:href="#linear-gradient"/><linearGradient id="linear-gradient-4" x1="134.45" y1="113.54" x2="147.01" y2="113.54" gradientUnits="userSpaceOnUse"><stop offset="0.17" stop-color="#c2b59b"/><stop offset="0.31" stop-color="#bdae96"/><stop offset="0.52" stop-color="#ae9c89"/><stop offset="0.71" stop-color="#9b8579"/></linearGradient><linearGradient id="linear-gradient-5" x1="136.45" y1="112.54" x2="143.74" y2="118.26" gradientTransform="translate(13.61 -2.8) rotate(-1.2)" gradientUnits="userSpaceOnUse"><stop offset="0" stop-color="#e6e7e8"/><stop offset="0.42" stop-color="#fff"/><stop offset="0.56" stop-color="#f8f9f9"/><stop offset="0.76" stop-color="#e6e7e7"/><stop offset="0.93" stop-color="#d1d3d4"/></linearGradient></defs><g id="Layer_1" data-name="Layer 1"><path class="cls-1" d="M36.66,58.31l-.31-3.5-1.19.11s.06,1.15-.52,1.21S34,55.07,34,55.07l-1.17.12.2,1.56s-.75-.21-1,.14-.22,1,.16,1.11a1.09,1.09,0,0,0,.79-.22l.15,1.1,1.16-.16c-.08-1.29.35-1.3.47-1.3.44-.09.61,1.2.61,1.2h0Z"/></g><g id="Layer_4" data-name="Layer 4"><path class="cls-2" d="M191.4,50.33v94.82a5.91,5.91,0,0,1-3.72,5.49,5.84,5.84,0,0,0,.42-2.18V53.63a5.92,5.92,0,0,0-5.91-5.91H19.27a5.93,5.93,0,0,0-2.19.42,5.91,5.91,0,0,1,5.49-3.72H185.49A5.9,5.9,0,0,1,191.4,50.33Z"/><path class="cls-3" d="M188.1,53.63v94.83a5.84,5.84,0,0,1-.42,2.18,5.93,5.93,0,0,1-2.19.42H22.57a5.9,5.9,0,0,1-5.91-5.91V50.33a5.93,5.93,0,0,1,.42-2.19,5.93,5.93,0,0,1,2.19-.42H182.19A5.92,5.92,0,0,1,188.1,53.63Z"/><path class="cls-3" d="M188.1,53.63v94.83a5.92,5.92,0,0,1-5.91,5.91H19.27a5.9,5.9,0,0,1-5.91-5.91V53.63a5.91,5.91,0,0,1,5.91-5.91H182.19A5.92,5.92,0,0,1,188.1,53.63Z"/><path class="cls-4" d="M67.67,147.75c0,.42.09.56.27.44s.29-.1.29.05,0,.13-.09.13-.11.09,0,.19.09.05.12,0,.06-.08.09-.06,0,0,0-.07,0-.11,0-.08l.19.08s.1,0,.1,0,.18-.06.64,0l.2,0,0-.23c-.09-.55-.11-.57-.56-.53s-.49.06-.36.15.06.06,0,.06-.13,0-.1-.08-.44-.35-.58-.25-.11,0-.11-.06,0-.13-.05-.13A.72.72,0,0,0,67.67,147.75Z"/><path class="cls-5" d="M30.27,54.84a.92.92,0,0,0-.19.35l0,.22H28.67l-.05,1c0,.53,0,1.32,0,1.77V59H29c.76,0,1.12.3,1.12.93s-.38,1-1.1,1.1l-.38.05v.36c0,.21,0,.53,0,.71l-.05.34.86,0,.85,0,0,.22c.11.63.54,1,.95.9a1.09,1.09,0,0,0,.55-.85l.05-.31h1V62c0-1-.12-3.64-.17-3.78s-.07-.14-.25-.09c-.54.15-.9-.36-.71-1a.61.61,0,0,1,.63-.49c.26,0,.27,0,.19-.76l-.05-.37h-1v-.21a.73.73,0,0,0-.15-.39c-.12-.15-.2-.18-.49-.18S30.38,54.73,30.27,54.84Z"/><path class="cls-5" d="M163.42,56.51a3.39,3.39,0,0,0,0,6.58,44.1,44.1,0,0,0,5.81.11c4.57,0,5.48,0,5.81-.11a3.39,3.39,0,0,0,0-6.59C174.49,56.35,164,56.36,163.42,56.51Zm2.82,2.37a.54.54,0,0,1-.05.78l-.18.15.21.32a2.68,2.68,0,0,1,.23.34s-.07,0-.15,0-.24-.11-.4-.36-.28-.35-.37-.35-.14.05-.14.35,0,.36-.14.36-.14,0-.14-.89v-.88h.49C166,58.74,166.13,58.77,166.24,58.88Zm1.15.36a.65.65,0,0,1,.33.56c0,.13-.05.14-.42.14s-.43,0-.43.09a.29.29,0,0,0,.5.16c.11-.14.28-.14.28,0,0,.33-.61.45-.9.17a.55.55,0,0,1-.16-.48c0-.34.08-.5.32-.62A.42.42,0,0,1,167.39,59.24Zm1.38.11a.52.52,0,0,1,.08.18c0,.09-.27.07-.32,0s-.12-.07-.22-.07-.21.19,0,.25.51.23.51.46,0,.23-.23.31c-.34.14-.75,0-.76-.3,0-.12.18-.11.28,0a.39.39,0,0,0,.27.11c.25,0,.18-.23-.11-.33a1.14,1.14,0,0,1-.35-.18.38.38,0,0,1,.15-.56A.66.66,0,0,1,168.77,59.35Zm2.52-.09c.12.09.16.09.28,0s.3-.13.49.08.18.23.18.67,0,.5-.14.5-.14,0-.14-.42-.05-.64-.22-.64-.28.21-.28.66,0,.4-.1.4-.11-.09-.11-.41c0-.49-.13-.73-.33-.61s-.13.18-.15.55,0,.47-.15.47-.15,0-.15-.65v-.64l.17,0a.56.56,0,0,0,.27,0C171.05,59.14,171.13,59.15,171.29,59.26Zm2,0a.65.65,0,0,1,.33.56c0,.13-.05.14-.42.14s-.43,0-.43.09a.29.29,0,0,0,.5.16c.11-.14.28-.14.28,0,0,.33-.61.45-.9.17a.55.55,0,0,1-.16-.48c0-.34.08-.5.32-.62A.42.42,0,0,1,173.25,59.24Zm-3.91.39c0,.45.1.67.29.67s.28-.22.28-.67,0-.4.14-.4.14.05.14.63v.63h-.46c-.55,0-.6,0-.6-.76,0-.4,0-.51.11-.51S169.34,59.32,169.34,59.63Z"/><path class="cls-5" d="M165.39,59.23c0,.28,0,.29.24.29s.47-.07.47-.26-.22-.31-.54-.31C165.41,59,165.39,59,165.39,59.23Z"/><path class="cls-5" d="M167,59.53c-.15.15-.09.2.2.2s.28,0,.28-.06-.16-.22-.28-.22A.3.3,0,0,0,167,59.53Z"/><path class="cls-5" d="M172.82,59.53c-.15.15-.09.2.2.2s.28,0,.28-.06-.16-.22-.28-.22A.3.3,0,0,0,172.82,59.53Z"/><path class="cls-5" d="M117,59.29v.91h.42c.38,0,.44,0,.56-.18a.77.77,0,0,0,0-.9c-.13-.17-.19-.19-.45-.17l-.32,0v-.29c0-.23,0-.31-.1-.31S117,58.53,117,59.29Zm.84.1c.17.38-.22.8-.53.55a.71.71,0,0,1,0-.69A.36.36,0,0,1,117.87,59.39Z"/><path class="cls-5" d="M100.3,59.34c0,.74,0,.88.11.88s.1-.09.1-.39v-.38h1v.38c0,.3,0,.39.11.39s.1-.14.1-.88,0-.89-.1-.89-.11.11-.12.37l0,.38h-.92l0-.38c0-.26,0-.37-.13-.37S100.3,58.62,100.3,59.34Z"/><path class="cls-5" d="M115.88,58.5c0,.07-.26.62-.51,1.28-.16.42-.16.44,0,.44s.15-.08.21-.24.09-.25.45-.25.37,0,.46.25.14.24.23.24.19.15-.35-1.2C116.15,58.54,116,58.35,115.88,58.5Zm.16.93c-.12,0-.24,0-.25,0a.94.94,0,0,1,.08-.3l.13-.28.12.29.13.28Z"/><path class="cls-5" d="M130.66,59.34c0,.84,0,.88.14.88s.14,0,.14-.35v-.35h.31c.42,0,.64-.18.64-.54s-.21-.53-.78-.53h-.45Zm.85-.6a.29.29,0,0,1,.14.24c0,.2-.19.32-.49.32s-.22,0-.22-.32,0-.31.22-.31A.91.91,0,0,1,131.51,58.74Z"/><path class="cls-5" d="M134.34,58.57c0,.07.07.13.13.13s.11-.06.13-.13,0-.12-.13-.12S134.33,58.49,134.34,58.57Z"/><path class="cls-5" d="M148,58.54a16,16,0,0,0,.46,1.67c.11.11.25-.11.35-.53.18-.73.21-.74.39-.06.24.88.34.84.63-.25a5.71,5.71,0,0,0,.19-.9c-.1-.11-.24.1-.35.56a2.85,2.85,0,0,1-.18.58s-.09-.09-.14-.29c-.19-.77-.22-.87-.32-.87s-.26.44-.36,1c-.06.29-.14.31-.2,0-.11-.56-.27-1-.37-1A.11.11,0,0,0,148,58.54Z"/><path class="cls-5" d="M150.3,59.32c0,.76,0,.87.15.89s.12-.06.12-.86,0-.9-.15-.9S150.28,58.49,150.3,59.32Z"/><path class="cls-5" d="M150.93,59.32c0,.76,0,.87.15.89s.12,0,.12-.33v-.36h.35c.44,0,.64-.17.64-.53s-.25-.54-.83-.54h-.45Zm.89-.57a.36.36,0,0,1,.09.23c0,.22-.14.32-.44.32h-.27v-.63h.27A.6.6,0,0,1,151.82,58.75Z"/><path class="cls-5" d="M121.2,58.77c0,.12,0,.18-.11.18s-.1,0-.1.07.05.09.1.11.11.15.11.44a1.57,1.57,0,0,0,.07.52c.09.17.49.19.49,0a.13.13,0,0,0-.14-.11c-.13,0-.14,0-.14-.42s0-.43.14-.43.14,0,.14-.1a.13.13,0,0,0-.14-.11c-.1,0-.14-.05-.14-.18s0-.18-.14-.18S121.2,58.64,121.2,58.77Z"/><path class="cls-5" d="M137.58,58.77c0,.12-.05.18-.11.18a.11.11,0,0,0-.11.11.11.11,0,0,0,.11.1c.09,0,.11.1.11.45s.07.61.36.61.28-.19.05-.22-.17-.07-.19-.43,0-.41.13-.41.14,0,.14-.1a.13.13,0,0,0-.14-.11c-.11,0-.14-.05-.14-.18s0-.18-.11-.18S137.58,58.66,137.58,58.77Z"/><path class="cls-5" d="M102.42,59a.49.49,0,0,0-.31.31.6.6,0,0,0,0,.55.5.5,0,0,0,.53.41.46.46,0,0,0,.5-.29.67.67,0,0,0,0-.74A.52.52,0,0,0,102.42,59Zm.41.3a.58.58,0,0,1,.08.34c0,.29-.1.42-.33.42s-.3-.19-.3-.47.11-.38.32-.38A.36.36,0,0,1,102.83,59.25Z"/><path class="cls-5" d="M103.94,58.93a.47.47,0,0,1-.25,0h-.21v.63c0,.51,0,.63.1.63s.11-.11.12-.46.13-.67.37-.58.11.15.11.55,0,.49.11.49.11-.09.11-.41.11-.68.32-.63.13.09.16.53,0,.51.15.51.14,0,.14-.48c0-.59-.11-.79-.46-.79-.13,0-.26,0-.28.07s-.08,0-.13,0S104,58.89,103.94,58.93Z"/><path class="cls-5" d="M105.83,58.94c-.42.06-.6.78-.27,1.11s.88.19.88-.15c0-.14-.18-.13-.24,0s-.53.08-.53-.16c0-.06.12-.09.42-.09s.42,0,.42-.14A.57.57,0,0,0,105.83,58.94Zm.39.38c0,.1,0,.13-.26.13s-.31,0-.25-.18S106.19,59.15,106.22,59.32Z"/><path class="cls-5" d="M132.61,58.93a.52.52,0,0,1-.26,0h-.21v.63c0,.51,0,.63.11.63s.1-.09.1-.39c0-.46.09-.67.28-.67s.15,0,.15-.1S132.68,58.86,132.61,58.93Z"/><path class="cls-5" d="M133.36,58.94a.7.7,0,0,0-.27,1.11.64.64,0,0,0,.77.08.74.74,0,0,0-.13-1.15A.81.81,0,0,0,133.36,58.94Zm.43.45c.1.29,0,.58-.24.61s-.37-.14-.37-.41.14-.44.37-.41A.26.26,0,0,1,133.79,59.39Z"/><path class="cls-5" d="M135.19,59a.72.72,0,0,0-.15,1.07c.28.29.91.16.91-.18,0-.12-.17-.1-.28,0a.32.32,0,0,1-.49,0c-.12-.22-.1-.22.35-.22s.42,0,.42-.2A.5.5,0,0,0,135.19,59Zm.47.26c.14.15.09.2-.24.2-.17,0-.31,0-.31-.06s.16-.23.31-.23A.37.37,0,0,1,135.66,59.25Z"/><path class="cls-5" d="M138.66,58.94a.32.32,0,0,0-.29.41c0,.17.07.22.34.31s.42.3.18.34a.52.52,0,0,1-.29-.06c-.25-.13-.37-.06-.19.13s.86.16.86-.19-.08-.31-.44-.43-.36-.29-.05-.29c.12,0,.21,0,.21.07s.06.07.14.07.14,0,.14,0C139.26,59.06,138.93,58.89,138.66,58.94Z"/><path class="cls-5" d="M118.52,59.13a.79.79,0,0,0-.15.46.56.56,0,0,0,.57.63c.35,0,.56-.24.56-.67a.55.55,0,0,0-.58-.6A.45.45,0,0,0,118.52,59.13Zm.7.17a.49.49,0,0,1,0,.58.28.28,0,0,1-.49-.05.5.5,0,0,1,.07-.61A.35.35,0,0,1,119.22,59.3Z"/><path class="cls-5" d="M119.79,59.47c0,.68.07.76.62.73h.4l0-.62c0-.58,0-.62-.12-.62s-.14.06-.16.47-.15.7-.39.55-.13-.19-.15-.55,0-.47-.12-.47S119.79,59.06,119.79,59.47Z"/><path class="cls-5" d="M134.33,59.73c0,.64,0,.78-.11.78a.11.11,0,0,0-.1.1c0,.15.24.14.38,0s.11-.28.11-.89,0-.77-.14-.77S134.33,59,134.33,59.73Z"/><path class="cls-5" d="M136.31,59.13a.79.79,0,0,0-.15.46.56.56,0,0,0,.56.63c.26,0,.5-.16.5-.34s-.17-.1-.28,0-.62-.06-.53-.46a.31.31,0,0,1,.52-.19c.15.14.29.15.29,0S137,59,136.71,59A.45.45,0,0,0,136.31,59.13Z"/><path class="cls-5" d="M49.49,78.82a.53.53,0,0,0-.3.7.54.54,0,0,0,.61.4c.4,0,.66-.21.66-.54s-.1-.49-.36-.58A.61.61,0,0,0,49.49,78.82Z"/><path class="cls-5" d="M68.53,79a1.52,1.52,0,0,0-1,2.07c.2.44.61.67,1.54.87a4.06,4.06,0,0,1,.92.26.49.49,0,0,1,.2.65c-.14.26-.39.36-.89.36a.82.82,0,0,1-.63-.17,1.21,1.21,0,0,1-.29-.43l-.08-.25H67.2l0,.23a2,2,0,0,0,.66,1.11,2.92,2.92,0,0,0,2.56.22,1.52,1.52,0,0,0,1-1.45c0-.81-.41-1.16-1.69-1.43-.91-.2-1.2-.36-1.2-.68a.72.72,0,0,1,.59-.58.93.93,0,0,1,1.09.68c0,.2,0,.2.6.2h.57l0-.3A1.84,1.84,0,0,0,70,78.93,3.42,3.42,0,0,0,68.53,79Z"/><path class="cls-5" d="M44,81.48V84h1.13V81.91h2.11V84h1.13v-5.1H47.28v2H45.17v-2H44Z"/><path class="cls-5" d="M55.26,81.48V84h1.13v-5.1H55.26Z"/><path class="cls-5" d="M57.48,79a7.59,7.59,0,0,1,0,1v.85l.41,0,.4,0,0-.94,0-.94H57.9C57.51,78.93,57.44,79,57.48,79Z"/><path class="cls-5" d="M72.13,81.48V84h1V83a10.54,10.54,0,0,1,.07-1.34.66.66,0,0,1,1.24-.2,4.22,4.22,0,0,1,.1,1.42V84l.52,0,.51,0V82.58c0-1.38,0-1.43-.18-1.77a1.16,1.16,0,0,0-1.26-.65,1.31,1.31,0,0,0-.72.22l-.28.18V78.93h-1Z"/><path class="cls-5" d="M60.52,80.27a1.14,1.14,0,0,0-.39.26c-.1.12-.1.11-.14-.08s-.05-.21-.51-.23l-.48,0V84h1.06v-1.2c0-1.33,0-1.53.39-1.69a.57.57,0,0,1,.85.31,5,5,0,0,1,.1,1.41V84h1V83c0-1.25,0-1.49.28-1.75a.57.57,0,0,1,.77-.11c.29.14.36.53.36,1.8V84h1V82.67A10.27,10.27,0,0,0,64.71,81a1.34,1.34,0,0,0-2.23-.51l-.26.22-.2-.23A1.32,1.32,0,0,0,60.52,80.27Z"/><path class="cls-5" d="M77.2,80.23a1.49,1.49,0,0,0-1,1.17l0,.22h.91l.09-.24a.65.65,0,0,1,1.18-.07c.17.43.17.43-.6.47-1.18,0-1.68.42-1.61,1.25,0,.63.43,1,1.14,1a1.51,1.51,0,0,0,1.1-.3c.12-.15.21-.12.21.08s0,.17.39.17h.38V82.62c0-1.59,0-1.75-.44-2.11A1.78,1.78,0,0,0,77.2,80.23Zm1.17,2.48a.61.61,0,0,1-.49.61c-.63.22-1.1-.39-.61-.78.15-.12.26-.14.65-.12l.46,0Z"/><path class="cls-5" d="M84,80.23a1.94,1.94,0,0,0-1.23,1.32,2,2,0,0,0,1,2.36,1.58,1.58,0,0,0,.85.16,1.62,1.62,0,0,0,1.43-.62,1.74,1.74,0,0,0,.47-1.33,2.92,2.92,0,0,0-.09-.74,2.35,2.35,0,0,0-1-1A2.26,2.26,0,0,0,84,80.23Zm1,.94a1.17,1.17,0,0,1,0,1.9c-.64.33-1.28-.15-1.28-1S84.44,80.84,85.06,81.17Z"/><path class="cls-5" d="M88.76,80.22a1.81,1.81,0,0,0-.44.25l-.23.17v-.43h-.92V84h1V83a8.89,8.89,0,0,1,.07-1.34.63.63,0,0,1,1-.38l.19.17,0,1.32,0,1.32L90,84l.5,0V82.54c0-1.41,0-1.45-.17-1.77A1.33,1.33,0,0,0,88.76,80.22Z"/><path class="cls-5" d="M49.33,82.12V84h1V80.21h-1Z"/><path class="cls-5" d="M80.11,82.12V84h1V83c0-1.47.12-1.68,1-1.78l.39,0v-1h-.28a1.61,1.61,0,0,0-1,.47l-.17.19v-.66h-.92Z"/><path class="cls-5" d="M51.45,82.78a.61.61,0,0,0,.1,1.12c.34.06.08.48-.36.55-.26,0-.27.06-.29.36l0,.3.3,0a1.53,1.53,0,0,0,1.31-1.26C52.58,83,52,82.47,51.45,82.78Z"/><path class="cls-5" d="M23.85,92.17c0,1,0,1.07.14,1.07s.14,0,.12-1,0-1-.14-1.07S23.85,91.2,23.85,92.17Z"/><path class="cls-5" d="M31,92.17c0,1,0,1.07.14,1.07s.14,0,.12-1,0-1-.14-1.07S31,91.2,31,92.17Z"/><path class="cls-5" d="M31.61,92.18c0,1,0,1.06.14,1.06s.14,0,.14-1.06,0-1.06-.14-1.06S31.61,91.17,31.61,92.18Z"/><path class="cls-5" d="M34,92.18c0,.9,0,1.06.11,1.06s.1-.1.1-.48.12-.72.36-.72.28.17.28.69,0,.51.14.51.14,0,.14-.59,0-.62-.11-.71a.52.52,0,0,0-.58-.12c-.22.12-.23.11-.23-.31s0-.39-.1-.39S34,91.28,34,92.18Z"/><path class="cls-5" d="M45.17,91.51c0,.38,0,.38-.19.32-.44-.17-.8.16-.8.72a.6.6,0,0,0,.17.52c.14.15.23.17.63.16h.47v-1c0-1,0-1-.14-1S45.17,91.17,45.17,91.51Zm-.09.61a.77.77,0,0,1-.06.81c-.14.12-.17.12-.33,0s-.2-.16-.22-.39a.53.53,0,0,1,.1-.41A.4.4,0,0,1,45.08,92.12Z"/><path class="cls-5" d="M51.87,91.51c0,.38,0,.38-.18.32-.44-.17-.81.16-.81.72a.63.63,0,0,0,.17.52c.15.15.24.17.64.16h.46v-1c0-1,0-1-.14-1S51.87,91.17,51.87,91.51Zm-.08.61a.77.77,0,0,1-.07.81c-.13.12-.16.12-.33,0s-.2-.16-.21-.39a.54.54,0,0,1,.09-.41A.41.41,0,0,1,51.79,92.12Z"/><path class="cls-5" d="M58.63,91.17a5.66,5.66,0,0,0-.05,1v1h.5c.47,0,.52,0,.65-.2a.92.92,0,0,0,0-1,.58.58,0,0,0-.67-.17c-.18.06-.18.06-.18-.32s0-.39-.09-.39A.18.18,0,0,0,58.63,91.17Zm.86,1a.6.6,0,0,1,0,.71c-.18.22-.33.24-.51.07a.76.76,0,0,1-.06-.74A.42.42,0,0,1,59.49,92.13Z"/><path class="cls-5" d="M86.32,92.17v1.06h.45c.6,0,.82-.19.82-.73s-.4-.83-.8-.67c-.18.06-.18,0-.2-.31s0-.37-.14-.39S86.32,91.2,86.32,92.17Zm.86,0a.57.57,0,0,1,0,.73c-.16.16-.23.17-.43.07s-.13-.15-.13-.41a.83.83,0,0,1,.08-.43A.36.36,0,0,1,87.18,92.16Z"/><path class="cls-5" d="M22.43,92.25c0,.94,0,1,.14,1s.15,0,.15-1,0-1-.15-1S22.43,91.31,22.43,92.25Z"/><path class="cls-5" d="M35.51,91.38c0,.16.3.18.3,0s-.08-.11-.16-.13S35.49,91.27,35.51,91.38Z"/><path class="cls-5" d="M65.21,92.25c0,.94,0,1,.15,1s.14,0,.14-1,0-1-.14-1S65.21,91.31,65.21,92.25Z"/><path class="cls-5" d="M76.6,91.38c0,.16.3.18.3,0s-.08-.11-.16-.13S76.57,91.27,76.6,91.38Z"/><path class="cls-5" d="M98.89,91.4a.14.14,0,1,0,.14-.14A.13.13,0,0,0,98.89,91.4Z"/><path class="cls-5" d="M33.07,91.45a.34.34,0,0,0,0,.21c0,.1,0,.17-.1.17a.11.11,0,0,0-.11.1.11.11,0,0,0,.11.11c.08,0,.1.1.1.49,0,.56.09.71.43.71.17,0,.21,0,.21-.14s0-.13-.07-.11-.11,0-.17,0-.11-.15-.11-.5,0-.45.17-.45.18,0,.18-.11-.07-.1-.18-.1-.17,0-.17-.22S33.19,91.33,33.07,91.45Z"/><path class="cls-5" d="M81.85,91.45a.45.45,0,0,0,0,.21c0,.1,0,.17-.11.17a.11.11,0,0,0-.11.1.11.11,0,0,0,.11.11c.08,0,.11.1.11.49,0,.56.09.71.43.71.16,0,.2,0,.2-.14s0-.13-.06-.11a.22.22,0,0,1-.18,0c-.08,0-.11-.15-.11-.5s0-.45.17-.45.18,0,.18-.11-.06-.1-.18-.1-.17,0-.17-.22S82,91.33,81.85,91.45Z"/><path class="cls-5" d="M91,91.45a.34.34,0,0,0,0,.21c0,.1,0,.17-.1.17a.11.11,0,0,0-.11.1.1.1,0,0,0,.1.11c.06,0,.11.14.13.5a1.73,1.73,0,0,0,.12.6c.12.14.53.11.53,0a.08.08,0,0,0-.1-.08c-.19,0-.28-.14-.28-.56s0-.42.17-.42.24-.19,0-.23-.17-.08-.18-.22S91.14,91.35,91,91.45Z"/><path class="cls-5" d="M98,91.61c0,.15,0,.22-.1.22a.11.11,0,0,0-.11.1.11.11,0,0,0,.11.11c.08,0,.1.11.1.52,0,.58.07.68.4.68.18,0,.24,0,.24-.12s0-.13-.16-.13-.16,0-.18-.48,0-.47.16-.47.18,0,.18-.11-.07-.1-.17-.1-.18,0-.2-.19-.07-.21-.14-.22S98,91.44,98,91.61Z"/><path class="cls-5" d="M24.79,91.83a.82.82,0,0,0-.2,1.23.65.65,0,0,0,.91,0,.87.87,0,0,0,0-1A.69.69,0,0,0,24.79,91.83Zm.54.34c.17.34,0,.86-.27.86a.45.45,0,0,1-.37-.47c0-.36.12-.52.36-.52A.32.32,0,0,1,25.33,92.17Z"/><path class="cls-5" d="M27.68,91.83a.85.85,0,0,0-.1,1.32.81.81,0,0,0,.77,0c.19-.13.2-.31,0-.31s-.14,0-.14.07-.35.16-.49,0-.18-.32.32-.32.59-.07.43-.46A.57.57,0,0,0,27.68,91.83Zm.54.34c.09.18,0,.22-.33.22s-.34,0-.23-.22A.36.36,0,0,1,28.22,92.17Z"/><path class="cls-5" d="M29.68,91.9c-.1.08-.19.18-.19.22s.26.08.32,0,.34-.09.45,0,.09.27-.24.25-.35,0-.46.16a.38.38,0,0,0,0,.57c.12.12.23.14.57.14l.42,0v-.57c0-.62,0-.69-.26-.82A.5.5,0,0,0,29.68,91.9Zm.6.82c.07.1.07.13-.05.21A.44.44,0,0,1,30,93a.27.27,0,0,1-.25-.32C29.78,92.57,30.16,92.58,30.28,92.72Z"/><path class="cls-5" d="M36.64,91.81a.38.38,0,0,1-.27,0l-.17,0v.72c0,.66,0,.71.14.71s.14,0,.14-.51.07-.69.33-.69.31.23.31.79c0,.32,0,.41.1.41s.11-.11.11-.58a1.79,1.79,0,0,0-.09-.71A.61.61,0,0,0,36.64,91.81Z"/><path class="cls-5" d="M38.07,91.82a.8.8,0,0,0-.32,1.1.67.67,0,0,0,.74.26c.15-.06.18-.06.18,0a.57.57,0,0,1-.39.39.51.51,0,0,1-.24-.14c-.15-.15-.36-.19-.36-.07a.57.57,0,0,0,.18.24.61.61,0,0,0,.86,0c.19-.16.2-.2.22-1l0-.82h-.2a1.59,1.59,0,0,1-.38,0A.57.57,0,0,0,38.07,91.82Zm.52.3a.92.92,0,0,1,0,.76.47.47,0,0,1-.56,0,.73.73,0,0,1,0-.7A.47.47,0,0,1,38.59,92.12Z"/><path class="cls-5" d="M39.4,91.92c-.17.15-.19.2-.13.37a.47.47,0,0,0,.35.3c.38.13.48.22.38.34a.26.26,0,0,1-.41,0c-.11-.14-.35-.15-.35,0s.67.44.93.23.16-.61-.33-.77c-.17-.06-.29-.13-.29-.2s.31-.18.41-.08.33.1.33,0-.17-.25-.43-.3A.49.49,0,0,0,39.4,91.92Z"/><path class="cls-5" d="M41.59,91.86a.8.8,0,0,0-.15,1.22c.25.28,1,.16,1-.16,0-.13-.19-.13-.32,0s-.28.13-.45,0a.54.54,0,0,1,0-.69.32.32,0,0,1,.51,0c0,.07.12.1.23.09l.17,0L42.29,92C42.05,91.73,41.93,91.71,41.59,91.86Z"/><path class="cls-5" d="M43,91.86a.81.81,0,0,0-.15,1.24.52.52,0,0,0,.47.13c.4,0,.6-.28.6-.74A.64.64,0,0,0,43,91.86Zm.56.34c.22.31,0,.83-.28.83-.16,0-.38-.27-.38-.48s.18-.51.38-.51A.37.37,0,0,1,43.57,92.2Z"/><path class="cls-5" d="M46.11,91.86A.8.8,0,0,0,46,93.08a.62.62,0,0,0,.89,0c.17-.17.17-.2.06-.22a.33.33,0,0,0-.25.09.34.34,0,0,1-.53,0,.6.6,0,0,1-.12-.22,1.27,1.27,0,0,1,.5,0H47l0-.27A.59.59,0,0,0,46.11,91.86Zm.52.26c.17.17.1.27-.22.27s-.43,0-.28-.22A.36.36,0,0,1,46.63,92.12Z"/><path class="cls-5" d="M48.22,91.83A.5.5,0,0,0,48,92c-.06.14-.06.15.11.15s.17,0,.17-.07.31-.09.41,0,.1.29-.12.24a.65.65,0,0,0-.68.32.58.58,0,0,0,.21.51,1.72,1.72,0,0,0,.52,0h.45l0-.6c0-.4-.05-.62-.12-.69A.73.73,0,0,0,48.22,91.83Zm.52.88c0,.15-.1.32-.29.32s-.35-.17-.29-.32.13-.1.29-.1S48.72,92.65,48.74,92.71Z"/><path class="cls-5" d="M49.84,91.81a.38.38,0,0,1-.27,0l-.17,0v.72c0,.66,0,.71.14.71s.14,0,.14-.51S49.75,92,50,92s.3.2.3.74,0,.46.15.46.15,0,.12-.6a1.37,1.37,0,0,0-.13-.7A.69.69,0,0,0,49.84,91.81Z"/><path class="cls-5" d="M53.71,91.82a.48.48,0,0,1-.3,0l-.2,0v.72c0,.66,0,.71.14.71s.15,0,.15-.48.09-.72.34-.72.29.16.29.69,0,.51.14.51.14,0,.14-.56,0-.59-.17-.75A.4.4,0,0,0,53.71,91.82Z"/><path class="cls-5" d="M56.76,91.82a.46.46,0,0,1-.27,0l-.17,0v.72c0,.66,0,.71.14.71s.14,0,.14-.51.07-.69.3-.69.27.28.27.79c0,.32,0,.41.1.41s.11-.1.11-.46c0-.55.08-.74.31-.74s.25.11.25.72c0,.43,0,.48.14.48s.15,0,.15-.56,0-.59-.18-.75-.28-.21-.53-.08a.3.3,0,0,1-.35,0C57,91.74,56.88,91.73,56.76,91.82Z"/><path class="cls-5" d="M60.52,91.83a.83.83,0,0,0-.16,1.31.66.66,0,0,0,.83-.09c.13-.17.14-.2,0-.22a.37.37,0,0,0-.26.1.36.36,0,0,1-.56-.17c-.06-.15,0-.15.43-.15s.49,0,.49-.18a.62.62,0,0,0-.37-.6C60.72,91.74,60.71,91.74,60.52,91.83Zm.44.29c.18.18.1.27-.23.27s-.32,0-.32-.09a.31.31,0,0,1,.32-.26A.32.32,0,0,1,61,92.12Z"/><path class="cls-5" d="M62.05,91.82a.46.46,0,0,1-.27,0l-.17,0v.72c0,.66,0,.71.15.71s.14,0,.14-.48.1-.72.36-.72a.12.12,0,0,0,.13-.14C62.39,91.75,62.22,91.71,62.05,91.82Z"/><path class="cls-5" d="M62.84,91.83a.4.4,0,0,0-.24.52c0,.13.16.2.41.27s.49.31.19.38a.32.32,0,0,1-.31-.07c-.14-.13-.36-.15-.36,0a.57.57,0,0,0,.14.21c.29.29,1,.11,1-.27,0-.2-.1-.29-.46-.42-.2-.07-.35-.17-.35-.23s.39-.18.46-.07a.25.25,0,0,0,.21.06c.16,0,.16,0,0-.18A.67.67,0,0,0,62.84,91.83Z"/><path class="cls-5" d="M66.74,91.9a.5.5,0,0,0-.18.22c0,.08.26.08.31,0s.34-.09.45,0,.09.27-.24.25-.35,0-.46.16a.37.37,0,0,0,0,.57c.11.12.22.14.56.14l.43,0v-.57c0-.62,0-.69-.27-.82A.5.5,0,0,0,66.74,91.9Zm.6.82c.08.1.07.13,0,.21A.47.47,0,0,1,67,93a.26.26,0,0,1-.24-.32C66.85,92.57,67.22,92.58,67.34,92.72Z"/><path class="cls-5" d="M68.48,91.82a.46.46,0,0,1-.27,0l-.17,0v.72c0,.66,0,.71.14.71s.13,0,.16-.53.12-.74.36-.65c.09,0,.12.16.12.62s0,.56.14.56.14,0,.14-.46.08-.74.27-.74.29.16.29.69,0,.51.14.51.14,0,.14-.48c0-.59-.07-.83-.31-.94a.36.36,0,0,0-.37,0,.32.32,0,0,1-.37,0C68.68,91.74,68.6,91.73,68.48,91.82Z"/><path class="cls-5" d="M71.55,91.8a.54.54,0,0,1-.3,0H71v1c0,.9,0,1,.13,1s.13-.11.14-.31,0-.29.27-.26c.47.06.73-.22.73-.75a.65.65,0,0,0-.16-.45C72,91.83,71.64,91.71,71.55,91.8Zm.32.36a.59.59,0,0,1,0,.73c-.16.16-.23.17-.43.07s-.13-.15-.13-.41a.83.83,0,0,1,.08-.43A.37.37,0,0,1,71.87,92.16Z"/><path class="cls-5" d="M72.75,91.9c-.11.08-.19.18-.19.22s.24.08.33,0,.41,0,.43.12,0,.15-.26.15-.57.17-.57.46.23.41.72.4h.41v-.58c0-.64-.07-.78-.47-.86A.45.45,0,0,0,72.75,91.9Zm.57.9a.17.17,0,0,1-.12.2c-.21.06-.43,0-.43-.17s.07-.23.32-.21S73.31,92.68,73.32,92.8Z"/><path class="cls-5" d="M74.2,91.83a.4.4,0,0,0-.24.52c.05.13.16.2.41.27s.5.31.2.38a.31.31,0,0,1-.31-.07c-.14-.13-.36-.15-.36,0a.46.46,0,0,0,.14.21c.29.29,1,.11,1-.27,0-.2-.11-.29-.47-.42-.2-.07-.34-.17-.34-.23s.38-.18.45-.07a.27.27,0,0,0,.22.06c.15,0,.15,0,0-.18A.66.66,0,0,0,74.2,91.83Z"/><path class="cls-5" d="M75.47,91.84a.43.43,0,0,0-.18.55,1,1,0,0,0,.38.22c.21.09.31.16.31.25s-.26.21-.42.07a.32.32,0,0,0-.26-.1l-.15,0,.16.2c.12.16.2.19.46.19s.53-.13.53-.41-.09-.33-.47-.45c-.15-.06-.27-.13-.27-.2s.3-.18.41-.08.33.11.33,0-.37-.36-.52-.36A1,1,0,0,0,75.47,91.84Z"/><path class="cls-5" d="M77.6,91.83a.83.83,0,0,0-.21,1.23.65.65,0,0,0,.91,0,.86.86,0,0,0,0-1A.68.68,0,0,0,77.6,91.83Zm.53.34c.18.34,0,.86-.26.86a.45.45,0,0,1-.37-.47c0-.36.11-.52.35-.52A.3.3,0,0,1,78.13,92.17Z"/><path class="cls-5" d="M79.26,91.82a.44.44,0,0,1-.29,0l-.2,0v.72c0,.66,0,.71.14.71s.14,0,.14-.48.1-.72.35-.72.29.16.29.69,0,.51.14.51.14,0,.14-.56,0-.59-.18-.75A.39.39,0,0,0,79.26,91.82Z"/><path class="cls-5" d="M80.51,91.9c-.1.08-.19.18-.19.22s.24.08.33,0,.41,0,.43.12,0,.15-.26.15-.57.17-.57.46.23.41.73.4h.4v-.58c0-.64-.07-.78-.46-.86A.47.47,0,0,0,80.51,91.9Zm.57.9A.16.16,0,0,1,81,93c-.21.06-.43,0-.43-.17s.07-.23.32-.21S81.07,92.68,81.08,92.8Z"/><path class="cls-5" d="M83,91.83a.85.85,0,0,0-.1,1.32.81.81,0,0,0,.77,0c.19-.13.2-.31,0-.31s-.14,0-.14.07-.35.16-.49,0-.18-.32.31-.32.6-.07.43-.46A.56.56,0,0,0,83,91.83Zm.53.34c.1.18,0,.22-.32.22s-.34,0-.23-.22A.35.35,0,0,1,83.56,92.17Z"/><path class="cls-5" d="M85.14,91.83a.5.5,0,0,0-.23.2c-.06.14-.06.15.11.15s.17,0,.17-.07.31-.09.41,0,.1.29-.12.24a.62.62,0,0,0-.67.32.55.55,0,0,0,.2.51,1.72,1.72,0,0,0,.52,0H86l0-.6a1.35,1.35,0,0,0-.13-.69A.73.73,0,0,0,85.14,91.83Zm.52.88c.06.15-.1.32-.29.32s-.35-.17-.29-.32.13-.1.29-.1S85.64,92.65,85.66,92.71Z"/><path class="cls-5" d="M88.19,91.86a.8.8,0,0,0-.14,1.24.49.49,0,0,0,.46.13c.4,0,.6-.28.6-.74A.64.64,0,0,0,88.19,91.86Zm.56.34c.22.31,0,.83-.27.83s-.39-.27-.39-.48.18-.51.39-.51A.35.35,0,0,1,88.75,92.2Z"/><path class="cls-5" d="M93,91.82a.79.79,0,0,0-.37,1,.61.61,0,0,0,1,.26c.12-.16.13-.2,0-.22a.46.46,0,0,0-.28.1.34.34,0,0,1-.54-.18.65.65,0,0,1,.08-.63.36.36,0,0,1,.48,0,.37.37,0,0,0,.22.1c.12,0,.12,0,.06-.17A.56.56,0,0,0,93,91.82Z"/><path class="cls-5" d="M94.48,91.82s-.12,0-.21,0l-.18,0v.72c0,.66,0,.71.14.71s.14,0,.14-.51.06-.69.3-.69c.08,0,.12-.05.12-.14A.17.17,0,0,0,94.48,91.82Z"/><path class="cls-5" d="M95.32,91.86a.8.8,0,0,0-.16,1.22.62.62,0,0,0,.89,0c.17-.17.18-.2.07-.22a.33.33,0,0,0-.26.09.34.34,0,0,1-.53,0,.71.71,0,0,1-.11-.22,1.23,1.23,0,0,1,.5,0h.51l0-.27A.59.59,0,0,0,95.32,91.86Zm.52.26c.17.17.09.27-.22.27s-.44,0-.28-.22A.36.36,0,0,1,95.84,92.12Z"/><path class="cls-5" d="M96.7,91.84c-.22.12-.27.34-.09.34a.29.29,0,0,0,.21-.08.27.27,0,0,1,.43.15c0,.14,0,.16-.15.12a.83.83,0,0,0-.43,0c-.22.09-.25.14-.25.35,0,.36.17.47.69.47h.44v-.55c0-.42,0-.59-.12-.7A.64.64,0,0,0,96.7,91.84Zm.55.94c0,.24-.31.34-.51.14s-.1-.14,0-.22S97.22,92.61,97.25,92.78Z"/><path class="cls-5" d="M100,91.83a.38.38,0,0,1-.26,0c-.16,0-.16,0-.16.68s0,.71.1.71.11-.1.11-.48.11-.72.36-.72.27.17.27.69,0,.51.14.51.14,0,.14-.58,0-.7-.26-.83A.37.37,0,0,0,100,91.83Z"/><path class="cls-5" d="M101.39,91.86a.76.76,0,0,0,0,1.28.53.53,0,0,0,.57,0c.11,0,.11,0,0,.16a.4.4,0,0,1-.22.25c-.16,0-.41-.06-.41-.16s-.06-.08-.14-.08-.18.18,0,.35a.63.63,0,0,0,.84,0c.17-.16.18-.21.18-1v-.82h-.19a1.13,1.13,0,0,1-.34,0A.71.71,0,0,0,101.39,91.86Zm.55.3a.5.5,0,0,1,.13.33c0,.42-.45.63-.67.31S101.55,91.81,101.94,92.16Z"/><path class="cls-5" d="M26,92.29c.31.87.36.95.5.95s.18-.11.63-1.33c0,0,0-.08-.1-.08s-.17.08-.25.29-.15.4-.2.52l-.08.21-.19-.49c-.15-.38-.22-.5-.34-.52l-.16,0Z"/><path class="cls-5" d="M35.56,92.54c0,.58,0,.7.11.7s.11-.12.11-.7,0-.71-.11-.71S35.56,92,35.56,92.54Z"/><path class="cls-5" d="M54.77,92.38c0,.69.1.86.48.86a.62.62,0,0,0,.35-.08c.06-.06.08-.06.08,0s.07.08.15.08.14,0,.14-.7,0-.71-.14-.71-.15,0-.15.49,0,.51-.18.62-.41.06-.44-.57,0-.54-.15-.54S54.77,91.88,54.77,92.38Z"/><path class="cls-5" d="M76.65,92.54c0,.58,0,.7.11.7s.1-.12.1-.7,0-.71-.1-.71S76.65,92,76.65,92.54Z"/><path class="cls-5" d="M89.43,92.42c0,.48,0,.61.13.7a.55.55,0,0,0,.63,0c.07-.06.09-.06.09,0s.06.08.14.08.14,0,.14-.7,0-.71-.14-.71-.14,0-.14.49,0,.52-.12.6c-.28.29-.52,0-.52-.65,0-.34,0-.44-.1-.44S89.43,91.94,89.43,92.42Z"/><path class="cls-5" d="M98.89,92.54c0,.65,0,.7.14.7s.14,0,.14-.7,0-.71-.14-.71S98.89,91.88,98.89,92.54Z"/><path class="cls-5" d="M63.86,93c-.06.15,0,.27.15.27a.19.19,0,0,0,.17-.27.2.2,0,0,0-.17-.08C63.94,92.89,63.87,92.93,63.86,93Z"/><path class="cls-5" d="M29.56,96c0,1,0,1.07.14,1.07s.15,0,.15-.28,0-.29.06-.31.17.09.3.27.29.31.4.32.15,0,.15,0a1.92,1.92,0,0,0-.28-.38,2.28,2.28,0,0,1-.28-.4,1.15,1.15,0,0,1,.3-.33l.3-.26h-.22c-.16,0-.28.07-.46.26l-.24.25,0-.59c0-.49-.06-.59-.16-.61S29.56,95,29.56,96Z"/><path class="cls-5" d="M32.44,95a5.89,5.89,0,0,0,0,1.06v1l.5,0c.46,0,.52,0,.65-.2a.9.9,0,0,0,0-1,.59.59,0,0,0-.67-.18c-.18.07-.18.07-.18-.32s0-.39-.09-.39A.23.23,0,0,0,32.44,95Zm.86,1a.6.6,0,0,1,0,.71c-.18.22-.33.24-.51.07a.76.76,0,0,1-.06-.74A.41.41,0,0,1,33.3,96Z"/><path class="cls-5" d="M34,96c0,1,0,1.07.14,1.07s.14,0,.13-1,0-1-.14-1.07S34,95,34,96Z"/><path class="cls-5" d="M37.75,95.33a1.15,1.15,0,0,1,0,.39l-.2-.07a.48.48,0,0,0-.42,0,.8.8,0,0,0-.17,1.24c.13.13.24.15.63.15H38l0-1c0-.92,0-1-.14-1.05S37.75,95,37.75,95.33Zm-.12.66a.55.55,0,0,1,0,.75c-.21.15-.31.15-.48,0C36.72,96.32,37.21,95.61,37.63,96Z"/><path class="cls-5" d="M43.73,95a6,6,0,0,0,0,1.07c0,1,0,1,.14,1S44,97,44,96c0-.84,0-1.07-.1-1.07A.26.26,0,0,0,43.73,95Z"/><path class="cls-5" d="M64.16,96c0,.9,0,1.06.1,1.06s.11-.1.11-.48.11-.72.36-.72.27.17.27.68,0,.52.14.52.15,0,.15-.59,0-.63-.12-.71a.5.5,0,0,0-.58-.12c-.22.12-.22.1-.22-.32s0-.39-.11-.39S64.16,95.11,64.16,96Z"/><path class="cls-5" d="M68.72,95.07a.6.6,0,0,0-.12.33c0,.13,0,.2-.14.23a.18.18,0,0,0-.14.14s.06.1.14.1.14,0,.14.6,0,.6.11.6.11-.11.11-.6,0-.6.17-.6.18-.05.18-.11-.07-.11-.14-.11-.24-.1-.18-.28a.21.21,0,0,1,.22-.14c.13,0,.18,0,.15-.13S68.87,94.91,68.72,95.07Z"/><path class="cls-5" d="M80.53,95.33c0,.39,0,.39-.18.32-.44-.17-.8.17-.8.73,0,.27,0,.38.17.51s.23.17.63.17h.47V96c0-1,0-1.06-.14-1.06S80.53,95,80.53,95.33Zm-.08.62a.77.77,0,0,1-.06.81c-.14.12-.17.12-.34,0s-.19-.16-.21-.4a.55.55,0,0,1,.09-.4A.4.4,0,0,1,80.45,96Z"/><path class="cls-5" d="M89.64,95.33a1.15,1.15,0,0,1,0,.39l-.2-.07a.48.48,0,0,0-.42,0,.79.79,0,0,0-.17,1.24c.13.13.24.15.63.15h.48l0-1c0-.92,0-1-.14-1.05S89.64,95,89.64,95.33Zm-.13.66a.56.56,0,0,1,0,.75c-.22.15-.31.15-.48,0C88.61,96.32,89.1,95.61,89.51,96Z"/><path class="cls-5" d="M95.36,96c0,1,0,1.06.14,1.06s.14,0,.14-1.06,0-1.07-.14-1.07S95.36,95,95.36,96Z"/><path class="cls-5" d="M38.39,95.23a.14.14,0,1,0,.14-.14A.13.13,0,0,0,38.39,95.23Z"/><path class="cls-5" d="M40.6,95.16c-.06.11.09.24.22.19a.19.19,0,0,0,.11-.16C40.93,95.07,40.68,95,40.6,95.16Z"/><path class="cls-5" d="M51.94,95.23a.13.13,0,0,0,.14.14c.1,0,.15-.05.15-.14s0-.14-.15-.14A.13.13,0,0,0,51.94,95.23Z"/><path class="cls-5" d="M62.46,95.23a.14.14,0,1,0,.14-.14A.13.13,0,0,0,62.46,95.23Z"/><path class="cls-5" d="M98.47,95.23a.14.14,0,1,0,.14-.14A.13.13,0,0,0,98.47,95.23Z"/><path class="cls-5" d="M41.4,95.28a.34.34,0,0,0,0,.21c0,.1,0,.16-.1.16a.11.11,0,1,0,0,.22c.08,0,.1.1.1.48,0,.56.09.72.43.72.17,0,.21,0,.21-.15s0-.13-.06-.1a.28.28,0,0,1-.18,0c-.09,0-.11-.15-.11-.5s0-.45.17-.45.18-.05.18-.11-.06-.11-.18-.11-.17,0-.17-.21S41.52,95.16,41.4,95.28Z"/><path class="cls-5" d="M63.22,95.28a.34.34,0,0,0,0,.21c0,.1,0,.16-.11.16a.11.11,0,0,0,0,.22c.09,0,.11.1.11.48,0,.56.09.72.43.72.16,0,.2,0,.2-.15s0-.13-.06-.1a.27.27,0,0,1-.18,0c-.08,0-.11-.15-.11-.5s0-.45.18-.45.17-.05.17-.11-.06-.11-.17-.11-.18,0-.18-.21S63.33,95.16,63.22,95.28Z"/><path class="cls-5" d="M82.7,95.28a.34.34,0,0,0,0,.21c0,.1,0,.16-.1.16a.11.11,0,0,0-.11.11.1.1,0,0,0,.1.11c.06,0,.11.14.13.49a1.62,1.62,0,0,0,.12.6c.12.15.53.12.53,0a.08.08,0,0,0-.1-.09c-.19,0-.29-.14-.29-.56s0-.41.18-.41.24-.2,0-.23-.17-.08-.18-.22S82.81,95.17,82.7,95.28Z"/><path class="cls-5" d="M97.55,95.39a.37.37,0,0,1-.16.28l-.16.12.16,0c.14,0,.16.08.16.55s.06.68.4.68c.18,0,.23,0,.23-.14s0-.14-.15-.12-.16,0-.19-.47,0-.47.13-.47a.13.13,0,0,0,.14-.11.12.12,0,0,0-.13-.11c-.1,0-.15-.05-.16-.19S97.55,95.14,97.55,95.39Z"/><path class="cls-5" d="M22.83,95.65a.33.33,0,0,1-.22,0l-.18,0v.71c0,.67,0,.72.14.72s.15,0,.15-.52.06-.68.29-.68c.08,0,.13-.05.13-.15A.17.17,0,0,0,22.83,95.65Z"/><path class="cls-5" d="M23.66,95.68a.81.81,0,0,0-.15,1.23.63.63,0,0,0,.89,0c.17-.17.17-.2.06-.22a.36.36,0,0,0-.25.08.33.33,0,0,1-.53,0,.52.52,0,0,1-.12-.21s.23-.06.5-.06h.51l0-.26A.59.59,0,0,0,23.66,95.68Zm.52.27c.17.17.1.27-.21.27s-.44-.06-.29-.23A.35.35,0,0,1,24.18,96Z"/><path class="cls-5" d="M25.27,95.65a.56.56,0,0,1-.27,0l-.17,0v.71c0,.67,0,.72.14.72s.15,0,.15-.52.06-.68.29-.68.27.27.27.78c0,.33,0,.42.11.42s.1-.1.1-.47c0-.54.09-.73.31-.73s.26.11.26.71c0,.44,0,.49.14.49s.14,0,.14-.57,0-.58-.18-.74-.27-.21-.53-.09a.29.29,0,0,1-.35,0C25.48,95.57,25.4,95.56,25.27,95.65Z"/><path class="cls-5" d="M27.28,95.72a.72.72,0,0,0-.19.22c0,.1.24.08.33,0a.28.28,0,0,1,.44.12c0,.13,0,.15-.27.14a.49.49,0,0,0-.57.46c0,.29.24.42.73.41l.4,0v-.57c0-.65-.07-.78-.46-.86A.46.46,0,0,0,27.28,95.72Zm.58.9a.17.17,0,0,1-.12.2c-.22.07-.44,0-.44-.17s.08-.22.32-.2S27.84,96.51,27.86,96.62Z"/><path class="cls-5" d="M28.94,95.65a.56.56,0,0,1-.27,0l-.17,0v.71c0,.67,0,.72.15.72s.14,0,.14-.49.1-.71.36-.71c.08,0,.13-.05.13-.15S29.11,95.53,28.94,95.65Z"/><path class="cls-5" d="M31.17,95.72a.59.59,0,0,0-.19.22c0,.1.24.08.33,0a.27.27,0,0,1,.43.12c0,.13,0,.15-.26.14s-.58.18-.58.46.24.42.73.41l.4,0v-.57c0-.65-.07-.78-.46-.86A.44.44,0,0,0,31.17,95.72Zm.57.9a.16.16,0,0,1-.12.2c-.21.07-.43,0-.43-.17s.07-.22.31-.2S31.72,96.51,31.74,96.62Z"/><path class="cls-5" d="M35,95.65a.87.87,0,0,0-.1,1.33.84.84,0,0,0,.77,0c.19-.14.21-.31,0-.31s-.14,0-.14.07-.35.16-.49,0-.18-.32.32-.32.59-.06.43-.45A.57.57,0,0,0,35,95.65Zm.54.35c.1.18,0,.22-.33.22s-.34,0-.23-.22A.36.36,0,0,1,35.49,96Z"/><path class="cls-5" d="M39.33,95.68a.77.77,0,0,0,0,1.29.5.5,0,0,0,.56,0c.12,0,.12,0,0,.17a.45.45,0,0,1-.21.25c-.17,0-.41-.06-.41-.17s-.07-.07-.15-.07-.17.18.05.35a.64.64,0,0,0,.84,0c.17-.16.17-.21.17-1v-.82H40a1.16,1.16,0,0,1-.34,0A.73.73,0,0,0,39.33,95.68Zm.55.31a.44.44,0,0,1,.13.32c0,.43-.44.64-.66.32S39.5,95.63,39.88,96Z"/><path class="cls-5" d="M42.48,95.67c-.22.12-.27.34-.09.34a.33.33,0,0,0,.21-.08.26.26,0,0,1,.43.14c0,.15,0,.16-.15.12a.75.75,0,0,0-.43.06c-.21.09-.25.14-.25.35,0,.36.17.47.69.46h.44V96.5c0-.41,0-.58-.12-.7A.64.64,0,0,0,42.48,95.67Zm.55.93c0,.25-.31.35-.51.14s-.09-.13,0-.22S43,96.43,43,96.6Z"/><path class="cls-5" d="M45.33,95.68a.82.82,0,0,0-.15,1.23.63.63,0,0,0,.89,0c.17-.17.18-.2.06-.22a.36.36,0,0,0-.25.08.33.33,0,0,1-.53,0,.6.6,0,0,1-.11-.21s.22-.06.5-.06h.51l0-.26A.59.59,0,0,0,45.33,95.68Zm.53.27c.17.17.09.27-.22.27s-.44-.06-.28-.23A.35.35,0,0,1,45.86,96Z"/><path class="cls-5" d="M48.46,95.62a.59.59,0,0,1-.29,0h-.25v1c0,.91,0,1,.13,1s.12-.1.14-.31,0-.28.27-.25c.46,0,.73-.22.73-.75a.73.73,0,0,0-.16-.46C48.87,95.66,48.55,95.53,48.46,95.62Zm.32.37a.57.57,0,0,1,0,.73c-.17.16-.24.17-.43.07s-.14-.15-.14-.41a.78.78,0,0,1,.09-.43A.35.35,0,0,1,48.78,96Z"/><path class="cls-5" d="M49.78,95.65a.86.86,0,0,0-.1,1.33.84.84,0,0,0,.77,0c.19-.14.2-.31,0-.31s-.14,0-.14.07-.35.16-.5,0-.17-.32.32-.32.6-.06.43-.45A.56.56,0,0,0,49.78,95.65Zm.53.35c.1.18,0,.22-.32.22s-.34,0-.24-.22A.36.36,0,0,1,50.31,96Z"/><path class="cls-5" d="M51.35,95.65a.33.33,0,0,1-.22,0l-.18,0v.71c0,.67,0,.72.15.72s.14,0,.14-.52.06-.68.29-.68c.08,0,.13-.05.13-.15A.17.17,0,0,0,51.35,95.65Z"/><path class="cls-5" d="M52.89,95.68a.81.81,0,0,0-.16,1.23.63.63,0,0,0,.89,0c.17-.17.18-.2.07-.22a.38.38,0,0,0-.26.08.33.33,0,0,1-.53,0,.6.6,0,0,1-.11-.21s.23-.06.5-.06h.51l0-.26A.59.59,0,0,0,52.89,95.68Zm.52.27c.17.17.09.27-.22.27s-.44-.06-.28-.23A.35.35,0,0,1,53.41,96Z"/><path class="cls-5" d="M54.5,95.64a.45.45,0,0,1-.27,0l-.17,0v.71c0,.67,0,.72.14.72s.14,0,.14-.52.07-.68.33-.68.31.19.31.73,0,.47.15.47.14,0,.12-.6a1.37,1.37,0,0,0-.13-.7A.66.66,0,0,0,54.5,95.64Z"/><path class="cls-5" d="M55.93,95.65a.77.77,0,0,0-.37,1,.6.6,0,0,0,1,.25c.13-.15.14-.2,0-.21a.56.56,0,0,0-.29.09.32.32,0,0,1-.53-.18.63.63,0,0,1,.08-.62.36.36,0,0,1,.48,0,.33.33,0,0,0,.22.11c.11,0,.12,0,.06-.17A.56.56,0,0,0,55.93,95.65Z"/><path class="cls-5" d="M57.34,95.65A.83.83,0,0,0,57.19,97a.62.62,0,0,0,.82-.09c.14-.17.15-.19,0-.21a.35.35,0,0,0-.25.1.37.37,0,0,1-.57-.17c-.06-.15,0-.16.43-.16s.5,0,.5-.17a.63.63,0,0,0-.38-.61C57.54,95.57,57.53,95.57,57.34,95.65Zm.45.3c.17.18.09.27-.23.27s-.32,0-.32-.09a.3.3,0,0,1,.32-.26A.36.36,0,0,1,57.79,96Z"/><path class="cls-5" d="M58.54,95.75c-.18.15-.19.19-.14.37a.49.49,0,0,0,.36.3c.37.13.48.22.38.34a.27.27,0,0,1-.42,0c-.11-.13-.35-.14-.35,0s.67.44.93.24.16-.62-.33-.77c-.17-.06-.29-.14-.29-.2s.31-.19.41-.08.34.1.34,0-.17-.26-.44-.31A.47.47,0,0,0,58.54,95.75Z"/><path class="cls-5" d="M66.54,95.72a.66.66,0,0,0-.2.22c0,.1.24.08.34,0a.27.27,0,0,1,.43.12c0,.13,0,.15-.26.14s-.58.18-.58.46.24.42.73.41l.4,0v-.57c0-.65-.07-.78-.46-.86A.44.44,0,0,0,66.54,95.72Zm.57.9a.16.16,0,0,1-.12.2c-.21.07-.43,0-.43-.17s.07-.22.31-.2S67.09,96.51,67.11,96.62Z"/><path class="cls-5" d="M69.69,95.65a.83.83,0,0,0-.2,1.24.65.65,0,0,0,.91,0,.86.86,0,0,0,0-1A.66.66,0,0,0,69.69,95.65Zm.54.35c.17.33,0,.86-.27.86s-.37-.23-.37-.48.11-.51.35-.51A.32.32,0,0,1,70.23,96Z"/><path class="cls-5" d="M71.17,95.68A.81.81,0,0,0,71,96.91c.25.27,1,.15,1-.17,0-.12-.19-.12-.32,0s-.28.14-.45,0a.55.55,0,0,1,0-.7.32.32,0,0,1,.51,0,.21.21,0,0,0,.23.08l.17,0-.23-.23C71.63,95.56,71.51,95.54,71.17,95.68Z"/><path class="cls-5" d="M73.93,95.75c-.18.15-.19.19-.14.37a.49.49,0,0,0,.36.3c.37.13.48.22.38.34a.27.27,0,0,1-.42,0c-.11-.13-.35-.14-.35,0s.67.44.93.24.16-.62-.33-.77c-.17-.06-.29-.14-.29-.2s.31-.19.41-.08.34.1.34,0-.17-.26-.44-.31A.47.47,0,0,0,73.93,95.75Z"/><path class="cls-5" d="M76.19,95.65a.77.77,0,0,0-.37,1,.59.59,0,0,0,.63.45c.7,0,.87-1.18.19-1.41C76.39,95.57,76.38,95.57,76.19,95.65Zm.48.34c.29.27,0,.93-.31.85s-.41-1,0-1A.46.46,0,0,1,76.67,96Z"/><path class="cls-5" d="M77.85,95.65a.39.39,0,0,1-.29,0l-.2,0v.72c0,.67,0,.72.14.72s.14,0,.14-.49.1-.71.35-.71.29.15.29.68,0,.52.14.52.14,0,.14-.57,0-.58-.18-.74A.4.4,0,0,0,77.85,95.65Z"/><path class="cls-5" d="M81.35,95.73a.55.55,0,0,0-.18.21c0,.09.26.09.32,0s.34-.1.44,0,.09.26-.24.25-.34,0-.46.15a.39.39,0,0,0,0,.58c.11.11.23.14.57.13h.42v-.57c0-.62,0-.69-.26-.82A.52.52,0,0,0,81.35,95.73Zm.6.82c.08.1.07.12,0,.21a.44.44,0,0,1-.25.1c-.16,0-.31-.19-.25-.32S81.83,96.4,82,96.55Z"/><path class="cls-5" d="M83.76,95.72a.59.59,0,0,0-.19.22c0,.1.24.08.33,0a.27.27,0,0,1,.43.12c0,.13,0,.15-.26.14s-.57.18-.57.46.23.42.73.41l.4,0v-.57c0-.65-.07-.78-.47-.86A.44.44,0,0,0,83.76,95.72Zm.57.9a.16.16,0,0,1-.12.2c-.21.07-.43,0-.43-.17s.07-.22.32-.2S84.32,96.51,84.33,96.62Z"/><path class="cls-5" d="M85.87,95.73a.55.55,0,0,0-.18.21c0,.09.26.09.32,0s.33-.1.44,0,.09.26-.24.25-.35,0-.46.15a.39.39,0,0,0,0,.58c.11.11.22.14.56.13h.43v-.57c0-.62,0-.69-.26-.82A.52.52,0,0,0,85.87,95.73Zm.6.82c.08.1.07.12,0,.21a.44.44,0,0,1-.25.1c-.16,0-.31-.19-.25-.32S86.35,96.4,86.47,96.55Z"/><path class="cls-5" d="M87.59,95.65a.32.32,0,0,1-.26,0c-.16,0-.16,0-.16.68s0,.72.11.72.1-.1.1-.48.12-.72.36-.72.28.17.28.68,0,.52.14.52.14,0,.14-.59,0-.69-.26-.82A.41.41,0,0,0,87.59,95.65Z"/><path class="cls-5" d="M91.19,95.67c-.21.12-.27.34-.09.34a.33.33,0,0,0,.21-.08.27.27,0,0,1,.44.14c0,.15,0,.16-.16.12a.75.75,0,0,0-.43.06c-.21.09-.25.14-.25.35,0,.36.17.47.69.46H92V96.5c0-.41,0-.58-.12-.7A.64.64,0,0,0,91.19,95.67Zm.56.93c0,.25-.32.35-.52.14s-.09-.13,0-.22S91.72,96.43,91.75,96.6Z"/><path class="cls-5" d="M92.83,95.64a.45.45,0,0,1-.27,0l-.17,0v.71c0,.67,0,.72.15.72s.14,0,.14-.52.06-.68.33-.68.3.19.3.73,0,.47.15.47.15,0,.13-.6a1.33,1.33,0,0,0-.14-.7A.66.66,0,0,0,92.83,95.64Z"/><path class="cls-5" d="M94.16,95.67c-.22.12-.28.34-.09.34a.33.33,0,0,0,.21-.08.26.26,0,0,1,.43.14c0,.15,0,.16-.16.12a.77.77,0,0,0-.43.06c-.21.09-.24.14-.24.35,0,.36.17.47.69.46H95V96.5c0-.41,0-.58-.12-.7A.64.64,0,0,0,94.16,95.67Zm.55.93c.05.25-.31.35-.52.14s-.09-.13,0-.22S94.68,96.43,94.71,96.6Z"/><path class="cls-5" d="M99.41,95.68a.81.81,0,0,0-.15,1.23c.25.27,1,.15,1-.17,0-.12-.19-.12-.32,0s-.29.14-.46,0a.55.55,0,0,1,0-.7.31.31,0,0,1,.5,0,.23.23,0,0,0,.24.08l.17,0-.23-.23A.5.5,0,0,0,99.41,95.68Z"/><path class="cls-5" d="M100.75,95.65a.41.41,0,0,0-.24.53c0,.13.16.2.41.27s.49.3.19.38a.32.32,0,0,1-.31-.07c-.14-.13-.36-.16-.36,0a.66.66,0,0,0,.14.21c.29.29,1,.1,1-.27,0-.21-.1-.3-.46-.43-.2-.07-.35-.17-.35-.22s.39-.19.46-.07a.22.22,0,0,0,.21,0c.16,0,.16,0,0-.17A.66.66,0,0,0,100.75,95.65Z"/><path class="cls-5" d="M38.39,96.36c0,.66,0,.71.14.71s.14,0,.14-.71,0-.71-.14-.71S38.39,95.7,38.39,96.36Z"/><path class="cls-5" d="M40.65,96.36c0,.66,0,.71.14.71s.14,0,.14-.71,0-.71-.14-.71S40.65,95.7,40.65,96.36Z"/><path class="cls-5" d="M46.41,95.74l.22.31a.85.85,0,0,1,.16.28,2.4,2.4,0,0,1-.25.39c-.25.34-.25.35-.09.35s.22-.08.34-.25l.17-.26.22.26a.66.66,0,0,0,.34.25c.16,0,.15,0-.13-.42l-.25-.34L47.4,96c.23-.31.24-.33.09-.33a.6.6,0,0,0-.35.23l-.19.23-.13-.23c-.09-.16-.19-.23-.3-.23S46.37,95.68,46.41,95.74Z"/><path class="cls-5" d="M51.94,96.36c0,.66,0,.71.14.71s.15,0,.15-.71,0-.71-.15-.71S51.94,95.7,51.94,96.36Z"/><path class="cls-5" d="M60.34,95.7s.09.35.19.71c.17.58.22.66.34.65s.17-.13.24-.43.22-.59.22-.42a2.62,2.62,0,0,0,.12.48c.07.27.14.38.23.38s.17-.15.32-.67a2.22,2.22,0,0,0,.16-.72c-.11-.11-.25.07-.36.48-.07.24-.14.41-.16.38s-.07-.26-.13-.48c-.16-.58-.33-.56-.5.07l-.13.48-.14-.48c-.11-.36-.17-.48-.27-.48S60.34,95.67,60.34,95.7Z"/><path class="cls-5" d="M62.46,96.36c0,.66,0,.71.14.71s.14,0,.14-.71,0-.71-.14-.71S62.46,95.7,62.46,96.36Z"/><path class="cls-5" d="M72.27,96.16c0,.48.08.75.24.85a.7.7,0,0,0,.6,0c.06-.07.08-.07.08,0s.07.08.14.08.14,0,.14-.71,0-.71-.14-.71-.14,0-.14.49,0,.51-.12.6c-.32.28-.51.05-.51-.6,0-.44,0-.49-.14-.49S72.27,95.7,72.27,96.16Z"/><path class="cls-5" d="M96.14,96.36c.27.69.28.72.17,1s-.13.31,0,.31.21-.21.5-1c.19-.51.36-1,.36-1s-.06,0-.13,0-.17.12-.29.46a1.29,1.29,0,0,1-.22.46,1.29,1.29,0,0,1-.22-.46c-.13-.37-.19-.46-.32-.46S95.87,95.67,96.14,96.36Z"/><path class="cls-5" d="M98.47,96.36c0,.66,0,.71.14.71s.14,0,.14-.71,0-.71-.14-.71S98.47,95.7,98.47,96.36Z"/><path class="cls-5" d="M101.77,96.8c-.06.15,0,.27.16.27s.21-.12.16-.27a.19.19,0,0,0-.16-.08C101.85,96.72,101.78,96.76,101.77,96.8Z"/><path class="cls-5" d="M22.23,105.43v34h89.94v-34Zm60,7.23c.06-.1.26-.06.3,0s-.18.21-.28.11A.14.14,0,0,1,82.27,112.66Zm-28.14,0c.13,0,.15,0,.15.33s0,.32-.12.3S54,113.18,54,113,54,112.66,54.13,112.66Zm-.35,0c.08,0,.14,0,.14.1,0,.26-.1.54-.18.54s-.1-.09-.1-.32S53.66,112.66,53.78,112.66Zm-.14,2.77H54c.23,0,.32,0,.32.09s-.09.12-.19.13l-.2,0,0,1.74h.21c.15,0,.22,0,.22.11s-.09.1-.32.1h-.32Zm-2.68-5c.12,0,.14-.1.14-.41a1.06,1.06,0,0,1,.08-.47c.12-.12.41-.11.41,0a.18.18,0,0,1-.14.14c-.14,0-.15.07-.1.39s0,.37,0,.4-.05.07,0,.15.07.22,0,.44,0,.35.1.39a.17.17,0,0,1,.14.14c0,.08-.05.09-.15.07-.28-.07-.34-.16-.34-.57s0-.39-.14-.42-.14-.08-.14-.13S50.88,110.47,51,110.44Zm.4,6a.25.25,0,0,1-.22.07c-.13-.06-.15-.31,0-.36s.17-.05.26.07S51.45,116.37,51.36,116.47Zm-.25.84a.26.26,0,0,1-.06-.21.2.2,0,0,1,.36,0A.19.19,0,0,1,51.11,117.31Zm-.06-3.19a.2.2,0,0,1,.36,0,.18.18,0,0,1-.3.2A.24.24,0,0,1,51.05,114.12Zm.31-.63a.25.25,0,0,1-.22.07c-.13,0-.15-.3,0-.35s.17-.06.26.06S51.45,113.4,51.36,113.49ZM50,112.66c.12,0,.14,0,.14.32s-.16.45-.24.16S49.89,112.66,50,112.66Zm0,3c.12,0,.14,0,.14.32s-.16.45-.24.15S49.89,115.64,50,115.64Zm-.3,5.1c-.08,0-.09-.09-.07-.38,0-.45.22-.62.36-.34S49.89,120.74,49.74,120.74Zm0-8.08c.12,0,.14,0,.12.3s-.06.31-.15.33-.12,0-.12-.3S49.57,112.66,49.7,112.66Zm0,3c.12,0,.14,0,.12.3s-.06.31-.15.32-.12,0-.12-.3S49.57,115.64,49.7,115.64Zm-1.18-5.32c.36,0,.46,0,.46.11s-.1.11-.46.11-.46,0-.46-.11S48.16,110.32,48.52,110.32Zm0,.43c.36,0,.46,0,.46.1s-.1.11-.46.11-.46,0-.46-.11S48.16,110.75,48.52,110.75Zm-1.36,5.93c0,.4,0,.41.25.43s.32.19.08.25c-.39.11-.63-.19-.63-.77,0-.23,0-.31-.1-.31s-.11,0-.11-.08.05-.07.11-.07a.12.12,0,0,0,.1-.13c0-.21.24-.23.27,0s.07.16.24.16.2,0,.2.07-.1.08-.21.08h-.22Zm-1.78-6.47h.39c.32,0,.4,0,.46.12a2.23,2.23,0,0,1,.07.6c0,.37,0,.47-.11.47s-.1-.1-.1-.42c0-.5,0-.65-.21-.65s-.29.16-.29.62,0,.45-.1.45-.11-.12-.11-.59Zm.44,9.45c0,.4,0,.41.25.43s.23.06.23.11-.31.19-.51.09-.16-.15-.18-.54,0-.45-.16-.48-.19-.16,0-.16a.18.18,0,0,0,.15-.13c.08-.2.2-.23.22,0s.06.18.23.18.21,0,.21.07-.1.07-.21.07H45.8Zm-.4-6.5s.1-.07.1-.14.24-.22.27,0,.07.17.23.17.21,0,.21.07-.1.07-.21.07H45.8l0,.4c0,.41,0,.41.25.44s.31.19.08.24c-.39.11-.63-.19-.63-.77,0-.23,0-.31-.1-.31s-.11,0-.11-.07S45.36,113.16,45.42,113.16Zm.25,3.94c.33,0,.36,0,.33-.09s-.12-.15-.25-.2c-.42-.12-.54-.5-.21-.66a.52.52,0,0,1,.53,0c.31.11.22.21-.14.19s-.42.14-.09.25c.55.18.63.61.13.75-.25.07-.66,0-.66-.17S45.39,117.07,45.67,117.1Zm-3.39-3.77c0,.18,0,.25-.11.25a.11.11,0,0,1-.11-.1c0-.16-.19-.14-.28,0s-.09.64,0,.64a.11.11,0,0,1,.1.11c0,.07-.08.1-.32.1s-.31,0-.31-.1,0-.11.07-.11.07-.19.07-.43,0-.42-.07-.42a.08.08,0,0,1-.07-.07s.07-.07.17-.07.18,0,.18.08.07,0,.16,0a.65.65,0,0,1,.31-.11C42.25,113.09,42.28,113.12,42.28,113.33Zm-.68-3a.45.45,0,0,1-.3-.08c0-.12.65-.12.75,0a3,3,0,0,1,.08,1.12.19.19,0,0,1-.11-.08c0-.06-.06-.06-.12,0a.61.61,0,0,1-.61,0,.48.48,0,0,1-.06-.31c0-.17.07-.21.36-.3S42,110.36,41.6,110.35Zm-1.55-.66c.08,0,.11.07.11.27s0,.26.24.24.46.06.46.66c0,.42,0,.53-.1.53s-.11-.1-.11-.5,0-.51-.11-.55-.35.08-.37.58c0,.35,0,.47-.12.47s-.1-.16-.1-.85S40,109.69,40.05,109.69Zm-2.55,3.47a.79.79,0,0,1,.63.06c.12.12,0,.22-.2.15s-.46,0-.46.35.13.45.44.42.33.12.06.21a.56.56,0,0,1-.78-.58C37.19,113.45,37.29,113.24,37.5,113.16Zm.33,2.55a.13.13,0,0,1-.14.14.14.14,0,0,1,0-.28A.13.13,0,0,1,37.83,115.71Zm-6.65,18.81c-.14.06-.16.11-.14.43s0,.48-.32.55-.23-.12,0-.23.11-.14.1-.42,0-.37.06-.4.06-.07,0-.14a.62.62,0,0,1-.07-.37c0-.4,0-.45-.11-.45a.11.11,0,0,1-.1-.1c0-.13.16-.14.36,0s.14.13.12.44,0,.37.14.44.15.1.15.14S31.26,134.49,31.18,134.52Zm-.12-24.17a.36.36,0,0,0-.36.19c-.21.39.13.83.49.63.14-.07.15-.06.13,0s-.47.22-.7,0a.75.75,0,0,1,0-.92.72.72,0,0,1,.75-.08C31.45,110.33,31.42,110.34,31.06,110.35Zm1.28,25c-.17.36-.29.32-.28-.09s.08-.51.16-.51l.13,0C32.5,134.87,32.49,135.05,32.34,135.37Zm0-1a.22.22,0,0,1-.22-.07c-.09-.09-.1-.13,0-.22s.09-.12.24-.07A.2.2,0,0,1,32.35,134.39Zm-.1-23c-.31,0-.49-.22-.49-.59s.14-.62.49-.62.3,0,.38.16a.87.87,0,0,1,.11.46C32.74,111.17,32.56,111.39,32.25,111.39Zm1.62-.41c0-.52,0-.66-.21-.66s-.35.2-.35.65c0,.23,0,.42-.07.42s-.07-.25-.07-.61,0-.6.07-.6a.08.08,0,0,1,.07.09c0,.06,0,.06.08,0a.53.53,0,0,1,.32-.09c.3,0,.39.21.36.77S33.87,111.54,33.87,111Zm1.44.27a.69.69,0,0,1-.74.06c-.21-.11-.09-.21.15-.11s.25.06.34,0,.14-.24-.2-.4-.42-.34-.27-.52.7-.11.75,0-.09.07-.27.07c-.41,0-.43.14,0,.3S35.51,111.05,35.31,111.25Zm.95,19.57c0,.22-.06.31-.14.32s-.13,0-.13-.3,0-.32.15-.32S36.28,130.55,36.26,130.82Zm.13.17c-.09-.31,0-.47.1-.47s.14,0,.14.32S36.47,131.29,36.39,131Zm-.08-1.46c-.23,0-.32,0-.32-.11s.07-.11.18-.11h.18v-1.77h-.18c-.11,0-.18,0-.18-.11s.07-.1.31-.09l.29,0,0,1.08,0,1.09Zm-.17-13.89c.13,0,.14,0,.12.3s-.06.31-.14.32-.13,0-.13-.3S36,115.64,36.14,115.64ZM36,113c0-.29,0-.33.15-.33s.14,0,.12.3-.06.31-.14.33S36,113.26,36,113Zm.4,3.12c-.09-.31,0-.47.1-.47s.14,0,.14.32S36.47,116.41,36.39,116.11Zm0-3c-.09-.32,0-.48.1-.48s.14,0,.14.32S36.47,113.43,36.39,113.14Zm.14-1.75c-.33,0-.47-.21-.47-.69,0-.28,0-.38-.1-.38s-.11,0-.11-.07,0-.07.11-.07.1-.06.1-.14a.13.13,0,0,1,.11-.14c.06,0,.1.06.1.14s0,.14.22.14.21,0,.21.07-.09.07-.21.07-.22,0-.22.39.12.58.36.5.14,0,.14.06S36.7,111.39,36.53,111.39ZM38,132.22c-.13,0-.14-.05-.14-.5s0-.51-.11-.54-.32.11-.32.58,0,.46-.14.46-.14-.05-.14-.85,0-.85.14-.85.14,0,.14.27v.28l.22-.08c.2-.08.24-.07.36.09s.13.27.13.65S38.17,132.22,38,132.22Zm-.54-3.13c-.07-.23.17-.35.33-.17s-.11.75-.29.75-.11,0-.07-.22A.76.76,0,0,0,37.5,129.09Zm.22-11.75c-.36,0-.46,0-.46-.11s.07-.1.18-.1.18,0,.18-.39,0-.39-.16-.41-.23-.2.08-.2h.29v.5c0,.48,0,.5.17.5s.18,0,.18.1S38.08,117.34,37.72,117.34Zm1.66,14.77a.55.55,0,0,1-.71,0,.59.59,0,0,1-.15-.48c0-.29,0-.37.18-.51a.43.43,0,0,1,.56-.1C39.61,131.14,39.68,131.84,39.38,132.11Zm-.37-18c.19,0,.19,0,.22-.51s0-.47.15-.47.14,0,.14.6v.6h-.59c-.3,0-.4-.16-.4-.73s0-.48.14-.48.15,0,.15.5v.5Zm-.31,2a.38.38,0,0,0,.26,0,.34.34,0,0,1,.45.05c.08.07.11.25.11.63s0,.53-.14.53-.14,0-.14-.49-.06-.62-.28-.5-.14.15-.14.53,0,.46-.15.46-.14,0-.14-.61S38.53,116.12,38.7,116.16Zm.75-4.92c-.25.26-1.12.13-1-.13a.09.09,0,0,1,.14,0,.47.47,0,0,0,.61,0c.19-.19.13-.3-.3-.5s-.37-.2-.39-.4,0-.24.21-.34a.83.83,0,0,1,.32-.07l.18,0c.14,0,.28.12.23.2s-.09,0-.21,0-.53,0-.53.14.09.18.32.27C39.57,110.63,39.73,111,39.45,111.24Zm1.41,20.66c-.1.3-.26.38-.68.33l-.3,0v-.84c0-.79,0-.84.14-.84s.14,0,.14.28,0,.28.17.2C40.73,130.82,41,131.35,40.86,131.9Zm-.48-15.22c0,.4,0,.41.26.43s.31.19.08.25c-.39.11-.63-.19-.63-.77,0-.23,0-.31-.11-.31a.09.09,0,0,1-.1-.08s0-.07.1-.07a.12.12,0,0,0,.11-.13c0-.21.24-.23.27,0s.07.16.23.16.2,0,.2.07-.1.08-.21.08h-.22Zm.29-3.21c-.1-.14-.1-.14-.2,0s-.14.68,0,.68a.11.11,0,0,1,.1.11c0,.07-.08.1-.35.1s-.47-.1-.25-.18.11-.16.11-.46,0-.42-.11-.42-.1,0-.1-.07.09-.07.21-.07.21,0,.21.08.07,0,.15,0a.72.72,0,0,1,.32-.11c.14,0,.16,0,.16.2S40.8,113.65,40.67,113.47Zm1.15,18.76c-.6,0-.53.09-.53-.86,0-.71,0-.85.1-.85s.11.08.11.28,0,.28.15.21c.34-.19.63.1.63.63C42.28,132,42.09,132.23,41.82,132.23Zm-.25-10.64c.08,0,.14,0,.14.1,0,.25-.1.54-.18.54s-.1-.09-.1-.32S41.45,121.59,41.57,121.59Zm-.14-2.66c0-.27,0-.32.14-.32s.14,0,.14.1c0,.26-.1.54-.18.54S41.43,119.16,41.43,118.93Zm.14,5.64c.08,0,.14,0,.14.09,0,.26-.1.54-.18.54s-.1-.09-.1-.32S41.45,124.57,41.57,124.57Zm.35-3c.12,0,.14,0,.14.33s0,.31-.12.29-.13-.1-.14-.32S41.79,121.59,41.92,121.59Zm0-3c.12,0,.14,0,.14.33s0,.32-.12.3-.13-.11-.14-.33S41.79,118.61,41.92,118.61Zm0,6c.12,0,.14,0,.14.32s0,.32-.12.3-.13-.11-.14-.33S41.79,124.57,41.92,124.57Zm0-7.73c-.34,0-.4,0-.38.12s.1.13.33.13.46.13.15.23a.55.55,0,0,1-.7-.24c-.29-.63.28-1.29.77-.9a.75.75,0,0,1,.19.39l0,.27ZM43,120.32c-.39,0-.54-.78-.22-1.11a.38.38,0,0,1,.39-.14c.21.05.21,0,.21-.2s0-.26.11-.26.11.15.11.85v.85H43Zm.3,1.32c0,.12-.18.2-.28.11a.12.12,0,0,1,0-.16C43,121.49,43.21,121.53,43.25,121.64Zm-.13,10.58c-.37,0-.5,0-.48-.09a.29.29,0,0,1,.22-.11c.18,0,.19,0,.19-.41s0-.38-.17-.38-.18,0-.18-.11.08-.11.28-.11h.28v.5c0,.48,0,.5.18.5s.18,0,.18.1S43.51,132.22,43.12,132.22Zm-.17-1.7a.18.18,0,0,1,.3,0c0,.12-.18.2-.28.1A.11.11,0,0,1,43,130.52Zm.28-4.75c-.21,0-.39,0-.39.06s.21.23.44.21.32.16,0,.23a.62.62,0,0,1-.55-1.07c.26-.25.45-.27.68,0a.55.55,0,0,1,.18.39C43.62,125.77,43.62,125.77,43.23,125.77Zm-.11-2.48c-.37,0-.5,0-.48-.09a.37.37,0,0,1,.22-.11c.18,0,.19,0,.19-.41s0-.38-.17-.38-.18,0-.18-.11.08-.1.28-.1h.28v.49c0,.48,0,.5.18.5s.18,0,.18.1S43.51,123.29,43.12,123.29Zm.39-6.73a.11.11,0,0,1-.11-.11c0-.15-.12-.12-.24,0s-.14.6,0,.65.08.19-.26.19-.31,0-.31-.11a.11.11,0,0,1,.1-.1c.09,0,.11-.1.11-.39s0-.41-.11-.44-.12-.17.11-.17.21,0,.21.09,0,0,.12,0a.53.53,0,0,1,.28-.12c.15,0,.17,0,.17.25S43.58,116.56,43.51,116.56Zm-.28-2.69c-.21,0-.39,0-.39.06s.21.23.44.21.32.15,0,.23a.63.63,0,0,1-.55-1.08c.26-.25.45-.26.68,0a.59.59,0,0,1,.18.39C43.62,113.87,43.62,113.87,43.23,113.87Zm.16-3.43,0-.15-.16.15c-.19.2-.24.8-.05.8a.09.09,0,0,1,.1.08s-.14.07-.31.07-.32,0-.32-.07a.09.09,0,0,1,.1-.08c.09,0,.11-.09.11-.46s0-.46-.11-.46-.1,0-.1-.07.33-.09.37,0,.09,0,.23,0c.32-.17.39-.14.39.14S43.43,110.71,43.39,110.44Zm.54,9.39a.63.63,0,0,1,.53-.3c.17,0,.19-.17,0-.24a.65.65,0,0,0-.28,0c-.12,0-.17,0-.17-.06s.5-.25.71,0a.61.61,0,0,1,.14.48,2.24,2.24,0,0,0,0,.51c0,.14,0,.16-.12.12a.74.74,0,0,0-.33,0A.4.4,0,0,1,43.93,119.83Zm.75,6.21c.3,0,.34.12.07.21a.56.56,0,0,1-.78-.57c0-.33.1-.53.3-.62a.81.81,0,0,1,.64.07c.12.12,0,.22-.21.14s-.45,0-.45.35S44.38,126.08,44.68,126Zm.28,5.68h-.39c-.38,0-.39,0-.31.15s.12.15.35.11.28,0,.28.06c0,.24-.57.28-.79.06a.75.75,0,0,1,0-1,.41.41,0,0,1,.63,0,.43.43,0,0,1,.19.39Zm-.14-8.43c-.13,0-.14-.05-.14-.5s0-.51-.11-.53-.32.1-.32.58,0,.45-.14.45-.14-.05-.14-.61,0-.61.16-.57a.37.37,0,0,0,.26,0,.31.31,0,0,1,.46.08,1.3,1.3,0,0,1,.11.64C45,123.24,44.94,123.29,44.82,123.29Zm.14-6.45h-.39c-.38,0-.39,0-.31.15s.12.15.35.11.28,0,.28.06c0,.24-.57.28-.79.06a.75.75,0,0,1,0-1,.41.41,0,0,1,.63,0,.43.43,0,0,1,.19.39Zm-.14-2.48c-.13,0-.14,0-.14-.49s0-.51-.11-.54-.32.1-.32.58,0,.45-.14.45-.14,0-.14-.61,0-.61.16-.57a.37.37,0,0,0,.26,0,.31.31,0,0,1,.46.08,1.3,1.3,0,0,1,.11.64C45,114.31,44.94,114.36,44.82,114.36Zm-.38-3c-.33,0-.48-.19-.48-.61s.15-.6.51-.6c.2,0,.3,0,.38.16a1,1,0,0,1,.11.46C45,111.18,44.77,111.39,44.44,111.39ZM46,132.21c-.25.07-.66,0-.66-.17s.08-.09.36-.06.36,0,.33-.09-.12-.15-.25-.2c-.42-.12-.54-.5-.21-.66a.52.52,0,0,1,.53,0c.31.11.22.21-.14.19s-.42.14-.09.25C46.39,131.64,46.47,132.07,46,132.21Zm-.17-5.92c-.33,0-.5-.22-.5-.63s0-.38.19-.51a.44.44,0,0,1,.55-.1.57.57,0,0,1,.26.32C46.45,125.86,46.22,126.29,45.8,126.29Zm.32-4.49c-.22,0-.24,0-.24.18s0,.18.17.18.18,0,.18.1-.06.11-.18.11-.17,0-.17.46,0,.46-.15.46-.14-.05-.14-.46,0-.46-.14-.46a.13.13,0,0,1-.14-.11c0-.05.06-.1.14-.1s.14,0,.14-.17a.5.5,0,0,1,.55-.43l.17,0s.06,0,.06.11S46.29,121.8,46.12,121.8Zm.78-9.14h.32v.75c0,.74,0,.74.17.74s.3.11.22.19-.14,0-.26,0c-.34,0-.42-.16-.42-.88s0-.63-.17-.63-.18,0-.18-.1S46.67,112.66,46.9,112.66Zm-.14,7a.68.68,0,0,1,.39-.17c.23,0,.26-.07.1-.21a.4.4,0,0,0-.32,0c-.16,0-.21,0-.21-.06s.46-.25.69-.08.16.18.16.53a1.1,1.1,0,0,0,.07.46c.12.07,0,.19-.15.15a.71.71,0,0,0-.32,0,.39.39,0,0,1-.55-.26C46.58,119.9,46.6,119.83,46.76,119.7Zm.33,11.14c0,.21-.06.32-.13.32s-.1-.08-.1-.17a2,2,0,0,0,0-.32c0-.12,0-.15.12-.15S47.11,130.54,47.09,130.84Zm.23.32c-.07,0-.1-.1-.1-.32s0-.32.14-.32.14,0,.14.2S47.44,131.16,47.32,131.16Zm.18-4.89c-.13,0-.14,0-.14-.49s-.06-.63-.28-.51-.15.15-.15.54,0,.46-.14.46-.14,0-.14-.61,0-.61.16-.58a.35.35,0,0,0,.27,0,.35.35,0,0,1,.45,0c.08.08.11.26.11.64S47.63,126.27,47.5,126.27Zm0-3.87c-.1-.14-.1-.14-.2,0s-.14.68,0,.68a.11.11,0,0,1,.11.1c0,.08-.09.11-.35.11s-.48-.1-.25-.18.1-.16.1-.46,0-.42-.1-.42-.11,0-.11-.07.1-.07.21-.07.22,0,.22.07.07,0,.15,0a.6.6,0,0,1,.32-.12c.13,0,.16,0,.16.21S47.58,122.57,47.45,122.4Zm1.15,9.84c-.14.06-.33-.14-.27-.28s.33-.09.36.09A.18.18,0,0,1,48.6,132.24Zm-.23-.89c-.1-.1-.1-.14,0-.23a.18.18,0,0,1,.34.09C48.71,131.41,48.52,131.5,48.37,131.35Zm-.16-6.47c0-.26,0-.31.14-.31s.14,0,.14.09c0,.26-.1.54-.19.54S48.21,125.11,48.21,124.88Zm.51.31c-.09,0-.13-.11-.15-.33s0-.29.12-.29.15,0,.15.32S48.82,125.21,48.72,125.19Zm.12-1.9a.39.39,0,0,0-.3,0A.38.38,0,0,1,48,123c0-.27.09-.4.41-.45.16,0,.28-.07.28-.1s-.22-.22-.42-.18-.22,0-.22-.05.46-.25.7-.08.15.18.15.47a1.46,1.46,0,0,0,.06.47C49.08,123.23,49,123.37,48.84,123.29Zm-.46-6.52c-.25-.1-.32-.17-.32-.31a.49.49,0,0,1,.44-.4,1,1,0,0,1,.3.07c.12.05.17.11.14.17s-.08.1-.22,0-.44,0-.44.08.13.1.29.17c.34.14.41.22.41.45s-.38.39-.73.29-.29-.25.12-.22S48.83,117,48.38,116.77Zm.46,2.17c0,.27,0,.32-.12.3s-.13-.11-.15-.33,0-.3.12-.3S48.84,118.66,48.84,118.94Zm-.35-.23c0,.26-.1.54-.19.54s-.09-.09-.09-.32,0-.32.14-.32S48.49,118.66,48.49,118.71Zm.34-4.83c-.23.65-.45,1-.66,1s-.13-.14.07-.3.16-.16.15-.19-.13-.31-.25-.64c-.2-.57-.21-.58-.06-.56s.18.13.3.48l.15.45.13-.45c.12-.39.27-.58.36-.47A2.31,2.31,0,0,1,48.83,113.88ZM50,122.57c.27.13.31.17.31.35s-.3.48-.74.36-.27-.24.15-.24.48-.15.13-.27-.59-.49-.24-.67a.73.73,0,0,1,.65.05c.13.13,0,.22-.19.13s-.39,0-.39.08S49.83,122.5,50,122.57Zm1.06,8.59c-.12,0-.18-.16-.18-.44s0-.2.14-.2.14,0,.14.32S51.14,131.16,51.07,131.16Zm.45-.21c0,.13,0,.21-.1.21s-.11-.09-.11-.32,0-.32.15-.32.13,0,.11.11A.93.93,0,0,0,51.52,131Zm-.5-7.82a1.55,1.55,0,0,1-.06-.5c0-.35,0-.4-.14-.4s-.14,0-.14-.07.06-.07.14-.07A.13.13,0,0,0,51,122c0-.13.13-.23.23-.17a.23.23,0,0,1,.05.17c0,.11,0,.14.22.14s.2,0,.17.07a.33.33,0,0,1-.22.07c-.16,0-.17,0-.17.42v.43h.25c.16,0,.25,0,.25.1S51.15,123.34,51,123.13Zm2.06,8.75a.44.44,0,0,1-.56.36c-.13,0-.15,0-.15.22s0,.25-.14.25-.14-.05-.14-.85,0-.86.16-.82a.36.36,0,0,0,.26,0c.15-.09.23-.08.4,0A.79.79,0,0,1,53.08,131.88Zm-.19-9.48c-.1-.14-.1-.14-.21,0s-.13.68,0,.68a.11.11,0,0,1,.1.1c0,.08-.08.11-.35.11s-.47-.1-.25-.18.11-.16.11-.46,0-.42-.11-.42-.1,0-.1-.07.1-.07.21-.07.21,0,.21.07.07,0,.16,0A.57.57,0,0,1,53,122c.14,0,.17,0,.17.21S53,122.57,52.89,122.4Zm1.53,9.81h-.19l-.41,0c-.29,0-.39-.17-.39-.73s0-.49.14-.49.14.05.14.51V132l.2,0c.18,0,.19,0,.21-.5s0-.48.16-.48.14.05.14.61Zm0-8.93h-.19l-.41,0c-.29,0-.39-.17-.39-.73s0-.48.14-.48.14,0,.14.5v.49l.2,0c.18,0,.19,0,.21-.5s0-.47.16-.47.14,0,.14.6ZM55.48,132c.2,0,.28,0,.28.1s-.1.11-.46.11c-.56,0-.58-.07-.18-.59l.28-.37-.25,0a.41.41,0,0,1-.29-.13c0-.06.09-.09.43-.09s.47,0,.47.09a2,2,0,0,1-.28.45,3.18,3.18,0,0,0-.29.42A.59.59,0,0,0,55.48,132Zm0-8.95c.19,0,.25,0,.25,0s-.11.19-.4.19-.55-.21-.55-.62a.53.53,0,0,1,.19-.5.5.5,0,0,1,.65-.08c.14.06.16.1.1.17s-.11.08-.22,0-.48.09-.48.35S55.2,123.11,55.51,123.06Zm.38-8.7c-.12.21-.35.26-.48.12s-.12-.1-.22,0-.4,0-.49-.25c-.16-.5.16-1,.59-.85.17,0,.18.08.2.5,0,.59.16.62.18,0,0-.78-.21-1.07-.69-.83s-.51,0-.15-.19a.72.72,0,0,1,1,.19A2.47,2.47,0,0,1,55.89,114.36ZM56.81,132c.2,0,.29.06.29.13s-.11.1-.46.1c-.55,0-.56,0-.17-.58l.28-.38-.24,0c-.16,0-.26-.06-.26-.13s.1-.1.43-.1.42,0,.42.1a1.78,1.78,0,0,1-.29.48l-.28.38Zm.34-8.72a1.09,1.09,0,0,1-.3,0c-.35,0-.46-.15-.46-.67,0-.36,0-.41-.14-.41s-.14,0-.14-.07.07-.07.14-.07a.12.12,0,0,0,.14-.14.17.17,0,0,1,.24-.17.23.23,0,0,1,0,.17c0,.1,0,.14.17.14s.18,0,.18.07-.08.07-.18.07-.17,0-.17.42,0,.43.2.43S57.23,123.18,57.15,123.27Zm-.4-9.16c.48.08.63.53.23.68s-.87,0-.87-.22.18-.19.24,0,.61.11.61-.08-.09-.1-.27-.1-.55-.14-.48-.32a.69.69,0,0,0,0-.36c-.08-.22-.07-.26.06-.39a1.06,1.06,0,0,1,.49-.2l.39-.07a.14.14,0,0,1,.1.07.13.13,0,0,1-.05.15.27.27,0,0,0-.07.26.47.47,0,0,1-.44.47C56.37,114,56.43,114.06,56.75,114.11ZM58,132.19c-.14-.08-.16-.13-.18-.77s0-.69-.19-.69-.18,0-.18-.11.08-.1.29-.1H58v.65a4.06,4.06,0,0,0,0,.74.29.29,0,0,0,.22.1c.1,0,.19.07.2.11S58.19,132.28,58,132.19Zm.51-8.91h-.65c-.27,0-.34-.14-.34-.69s0-.52.15-.52.14,0,.14.5v.49l.19,0c.19,0,.19,0,.22-.5s0-.47.15-.47.14,0,.14.6Zm0-9.41h-.39c-.38,0-.38,0-.31.15s.12.14.36.11.27,0,.27.06-.11.19-.4.19-.54-.21-.54-.63a.52.52,0,0,1,.19-.5.42.42,0,0,1,.64,0,.43.43,0,0,1,.18.39Zm.53-.62a.42.42,0,0,1,.55-.1.46.46,0,0,1,.26.32c.16.48-.07.91-.5.91s-.5-.22-.5-.63S58.89,113.38,59,113.25Zm.85,18.4a.74.74,0,0,1-.4.07c-.3,0-.35,0-.33.12s.1.13.33.13.47.13.21.22c-.52.16-.83-.06-.83-.59s.38-.79.77-.59C59.78,131.09,60,131.54,59.89,131.65Zm-.23-9.25c-.1-.14-.1-.14-.2,0s-.14.68,0,.68a.11.11,0,0,1,.1.1c0,.08-.08.11-.35.11s-.47-.1-.25-.18.11-.16.11-.46,0-.42-.11-.42-.1,0-.1-.07.09-.07.21-.07.21,0,.21.07.07,0,.15,0a.64.64,0,0,1,.32-.12c.14,0,.16,0,.16.21S59.79,122.57,59.66,122.4Zm.65-9.24a.18.18,0,0,0,.16-.13c.08-.21.2-.23.22,0s.06.18.23.18.2,0,.2.07-.09.07-.21.07h-.22l0,.4c0,.41,0,.41.25.44s.23.06.23.11-.32.18-.51.08-.17-.14-.19-.53,0-.45-.16-.48S60.16,113.16,60.31,113.16Zm.56,19.05c-.25.07-.66,0-.66-.17s.07-.09.35-.06.35,0,.35-.07-.11-.17-.28-.23c-.44-.18-.53-.49-.19-.65a.52.52,0,0,1,.53,0c.3.11.22.21-.15.19s-.42.14-.08.25C61.29,131.64,61.36,132.07,60.87,132.21Zm.36-9.49a.7.7,0,0,1-.39.07c-.31,0-.36,0-.34.12s.1.13.34.13.46.14.2.22c-.52.16-.83-.06-.83-.59s.39-.79.77-.58C61.12,122.16,61.3,122.61,61.23,122.72Zm.63,8.44c-.07,0-.1-.1-.1-.32s0-.32.14-.32.14,0,.14.1C62,130.87,61.94,131.16,61.86,131.16Zm0-8.93c-.07,0-.1-.09-.1-.32s0-.32.14-.32.14,0,.14.1C62,121.94,61.94,122.23,61.86,122.23Zm.42,8.91c-.1,0-.14-.1-.15-.32s0-.3.12-.3.15,0,.15.32S62.37,131.16,62.28,131.14Zm0-8.93c-.1,0-.14-.1-.15-.32s0-.3.12-.3.15,0,.15.33S62.37,122.23,62.28,122.21Zm.12-7.85a.37.37,0,0,0-.31,0,.38.38,0,0,1-.53-.3c0-.27.09-.4.42-.45.15,0,.27-.07.27-.1s-.21-.22-.42-.18-.21,0-.21,0,.46-.25.69-.08.16.18.16.48a1.16,1.16,0,0,0,.06.46C62.64,114.31,62.54,114.44,62.4,114.36Zm.89,9.36c-.08,0-.09-.09-.06-.38,0-.45.21-.62.36-.35S63.44,123.72,63.29,123.72Zm.27-9.35H63v-.85c0-.61,0-.85.09-.87s.1.08.12.28.06.29.14.24c.33-.21.64,0,.64.56S63.79,114.37,63.56,114.37Zm1.09.42c-.11,0-.12,0-.07-.22a.76.76,0,0,0,0-.36c-.07-.23.17-.35.33-.17S64.83,114.79,64.65,114.79Zm3.38-.34a.27.27,0,0,1-.44,0,.17.17,0,0,0-.25,0c-.43.24-.7-.57-.32-1a.39.39,0,0,1,.54-.11c.11.06.13.16.13.54s0,.46.09.43.09-.2.09-.57,0-.56-.16-.69-.18-.15-.42-.08-.4.11-.43,0,.34-.28.6-.29a.55.55,0,0,1,.43.2A1.53,1.53,0,0,1,68,114.45Zm.71-.09c-.12-.07-.13,0-.13.21s0,.29-.11.29-.1-.14-.1-.86,0-.86.13-.82a.35.35,0,0,0,.23,0q.26-.16.48.12C69.61,113.75,69.22,114.62,68.74,114.36Zm1.92,0h-.21a.55.55,0,0,0-.28,0s-.16,0-.26-.06-.17-.16-.17-.64,0-.53.1-.53.11.1.11.45c0,.5,0,.58.32.51s.17-.08.17-.5,0-.46.11-.46.11.11.11.59Zm1.37,0c-.08,0-.1-.12-.12-.51s0-.52-.09-.52-.08.24-.09.52c0,.46,0,.51-.16.51s-.14,0-.14-.54,0-.53-.08-.51-.1.22-.12.54,0,.51-.15.51-.14,0-.14-.59v-.61l.23,0,.26,0s.08,0,.14.05a.2.2,0,0,0,.22,0,.17.17,0,0,1,.23,0C72.18,113.29,72.19,114.36,72,114.36Zm1.38-.34a.44.44,0,0,1-.56.36c-.13,0-.15,0-.15.22s0,.26-.14.26-.14,0-.14-.86,0-.86.16-.82a.37.37,0,0,0,.26,0c.15-.09.23-.09.4,0A.8.8,0,0,1,73.41,114Zm1.15-.55c-.1-.14-.1-.14-.21,0s-.13.68,0,.68a.11.11,0,0,1,.11.11c0,.07-.09.1-.36.1s-.47-.1-.24-.18c.08,0,.1-.16.1-.46s0-.42-.1-.42-.11,0-.11-.07.1-.07.21-.07.22,0,.22.08.07,0,.15,0a.68.68,0,0,1,.32-.11c.13,0,.16,0,.16.2S74.69,113.65,74.56,113.47Zm1.24.89c-.42.14-.7-.11-.7-.64s.48-.8.84-.51A.74.74,0,0,1,75.8,114.36Zm1.42-1.13c.28,0,.25.17,0,.2s-.19,0-.19.48,0,.45-.11.45-.1-.1-.1-.46,0-.46-.14-.46-.15,0-.15-.11.07-.1.15-.1.14,0,.14-.21a.33.33,0,0,1,.31-.37c.22,0,.47,0,.44.11s-.13.09-.27.11-.24.08-.26.2S77,113.23,77.22,113.23Zm1.62.64h-.38c-.39,0-.39,0-.31.15s.12.14.35.11.27,0,.27.06-.11.19-.4.19-.54-.21-.54-.63c0-.27,0-.36.2-.5a.41.41,0,0,1,.63,0,.43.43,0,0,1,.18.39Zm1,.49c-.25.07-.66,0-.66-.17s.08-.1.35-.06.35,0,.35-.08-.11-.16-.28-.23c-.44-.17-.53-.49-.19-.65a.52.52,0,0,1,.53,0c.3.11.22.22-.15.2s-.41.14-.08.24C80.28,113.78,80.36,114.21,79.86,114.36Zm1.34,0c-.25.07-.66,0-.66-.17s.08-.1.35-.06.35,0,.35-.08-.11-.16-.28-.23c-.44-.17-.53-.49-.19-.65a.52.52,0,0,1,.53,0c.3.11.22.22-.15.2s-.41.14-.08.24C81.62,113.78,81.7,114.21,81.2,114.36Zm1.25,0c-.39,0-.5,0-.5-.1s.06-.11.18-.11.17,0,.17-.38,0-.39-.15-.41a.3.3,0,0,1-.19-.12s.08-.08.3-.08h.33v.49c0,.45,0,.49.15.51a.28.28,0,0,1,.18.11C83,114.34,82.82,114.36,82.45,114.36Zm1.44,0c-.34,0-.46,0-.57-.23-.34-.66.3-1.37.78-.88C84.44,113.59,84.29,114.34,83.89,114.37Zm1.59,0c-.13,0-.14,0-.14-.49s0-.51-.11-.54-.31.1-.31.58,0,.45-.15.45-.14,0-.14-.61,0-.61.17-.57a.38.38,0,0,0,.26,0,.3.3,0,0,1,.45.08,1.19,1.19,0,0,1,.11.64C85.62,114.31,85.61,114.36,85.48,114.36Zm1.33,0a.66.66,0,0,0-.31,0,.4.4,0,0,1-.56-.26c0-.16,0-.23.14-.35a.65.65,0,0,1,.4-.17c.22,0,.26-.07.09-.21a.42.42,0,0,0-.31,0c-.17,0-.21,0-.21,0s.45-.25.69-.08.15.18.15.52a1.17,1.17,0,0,0,.07.47C87.08,114.26,87,114.38,86.81,114.34Zm1.47,0a.56.56,0,0,1-.27,0c-.33,0-.41-.16-.41-.88s0-.63-.18-.63-.17,0-.17-.1.08-.11.31-.11h.32v.75c0,.74,0,.74.17.74S88.35,114.26,88.28,114.34Zm.63,0c-.37-.11-.29-.25.12-.22s.46-.15,0-.34c-.26-.11-.32-.17-.32-.32a.47.47,0,0,1,.44-.39,1,1,0,0,1,.29.07c.12,0,.17.1.14.17s-.07.09-.22,0-.44,0-.44.07.11.1.23.15c.33.14.48.29.48.48S89.26,114.45,88.91,114.36Zm1.49.43c-.08,0-.09-.09-.06-.38,0-.45.21-.62.36-.35S90.55,114.79,90.4,114.79Zm3.4-.34a.27.27,0,0,1-.44,0,.18.18,0,0,0-.26,0c-.43.24-.69-.57-.31-1a.38.38,0,0,1,.53-.11c.12.06.14.16.14.54s0,.46.09.43.08-.2.08-.57,0-.56-.15-.69-.18-.15-.42-.08-.41.11-.44,0,.34-.28.61-.29a.55.55,0,0,1,.43.2A1.53,1.53,0,0,1,93.8,114.45Zm1.35-.58c-.08.44-.1.49-.25.49s-.17,0-.23-.3l-.06-.3,0,.21c-.09.38-.11.4-.27.38s-.17-.09-.24-.48a5.37,5.37,0,0,1-.09-.59c0-.15.18-.16.23,0a1.3,1.3,0,0,1,0,.31c0,.32.12.31.17,0s.07-.29.2-.27.17.1.23.34.08.34.15-.16c0-.22.07-.33.14-.33S95.24,113.24,95.15,113.87Zm1.13.49a.35.35,0,0,0-.3,0,.38.38,0,0,1-.53-.3c0-.27.09-.4.42-.45.15,0,.27-.07.27-.1s-.22-.22-.42-.18-.21,0-.21,0,.45-.25.69-.08.15.18.15.48a1.11,1.11,0,0,0,.07.46C96.52,114.31,96.43,114.44,96.28,114.36Zm1.53,0a.73.73,0,0,1-.29,0c-.36,0-.46-.15-.46-.67,0-.36,0-.41-.14-.41s-.14,0-.14-.07.06-.07.14-.07a.13.13,0,0,0,.14-.14.17.17,0,0,1,.23-.17.25.25,0,0,1,0,.17c0,.1,0,.14.18.14s.17,0,.17.07-.07.07-.17.07-.18,0-.18.42,0,.43.21.43S97.89,114.26,97.81,114.34Zm1.37-.47h-.39c-.38,0-.39,0-.31.15s.12.14.35.11.28,0,.28.06-.12.19-.41.19-.53-.21-.53-.63c0-.27,0-.36.19-.5a.41.41,0,0,1,.63,0,.42.42,0,0,1,.19.39Zm1.15-.4c-.1-.14-.1-.14-.21,0s-.13.68,0,.68a.11.11,0,0,1,.11.11c0,.07-.09.1-.36.1s-.47-.1-.24-.18c.07,0,.1-.16.1-.46s0-.42-.1-.42-.11,0-.11-.07.1-.07.21-.07.21,0,.21.08.07,0,.16,0a.65.65,0,0,1,.32-.11c.13,0,.16,0,.16.2S100.45,113.65,100.33,113.47Zm1.5.87s-.14,0-.26,0c-.34,0-.42-.16-.42-.88s0-.63-.17-.63-.18,0-.18-.1.08-.11.32-.11h.32v.75c0,.74,0,.74.16.74S101.91,114.26,101.83,114.34Zm1.08,0c-.42.14-.7-.11-.7-.64s.48-.8.84-.51A.74.74,0,0,1,102.91,114.36Zm1.31,0c-.34,0-.45,0-.57-.23-.34-.66.3-1.37.79-.88C104.77,113.59,104.62,114.34,104.22,114.37Zm1.07-1.07c-.12,0-.18-.16-.18-.43s0-.21.14-.21.14,0,.14.32S105.36,113.3,105.29,113.3Zm.45-.21c0,.14,0,.21-.1.21s-.11-.09-.11-.32,0-.32.15-.32.13,0,.1.12A1.23,1.23,0,0,0,105.74,113.09Z"/><path class="cls-6" d="M46.3,110.92c0,.37,0,.47-.11.47s-.1-.1-.1-.42c0-.5,0-.65-.21-.65s-.29.16-.29.62,0,.45-.1.45-.11-.12-.11-.59v-.59h.39c.32,0,.4,0,.46.12A2.23,2.23,0,0,1,46.3,110.92Z"/><path class="cls-7" d="M95.15,113.87c-.08.44-.1.49-.25.49s-.17,0-.23-.3l-.06-.3,0,.21c-.09.38-.11.4-.27.38s-.17-.09-.24-.48a5.37,5.37,0,0,1-.09-.59c0-.15.18-.16.23,0a1.3,1.3,0,0,1,0,.31c0,.32.12.31.17,0s.07-.29.2-.27.17.1.23.34.08.34.15-.16c0-.22.07-.33.14-.33S95.24,113.24,95.15,113.87Z"/><path class="cls-7" d="M96.42,114.14a1.11,1.11,0,0,1-.07-.46c0-.3,0-.39-.15-.48s-.69-.11-.69.08,0,.09.21,0,.42,0,.42.18-.12.07-.27.1c-.33,0-.46.18-.42.45a.38.38,0,0,0,.53.3.35.35,0,0,1,.3,0C96.43,114.44,96.52,114.31,96.42,114.14Zm-.69,0c-.09-.08-.09-.13,0-.21s.42-.15.42,0A.25.25,0,0,1,95.73,114.12Z"/><path class="cls-7" d="M97.81,114.34a.73.73,0,0,1-.29,0c-.36,0-.46-.15-.46-.67,0-.36,0-.41-.14-.41s-.14,0-.14-.07.06-.07.14-.07a.13.13,0,0,0,.14-.14.17.17,0,0,1,.23-.17.25.25,0,0,1,0,.17c0,.1,0,.14.18.14s.17,0,.17.07-.07.07-.17.07-.18,0-.18.42,0,.43.21.43S97.89,114.26,97.81,114.34Z"/><path class="cls-7" d="M98.79,113.87h.39v-.24a.42.42,0,0,0-.19-.39.41.41,0,0,0-.63,0c-.17.14-.19.23-.19.5,0,.42.17.63.53.63s.41-.06.41-.19-.07-.09-.28-.06-.29,0-.35-.11S98.41,113.87,98.79,113.87Zm-.28-.46a.39.39,0,0,1,.17-.11c.08,0,.28.21.28.29s-.12.06-.28.06S98.34,113.59,98.51,113.41Z"/><path class="cls-7" d="M100.59,113.29c0,.26-.14.36-.26.18s-.1-.14-.21,0-.13.68,0,.68a.11.11,0,0,1,.11.11c0,.07-.09.1-.36.1s-.47-.1-.24-.18c.07,0,.1-.16.1-.46s0-.42-.1-.42-.11,0-.11-.07.1-.07.21-.07.21,0,.21.08.07,0,.16,0a.65.65,0,0,1,.32-.11C100.56,113.09,100.59,113.12,100.59,113.29Z"/><path class="cls-7" d="M101.83,114.34s-.14,0-.26,0c-.34,0-.42-.16-.42-.88s0-.63-.17-.63-.18,0-.18-.1.08-.11.32-.11h.32v.75c0,.74,0,.74.16.74S101.91,114.26,101.83,114.34Z"/><path class="cls-7" d="M103.05,113.21c-.36-.29-.84,0-.84.51s.28.78.7.64A.74.74,0,0,0,103.05,113.21Zm-.1.83a.29.29,0,0,1-.42,0,.84.84,0,0,1,0-.66C102.83,113.09,103.12,113.58,103,114Z"/><path class="cls-7" d="M104.44,113.26c-.49-.49-1.13.22-.79.88.12.22.23.26.57.23S104.77,113.59,104.44,113.26Zm-.4.88c-.14,0-.17-.07-.19-.33a.75.75,0,0,1,.06-.41c.19-.24.43,0,.43.37S104.27,114.17,104,114.14Z"/><path class="cls-7" d="M105.78,112.78a1.23,1.23,0,0,0,0,.31c0,.14,0,.21-.1.21s-.11-.09-.11-.32,0-.32.15-.32S105.81,112.69,105.78,112.78Z"/><path class="cls-7" d="M105.39,113c0,.23,0,.32-.1.32s-.18-.16-.18-.43,0-.21.14-.21S105.39,112.71,105.39,113Z"/><path class="cls-7" d="M90.4,114.79c-.08,0-.09-.09-.06-.38,0-.45.21-.62.36-.35S90.55,114.79,90.4,114.79Z"/><path class="cls-7" d="M88.28,114.34a.56.56,0,0,1-.27,0c-.33,0-.41-.16-.41-.88s0-.63-.18-.63-.17,0-.17-.1.08-.11.31-.11h.32v.75c0,.74,0,.74.17.74S88.35,114.26,88.28,114.34Z"/><path class="cls-7" d="M89.65,114.06c0,.24-.39.39-.74.3s-.29-.25.12-.22.46-.15,0-.34c-.26-.11-.32-.17-.32-.32a.47.47,0,0,1,.44-.39,1,1,0,0,1,.29.07c.12,0,.17.1.14.17s-.07.09-.22,0-.44,0-.44.07.11.1.23.15C89.5,113.72,89.65,113.87,89.65,114.06Z"/><path class="cls-7" d="M93.66,112.93a.55.55,0,0,0-.43-.2c-.27,0-.64.19-.61.29s.08.09.44,0,.28-.06.42.08.15.23.15.69,0,.56-.08.57-.09-.09-.09-.43,0-.48-.14-.54a.38.38,0,0,0-.53.11c-.38.38-.12,1.19.31,1a.18.18,0,0,1,.26,0,.27.27,0,0,0,.44,0A1.53,1.53,0,0,0,93.66,112.93Zm-.5.95c0,.28,0,.38-.13.38s-.19-.45-.11-.65a.16.16,0,0,1,.15-.1C93.16,113.51,93.18,113.58,93.16,113.88Z"/><path class="cls-7" d="M87,114.19a1.17,1.17,0,0,1-.07-.47c0-.34,0-.43-.15-.52s-.69-.11-.69.08,0,.09.21,0a.42.42,0,0,1,.31,0c.17.14.13.21-.09.21a.65.65,0,0,0-.4.17c-.15.12-.18.19-.14.35a.4.4,0,0,0,.56.26.66.66,0,0,1,.31,0C87,114.38,87.08,114.26,87,114.19Zm-.43,0c-.22.08-.34,0-.34-.13s0-.15.09-.16c.22-.1.4,0,.4.09A.22.22,0,0,1,86.53,114.14Z"/><path class="cls-7" d="M85.62,113.88c0,.43,0,.48-.14.48s-.14,0-.14-.49,0-.51-.11-.54-.31.1-.31.58,0,.45-.15.45-.14,0-.14-.61,0-.61.17-.57a.38.38,0,0,0,.26,0,.3.3,0,0,1,.45.08A1.19,1.19,0,0,1,85.62,113.88Z"/><path class="cls-7" d="M84.1,113.26c-.48-.49-1.12.22-.78.88.11.22.23.26.57.23S84.44,113.59,84.1,113.26Zm-.39.88c-.14,0-.17-.07-.19-.33a.67.67,0,0,1,.06-.41c.19-.24.43,0,.43.37S83.93,114.17,83.71,114.14Z"/><path class="cls-7" d="M82.92,114.27c0,.07-.1.09-.47.09s-.5,0-.5-.1.06-.11.18-.11.17,0,.17-.38,0-.39-.15-.41a.3.3,0,0,1-.19-.12s.08-.08.3-.08h.33v.49c0,.45,0,.49.15.51A.28.28,0,0,1,82.92,114.27Z"/><path class="cls-7" d="M81.2,114.36c-.25.07-.66,0-.66-.17s.08-.1.35-.06.35,0,.35-.08-.11-.16-.28-.23c-.44-.17-.53-.49-.19-.65a.52.52,0,0,1,.53,0c.3.11.22.22-.15.2s-.41.14-.08.24C81.62,113.78,81.7,114.21,81.2,114.36Z"/><path class="cls-7" d="M79.86,114.36c-.25.07-.66,0-.66-.17s.08-.1.35-.06.35,0,.35-.08-.11-.16-.28-.23c-.44-.17-.53-.49-.19-.65a.52.52,0,0,1,.53,0c.3.11.22.22-.15.2s-.41.14-.08.24C80.28,113.78,80.36,114.21,79.86,114.36Z"/><path class="cls-7" d="M78.46,113.87h.38v-.24a.43.43,0,0,0-.18-.39.41.41,0,0,0-.63,0c-.17.14-.2.23-.2.5q0,.63.54.63c.29,0,.4-.06.4-.19s-.07-.09-.27-.06-.29,0-.35-.11S78.07,113.87,78.46,113.87Zm-.28-.46a.34.34,0,0,1,.17-.11c.08,0,.28.21.28.29s-.12.06-.28.06S78,113.59,78.18,113.41Z"/><path class="cls-7" d="M77.2,113.43c-.18,0-.19,0-.19.48s0,.45-.11.45-.1-.1-.1-.46,0-.46-.14-.46-.15,0-.15-.11.07-.1.15-.1.14,0,.14-.21a.33.33,0,0,1,.31-.37c.22,0,.47,0,.44.11s-.13.09-.27.11-.24.08-.26.2,0,.16.2.16S77.47,113.4,77.2,113.43Z"/><path class="cls-7" d="M75.94,113.21c-.36-.29-.84,0-.84.51s.28.78.7.64A.74.74,0,0,0,75.94,113.21Zm-.1.83a.29.29,0,0,1-.42,0,.89.89,0,0,1,0-.66C75.72,113.09,76,113.58,75.84,114Z"/><path class="cls-7" d="M74.82,113.29c0,.26-.13.36-.26.18s-.1-.14-.21,0-.13.68,0,.68a.11.11,0,0,1,.11.11c0,.07-.09.1-.36.1s-.47-.1-.24-.18c.08,0,.1-.16.1-.46s0-.42-.1-.42-.11,0-.11-.07.1-.07.21-.07.22,0,.22.08.07,0,.15,0a.68.68,0,0,1,.32-.11C74.79,113.09,74.82,113.12,74.82,113.29Z"/><path class="cls-7" d="M72,114.36c-.08,0-.1-.12-.12-.51s0-.52-.09-.52-.08.24-.09.52c0,.46,0,.51-.16.51s-.14,0-.14-.54,0-.53-.08-.51-.1.22-.12.54,0,.51-.15.51-.14,0-.14-.59v-.61l.23,0,.26,0s.08,0,.14.05a.2.2,0,0,0,.22,0,.17.17,0,0,1,.23,0C72.18,113.29,72.19,114.36,72,114.36Z"/><path class="cls-7" d="M73.24,113.19c-.17-.12-.25-.12-.4,0a.37.37,0,0,1-.26,0c-.16,0-.16,0-.16.82s0,.86.14.86.14,0,.14-.26,0-.25.15-.22a.44.44,0,0,0,.56-.36A.8.8,0,0,0,73.24,113.19Zm-.11.87a.23.23,0,0,1-.22.08c-.14,0-.17-.07-.19-.33a.67.67,0,0,1,.06-.41c.11-.13.17-.13.3,0A.68.68,0,0,1,73.13,114.06Z"/><path class="cls-7" d="M70.66,113.75v.61h-.21a.55.55,0,0,0-.28,0s-.16,0-.26-.06-.17-.16-.17-.64,0-.53.1-.53.11.1.11.45c0,.5,0,.58.32.51s.17-.08.17-.5,0-.46.11-.46S70.66,113.27,70.66,113.75Z"/><path class="cls-7" d="M69.24,113.27q-.22-.28-.48-.12a.35.35,0,0,1-.23,0c-.13,0-.13,0-.13.82s0,.86.1.86.11-.08.11-.29,0-.28.13-.21C69.22,114.62,69.61,113.75,69.24,113.27Zm-.39.84c-.19,0-.21,0-.23-.31s0-.34.1-.41a.49.49,0,0,1,.18-.09c.12,0,.21.23.19.51S69.05,114.11,68.85,114.11Z"/><path class="cls-7" d="M67.89,112.93a.55.55,0,0,0-.43-.2c-.26,0-.64.19-.6.29s.07.09.43,0,.28-.06.42.08.16.23.16.69,0,.56-.09.57-.09-.09-.09-.43,0-.48-.13-.54a.39.39,0,0,0-.54.11c-.38.38-.11,1.19.32,1a.17.17,0,0,1,.25,0,.27.27,0,0,0,.44,0A1.53,1.53,0,0,0,67.89,112.93Zm-.5.95c0,.28,0,.38-.12.38s-.19-.45-.12-.65a.16.16,0,0,1,.15-.1C67.39,113.51,67.41,113.58,67.39,113.88Z"/><path class="cls-7" d="M64.65,114.79c-.11,0-.12,0-.07-.22a.76.76,0,0,0,0-.36c-.07-.23.17-.35.33-.17S64.83,114.79,64.65,114.79Z"/><path class="cls-7" d="M63.31,113.16c-.08,0-.11,0-.14-.24s-.06-.29-.12-.28-.09.26-.09.87v.85h.6c.23,0,.39-.26.39-.65S63.64,113,63.31,113.16Zm.1,1c-.19,0-.2,0-.22-.29a.49.49,0,0,1,.09-.41c.15-.15.26-.11.37.13S63.68,114.11,63.41,114.11Z"/><path class="cls-7" d="M62.53,114.14a1.16,1.16,0,0,1-.06-.46c0-.3,0-.39-.16-.48s-.69-.11-.69.08.05.09.21,0,.42,0,.42.18-.12.07-.27.1c-.33,0-.45.18-.42.45a.38.38,0,0,0,.53.3.37.37,0,0,1,.31,0C62.54,114.44,62.64,114.31,62.53,114.14Zm-.69,0c-.09-.08-.09-.13,0-.21s.42-.15.42,0A.25.25,0,0,1,61.84,114.12Z"/><path class="cls-7" d="M61.2,114.25c0,.13-.32.18-.51.08s-.17-.14-.19-.53,0-.45-.16-.48-.18-.16,0-.16a.18.18,0,0,0,.16-.13c.08-.21.2-.23.22,0s.06.18.23.18.2,0,.2.07-.09.07-.21.07h-.22l0,.4c0,.41,0,.41.25.44S61.2,114.2,61.2,114.25Z"/><path class="cls-7" d="M53.92,112.76c0,.26-.1.54-.18.54s-.1-.09-.1-.32,0-.32.14-.32S53.92,112.7,53.92,112.76Z"/><path class="cls-7" d="M54.28,113c0,.27,0,.32-.12.3S54,113.18,54,113s0-.3.12-.3S54.28,112.7,54.28,113Z"/><path class="cls-7" d="M55.83,113a.72.72,0,0,0-1-.19c-.36.19-.21.37.15.19s.73,0,.69.83c0,.59-.15.56-.18,0,0-.42,0-.46-.2-.5-.43-.11-.75.35-.59.85.09.26.28.36.49.25s.15,0,.22,0,.36.09.48-.12A2.47,2.47,0,0,0,55.83,113ZM55,114.26a.73.73,0,0,1,0-.66c.17-.17.27-.09.27.22S55.13,114.35,55,114.26Z"/><path class="cls-7" d="M56.75,114.11c-.32,0-.38-.13-.1-.14a.47.47,0,0,0,.44-.47.27.27,0,0,1,.07-.26.13.13,0,0,0,.05-.15.14.14,0,0,0-.1-.07l-.39.07a1.06,1.06,0,0,0-.49.2c-.13.13-.14.17-.06.39a.69.69,0,0,1,0,.36c-.07.18.15.32.48.32s.27,0,.27.1-.54.26-.61.08-.24-.13-.24,0,.48.37.87.22S57.23,114.19,56.75,114.11Zm-.33-.71a.18.18,0,0,1,.2-.09c.13,0,.16.07.16.24s0,.21-.17.21S56.35,113.6,56.42,113.4Z"/><path class="cls-7" d="M58.12,113.87h.39v-.24a.43.43,0,0,0-.18-.39.42.42,0,0,0-.64,0,.52.52,0,0,0-.19.5q0,.63.54.63c.29,0,.4-.06.4-.19s-.07-.09-.27-.06-.29,0-.36-.11S57.74,113.87,58.12,113.87Zm-.27-.46a.34.34,0,0,1,.17-.11c.08,0,.28.21.28.29s-.13.06-.28.06C57.71,113.65,57.67,113.59,57.85,113.41Z"/><path class="cls-7" d="M59.85,113.47a.46.46,0,0,0-.26-.32.42.42,0,0,0-.55.1c-.15.13-.19.22-.19.5s.18.63.5.63S60,114,59.85,113.47Zm-.25.57c-.06.16-.36.14-.46,0s0-.6.1-.65.18-.06.29.06A.71.71,0,0,1,59.6,114Z"/><path class="cls-7" d="M63.29,123.72c-.08,0-.09-.09-.06-.38,0-.45.21-.62.36-.35S63.44,123.72,63.29,123.72Z"/><path class="cls-7" d="M54.42,122.69v.59h-.19l-.41,0c-.29,0-.39-.17-.39-.73s0-.48.14-.48.14,0,.14.5v.49l.2,0c.18,0,.19,0,.21-.5s0-.47.16-.47S54.42,122.14,54.42,122.69Z"/><path class="cls-7" d="M55.76,123.11c0,.14-.11.19-.4.19s-.55-.21-.55-.62a.53.53,0,0,1,.19-.5.5.5,0,0,1,.65-.08c.14.06.16.1.1.17s-.11.08-.22,0-.48.09-.48.35.15.47.46.42S55.76,123,55.76,123.11Z"/><path class="cls-7" d="M57.15,123.27a1.09,1.09,0,0,1-.3,0c-.35,0-.46-.15-.46-.67,0-.36,0-.41-.14-.41s-.14,0-.14-.07.07-.07.14-.07a.12.12,0,0,0,.14-.14.17.17,0,0,1,.24-.17.23.23,0,0,1,0,.17c0,.1,0,.14.17.14s.18,0,.18.07-.08.07-.18.07-.17,0-.17.42,0,.43.2.43S57.23,123.18,57.15,123.27Z"/><path class="cls-7" d="M58.51,122.69v.59h-.65c-.27,0-.34-.14-.34-.69s0-.52.15-.52.14,0,.14.5v.49l.19,0c.19,0,.19,0,.22-.5s0-.47.15-.47S58.51,122.14,58.51,122.69Z"/><path class="cls-7" d="M59.92,122.22c0,.26-.13.35-.26.18s-.1-.14-.2,0-.14.68,0,.68a.11.11,0,0,1,.1.1c0,.08-.08.11-.35.11s-.47-.1-.25-.18.11-.16.11-.46,0-.42-.11-.42-.1,0-.1-.07.09-.07.21-.07.21,0,.21.07.07,0,.15,0a.64.64,0,0,1,.32-.12C59.9,122,59.92,122.05,59.92,122.22Z"/><path class="cls-7" d="M60.84,122.79a.7.7,0,0,0,.39-.07c.07-.11-.11-.56-.25-.63-.38-.21-.77.09-.77.58s.31.75.83.59c.26-.08.13-.22-.2-.22s-.32,0-.34-.13S60.53,122.79,60.84,122.79Zm-.31-.41c.13-.18.29-.18.41,0s0,.22-.27.19S60.42,122.55,60.53,122.38Z"/><path class="cls-7" d="M62.4,121.92c0,.26,0,.31-.12.29s-.14-.1-.15-.32,0-.3.12-.3S62.4,121.63,62.4,121.92Z"/><path class="cls-7" d="M62,121.69c0,.25-.1.54-.18.54s-.1-.09-.1-.32,0-.32.14-.32S62,121.63,62,121.69Z"/><path class="cls-7" d="M50.32,122.92c0,.33-.3.48-.74.36s-.27-.24.15-.24.48-.15.13-.27-.59-.49-.24-.67a.73.73,0,0,1,.65.05c.13.13,0,.22-.19.13s-.39,0-.39.08.14.14.32.21S50.32,122.74,50.32,122.92Z"/><path class="cls-7" d="M53.15,122.22c0,.26-.14.35-.26.18s-.1-.14-.21,0-.13.68,0,.68a.11.11,0,0,1,.1.1c0,.08-.08.11-.35.11s-.47-.1-.25-.18.11-.16.11-.46,0-.42-.11-.42-.1,0-.1-.07.1-.07.21-.07.21,0,.21.07.07,0,.16,0A.57.57,0,0,1,53,122C53.12,122,53.15,122.05,53.15,122.22Z"/><path class="cls-7" d="M51.74,123.18c0,.2-.59.16-.72-.05a1.55,1.55,0,0,1-.06-.5c0-.35,0-.4-.14-.4s-.14,0-.14-.07.06-.07.14-.07A.13.13,0,0,0,51,122c0-.13.13-.23.23-.17a.23.23,0,0,1,.05.17c0,.11,0,.14.22.14s.2,0,.17.07a.33.33,0,0,1-.22.07c-.16,0-.17,0-.17.42v.43h.25C51.65,123.08,51.74,123.11,51.74,123.18Z"/><path class="cls-7" d="M49,123.07a1.46,1.46,0,0,1-.06-.47c0-.29,0-.39-.15-.47s-.7-.12-.7.08,0,.09.22.05.42,0,.42.18-.12.07-.28.1c-.32,0-.45.18-.41.45a.38.38,0,0,0,.53.29.39.39,0,0,1,.3,0C49,123.37,49.08,123.23,49,123.07Zm-.68,0c-.09-.09-.09-.13,0-.21s.42-.15.42,0A.25.25,0,0,1,48.29,123.05Z"/><path class="cls-7" d="M47.71,122.22c0,.26-.13.35-.26.18s-.1-.14-.2,0-.14.68,0,.68a.11.11,0,0,1,.11.1c0,.08-.09.11-.35.11s-.48-.1-.25-.18.1-.16.1-.46,0-.42-.1-.42-.11,0-.11-.07.1-.07.21-.07.22,0,.22.07.07,0,.15,0a.6.6,0,0,1,.32-.12C47.68,122,47.71,122.05,47.71,122.22Z"/><path class="cls-7" d="M45.88,122c0,.14,0,.18.17.18s.18,0,.18.1-.06.11-.18.11-.17,0-.17.46,0,.46-.15.46-.14-.05-.14-.46,0-.46-.14-.46a.13.13,0,0,1-.14-.11c0-.05.06-.1.14-.1s.14,0,.14-.17a.5.5,0,0,1,.55-.43l.17,0s.06,0,.06.11-.08.1-.25.1S45.88,121.82,45.88,122Z"/><path class="cls-7" d="M45,122.81c0,.43,0,.48-.14.48s-.14-.05-.14-.5,0-.51-.11-.53-.32.1-.32.58,0,.45-.14.45-.14-.05-.14-.61,0-.61.16-.57a.37.37,0,0,0,.26,0,.31.31,0,0,1,.46.08A1.3,1.3,0,0,1,45,122.81Z"/><path class="cls-7" d="M43.25,121.64c0,.12-.18.2-.28.11a.12.12,0,0,1,0-.16C43,121.49,43.21,121.53,43.25,121.64Z"/><path class="cls-7" d="M43.62,123.18c0,.09-.11.11-.5.11s-.5,0-.48-.09a.37.37,0,0,1,.22-.11c.18,0,.19,0,.19-.41s0-.38-.17-.38-.18,0-.18-.11.08-.1.28-.1h.28v.49c0,.48,0,.5.18.5S43.62,123.12,43.62,123.18Z"/><path class="cls-7" d="M41.71,121.69c0,.25-.1.54-.18.54s-.1-.09-.1-.32,0-.32.14-.32S41.71,121.63,41.71,121.69Z"/><path class="cls-7" d="M46.3,120.2c0,.14-.31.19-.51.09s-.16-.15-.18-.54,0-.45-.16-.48-.19-.16,0-.16a.18.18,0,0,0,.15-.13c.08-.2.2-.23.22,0s.06.18.23.18.21,0,.21.07-.1.07-.21.07H45.8l0,.41c0,.4,0,.41.25.43S46.3,120.15,46.3,120.2Z"/><path class="cls-7" d="M44.94,120.17a2.24,2.24,0,0,1,0-.51.61.61,0,0,0-.14-.48c-.21-.2-.71-.17-.71,0s.05.1.17.06a.65.65,0,0,1,.28,0c.16.07.14.24,0,.24a.63.63,0,0,0-.53.3.4.4,0,0,0,.56.48.74.74,0,0,1,.33,0C45,120.33,45,120.31,44.94,120.17Zm-.69,0a.28.28,0,0,1,0-.34.34.34,0,0,1,.21,0c.12,0,.17,0,.17.14S44.37,120.21,44.25,120.14Z"/><path class="cls-7" d="M42.06,118.94c0,.27,0,.32-.12.3s-.13-.11-.14-.33,0-.3.12-.3S42.06,118.66,42.06,118.94Z"/><path class="cls-7" d="M49.74,120.74c-.08,0-.09-.09-.07-.38,0-.45.22-.62.36-.34S49.89,120.74,49.74,120.74Z"/><path class="cls-7" d="M48.84,118.94c0,.27,0,.32-.12.3s-.13-.11-.15-.33,0-.3.12-.3S48.84,118.66,48.84,118.94Z"/><path class="cls-7" d="M48.49,118.71c0,.26-.1.54-.19.54s-.09-.09-.09-.32,0-.32.14-.32S48.49,118.66,48.49,118.71Z"/><path class="cls-7" d="M47.64,120.14a1.1,1.1,0,0,1-.07-.46c0-.35,0-.44-.16-.53s-.69-.11-.69.08.05.09.21.06a.4.4,0,0,1,.32,0c.16.14.13.21-.1.21a.68.68,0,0,0-.39.17c-.16.13-.18.2-.14.35a.39.39,0,0,0,.55.26.71.71,0,0,1,.32,0C47.63,120.33,47.76,120.21,47.64,120.14Zm-.44,0c-.21.08-.34,0-.34-.13a.17.17,0,0,1,.1-.16c.21-.1.4,0,.4.09A.23.23,0,0,1,47.2,120.09Z"/><path class="cls-7" d="M41.71,118.71c0,.26-.1.54-.18.54s-.1-.09-.1-.32,0-.32.14-.32S41.71,118.66,41.71,118.71Z"/><path class="cls-7" d="M43.44,118.61c-.08,0-.11.08-.11.26s0,.25-.21.2a.38.38,0,0,0-.39.14c-.32.33-.17,1.11.22,1.11h.6v-.85C43.55,118.76,43.52,118.61,43.44,118.61Zm-.35,1.46c-.2,0-.21,0-.24-.31a.73.73,0,0,1,.07-.41c.1-.12.14-.12.3,0s.12.17.1.41S43.28,120.07,43.09,120.07Z"/><path class="cls-7" d="M42.06,121.92c0,.26,0,.31-.12.29s-.13-.1-.14-.32,0-.3.12-.3S42.06,121.63,42.06,121.92Z"/><path class="cls-7" d="M41.71,124.66c0,.26-.1.54-.18.54s-.1-.09-.1-.32,0-.31.14-.31S41.71,124.61,41.71,124.66Z"/><path class="cls-7" d="M42.06,124.89c0,.27,0,.32-.12.3s-.13-.11-.14-.33,0-.29.12-.29S42.06,124.61,42.06,124.89Z"/><path class="cls-7" d="M43.62,125.56a.55.55,0,0,0-.18-.39c-.23-.24-.42-.22-.68,0a.62.62,0,0,0,.55,1.07c.29-.07.26-.26,0-.23s-.44-.08-.44-.21.18-.06.39-.06C43.62,125.77,43.62,125.77,43.62,125.56Zm-.67-.24c.17-.17.31-.12.41.11s0,.13-.24.13S42.78,125.49,43,125.32Z"/><path class="cls-7" d="M44.68,126c.3,0,.34.12.07.21a.56.56,0,0,1-.78-.57c0-.33.1-.53.3-.62a.81.81,0,0,1,.64.07c.12.12,0,.22-.21.14s-.45,0-.45.35S44.38,126.08,44.68,126Z"/><path class="cls-7" d="M46.3,125.37a.57.57,0,0,0-.26-.32.44.44,0,0,0-.55.1c-.16.13-.19.22-.19.51s.17.63.5.63S46.45,125.86,46.3,125.37Zm-.25.57c-.07.16-.36.14-.46,0s0-.6.1-.65.17,0,.28.07A.68.68,0,0,1,46.05,125.94Z"/><path class="cls-7" d="M47.64,125.74c0,.48,0,.53-.14.53s-.14,0-.14-.49-.06-.63-.28-.51-.15.15-.15.54,0,.46-.14.46-.14,0-.14-.61,0-.61.16-.58a.35.35,0,0,0,.27,0,.35.35,0,0,1,.45,0C47.61,125.18,47.64,125.36,47.64,125.74Z"/><path class="cls-7" d="M48.49,124.66c0,.26-.1.54-.19.54s-.09-.09-.09-.32,0-.31.14-.31S48.49,124.61,48.49,124.66Z"/><path class="cls-7" d="M48.84,124.89c0,.27,0,.32-.12.3s-.13-.11-.15-.33,0-.29.12-.29S48.84,124.61,48.84,124.89Z"/><path class="cls-7" d="M58.49,132.12c0,.12-.3.16-.49.07s-.16-.13-.18-.77,0-.69-.19-.69-.18,0-.18-.11.08-.1.29-.1H58v.65a4.06,4.06,0,0,0,0,.74.29.29,0,0,0,.22.1C58.39,132,58.48,132.08,58.49,132.12Z"/><path class="cls-7" d="M59.49,131.72a.74.74,0,0,0,.4-.07c.07-.11-.11-.56-.25-.64-.39-.2-.77.1-.77.59s.31.75.83.59c.26-.09.13-.22-.21-.22s-.31,0-.33-.13S59.19,131.72,59.49,131.72Zm-.3-.41c.13-.18.29-.18.41,0s0,.21-.27.19S59.08,131.47,59.19,131.31Z"/><path class="cls-7" d="M62.4,130.84c0,.27,0,.32-.12.3s-.14-.1-.15-.32,0-.3.12-.3S62.4,130.56,62.4,130.84Z"/><path class="cls-7" d="M62,130.62c0,.25-.1.54-.18.54s-.1-.1-.1-.32,0-.32.14-.32S62,130.56,62,130.62Z"/><path class="cls-7" d="M60.87,132.21c-.25.07-.66,0-.66-.17s.07-.09.35-.06.35,0,.35-.07-.11-.17-.28-.23c-.44-.18-.53-.49-.19-.65a.52.52,0,0,1,.53,0c.3.11.22.21-.15.19s-.42.14-.08.25C61.29,131.64,61.36,132.07,60.87,132.21Z"/><path class="cls-7" d="M57.1,132.12c0,.08-.11.1-.46.1-.55,0-.56,0-.17-.58l.28-.38-.24,0c-.16,0-.26-.06-.26-.13s.1-.1.43-.1.42,0,.42.1a1.78,1.78,0,0,1-.29.48l-.28.38.28,0C57,132,57.1,132.05,57.1,132.12Z"/><path class="cls-7" d="M55.76,132.11c0,.09-.1.11-.46.11-.56,0-.58-.07-.18-.59l.28-.37-.25,0a.41.41,0,0,1-.29-.13c0-.06.09-.09.43-.09s.47,0,.47.09a2,2,0,0,1-.28.45,3.18,3.18,0,0,0-.29.42.59.59,0,0,0,.29,0C55.68,132,55.76,132,55.76,132.11Z"/><path class="cls-7" d="M54.42,131.62v.59h-.19l-.41,0c-.29,0-.39-.17-.39-.73s0-.49.14-.49.14.05.14.51V132l.2,0c.18,0,.19,0,.21-.5s0-.48.16-.48S54.42,131.06,54.42,131.62Z"/><path class="cls-7" d="M52.91,131.05c-.17-.12-.25-.13-.4,0a.36.36,0,0,1-.26,0c-.16,0-.16,0-.16.82s0,.85.14.85.14-.05.14-.25,0-.26.15-.22a.44.44,0,0,0,.56-.36A.79.79,0,0,0,52.91,131.05Zm-.11.87a.2.2,0,0,1-.22.07c-.15,0-.17-.06-.2-.32a.77.77,0,0,1,.07-.42c.1-.12.17-.12.3,0A.68.68,0,0,1,52.8,131.92Z"/><path class="cls-7" d="M51.57,130.63a.93.93,0,0,0,0,.32c0,.13,0,.21-.1.21s-.11-.09-.11-.32,0-.32.15-.32S51.59,130.55,51.57,130.63Z"/><path class="cls-7" d="M51.17,130.84c0,.22,0,.32-.1.32s-.18-.16-.18-.44,0-.2.14-.2S51.17,130.57,51.17,130.84Z"/><path class="cls-6" d="M44.85,110.34c-.08-.12-.18-.16-.38-.16-.36,0-.51.18-.51.6s.15.61.48.61.52-.21.52-.59A1,1,0,0,0,44.85,110.34Zm-.58.82a.83.83,0,0,1,0-.75.25.25,0,0,1,.41,0C44.9,110.88,44.56,111.46,44.27,111.16Z"/><path class="cls-6" d="M43.62,110.36c0,.28-.19.35-.23.08l0-.15-.16.15c-.19.2-.24.8-.05.8a.09.09,0,0,1,.1.08s-.14.07-.31.07-.32,0-.32-.07a.09.09,0,0,1,.1-.08c.09,0,.11-.09.11-.46s0-.46-.11-.46-.1,0-.1-.07.33-.09.37,0,.09,0,.23,0C43.55,110.05,43.62,110.08,43.62,110.36Z"/><path class="cls-6" d="M42.05,110.27c-.1-.12-.78-.12-.75,0a.45.45,0,0,0,.3.08c.43,0,.42.2,0,.33s-.34.13-.36.3a.48.48,0,0,0,.06.31.61.61,0,0,0,.61,0c.06-.06.09-.06.12,0a.19.19,0,0,0,.11.08A3,3,0,0,0,42.05,110.27Zm-.42,1a.2.2,0,0,1-.17-.31c0-.17.46-.15.46,0A.29.29,0,0,1,41.63,111.24Z"/><path class="cls-6" d="M40.86,110.86c0,.42,0,.53-.1.53s-.11-.1-.11-.5,0-.51-.11-.55-.35.08-.37.58c0,.35,0,.47-.12.47s-.1-.16-.1-.85,0-.85.1-.85.11.07.11.27,0,.26.24.24S40.86,110.26,40.86,110.86Z"/><path class="cls-6" d="M39.45,111.24c-.25.26-1.12.13-1-.13a.09.09,0,0,1,.14,0,.47.47,0,0,0,.61,0c.19-.19.13-.3-.3-.5s-.37-.2-.39-.4,0-.24.21-.34a.83.83,0,0,1,.32-.07l.18,0c.14,0,.28.12.23.2s-.09,0-.21,0-.53,0-.53.14.09.18.32.27C39.57,110.63,39.73,111,39.45,111.24Z"/><path class="cls-8" d="M36.77,111.27c0,.09-.07.12-.24.12-.33,0-.47-.21-.47-.69,0-.28,0-.38-.1-.38s-.11,0-.11-.07,0-.07.11-.07.1-.06.1-.14a.13.13,0,0,1,.11-.14c.06,0,.1.06.1.14s0,.14.22.14.21,0,.21.07-.09.07-.21.07-.22,0-.22.39.12.58.36.5S36.77,111.2,36.77,111.27Z"/><path class="cls-8" d="M35.31,111.25a.69.69,0,0,1-.74.06c-.21-.11-.09-.21.15-.11s.25.06.34,0,.14-.24-.2-.4-.42-.34-.27-.52.7-.11.75,0-.09.07-.27.07c-.41,0-.43.14,0,.3S35.51,111.05,35.31,111.25Z"/><path class="cls-8" d="M34.07,111c0,.56-.2.59-.2,0s0-.66-.21-.66-.35.2-.35.65c0,.23,0,.42-.07.42s-.07-.25-.07-.61,0-.6.07-.6a.08.08,0,0,1,.07.09c0,.06,0,.06.08,0a.53.53,0,0,1,.32-.09C34,110.18,34.1,110.39,34.07,111Z"/><path class="cls-8" d="M32.63,110.34c-.08-.12-.17-.16-.38-.16s-.49.19-.49.62.18.59.49.59.49-.22.49-.59A.87.87,0,0,0,32.63,110.34Zm-.18.82a.25.25,0,0,1-.41,0,.84.84,0,0,1,0-.7.33.33,0,0,1,.2-.09c.19,0,.28.16.28.46A.67.67,0,0,1,32.45,111.16Z"/><path class="cls-8" d="M30.7,110.54c-.21.39.13.83.49.63.14-.07.15-.06.13,0s-.47.22-.7,0a.75.75,0,0,1,0-.92.72.72,0,0,1,.75-.08c.12.08.09.09-.27.1A.36.36,0,0,0,30.7,110.54Z"/><path class="cls-5" d="M32.53,110.78a.67.67,0,0,1-.08.38.25.25,0,0,1-.41,0,.84.84,0,0,1,0-.7.33.33,0,0,1,.2-.09C32.44,110.32,32.53,110.48,32.53,110.78Z"/><path class="cls-5" d="M41.92,111a.29.29,0,0,1-.29.29.2.2,0,0,1-.17-.31C41.51,110.76,41.92,110.78,41.92,111Z"/><path class="cls-5" d="M44.27,111.16a.83.83,0,0,1,0-.75.25.25,0,0,1,.41,0C44.9,110.88,44.56,111.46,44.27,111.16Z"/><path class="cls-5" d="M63.41,114.11c-.19,0-.2,0-.22-.29a.49.49,0,0,1,.09-.41c.15-.15.26-.11.37.13S63.68,114.11,63.41,114.11Z"/><path class="cls-5" d="M55.27,113.82c0,.32-.14.53-.29.44a.73.73,0,0,1,0-.66C55.17,113.43,55.27,113.51,55.27,113.82Z"/><path class="cls-5" d="M67.39,113.88c0,.28,0,.38-.12.38s-.19-.45-.12-.65a.16.16,0,0,1,.15-.1C67.39,113.51,67.41,113.58,67.39,113.88Z"/><path class="cls-5" d="M93.16,113.88c0,.28,0,.38-.13.38s-.19-.45-.11-.65a.16.16,0,0,1,.15-.1C93.16,113.51,93.18,113.58,93.16,113.88Z"/><path class="cls-5" d="M56.78,113.55c0,.17,0,.21-.17.21s-.26-.16-.19-.36a.18.18,0,0,1,.2-.09C56.75,113.33,56.78,113.38,56.78,113.55Z"/><path class="cls-5" d="M43,113.41c-.18.18-.14.24.17.24s.27,0,.23-.13S43.11,113.24,43,113.41Z"/><path class="cls-5" d="M58.3,113.59s-.13.06-.28.06c-.31,0-.35-.06-.17-.24a.34.34,0,0,1,.17-.11C58.1,113.3,58.3,113.51,58.3,113.59Z"/><path class="cls-5" d="M59.6,114c-.06.16-.36.14-.46,0s0-.6.1-.65.18-.06.29.06A.71.71,0,0,1,59.6,114Z"/><path class="cls-5" d="M62.25,113.94a.25.25,0,0,1-.41.18c-.09-.08-.09-.13,0-.21S62.25,113.76,62.25,113.94Z"/><path class="cls-5" d="M69.09,113.81c0,.28,0,.3-.24.3s-.21,0-.23-.31,0-.34.1-.41a.49.49,0,0,1,.18-.09C69,113.3,69.11,113.53,69.09,113.81Z"/><path class="cls-5" d="M73.13,114.06a.23.23,0,0,1-.22.08c-.14,0-.17-.07-.19-.33a.67.67,0,0,1,.06-.41c.11-.13.17-.13.3,0A.68.68,0,0,1,73.13,114.06Z"/><path class="cls-5" d="M75.84,114a.29.29,0,0,1-.42,0,.89.89,0,0,1,0-.66C75.72,113.09,76,113.58,75.84,114Z"/><path class="cls-5" d="M78.63,113.59s-.12.06-.28.06-.35-.06-.17-.24a.34.34,0,0,1,.17-.11C78.43,113.3,78.63,113.51,78.63,113.59Z"/><path class="cls-5" d="M84,113.77c0,.3-.08.4-.3.37s-.17-.07-.19-.33a.67.67,0,0,1,.06-.41C83.77,113.16,84,113.37,84,113.77Z"/><path class="cls-5" d="M86.68,113.94a.22.22,0,0,1-.15.2c-.22.08-.34,0-.34-.13s0-.15.09-.16C86.5,113.75,86.68,113.8,86.68,113.94Z"/><path class="cls-5" d="M96.14,113.94a.25.25,0,0,1-.41.18c-.09-.08-.09-.13,0-.21S96.14,113.76,96.14,113.94Z"/><path class="cls-5" d="M99,113.59s-.12.06-.28.06-.34-.06-.17-.24a.39.39,0,0,1,.17-.11C98.76,113.3,99,113.51,99,113.59Z"/><path class="cls-5" d="M103,114a.29.29,0,0,1-.42,0,.84.84,0,0,1,0-.66C102.83,113.09,103.12,113.58,103,114Z"/><path class="cls-5" d="M104.34,113.77c0,.3-.07.4-.3.37s-.17-.07-.19-.33a.75.75,0,0,1,.06-.41C104.1,113.16,104.34,113.37,104.34,113.77Z"/><path class="cls-5" d="M41.62,116.35c-.22.13-.15.28.12.28s.33-.11.16-.27S41.78,116.26,41.62,116.35Z"/><path class="cls-5" d="M44.29,116.39c-.18.17-.13.24.17.24.15,0,.28,0,.28-.07s-.2-.29-.28-.29A.31.31,0,0,0,44.29,116.39Z"/><path class="cls-5" d="M43.32,119.75c0,.3,0,.32-.23.32s-.21,0-.24-.31a.73.73,0,0,1,.07-.41c.1-.12.14-.12.3,0S43.34,119.51,43.32,119.75Z"/><path class="cls-5" d="M44.61,119.89c0,.15-.24.32-.36.25a.28.28,0,0,1,0-.34.34.34,0,0,1,.21,0C44.56,119.75,44.61,119.79,44.61,119.89Z"/><path class="cls-5" d="M47.36,119.89a.23.23,0,0,1-.16.2c-.21.08-.34,0-.34-.13a.17.17,0,0,1,.1-.16C47.17,119.7,47.36,119.75,47.36,119.89Z"/><path class="cls-5" d="M48.7,122.87a.25.25,0,0,1-.41.18c-.09-.09-.09-.13,0-.21S48.7,122.69,48.7,122.87Z"/><path class="cls-5" d="M60.67,122.57c-.25,0-.25,0-.14-.19s.29-.18.41,0S61,122.6,60.67,122.57Z"/><path class="cls-5" d="M43.12,125.56c-.3,0-.34-.07-.17-.24s.31-.12.41.11S43.36,125.56,43.12,125.56Z"/><path class="cls-5" d="M46.05,125.94c-.07.16-.36.14-.46,0s0-.6.1-.65.17,0,.28.07A.68.68,0,0,1,46.05,125.94Z"/><path class="cls-5" d="M40.23,131.25a.67.67,0,0,0-.06.41c0,.26,0,.31.19.33s.2,0,.22-.07a.68.68,0,0,0,0-.65C40.4,131.12,40.34,131.12,40.23,131.25Z"/><path class="cls-5" d="M41.61,131.24c-.09.08-.12.17-.1.41s0,.32.23.32.21,0,.23-.31-.07-.51-.19-.51A1,1,0,0,0,41.61,131.24Z"/><path class="cls-5" d="M38.9,131.2c-.12.05-.19.48-.1.65s.4.2.46,0a.65.65,0,0,0-.07-.62C39.08,131.15,39,131.14,38.9,131.2Z"/><path class="cls-5" d="M44.29,131.27c-.18.17-.13.24.17.24.15,0,.28,0,.28-.07s-.2-.29-.28-.29A.31.31,0,0,0,44.29,131.27Z"/><path class="cls-5" d="M52.8,131.92a.2.2,0,0,1-.22.07c-.15,0-.17-.06-.2-.32a.77.77,0,0,1,.07-.42c.1-.12.17-.12.3,0A.68.68,0,0,1,52.8,131.92Z"/><path class="cls-5" d="M59.33,131.5c-.25,0-.25,0-.14-.19s.29-.18.41,0S59.64,131.52,59.33,131.5Z"/><path class="cls-5" d="M140.58,128.52c0,1,0,1.07.14,1.07s.14-.05.14-.52.06-.69.33-.69.3.24.3.79c0,.33,0,.42.11.42s.11-.12.11-.58a2.44,2.44,0,0,0-.07-.7.56.56,0,0,0-.63-.15c-.14.07-.14.06-.17-.29s0-.38-.14-.39S140.58,127.54,140.58,128.52Z"/><path class="cls-5" d="M150.18,128.52c0,1,0,1.07.14,1.07s.14-.05.14-1.07,0-1.06-.14-1.06S150.18,127.51,150.18,128.52Z"/><path class="cls-5" d="M138,127.69s.14.49.27,1c.19.73.26.91.36.91s.16-.11.24-.41.16-.55.21-.73l.08-.31.09.31c.29,1.1.31,1.14.44,1.14s.14-.09.19-.27.16-.57.26-.94c.21-.8.21-.78,0-.78s-.16.12-.3.68a2.61,2.61,0,0,1-.21.67,2.26,2.26,0,0,1-.2-.64c-.14-.57-.28-.81-.4-.68a5.14,5.14,0,0,0-.22.72l-.19.71-.1-.36c-.29-1.08-.3-1.1-.45-1.1S138,127.64,138,127.69Z"/><path class="cls-5" d="M144.25,128.6c0,.94,0,1,.14,1s.14-.05.14-.39v-.39h.32a1.49,1.49,0,0,0,.48-.08.58.58,0,0,0,0-1,2.16,2.16,0,0,0-.62-.08h-.46Zm1.06-.54c.14.29,0,.46-.43.46h-.35v-.63h.35C145.19,127.89,145.25,127.91,145.31,128.06Z"/><path class="cls-5" d="M153.59,127.76a1.12,1.12,0,0,0-.2.32c-.07.23.23.23.32,0a.33.33,0,0,1,.49-.18c.2.1.18.33-.07.61s-.27.45-.08.45.57-.62.57-.86C154.62,127.65,153.9,127.42,153.59,127.76Z"/><path class="cls-5" d="M151.12,128.2a.8.8,0,0,0-.15,1.22.62.62,0,0,0,.89,0c.17-.17.17-.2.06-.22a.31.31,0,0,0-.25.08.34.34,0,0,1-.53,0A.59.59,0,0,1,151,129s.23-.06.51-.06h.5l0-.26A.59.59,0,0,0,151.12,128.2Zm.53.27c.17.17.09.27-.22.27s-.44-.06-.29-.23A.36.36,0,0,1,151.65,128.47Z"/><path class="cls-5" d="M152.45,128.18a.46.46,0,0,0-.18.55,1.27,1.27,0,0,0,.39.23c.21.08.31.15.31.25s-.27.21-.42.06a.32.32,0,0,0-.26-.09l-.15,0,.16.19a.44.44,0,0,0,.45.2c.36,0,.53-.14.53-.42s-.09-.33-.46-.45c-.16-.05-.28-.13-.28-.2s.31-.18.41-.07.33.1.33,0-.36-.36-.52-.35A.92.92,0,0,0,152.45,128.18Z"/><path class="cls-5" d="M142.1,128.63c.09.26.22.58.27.7a.5.5,0,0,1,0,.49c-.11.29-.09.38.07.31a11.8,11.8,0,0,0,.83-1.93s-.06,0-.14,0-.16.09-.24.3-.14.4-.19.52l-.08.21-.19-.5c-.15-.38-.23-.5-.35-.52l-.15,0Z"/><path class="cls-5" d="M145.87,128.72c0,.69.1.87.49.87a.58.58,0,0,0,.34-.09c.07-.06.09-.06.09,0s.06.09.14.09.14-.05.14-.71,0-.71-.14-.71-.14.05-.14.5,0,.5-.18.61c-.32.2-.41.07-.44-.57,0-.48,0-.54-.16-.54S145.87,128.22,145.87,128.72Z"/><path class="cls-5" d="M147.35,128.28c0,.07.09.1.36.1a.85.85,0,0,1,.35,0,5.28,5.28,0,0,1-.35.51,2.6,2.6,0,0,0-.36.56c0,.08.14.1.57.1s.56,0,.56-.11-.08-.1-.35-.1a.77.77,0,0,1-.35,0,3.93,3.93,0,0,1,.35-.52,2.45,2.45,0,0,0,.35-.56c0-.05-.19-.08-.56-.08S147.35,128.19,147.35,128.28Z"/><path class="cls-5" d="M148.77,128.28c0,.07.08.1.35.1h.35l-.39.52a3.8,3.8,0,0,0-.39.6q0,.09.57.09c.45,0,.56,0,.56-.11s-.08-.1-.35-.1a.85.85,0,0,1-.35,0,4.19,4.19,0,0,1,.35-.51,2.25,2.25,0,0,0,.35-.56c0-.08-.13-.1-.53-.1S148.77,128.19,148.77,128.28Z"/><path class="cls-5" d="M153.88,129.34a.18.18,0,0,0,0,.19c.11.11.32,0,.29-.13S153.93,129.19,153.88,129.34Z"/><circle class="cls-9" cx="134.4" cy="101.05" r="0.35"/><path class="cls-10" d="M160.48,114.63l-1.4,0-5.42.13s-1.09-5-4.41-5.39h0l-.33,0h-.24a3.28,3.28,0,0,0-.56.08l.16-.09h-.45a2.56,2.56,0,0,0-1.57.69l-.07.07-.05,0a7.59,7.59,0,0,0-1.52,4.1l.08.09L134.45,114l.14-9.52,0-1.7s-5.07-.83-5.16-4,4.33-3.33,4.33-3.33l-.17-10.14,22.2.42,1.25,11s-4.41.58-3.49,3.82a3.09,3.09,0,0,0,.29.74h0c1.27,2.39,4.61,1.76,4.61,1.76Z"/><path class="cls-11" d="M148.28,109.38l-.16.09a3,3,0,0,0-1.28.61l-.08.06-.06,0a7.35,7.35,0,0,0-1.93,4.15v0h-.06l-.08-.09a7.59,7.59,0,0,1,1.52-4.1l.05,0,.07-.07a2.56,2.56,0,0,1,1.57-.69h.45Z"/><polygon class="cls-12" points="163.22 116.38 160.48 114.63 158.48 102.99 161.06 104.9 163.22 116.38"/><polygon class="cls-13" points="160.23 99.42 160.22 99.41 157.07 96.67 155.82 85.69 159.4 88.02 160.23 99.42"/><path class="cls-14" d="M160.23,99.41c-.1,0-3.84-2-5.16-1a3.21,3.21,0,0,0-1.2,2.81,3.09,3.09,0,0,1-.29-.74c-.92-3.24,3.49-3.82,3.49-3.82Z"/><polyline class="cls-15" points="153.66 114.8 156.24 116.71 163.22 116.38 160.48 114.63"/><path class="cls-14" d="M134.62,102.74l0,1.7c-1.16-.12-3.49-.5-4.46-1.78a4.71,4.71,0,0,1-.67-3.91C129.55,101.91,134.62,102.74,134.62,102.74Z"/><path class="cls-16" d="M147,116.89l-9.19-.16L134.45,114l10.25.42h.06v0a7.35,7.35,0,0,1,1.93-4.15,7.72,7.72,0,0,0-1.93,4.26v.09Z"/><polyline class="cls-17" points="147.19 116.89 147.14 116.89 147.01 116.89"/><path class="cls-18" d="M148.28,109.38l-.16.09a4.3,4.3,0,0,0-1.76,2,5.8,5.8,0,0,0,.39,5c.09.16.14.26.16.28l-.27-.27-1.87-2-.07-.07-.08-.09a7.59,7.59,0,0,1,1.52-4.1l.05,0,.07-.07a2.56,2.56,0,0,1,1.57-.69h.45Z"/><path class="cls-18" d="M133.74,89.4l3-2.17,1,.87s.65-1,1.23-.43-.22,1.37-.22,1.37l1.16,1-1,1.08s-.58-.72-1.16-.14,0,.94,0,.94L136.41,93l-2.74-2.74"/><polyline class="cls-19" points="136.34 88.53 136.21 89.69 135.13 89.42"/><line class="cls-19" x1="135.76" y1="90.48" x2="136.34" y2="91.06"/><path class="cls-20" d="M153.3,92.73l-4.8,3.77h0a3.43,3.43,0,0,1-1.32-1.13,3.55,3.55,0,0,1-.34-.64l5.14-4a3.36,3.36,0,0,1,1,1.15A3.23,3.23,0,0,1,153.3,92.73Z"/><path class="cls-21" d="M151.15,90.32l-4.41,3.37h0a3.74,3.74,0,0,1,.14-1.12l3.19-2.4A3.53,3.53,0,0,1,151.15,90.32Z"/><path class="cls-21" d="M152.05,90.88l-5.14,4a3.24,3.24,0,0,1-.16-.53l4.87-3.74A3.87,3.87,0,0,1,152.05,90.88Z"/><path class="cls-21" d="M153.29,94.41c0,.06,0,.12,0,.18h0l-.07.06-2.62,2.15-.21.17-.2,0,.2-.16,2.9-2.38h0Z"/><line class="cls-22" x1="151.73" y1="96.55" x2="151.72" y2="96.55"/><line class="cls-22" x1="152.76" y1="95.88" x2="152.73" y2="95.83"/><path class="cls-20" d="M151.62,90.54l-4.87,3.74a3.81,3.81,0,0,1-.08-.59l4.41-3.37A2.78,2.78,0,0,1,151.62,90.54Z"/><path class="cls-20" d="M150,90.24l-3.19,2.39a3.4,3.4,0,0,1,3.12-2.39Z"/><path class="cls-20" d="M153.24,94.62c0,.07-.05.14-.07.2A3.4,3.4,0,0,1,150.55,97l-.21,0Z"/><line class="cls-23" x1="148.47" y1="91.87" x2="149.84" y2="90.93"/><line class="cls-23" x1="149.11" y1="92.84" x2="149.7" y2="92.37"/><line class="cls-23" x1="147.48" y1="94.09" x2="148.24" y2="93.47"/><ellipse class="cls-24" cx="150.12" cy="93.58" rx="3.37" ry="3.41" transform="translate(-5.81 10.04) rotate(-3.76)"/><polyline class="cls-25" points="152.96 95.88 155.07 98.42 154.05 99.08 152.01 96.55"/><path class="cls-26" d="M153.93,114.67h0l6.07-.11,0-.16-2.12-9.33s-.24-1.29-1-1.35a38.52,38.52,0,0,0-5,.1c-1,.17-.7,1.39-.7,1.39l1.1,6"/><path class="cls-27" d="M149.63,90.24a1.57,1.57,0,0,1,1,0c.63.15.71.27.71.27"/><line class="cls-28" x1="152.98" y1="96.33" x2="154.2" y2="97.77"/><path class="cls-29" d="M153.6,113.67l4.42-.39-.15-1.69s-1.46.08-1.55-.74,1.33-.9,1.33-.9l-.16-1.64-2,.26s.25-1-.2-1.38-1.27-.33-1.39.2a1.65,1.65,0,0,0,.28,1.12l-1.39.2.22,1.64c1.64-.1,1.65.49,1.66.66.12.63-1.51.85-1.51.85h0Z"/><polyline class="cls-30" points="155.76 105.72 156.05 104.42 156.63 105.79"/><line class="cls-31" x1="156.28" y1="104.95" x2="155.93" y2="104.97"/><polygon class="cls-32" points="156.2 106.11 155.85 106.81 156.38 107.28 156.79 106.58 156.2 106.11"/><polyline class="cls-33" points="151.84 108.37 150.94 106.28 149.76 103.55"/><polygon class="cls-9" points="143.28 106.49 139.92 108.02 138.62 104.86 141.99 103.38 143.28 106.49"/><polygon class="cls-9" points="144.52 109.47 141.16 111.02 139.92 108.02 143.28 106.49 144.52 109.47"/><polygon class="cls-9" points="149.76 103.55 146.91 104.84 145.62 101.77 148.47 100.51 149.76 103.55"/><line class="cls-34" x1="145.62" y1="101.77" x2="141.98" y2="103.38"/><polygon class="cls-9" points="148.14 107.8 144.52 109.47 143.28 106.49 146.91 104.84 148.14 107.8"/><line class="cls-34" x1="151" y1="106.48" x2="148.14" y2="107.8"/><line class="cls-34" x1="145.57" y1="112.01" x2="144.52" y2="109.47"/><line class="cls-34" x1="148.81" y1="109.39" x2="148.14" y2="107.8"/><line class="cls-35" x1="147.46" y1="105.58" x2="148.1" y2="105.39"/><path class="cls-35" d="M147.42,105.14a2.14,2.14,0,0,0,.21-.31c.1-.17.17.71.17.71"/><line class="cls-36" x1="151.17" y1="110.15" x2="152.04" y2="109.82"/><ellipse class="cls-35" cx="149.15" cy="105.82" rx="0.82" ry="0.84"/><polyline class="cls-37" points="149.51 108.3 150.24 108.01 150.96 107.72"/><line class="cls-38" x1="150.7" y1="109.23" x2="150.24" y2="108.01"/><polyline class="cls-34" points="144.78 113.05 142.48 114.23 141.16 111.02"/><polygon class="cls-34" points="131.98 101.79 133.78 98.84 136.79 100.31 135.12 103.39 131.98 101.79"/><polyline class="cls-34" points="135.12 103.39 137.75 103.13 139.22 100.12 136.79 100.31"/><polyline class="cls-34" points="133.78 98.84 136.59 98.65 139.22 100.12"/><ellipse class="cls-39" cx="134.4" cy="101.05" rx="0.22" ry="0.24"/><ellipse class="cls-39" cx="138.19" cy="100.91" rx="0.22" ry="0.24"/><ellipse class="cls-39" cx="137.33" cy="101.78" rx="0.22" ry="0.24"/><ellipse class="cls-39" cx="136.46" cy="102.47" rx="0.22" ry="0.24"/><ellipse class="cls-39" cx="137.5" cy="99.71" rx="0.22" ry="0.24"/><ellipse class="cls-39" cx="135.6" cy="99.19" rx="0.22" ry="0.24"/><line class="cls-40" x1="137.44" y1="130.84" x2="154.8" y2="130.84"/></g><g id="Layer_6" data-name="Layer 6"><path class="cls-41" d="M36,58.18l-.29-3.28-1,.08s.07,1.09-.43,1.14-.55-1-.55-1l-1,.1.18,1.47s-.63-.2-.83.12-.18.94.14,1a.84.84,0,0,0,.67-.19l.14,1,1-.14c-.08-1.22.28-1.22.38-1.22.38-.08.54,1.13.54,1.13h0Z"/></g></svg>