<svg xmlns="http://www.w3.org/2000/svg" viewBox="0 0 200.87 187.14"><defs><style>.cls-1{fill:#80c998;stroke-width:1.59px;}.cls-1,.cls-2{stroke:#336551;stroke-miterlimit:10;}.cls-2{fill:#83a798;stroke-width:1.5px;}.cls-3,.cls-7,.cls-8{fill:none;stroke:#fff;stroke-linecap:round;stroke-linejoin:round;}.cls-3{stroke-width:0.75px;stroke-dasharray:3 2 4 5 4 2;}.cls-4{fill:#847c78;}.cls-5{fill:#e71d5e;}.cls-6{fill:#002c20;}.cls-7{stroke-width:0.73px;}.cls-8{stroke-width:0.68px;}.cls-9{fill:#ec5025;}.cls-10{fill:#872127;}</style></defs><g id="Layer_4" data-name="Layer 4"><rect class="cls-1" x="20.53" y="42.01" width="160.25" height="11.48"/><rect class="cls-2" x="20.53" y="53.49" width="160.25" height="89.92"/><path class="cls-3" d="M46,88a129.92,129.92,0,0,0,9.14,24.84,18,18,0,0,0,4,5.91,12.3,12.3,0,0,0,8,2.65c6,.06,11.85-2.81,16.16-7.21A35.93,35.93,0,0,0,92,97.79a47.89,47.89,0,0,0,.92-18.85c-.43-2.81-1.22-5.77-3.28-7.6s-5.73-1.82-7.05.66c-1,1.92-.24,4.4,1.07,6.11,2.49,3.23,6.63,4.64,10.57,4.56s7.75-1.47,11.4-3a131.85,131.85,0,0,0,17.5-9,27.49,27.49,0,0,1,7-3.51c4.34-1.14,8.88.19,13.17,1.51a19.9,19.9,0,0,1,6.94,3.17c2.95,2.41,4.43,6.41,4.71,10.33a40.52,40.52,0,0,1-1.37,11.68q-2.76,12.33-6.6,24.34"/><path class="cls-4" d="M159.77,91.45a1.69,1.69,0,0,0-.07,1,2.15,2.15,0,0,0,.73.9c.08,0,.13.08.13.11s0,.06.07.06.06-.06,0-.13,0-.14.05-.14.06.06.05.16,0,.17.25.2a.78.78,0,0,0,.34,0c.08,0-.07-.72-.19-.86a.32.32,0,0,1-.11-.19,4.09,4.09,0,0,0-1-1,.25.25,0,0,1-.16-.12C159.85,91.31,159.84,91.31,159.77,91.45Z"/><path class="cls-4" d="M166.92,92.38c-.27.18-.28.21-.36.67a2.29,2.29,0,0,0,.09,1.29c0,.07.07.2.09.26s0,.13.18,0,.13-.18.12-.21,0,0,.08,0,.12.19,0,.24a.18.18,0,0,0-.08.16c0,.07.05.11.09.09s.08,0,.08.08,0,.09-.06.07-.06,0-.06,0a.24.24,0,0,0,.15.17c.09,0,.15.11.15.15a.07.07,0,0,0,.06.07s.07,0,.07-.13.09-.24.32-.3a1.56,1.56,0,0,0,.72-.72l.12-.26-.19-.09c-.16-.07-.22-.06-.45.06s-.26.13-.32,0a1.63,1.63,0,0,1-.07-.42,4.73,4.73,0,0,0-.44-1.35A2,2,0,0,0,166.92,92.38Z"/><path class="cls-4" d="M36.56,93.35c-.07.08-.14.14-.17.14s-.29.28-.3.38a.71.71,0,0,1-.1.2c-.09.13-.1.13-.18,0s-.13-.12-.3-.09-.23,0-.25,0-.23,0-.2.09-.39.31-.56.27-.14,0-.11.06-.26.2-.34,0-.24-.18-.24-.08.18.22.34.27.16.07.16.09.06.07.13.08.15.08.19.44a1.89,1.89,0,0,0,.87,1.44l.3.11c.08,0,.11,0,.14-.34a1.45,1.45,0,0,0-.16-.9,5.27,5.27,0,0,0-.26-.61.1.1,0,0,1,0-.16c.16-.1.24-.06.26.13s0,.19.2.19.4-.09.4-.28,0-.16.06-.16.06-.05.06-.11a.25.25,0,0,1,.08-.15,1,1,0,0,0,.18-.78,1.8,1.8,0,0,1-.09-.28C36.68,93.21,36.67,93.21,36.56,93.35Z"/><path class="cls-4" d="M165,93.64a1,1,0,0,0,.15.74.18.18,0,0,1,0,.19,1.63,1.63,0,0,0-.09.38,1.56,1.56,0,0,1-.11.36,2,2,0,0,0-.09.58,2.05,2.05,0,0,1-.08.64,1.33,1.33,0,0,0-.06.39v.25l.32,0c.56-.09.83-.35,1.05-1,.13-.41.15-1.33,0-1.27s-.08,0,0-.16a.41.41,0,0,0-.13-.4,1.6,1.6,0,0,1-.16-.28s0-.06-.08-.06-.11-.06-.16-.14a.33.33,0,0,0-.16-.13s-.09,0-.11-.11S165.09,93.47,165,93.64Z"/><path class="cls-5" d="M124.38,85a6.64,6.64,0,0,0-1.32.08s0,3.06-.06,6.72c0,5.49,0,6.66.07,6.71a18.3,18.3,0,0,0,2.68,0l.14,0V91.79c0-6.31,0-6.7-.11-6.75A13.09,13.09,0,0,0,124.38,85Z"/><path class="cls-5" d="M127.64,85.36a17.25,17.25,0,0,0,0,2.62,7.65,7.65,0,0,0,2.08.09h2l0,5.34v5.34h2.9V93.41c0-5,0-5.34.13-5.34h2.29l2.18,0,0-1.41v-1.4h-5.84C127.72,85.23,127.68,85.23,127.64,85.36Z"/><path class="cls-4" d="M159.49,97.09c-.31.16-.39.24-.49.47s-.08.19.15.31.29.11.69,0a2.28,2.28,0,0,0,.54-.17,2,2,0,0,1,.28-.18l.2-.12s-.07-.12-.19-.25a.59.59,0,0,0-.59-.24A1.35,1.35,0,0,0,159.49,97.09Z"/><path class="cls-6" d="M67.24,84.86a4.2,4.2,0,0,0-.8.08,9.39,9.39,0,0,0-.08,1.93c0,2.35-.12,8.1-.16,8.73a1.35,1.35,0,0,1-.11.53c-.06.05-.06.07,0,.1s.08.32.08,1.17c0,1.14,0,1.32.21,1.15a38,38,0,0,1,4-.09,29.77,29.77,0,0,0,4-.11.44.44,0,0,0,.17-.14s.12-.13.27-.23a4.3,4.3,0,0,0,1.25-1.31A3.24,3.24,0,0,0,76.5,94a3.73,3.73,0,0,0-1-1.93,2.17,2.17,0,0,0-1.43-.88.89.89,0,0,1-.32,0s.18-.16.44-.3a3.68,3.68,0,0,0,1.24-1.14,2.8,2.8,0,0,1,.22-.48l.23-.42,0-.74a2,2,0,0,0-.13-.86,2,2,0,0,1-.2-.39,3.69,3.69,0,0,0-1-1.12,1.81,1.81,0,0,1-.47-.23c-.77-.45-1.35-.56-3.32-.64A27.93,27.93,0,0,0,67.24,84.86Zm4.85,2.42a1.21,1.21,0,0,1,.64.6,2,2,0,0,1-1.15,2.88c-.34.15-.39.15-1.2.09l-.86-.06,0-1.8c0-1,0-1.83,0-1.88s.25-.09,1.1-.07C71.66,87.06,71.68,87.06,72.09,87.28Zm.17,5.52a1.68,1.68,0,0,1,1.07,1,1.58,1.58,0,0,1,0,1.6,1.14,1.14,0,0,1-.84.77,4.6,4.6,0,0,1-1.88.2l-1.23,0V95.1c0-.73,0-1.58,0-1.88l0-.55.39,0C71.46,92.46,71.46,92.46,72.26,92.8Z"/><path class="cls-6" d="M87.3,85.57a1.28,1.28,0,0,0-.52,1.2A1.33,1.33,0,0,0,87.36,88a.91.91,0,0,0,.74.15.9.9,0,0,0,.66-.2,1.67,1.67,0,0,0,0-2.34.81.81,0,0,0-.71-.23A.92.92,0,0,0,87.3,85.57Z"/><path class="cls-6" d="M97.42,87.67c0,2.08,0,2.44-.15,2.21a1.38,1.38,0,0,0-.36-.18,1.82,1.82,0,0,1-.38-.17,4.51,4.51,0,0,0-1.32-.26,5.45,5.45,0,0,0-1.68.41A7.17,7.17,0,0,0,92,90.94a4.72,4.72,0,0,0-1,3,4.2,4.2,0,0,0,.8,3.08,5,5,0,0,0,1.75,1.28,5.78,5.78,0,0,0,2.5.32l1.39,0V99l1.16,0,1.15,0v-.46c0-.44,0-.48.23-.71.36-.4.47-.57.51-.75a1.59,1.59,0,0,1,.16-.4l.11-.22-.18-.07c-.2-.09-.62,0-.69.08s-.07.07-.09,0-.06-2.52-.07-5.53l0-5.47-1.12,0-1.14,0Zm-1,3.66a3.61,3.61,0,0,1,.72.29l.3.19v4.34l-.15,0a2.84,2.84,0,0,0-.46.13,2.91,2.91,0,0,1-1,.12,2.28,2.28,0,0,1-1.88-.72,2.42,2.42,0,0,1-.33-2.33,2.73,2.73,0,0,1,.63-1.47A2.13,2.13,0,0,1,96.37,91.33Z"/><path class="cls-6" d="M86.83,89c-.11.06-.11.35-.11,4.57,0,2.48,0,4.51,0,4.51s-.09-.08-.14-.19a.77.77,0,0,0-.78-.52c-.19,0-.2,0-.2.23a1.93,1.93,0,0,0,.71,1.15l.27.22.09-.22c.07-.18.09-.2.11-.08s.09.15.7.17c.37,0,.94,0,1.26,0l.58,0V94c0-2.65,0-4.87,0-4.94s-.17-.11-1.18-.11A6,6,0,0,0,86.83,89Z"/><path class="cls-6" d="M78.33,89.21c0,.09,0,2,0,4.27s0,4.16,0,4.22a.09.09,0,0,1-.12.06s-.09,0-.09.07a.12.12,0,0,1-.13.11c-.06,0-.1,0-.08-.07s-.14-.16-.24-.08-.12.42,0,.46.08.07.06.11a.59.59,0,0,1-.5,0,.13.13,0,0,0-.09,0s0,0,0,0,0,.08,0,.13,0,.09,0,.09-.06.1-.17.23a.7.7,0,0,0-.22.31.07.07,0,0,1-.07.07s0,0,0-.12a.34.34,0,0,0,0-.22c0-.09-.06-.08-.06,0a.58.58,0,0,1-.15.29,2.25,2.25,0,0,0-.25.34c-.09.15-.09.15.09.22s.24,0,.13-.09a.21.21,0,0,1,0-.19c0-.09.07-.09.2,0s.17,0,.18,0a.14.14,0,0,1,.11-.07s.09,0,.12-.1a.14.14,0,0,1,.12-.11s.12-.09.15-.21.08-.21.36-.16a1.09,1.09,0,0,1,.32.08s0,.1-.19.11-.27.12-.41.38-.07.15,0,.13a.4.4,0,0,1,.19,0c.11.08.38-.1.69-.45l.27-.31h1.28c1.15,0,1.27,0,1.31-.12s0-1,0-2.15c0-3,0-2.83.22-3.28.69-1.26,1.46-1.64,2.4-1.21a1.1,1.1,0,0,1,.43.3c.12.26.23.36.4.36s.3-.12.41-.44c0-.11.16-.45.27-.75.64-1.79.64-1.71,0-2.05a3.59,3.59,0,0,0-2.68,0,3.53,3.53,0,0,0-1,1.12l-.31.54-.19.3v-1c0-.57,0-1.07,0-1.14s-.11-.12-1.26-.12S78.36,89.06,78.33,89.21Z"/><path class="cls-6" d="M114.31,89.39a2.55,2.55,0,0,0-1.32.72,5.11,5.11,0,0,0-1.76,2.94,3.67,3.67,0,0,0-.23,1.6,3.06,3.06,0,0,0,.18,1.33,6.86,6.86,0,0,0,.74,1.64,5.75,5.75,0,0,0,1,.93,3.67,3.67,0,0,1,.42.24,5,5,0,0,0,1,.42c.46.13.59.2.5.24s-.08,0,0,0a1.28,1.28,0,0,1,.45,0c.27.07.28.09.26.25a.49.49,0,0,0,.06.32c.09.13.09.13.27-.11a.54.54,0,0,0,.16-.28s0,0,.06,0,.16.2.16.53,0,.23.21.18l.4-.08c.1,0,.19-.08.19-.13a.17.17,0,0,1,.08-.14s0,0,0,0,0,.14.19.07.13-.09.11-.27,0-.23.36-.34a4.18,4.18,0,0,0,1.45-.78l.25-.24v-.89c0-.79,0-.92-.11-1s-.45-.15-.94.25a1.93,1.93,0,0,1-1.34.55,4.13,4.13,0,0,1-2.6-.63c-.07-.09-.07-.1,0,0s.08,0,0,0a.09.09,0,0,0-.12,0c-.09,0-.29-.08-.29-.16s.06-.07.14-.07.12,0,0-.07-.07-.06,0-.06.17-.15,0-.27-.19,0-.19.08,0,.09-.1.11-.1,0-.07-.09,0-.11-.09,0a.29.29,0,0,1-.21,0c-.13-.06-.44-.65-.38-.71a22.16,22.16,0,0,1,2.39-.14c3.11-.09,3.83-.16,4-.32s.2-.57.06-1.6a3.85,3.85,0,0,0-.4-1.5,6,6,0,0,0-1.79-2.06,3.52,3.52,0,0,0-2-.52A3.09,3.09,0,0,0,114.31,89.39ZM116,91.9c.39.13,1,.63,1,.8a1,1,0,0,0,.12.31,2,2,0,0,1,.14.48l0,.25h-3.85v-.22a2.94,2.94,0,0,1,.78-1.39A1.84,1.84,0,0,1,116,91.9Z"/><path class="cls-6" d="M104.09,89.44a2.74,2.74,0,0,0-1.84,1.49,3.81,3.81,0,0,0-.5,1.74,2.68,2.68,0,0,0,.1,1.08,2.35,2.35,0,0,0,.64,1,3.24,3.24,0,0,0,.88.78c.21.12.39.23.39.27a.82.82,0,0,1-.21.19,3.44,3.44,0,0,0-1,1.31,1.47,1.47,0,0,0,0,1,.57.57,0,0,1,.08.23l-.49.47a2.38,2.38,0,0,0-.69,1,2.56,2.56,0,0,0,.44,3.11,2.65,2.65,0,0,0,.85.79c.63.39,1,.43,2.76.37,1,0,1.33,0,1.3,0s0,.07,0,.07.07,0,.07-.1.06-.1.16-.1.15,0,.12.17,0,.17.09.17a.17.17,0,0,1,.16.1c0,.15.31.12.42,0s.13-.13.18-.11.37-.25.27-.35-.54-.11-.54,0,0,.07-.1.07,0-.16.29-.27a5,5,0,0,0,1.79-1.07,3,3,0,0,0,.64-1.85v-.51l.35-.38.35-.42a.69.69,0,0,0-.21-.18.45.45,0,0,0-.45-.09c-.12,0-.22.1-.21.14,0,.19-.12.06-.31-.27a3.22,3.22,0,0,0-1.2-1.18l-.6-.29a5.52,5.52,0,0,0-2.48-.42,1.39,1.39,0,0,1-.54-.07c-.07-.12.16-.64.39-.88s.29-.25.88-.36a4.08,4.08,0,0,0,1.73-.63l.46-.33a1.81,1.81,0,0,0,.86-1.52,2.43,2.43,0,0,0-.52-1.87l-.16-.15h.49c.59,0,.9-.11,1-.34a4,4,0,0,0,.11-.85c.06-1.08.37-1-3-1A19.41,19.41,0,0,0,104.09,89.44Zm2.24,1.93a1.71,1.71,0,0,1,.89,2.31,1.88,1.88,0,0,1-2,1,1.75,1.75,0,0,1-1.37-2.44,2.2,2.2,0,0,1,.85-.86A2,2,0,0,1,106.33,91.37Zm.29,8.43c.87.26,1.26.64,1.26,1.23,0,.86-1.82,1.43-3.32,1a3.68,3.68,0,0,1-1.23-.64.48.48,0,0,1-.18-.43.49.49,0,0,1,.23-.47,4,4,0,0,1,1.38-.74A5.77,5.77,0,0,1,106.62,99.8Z"/><path class="cls-4" d="M41.29,98.45a.55.55,0,0,0-.26.21c-.08.12-.3.17-.23,0s0-.07-.18-.07a2.87,2.87,0,0,1-.53-.07c-.23,0-.34,0-.39,0a.25.25,0,0,1-.18.07c-.13,0-.14.13,0,.38s.1.16.19.13.11,0,.09,0,.3.38.39.38a.61.61,0,0,1,.21.16c.26.26.61.31,1.21.17a2.15,2.15,0,0,0,.44-.12.11.11,0,0,1-.08-.11c0-.06,0-.1-.07-.1s0,0,0,.06-.06.07-.17-.06-.13-.23,0-.13a.35.35,0,0,0,.24,0c.06,0,.12,0,.12,0a.07.07,0,0,0,.06.07c.1,0,.07-.26,0-.41a.36.36,0,0,0-.25-.14c-.12,0-.15,0-.21-.3a1.14,1.14,0,0,0-.11-.3Z"/><path class="cls-4" d="M41.76,99.91c-.09,0-.13.07-.11.13s0,.1,0,.1,0,0,0,.07,0,.05-.08,0-.28-.1-.23,0,0,.07-.1.07-.36.15-.36.27.05.07.12,0,.23,0,.09.11-.07.07.05.21c.24.32.61.21,1.26-.37a.23.23,0,0,1,.14-.07c.12,0,.06-.13-.07-.21s-.14-.06,0,0a.18.18,0,0,0,.23-.09c.06-.11,0-.13-.16-.2A1.42,1.42,0,0,0,41.76,99.91Z"/><path class="cls-4" d="M51.49,100.88l-.45.26s0,0,.08.09a2.73,2.73,0,0,1,.35.32,2.47,2.47,0,0,0,1.89.5l.57,0,0-.21a.9.9,0,0,0-.34-.65c-.1-.07-.14-.07-.16,0s0,.06-.07,0a.14.14,0,0,1,0-.13c.06-.17-.35-.34-.88-.38A1.08,1.08,0,0,0,51.49,100.88Z"/><path class="cls-4" d="M45.83,101a.09.09,0,0,0,.1.07s.07,0,.07.09-.06.1-.19.1-.23.07-.06.24a.74.74,0,0,1,.16.38,1.08,1.08,0,0,0,.12.34.24.24,0,0,1,.09.15.87.87,0,0,0,.12.25.6.6,0,0,1,.13.25c0,.08-.33.31-.55.39a.7.7,0,0,0-.28.2l-.14.16.15.07a1,1,0,0,0,.38.08c.22,0,.24,0,.28.23s.08.24.13.24.09,0,.09-.07.06-.08.14-.1a2.11,2.11,0,0,0,.61-1.19c0-.33,0-.33-.27-.34-.06,0-.08-.06-.07-.22a2.2,2.2,0,0,0,0-.44c0-.18-.07-.21-.2-.21a.35.35,0,0,0-.24.08c-.06.06-.09.06-.14,0s-.05-.08,0-.11.07-.43-.1-.58S45.79,100.83,45.83,101Z"/><path class="cls-4" d="M39.55,101.29c0,.08,0,.14,0,.17s.07.34,0,.44-.12.07-.14,0,0,0,0,0,.07-.08.07-.17,0-.17-.21-.17-.23,0-.25-.1-.13-.09-.27-.09-.25,0-.28.13-.13.17-.18,0-.05-.15.08-.19,0,0-.13,0-.23,0-.23.06-.09,0-.21,0-.2,0-.18-.11,0-.07-.06,0a.29.29,0,0,1-.2.12.69.69,0,0,0-.34.23c-.11.13-.24.21-.27.2a.19.19,0,0,0-.13,0c-.09.06-.16.56-.08.56a.05.05,0,0,0,0,0s.07-.1.15-.15.17-.07.25,0,.07.12,0,.15,0,.1,0,.21.08.27,0,.12-.08-.12-.09,0,0,.13-.07.14,0,.08,0,.21.17.24.22.05a.17.17,0,0,1,.16-.14c.11,0,.11,0,0-.12s-.12-.14.27-.16c.19,0,.32.11.29.25a.16.16,0,0,1-.12.07.26.26,0,0,0-.16.11.24.24,0,0,1-.16.12c-.14,0-.23.12-.25.35s0,.18,0,.13a.31.31,0,0,1,.34-.21.17.17,0,0,1,.19.12q0,.17,0,0c0-.14.11-.15.16,0a.14.14,0,0,0,.26,0,.51.51,0,0,1,.21-.14c.14,0,.14,0,0,.05s-.1.1.08.07.19,0,.19.1.19.25.37.19.16-.14.06-.21,0-.17.07-.17,0,0,0,.09,0,.06,0,0a.29.29,0,0,1,.17-.09.34.34,0,0,0,.26-.3c0-.08,0-.1-.12-.07s-.12,0-.15-.11,0-.46,0-.46.06.09.06.21,0,.21.24.16l.3,0s.06,0,0-.09.14-.18.47-.18,1.11-.67,1.11-1a2.34,2.34,0,0,0-1.12-.09.55.55,0,0,1-.43,0,.86.86,0,0,0-.28-.1c-.08,0-.14,0-.14-.06s0-.07.06-.07a.07.07,0,0,0,.06-.07C39.72,101.11,39.63,101.15,39.55,101.29Z"/><path class="cls-4" d="M43.78,102c0,.2.17.62.24.62s.06,0,.06.08.37.3.72.33.3,0,.32-.13.14-.2.14,0,0,.17.3,0,.23-.27,0-.39a.77.77,0,0,1-.19-.16,1.86,1.86,0,0,0-1.15-.47C43.8,101.81,43.78,101.82,43.78,102Z"/><path class="cls-4" d="M35.75,102.24a.07.07,0,0,1-.08,0c-.06,0-.17.18-.22.42s0,.17.09.19.12.07.12.11.08,0,.18,0,.19,0,.19,0,.07.11.15.15.16.1.16.16,0,.09.1.06.09-.1.07-.23,0-.27.09-.12,0,.07.1,0,0-.09-.08-.13a.23.23,0,0,1-.17-.12C36.45,102.7,35.8,102.15,35.75,102.24Z"/><path class="cls-4" d="M144.61,102.32l-.23.09.12.27a1.18,1.18,0,0,0,1.81.14c.11-.1.11-.11,0-.24A2,2,0,0,0,144.61,102.32Z"/><path class="cls-4" d="M66.07,102.36c-.09,0-.14.06-.11.11a.27.27,0,0,1-.11.2c-.16.12-.24.08-.18-.07s0-.09-.09,0a.21.21,0,0,0-.1.25c0,.15.06.17.22.14s.18,0,.12.06-.12.08-.34,0-.28-.09-.43.09a.63.63,0,0,0-.16.33c0,.08,0,.17-.07.19a.15.15,0,0,0-.06.11s0,0,.11,0,.2-.15.2,0,0,.06,0,0-.1,0-.19.14a.46.46,0,0,0-.12.4c0,.12,0,.22,0,.22s-.1.14-.16.56l0,.32h.26c.17,0,.25,0,.25-.09a.26.26,0,0,1,.09-.17.35.35,0,0,0,.05-.24c0-.12,0-.17.1-.21s.13-.1.13-.28v-.25l-.16.16a.55.55,0,0,0-.14.23c0,.16-.08.45-.16.45s-.13-.12,0-.15.07-.14.07-.31v-.27l.38-.19c.22-.11.4-.21.4-.25s0,0,.12,0,.12,0,.12-.09a.47.47,0,0,1,.16-.24.49.49,0,0,0,.15-.25c0-.05,0-.1,0-.1s.11-.1.19-.21.12-.22.07-.3A.63.63,0,0,0,66.07,102.36Z"/><path class="cls-4" d="M149.73,102.5s-.3.21-.4.21-.33.29-.33.39a.15.15,0,0,1-.08.11c-.12.06.07.16.36.22a2,2,0,0,0,1.49-.56s-.05-.12-.14-.23-.22-.2-.54-.19A.79.79,0,0,0,149.73,102.5Z"/><path class="cls-4" d="M44.26,103.61a.8.8,0,0,1-.36.11c-.18,0-.34.1-.35.14s-.09.07-.17.07-.15,0-.15.07a.09.09,0,0,1-.08.07.29.29,0,0,0-.16.06c-.07,0,0,.13.14.4s.28.36.33.36l.17,0,.14,0s.07.08.06.17.09.21.28,0a.55.55,0,0,1,.26-.17.57.57,0,0,0,.26-.1,1.51,1.51,0,0,1,.33-.13.94.94,0,0,0,.36-.27l.28-.31c.06-.08,0-.12-.27-.28a1.48,1.48,0,0,0-.51-.2.32.32,0,0,1-.2,0C44.56,103.55,44.28,103.54,44.26,103.61Z"/><path class="cls-4" d="M88.94,109.77a1,1,0,0,0-.13.42c0,.16,0,.31,0,.33a2.16,2.16,0,0,0,0,.57s0,0,.07,0a1,1,0,0,1,.22-.17,1,1,0,0,0,.32-.4c.14-.31.14-.43,0-.36s-.09,0-.08-.09c0-.33,0-.43-.15-.43A.41.41,0,0,0,88.94,109.77Z"/><path class="cls-4" d="M147.48,104.89a.62.62,0,0,0-.11.42c0,.36.25,1,.38.9s.07,0,.06,0,0,.09.05.14.1.07.13,0,0-.18.08-.25c.11-.32-.18-1.33-.39-1.33A.44.44,0,0,0,147.48,104.89Z"/><path class="cls-4" d="M55.16,105s-.06.09-.13.12a3.35,3.35,0,0,0-.42.17,4.23,4.23,0,0,1-.44.16c-.19,0-.48.32-.37.36s.08.17,0,.15-.39.13-.39.22.08.06.18.09.2.07.22.11.15.07.12,0,0-.1.16-.1h.21l-.13.12c-.11.1-.12.14-.06.17a.14.14,0,0,0,.14,0s.1,0,.14,0,.08.27.07.64a1.8,1.8,0,0,0,.17,1,3.08,3.08,0,0,1,.2.51c0,.1,0,.09.3-.07a.67.67,0,0,0,.29-.32c0-.16,0-.2-.08-.31a.28.28,0,0,0-.26-.07c-.06,0-.08,0,0,0a.41.41,0,0,1,.22-.09c.12,0,.16-.06.17-.24a.86.86,0,0,0,0-.34.24.24,0,0,1,0-.26.26.26,0,0,0,.06-.21.26.26,0,0,1,.25-.29.81.81,0,0,0,.32-.11.67.67,0,0,1,.35-.1h.16l-.21-.35a1.54,1.54,0,0,1-.21-.44.1.1,0,0,0-.11-.1.36.36,0,0,1-.22-.1.32.32,0,0,0-.24-.06c-.08,0-.16,0-.24-.11S55.16,105,55.16,105Z"/><path class="cls-4" d="M45,106a.79.79,0,0,0-.3.29.49.49,0,0,1-.14.25.71.71,0,0,0-.18.43,1.23,1.23,0,0,1-.08.41c0,.11,0,.12.26.08a1.89,1.89,0,0,0,1.26-1.1c.23-.43.2-.5-.24-.54A.65.65,0,0,0,45,106Z"/><path class="cls-4" d="M46.83,106.38c-.08.42-.06.6.09.6s.17.11,0,.16,0,.15.23.34.34.31.59.31h.3l0-.22a1.61,1.61,0,0,0-.85-1.14l-.34-.2Z"/><path class="cls-4" d="M142.84,106.29a2,2,0,0,0-.77.81,2.69,2.69,0,0,0-.15.37.87.87,0,0,0,.33.07,2.12,2.12,0,0,0,1.44-.66l.33-.33-.13-.13c-.09-.12-.21-.14-.54-.16A2,2,0,0,0,142.84,106.29Z"/><path class="cls-4" d="M90.41,106.69c.07,0,.12.06.1.09s0,.07.06.07a.1.1,0,0,1,.1.1c0,.11-.16.13-.22,0a.12.12,0,0,0-.1-.07s0,0,0,.07,0,.07.06.07a.67.67,0,0,1,.31.31s-.06,0-.13,0-.14,0-.16.09,0,.12-.09.05-.05-.06-.05,0a2.71,2.71,0,0,0,.58.87.54.54,0,0,1,.15.12c0,.06.31.12.28.06s0-.07,0-.1.06,0,.06,0a.07.07,0,0,0,.06.07s.07,0,.07-.1a.14.14,0,0,1,.09-.12c.09,0,.08,0,0-.21s-.14-.19,0-.23c.31-.09.09-.45-.33-.55-.15,0-.25-.09-.26-.17s0-.1.07-.07.1,0,.1,0-.11-.16-.16-.08-.16.07-.12-.09,0-.12,0-.06-.06.06-.09,0-.07-.14-.24-.13S90.31,106.67,90.41,106.69Z"/><path class="cls-4" d="M59.72,107s-.08,0-.19,0-.18,0-.18.11a.26.26,0,0,0,.07.19s.06,0,0-.06,0-.22.11-.12.07.06.1,0,.06,0,.06,0a.07.07,0,0,1-.06.07s-.07.05-.07.1,0,.08-.09.06-.09,0-.09.07.06.1.18.09.19,0,.19-.07,0,0,.07,0,0,.09-.06.17a.29.29,0,0,0,0,.44c.11.12.21.13.32,0a.67.67,0,0,1,.53-.28.62.62,0,0,0,.32-.11c.05-.05,0-.06-.1,0s-.25.09-.21,0,0-.28-.13-.28a0,0,0,0,0,0,.07s0,.06-.11,0a1.21,1.21,0,0,0-.25,0c-.06,0-.11,0-.09-.1s.08-.07.14-.06.1,0,.07-.08,0-.11,0-.11a.12.12,0,0,1,.09.08c0,.07,0,.07,0,0s.05-.08.11-.08.09,0,0-.13A.51.51,0,0,0,60,107,.55.55,0,0,0,59.72,107Z"/><path class="cls-4" d="M96.08,107.86c-.62.21-1.07.71-.89,1,.09.13.07.22,0,.22s-.05-.07-.05-.17,0-.17-.07-.17-.06.06,0,.14,0,.12,0,.1-.19.24-.15.52.06.26.27.26a1.31,1.31,0,0,0,.47-.14,3.26,3.26,0,0,0,1-.86,2.28,2.28,0,0,1,.25-.39,1,1,0,0,0,.18-.24,2,2,0,0,0-.66-.33Z"/><path class="cls-4" d="M69.91,108c0,.08,0,.28.1.28s0,0,0-.1.08-.12.25.08.17.17.27.1.42.07.21.26a.31.31,0,0,0-.09.21.2.2,0,0,1-.06.16c-.06,0-.14-.06-.08-.13a.39.39,0,0,0,0-.21c0-.15,0-.17-.22-.17s-.24,0-.24.1,0,.11-.07.11,0,0,0-.07,0-.14-.13-.23l-.17-.19-.08.18c0,.1-.07.2,0,.22s0,0,0,0a.1.1,0,0,1,.1-.08s.09.06.09.14,0,.13-.14.13-.06,0,.11.11l.31.12a.15.15,0,0,1,.1.08,4.6,4.6,0,0,0,1.48,0,1.73,1.73,0,0,0-.38-.86c-.13-.13-.26-.09-.14,0s.09.19,0,.19-.09,0-.09-.05-.08-.09-.19-.14-.18-.14-.18-.2,0-.1-.06,0-.08.09-.22,0S70,107.9,69.91,108Z"/><path class="cls-4" d="M145.37,108.11a1.56,1.56,0,0,0-.51.65c0,.11-.09.19-.12.19s-.05,0-.05.1,0,.09-.11,0a2.35,2.35,0,0,0-.94-.34c-.24,0-.25,0-.23.19s.3.46.74.46.38,0,.49.19.16.18.21.18a.07.07,0,0,1,.08.07c0,.11.5.33.93.4.61.11.68.1.65-.08a1.9,1.9,0,0,1,0-.35.67.67,0,0,0-.22-.41c-.24-.25-.38-.38-.43-.38l-.19-.06c-.13-.06-.15-.09-.1-.17a1,1,0,0,0,.11-.4c0-.28,0-.31-.08-.31A.59.59,0,0,0,145.37,108.11Z"/><path class="cls-4" d="M56.85,108.57c-.1.08-.09.08,0,.13s.17.19,0,.42a.32.32,0,0,1-.25.17c-.08,0-.14,0-.12-.06s0,0-.16,0-.18,0-.14-.11,0-.14-.05-.14a.12.12,0,0,1-.11-.08c0-.05-.1,0-.26,0s-.31.19-.14.4a.83.83,0,0,0,.92.16l.37-.18c.13-.05.17-.11.16-.23s0-.32.13-.3.13-.11-.1-.2S56.94,108.5,56.85,108.57Z"/><path class="cls-4" d="M135.13,108.62c0,.14,0,.14,0,0s-.25-.15-.23,0-.05.09-.12.08-.19.08-.06.13,0,0,0,.13-.06.11,0,.09.11,0,.09.09,0,.08.15,0,.15,0,.15.09a.83.83,0,0,0,.06.29,3.37,3.37,0,0,1,.09.34,1.24,1.24,0,0,0,.25.43,2.6,2.6,0,0,1,.22.28,1.34,1.34,0,0,0,.13.22c.14.21.23.26.23.13a1,1,0,0,1,.14-.28,1,1,0,0,0-.1-1.15.17.17,0,0,1-.07-.13c0-.15-.16-.53-.22-.53s0,0,0,.07a.07.07,0,0,1-.07.06s0,0,0-.06,0-.07,0-.07-.05,0,0-.09-.07-.14-.2-.2C135.11,108.44,135.1,108.44,135.13,108.62Z"/><path class="cls-4" d="M47.07,109.23a.69.69,0,0,0-.14.6,1.35,1.35,0,0,0,.2.65c.17.27.62.62.7.54a1.7,1.7,0,0,0,.06-.45,1.29,1.29,0,0,0-.11-.72,1.55,1.55,0,0,0-.18-.36.87.87,0,0,1-.15-.26c-.06-.11-.12-.22-.15-.22S47.17,109.11,47.07,109.23Z"/><path class="cls-4" d="M148.42,109.76a.65.65,0,0,1-.32.2c-.15,0-.19.06-.1.06s.13,0,.13.15,0,.13.07.13.06,0,.06.1-.06.09-.16.07-.15,0-.13.08a.68.68,0,0,1,0,.17s0,.06.09.06a.11.11,0,0,1,.1.11c0,.08,0,.07.06,0s.05-.13.05,0,0,.1.08.07.06,0,0,.06a.12.12,0,0,0,.06.14c.06,0,.08.07.07.09s.24.31.49.34.32,0,.22-.14-.07-.24,0-.24-.14-.8-.46-1.24S148.54,109.58,148.42,109.76Z"/><path class="cls-4" d="M99.07,109.85l-.34.15a.83.83,0,0,0,.15.27,1,1,0,0,0,.79.44,1.83,1.83,0,0,0,1.08-.49l.19-.21-.26-.13A2.29,2.29,0,0,0,99.07,109.85Z"/><path class="cls-4" d="M74.15,110a.17.17,0,0,1-.13.1s-.08,0-.06-.07,0,0,0,0-.13.14,0,.19,0,0-.1,0-.16,0-.13.07.06.1.09.08.13.1.06.2-.46.14-.4,0a.08.08,0,0,0,0-.1s-.21.13-.27.31-.1.12-.25.12a1.41,1.41,0,0,0-.33,0c-.09,0-.09,0,0,0s.11-.09,0-.14a.65.65,0,0,0-.4,0,1.77,1.77,0,0,1-.37.09c-.19,0-.22.11-.1.33s.14.19.22.16a.19.19,0,0,1,.2.09c0,.08.1.11.1.08s.06,0,.14,0a.79.79,0,0,0,.23.11c.32.05.51.13.44.17a.11.11,0,0,1-.14,0s-.06,0-.06,0,.09.07.3,0l.45,0c.18,0,.58-.31.49-.37s-.08-.17,0-.17a.39.39,0,0,0,.23-.1c.11-.09.11-.09,0-.13a.31.31,0,0,0-.21,0,.24.24,0,0,1-.21-.07c-.12-.11-.12-.11,0-.08s.16,0,.16,0,.1-.11.23-.14a2.35,2.35,0,0,0,.82-.43c0-.22-.22-.25-.57-.09a.88.88,0,0,1-.34.08H74l.19-.09a.66.66,0,0,0,.26-.23c.07-.13.06-.14-.1-.14A.25.25,0,0,0,74.15,110Z"/><path class="cls-4" d="M83.59,110.12c-.21.1-.21.1-.13.21a.17.17,0,0,0,.17.06c.05,0,.08,0,.08,0a.12.12,0,0,1-.06.1c-.25.09.73.75,1.08.72a1.55,1.55,0,0,1,.37,0c.2,0,.2,0,.16-.46,0-.19-.44-.58-.77-.69s-.49-.13-.44.07,0,.16,0,.13a.26.26,0,0,1-.13-.17C83.82,110,83.81,110,83.59,110.12Z"/><path class="cls-4" d="M62.67,110.49a2.25,2.25,0,0,0-.08,1,1.64,1.64,0,0,1,.16.23c.14.24.2.24.32,0s.2-.8.1-.8-.07-.09-.06-.26,0-.25-.11-.24-.14,0-.14,0S62.73,110.32,62.67,110.49Z"/><path class="cls-4" d="M137.51,110.74c0,.1-.06.17-.09.17s0,.09,0,.21,0,.2,0,.2a.85.85,0,0,1,.24.18,1.82,1.82,0,0,0,.78.57c.51.21.72.07.62-.42-.06-.28-.57-.87-.64-.74a.12.12,0,0,1-.22-.1c0-.08,0-.1-.21-.1s-.27,0-.28-.07S137.56,110.57,137.51,110.74Z"/><path class="cls-4" d="M49.9,111.43a3,3,0,0,0-.43.25,3.9,3.9,0,0,1-.36.25.64.64,0,0,0-.24.25c0,.09-.09.16-.12.16a2.27,2.27,0,0,0-.48.54,1.28,1.28,0,0,0,.35.21c.47.25.69.15.51-.21a.24.24,0,0,1,0-.25c.07-.09.09-.1.08,0a.59.59,0,0,0,.12.46l.1.15.24-.14a2.58,2.58,0,0,0,.48-.37,1.35,1.35,0,0,1,.3-.24,1.76,1.76,0,0,0,.33-.76,1,1,0,0,1,.07-.27c0-.11,0-.12-.35-.11A3.45,3.45,0,0,0,49.9,111.43Z"/><path class="cls-4" d="M59.68,112.51c0,.1,0,.11-.18.08s-.22,0-.2.07.07.11.2.1.16,0,.13,0a.08.08,0,0,1-.1,0c-.1-.06-.06.15,0,.26a2.29,2.29,0,0,1,.24.48,3.71,3.71,0,0,0,.87,1.13c.08,0,.22-.42.22-.64a1.15,1.15,0,0,0-.31-.81,1.14,1.14,0,0,1-.19-.26.75.75,0,0,0-.27-.18.75.75,0,0,1-.3-.28c0-.08-.07-.14-.1-.14S59.66,112.45,59.68,112.51Z"/><path class="cls-4" d="M45.84,112.78l-.22.06c-.13,0-.16.06-.13.16s0,.09,0,.07-.16,0-.32.11a.93.93,0,0,1-.39.17h-.12l.12.18a.72.72,0,0,1,.13.34c0,.09,0,.16.06.16s.06.06.06.13.06.14.16.17.17.25-.08.37-.34.32-.14.26.15-.06,0,.6a3.65,3.65,0,0,0-.08,1.22l0,.68.29-.1c.37-.14.67-.41.67-.61s0-.14.05-.14.27-1.06.19-1.6c0-.1,0-.13.1-.12a4.25,4.25,0,0,1,.76.16c.08,0,.17,0,.2,0s.06-.66-.05-.84a3.13,3.13,0,0,0-.8-.82c-.14,0-.15-.09-.12-.33s0-.27-.05-.27a.55.55,0,0,1-.17,0A.17.17,0,0,0,45.84,112.78Z"/><path class="cls-4" d="M140.62,112.9a1.06,1.06,0,0,0-.3.19.87.87,0,0,0,.35.38.74.74,0,0,0,1-.33.44.44,0,0,0,0-.25,1.21,1.21,0,0,0-.38,0c-.18,0-.33,0-.33,0S141,112.74,140.62,112.9Z"/><path class="cls-4" d="M145.52,112.81a.29.29,0,0,1-.2.07c-.16,0-.16,0,0,.53a.67.67,0,0,0,.19.32c.22.21.14.26-.16.1s-.51-.19-.51.06a.86.86,0,0,0,1,.65c.16-.06.17-.17,0-.36s-.15-.25.08-.06a1.22,1.22,0,0,0,.38.21,3.64,3.64,0,0,1,.42.15.55.55,0,0,0,.29.06c.1-.07.12-.38,0-.65a.8.8,0,0,1-.05-.36s0-.06,0,0-.13-.06-.25-.18a.64.64,0,0,0-.33-.23c-.08,0-.13,0-.13-.06s-.3-.17-.45-.15-.11,0-.11-.05S145.57,112.72,145.52,112.81Z"/><path class="cls-4" d="M84.56,113.13a2.43,2.43,0,0,0-.74.85,3.27,3.27,0,0,0-.14.61,1.52,1.52,0,0,0,.11.8c.14.41.24.48.28.21,0-.09.06-.14.09-.13s.42-.17.42-.28a.32.32,0,0,1,.08-.2,3.79,3.79,0,0,0,.37-1.42l0-.49h-.2A1.23,1.23,0,0,0,84.56,113.13Z"/><path class="cls-4" d="M103.21,113.14c-.17,0-.3,0-.3.08s0,0-.09,0,0,.34.2.55.19.17.5.14.3,0,.22,0,0,.07.22.1.65-.09.59-.26,0-.1,0-.1,0-.26-.19-.3-.13-.07-.11-.11-.07-.06-.2-.06a1.37,1.37,0,0,1-.42-.06A1.73,1.73,0,0,0,103.21,113.14Z"/><path class="cls-4" d="M90.86,113.3a.31.31,0,0,0-.07.17c0,.09,0,.09.09,0s.2.11.07.26-.5.19-.43.06,0,0-.07,0a.53.53,0,0,1-.18.07,1.28,1.28,0,0,0-.28.45c0,.09.15,0,.29-.14s.17-.15.2-.13-.29.38-.4.38-.09,0-.09.06a.07.07,0,0,0,.07.07c.06,0,.06,0,0,.08a.38.38,0,0,0-.07.21c0,.1,0,.12.14.08.27-.08.48-.18.48-.23s.06-.08.14-.1.2-.15.28-.31c.15-.31.16-.45.06-.49s0,0,0,0a.23.23,0,0,0,.18-.35c0-.1-.1-.13-.19-.1s-.12,0-.09,0S91,113.2,90.86,113.3Z"/><path class="cls-4" d="M131.27,113.3l-.28.09.1.27c.14.37.43.51,1,.51.43,0,.47,0,.65-.2a.72.72,0,0,1,.29-.21,0,0,0,0,0,0-.07.16.16,0,0,0-.13-.07.43.43,0,0,1-.23-.17c-.11-.15-.19-.17-.65-.19A3.24,3.24,0,0,0,131.27,113.3Z"/><path class="cls-4" d="M117.68,113.54c-.22.08-.25.16-.14.3a1.13,1.13,0,0,0,1,.34c.21,0,.23,0,.19-.17s-.21-.39-.35-.39-.11,0-.11-.06S117.84,113.47,117.68,113.54Z"/><path class="cls-4" d="M111.11,113.84a.27.27,0,0,0-.08.18s0,.06-.06,0-.06,0-.06,0a.86.86,0,0,1,0,.18c0,.09,0,.11,0,.07s.09,0,0,.13-.09.14,0,.24.06.17,0,.2,0,0,.08,0,.12,0,.09.11,0,.13,0,.13a.08.08,0,0,0,.07-.07.55.55,0,0,1,.16-.23.58.58,0,0,0,.16-.48C111.49,113.91,111.3,113.63,111.11,113.84Z"/><path class="cls-4" d="M65.5,114a.48.48,0,0,1-.21.07,2.12,2.12,0,0,0-.47.17c-.27.14-.36.22-.36.32s0,.12.08.1.08,0,0,.11,0,.12,0,.1.09,0,.13,0,.12.08.18,0,.4,0,.51.12.07.1.07,0,0-.11.07-.11.05,0,0-.06a.11.11,0,0,1,0-.11s.07,0,.07,0,.07.13.16.15.62,0,.51-.1,0-.11,0-.2.06-.14.11,0,.07.1.17,0a.24.24,0,0,0,.12-.17s0-.07-.07,0,0,0,0,0,0-.08-.13-.1-.16,0,0,0,.2,0,.22.07,0,.07.11,0,0-.09-.1-.13a1,1,0,0,1-.29-.14.22.22,0,0,0-.21-.07c-.09,0-.09,0,0,0s.17,0,0,.27c-.06.1-.15.18-.18.16s-.08,0-.08.14-.17.29-.31.15a.49.49,0,0,0-.27-.1c-.09,0-.16,0-.16-.08s.07-.06.2,0,.2,0,.26-.2,0-.23,0-.23,0,0,0-.09S65.62,113.94,65.5,114Z"/><path class="cls-4" d="M143.76,114.28a.38.38,0,0,0,0,.1,2.83,2.83,0,0,1-.05.41,3.12,3.12,0,0,0,.68,2.11l.28.43c.05.08.11,0,.32-.26a.85.85,0,0,0,.26-.66,2.29,2.29,0,0,0-.4-1.31,1.5,1.5,0,0,0-.54-.59,1.31,1.31,0,0,0-.34-.14.08.08,0,0,1-.07-.07C143.89,114.22,143.77,114.21,143.76,114.28Z"/><path class="cls-4" d="M105.46,115.31a1.21,1.21,0,0,0-.55.9c-.1.91.35,1,.8.12a2,2,0,0,0,.23-.67,1,1,0,0,1,.07-.32C106.18,115.15,105.74,115.12,105.46,115.31Z"/><path class="cls-4" d="M78.93,115.49a1.63,1.63,0,0,0-.67.78.78.78,0,0,1-.11.26,2,2,0,0,0,0,.85s.15,0,.31-.07.62-.49.56-.66a.14.14,0,0,1,0-.15s0,0,0,.06,0,.11,0,.11.28-.28.28-.39a.41.41,0,0,1,.09-.22.86.86,0,0,0,.13-.32c0-.19,0-.23-.13-.29A.48.48,0,0,0,78.93,115.49Z"/><path class="cls-4" d="M87,115.62a3.62,3.62,0,0,0-.74.44,1.65,1.65,0,0,1-.35.25s.08.11.21.25a.52.52,0,0,0,.55.24c.47,0,1.06-.36,1.09-.64a.07.07,0,0,1,.08,0c.05,0,.14-.1.21-.24l.14-.27-.14,0A1.49,1.49,0,0,0,87,115.62Z"/><path class="cls-4" d="M64,115.88a1.81,1.81,0,0,0,.1.37,1.17,1.17,0,0,0,.83.42c.21,0,.23,0,.19-.15a1.44,1.44,0,0,0-.74-.74C64,115.65,64,115.65,64,115.88Z"/><path class="cls-4" d="M138.94,116.06s-.06,0-.19,0-.21,0-.21,0a2,2,0,0,0,.15.4,1.83,1.83,0,0,0,.88,1c.33.18.33.19.21.32a1.29,1.29,0,0,1-.27.25c-.16.11-.16.12-.06.25a1.11,1.11,0,0,0,1.25.29,1.55,1.55,0,0,0,.73-.65,1,1,0,0,1,.16-.25.74.74,0,0,0,.11-.25c0-.16,0-.19-.1-.22a1.1,1.1,0,0,0-.77,0,.72.72,0,0,1-.7-.08c-.06-.08,0-.1,0-.1s.1,0,.1.07,0,.07.06.07,0-.27-.22-.56a1.35,1.35,0,0,0-.65-.45C139,116,138.88,116,138.94,116.06Z"/><path class="cls-4" d="M95.5,116.2a.8.8,0,0,1-.28.13c-.12,0-.37.3-.53.61a2.78,2.78,0,0,1-.22.37.52.52,0,0,0-.11.29,1.94,1.94,0,0,1-.09.43c0,.15-.1.3-.1.31a1.08,1.08,0,0,0,.28.06.78.78,0,0,1,.35.14.2.2,0,0,0,.16.1s.06,0,0,.07-.09.05-.15,0-.12,0-.15.18,0,.33,0,.29.08.05.08.22c0,.5,0,.57.11.61s.19,0,.06-.15-.11-.11.1-.08.26,0,.29,0,.09-.06.16,0,.07,0,0-.16,0-.24-.08-.24,0,0,0-.08a1.63,1.63,0,0,0-.15-.55c-.2-.56-.21-.6,0-.76s.32-.5.28-.57,0-.07,0-.08a.33.33,0,0,0,.1-.21c0-.16,0-.19-.08-.19s-.13,0-.13-.06.06-.07.15-.07.16,0,.12-.36c0-.19,0-.36,0-.37Z"/><path class="cls-4" d="M146.82,116.57c-.13.2-.13.25,0,.2s.09,0,.09,0-.15.12-.32,0-.48-.08-.69.37a3.59,3.59,0,0,0-.16.41c0,.09.82,0,1-.1a.42.42,0,0,1,.23-.07s.18-.11.32-.26.24-.3.17-.43C147.26,116.37,147,116.3,146.82,116.57Z"/><path class="cls-4" d="M107.93,117.09a1.14,1.14,0,0,0,.28,1.2c.15.14.2.15.28.07s.09-.07.06.06,0,.18.22.25.17,0,.17-.23a2,2,0,0,0-.46-1.14C108.14,116.86,108,116.83,107.93,117.09Z"/><path class="cls-4" d="M119.76,117.6c-.2.06-.3.14-.3.21a.54.54,0,0,1-.09.25c-.14.19-.12.23.11.27a1.53,1.53,0,0,0,1-.31.35.35,0,0,0,.1-.3c0-.18,0-.2-.27-.21A1.51,1.51,0,0,0,119.76,117.6Z"/><path class="cls-4" d="M61.38,117.74a1.17,1.17,0,0,0,.55.8,1.81,1.81,0,0,0,1.06.16c.15-.09.11-.16-.2-.26s-.24-.12-.2-.22,0-.12,0-.12-.06,0,0-.08a.52.52,0,0,0-.14-.27c-.16-.18-.21-.2-.57-.2S61.38,117.55,61.38,117.74Z"/><path class="cls-4" d="M122.06,118.49a1.32,1.32,0,0,0,0,.43c0,.18,0,.19-.16.19s-.19,0-.19,0,.27.27.49.33a1.08,1.08,0,0,1,.45.25.85.85,0,0,0,.53.22,1.16,1.16,0,0,1,.39.08s0,0,0-.09a2.94,2.94,0,0,1-.1-.34,2.31,2.31,0,0,0-.74-1,3.36,3.36,0,0,1-.38-.24l-.2-.13Z"/><path class="cls-4" d="M145.82,119.16c-.32.07-.56.64-.44,1.07.08.28.13.29.32.08a1.22,1.22,0,0,0,.35-.82C146.07,119.15,146,119.11,145.82,119.16Z"/><path class="cls-4" d="M75.54,119.77c0,.15,0,.22-.1.18a.1.1,0,0,0-.13.07.15.15,0,0,1-.12.11,1.26,1.26,0,0,0-.53.58q0,.14.12.15c.12,0,.13,0,.07.12s-.08.13.12.2.13,0,.11,0,.06-.15.24,0a.72.72,0,0,0,.26.1.07.07,0,0,1,.07.07.08.08,0,0,1-.09.07c-.1,0-.12.08,0,.16s.16-.09.3-.26a1.52,1.52,0,0,1,.32-.31.73.73,0,0,0,.25-.15l.19-.16-.24-.4c-.17-.28-.28-.4-.38-.41a.94.94,0,0,1-.28-.06C75.59,119.74,75.53,119.74,75.54,119.77Z"/><path class="cls-4" d="M88.56,120.85s0,.15.08.3.14.61,0,.61-.06-.1-.06-.21,0-.19-.13-.16-.18.08-.1.25.41.41.56.35a1,1,0,0,0,.37-.46s0,0-.09,0-.2-.16-.1-.26.11,0,.22,0,.16.1.16,0,0-.09-.09-.06-.1,0-.1,0,0-.07.1-.07.09,0,.09-.06,0-.06-.11,0a.17.17,0,0,1-.15-.05s-.07,0-.13,0-.1.06-.17,0a.18.18,0,0,0-.2-.06c-.08,0-.1,0-.08,0S88.62,120.78,88.56,120.85Z"/><path class="cls-4" d="M115.47,121.53a2.41,2.41,0,0,0-.5.67,1.52,1.52,0,0,1-.18.34c-.11.07-.07.13.18.22s.28.07.57-.07a1.4,1.4,0,0,0,.7-.68c0-.06.06-.12.09-.12s.06-.09.06-.19-.16-.32-.38-.25-.12,0-.1,0a.38.38,0,0,0,0-.18C115.86,121.16,115.8,121.19,115.47,121.53Z"/><path class="cls-4" d="M96.57,121.78c-.15.17.07.67.24.55s0,0,0,.06.28.45.47.45a1.43,1.43,0,0,1,.34.06.47.47,0,0,0,.31,0c.07,0,.09-.05.05-.05s-.06-.06-.05-.11,0-.09,0-.06-.12,0-.17-.1,0-.15.06-.15.13,0,.13-.1,0-.1,0-.1.36.29.4.46a.18.18,0,0,0,.19.15c.2,0,.27-.28.19-.73,0-.14,0-.14-.19,0a.36.36,0,0,0-.15.2c0,.15-.11.11-.31-.11a1.55,1.55,0,0,0-.45-.32A2.1,2.1,0,0,0,96.57,121.78Z"/><path class="cls-4" d="M127.1,123.2a.6.6,0,0,0-.13.27.21.21,0,0,1-.06.15,1.46,1.46,0,0,0,0,.85,1.79,1.79,0,0,0,.3.51l.24.25.13-.33a1.21,1.21,0,0,0,.1-.7,2.57,2.57,0,0,0-.38-1.16S127.18,123.11,127.1,123.2Z"/><path class="cls-4" d="M132.2,124.37a.27.27,0,0,1-.18.1c-.09,0-.09,0,0,.07a.22.22,0,0,1,.11.15s.14.14.32.22c.38.17.45.3.14.3-.15,0-.22,0-.22.11s-.22.26-.27.14,0,0,0,.13,0,.25.16.19a.21.21,0,0,0,.1-.2c0-.09,0-.16.05-.17l.25,0a.51.51,0,0,0,.29-.11c.08-.06.11-.06.15,0s.09.08.2,0,.1-.08.07-.08-.11-.24,0-.41,0-.13-.12-.15-.17,0-.14.09,0,.12,0,.12-.27-.25-.27-.37-.05-.09-.18-.06-.19,0-.22-.07S132.3,124.24,132.2,124.37Z"/><path class="cls-4" d="M84.66,124.59a2,2,0,0,0-.88.89c-.08.28-.08.3,0,.23s.07,0,0,.05-.08.24.28.2a1.38,1.38,0,0,0,.73-.3c.33-.24.9-.92.77-.92a.32.32,0,0,1-.16-.11A.66.66,0,0,0,84.66,124.59Z"/><path class="cls-4" d="M110.47,127.42a.52.52,0,0,1-.21,0c-.21,0-.38.12-.41.22s0,.06-.07,0a1.29,1.29,0,0,0-.53.24,1.56,1.56,0,0,0,.15.18c.11.15.2.18.44.18a1.3,1.3,0,0,0,1-.32c.27-.28.25-.42,0-.53l-.26-.1Z"/><path class="cls-4" d="M90.19,136a.17.17,0,0,0-.08.14c0,.08,0,.09-.25.06s-.43,0-.29.1.07.07,0,.12,0,.15.28.1.38.09.22.38-.09.21,0,.3.16.14.33,0,.18-.13.43-.1.41,0,.15-.14-.12-.05.05-.13.17-.1.06-.14a.13.13,0,0,0-.17,0c0,.08-.07.08-.09,0s-.19-.11-.22,0-.08.08-.15.09-.14,0-.13-.37S90.31,135.92,90.19,136Z"/><path class="cls-4" d="M66.61,152.15q0,.65.27.45c.18-.12.31-.1.31.05s0,.14-.09.14-.12.1,0,.2.09,0,.12,0,.07-.09.1-.07,0,0,0-.07,0-.11,0-.08l.2.08c.06,0,.1,0,.1,0s.19-.06.67,0l.21,0,0-.23c-.09-.58-.11-.59-.58-.55s-.51.06-.38.15.06.07,0,.07-.13,0-.11-.09-.45-.36-.6-.26-.11.05-.11-.06,0-.14,0-.14S66.6,151.94,66.61,152.15Z"/><polyline class="cls-7" points="28.93 45.42 25.22 48.36 28.93 50.46"/><polyline class="cls-8" points="33.55 45.11 37.38 47.78 34.32 50.46"/><line class="cls-8" x1="172.33" y1="45.11" x2="177.12" y2="49.89"/><line class="cls-8" x1="176.56" y1="44.83" x2="172.33" y2="50.18"/><line class="cls-8" x1="163.48" y1="47.92" x2="168.83" y2="47.92"/><path class="cls-9" d="M45.43,90.85A8.85,8.85,0,0,0,43,85.48c-2.25-2.07-3.6-3.72-3.37-6a5.68,5.68,0,0,1,5.85-5.38,5.76,5.76,0,0,1,6.08,5.38,9.83,9.83,0,0,1-1.8,4.75A10.73,10.73,0,0,0,47,88Z"/><ellipse class="cls-10" cx="45.64" cy="79.64" rx="1.53" ry="1.4"/><path class="cls-9" d="M145.71,135a8.92,8.92,0,0,0-2.48-5.37c-2.25-2.07-3.6-3.72-3.38-6a6,6,0,0,1,11.93,0,9.83,9.83,0,0,1-1.8,4.75,11,11,0,0,0-2.7,3.72Z"/><ellipse class="cls-10" cx="145.91" cy="123.82" rx="1.53" ry="1.4"/></g></svg>