<svg xmlns="http://www.w3.org/2000/svg" xmlns:xlink="http://www.w3.org/1999/xlink" viewBox="0 0 15.77 15.35"><defs><style>.cls-1{fill:url(#linear-gradient);}.cls-2{fill:#010101;}.cls-3{fill:#ed1c24;}.cls-4{fill:#ffde17;}.cls-5{fill:#009444;}.cls-6{fill:#fff;}</style><linearGradient id="linear-gradient" x1="15.63" y1="14.2" x2="-1.74" y2="-0.56" gradientUnits="userSpaceOnUse"><stop offset="0" stop-color="#aadfed"/><stop offset="0.96" stop-color="#1c75bc"/></linearGradient></defs><g id="Layer_6" data-name="Layer 6"><ellipse class="cls-1" cx="7.96" cy="7.69" rx="7.76" ry="7.71"/><path class="cls-2" d="M12.05,4.18a.55.55,0,0,0-.39-.3c-.11,0-7.52,0-7.62,0a.52.52,0,0,0-.38.29l0,.08v6.93l0,.09a.57.57,0,0,0,.26.25l.1,0H7.78c2.35,0,3.8,0,3.86,0a.53.53,0,0,0,.41-.29l0-.08V4.26Zm-1.72.37a.45.45,0,0,1,.19,0c.07,0,.09.1.09.27s0,.29-.28.29-.28,0-.28-.29S10.09,4.55,10.33,4.55Zm-1.15.11.06-.06s0,0,.2,0a.45.45,0,0,1,.2,0c.07,0,.1.11.1.27s-.05.29-.29.29-.16,0-.21-.06L9.18,5ZM11.48,11H4.23V5.69h7.25Zm0-6-.06.06c-.05.06-.05.06-.21.06s-.29,0-.29-.29.05-.29.29-.29.16,0,.21,0l.06.06Z"/><path class="cls-3" d="M9.74,4.84c0,.24-.05.29-.29.29s-.16,0-.21-.06L9.18,5V4.66l.06-.06s0,0,.2,0a.45.45,0,0,1,.2,0C9.71,4.61,9.74,4.68,9.74,4.84Z"/><path class="cls-4" d="M10.61,4.84c0,.24,0,.29-.28.29s-.28,0-.28-.29,0-.29.28-.29a.45.45,0,0,1,.19,0C10.59,4.61,10.61,4.67,10.61,4.84Z"/><path class="cls-5" d="M11.48,4.66V5l-.06.06c-.05.06-.05.06-.21.06s-.29,0-.29-.29.05-.29.29-.29.16,0,.21,0Z"/><path class="cls-6" d="M4.23,5.69V11h7.25V5.69ZM6.91,9.18a4.79,4.79,0,0,1-.78-.33c-.39-.19-.73-.35-.75-.37a.27.27,0,0,1-.09-.23.23.23,0,0,1,.12-.2l.74-.35c.75-.35.77-.36.9-.29a.26.26,0,0,1,0,.42l-.46.24-.43.21.42.21a2.23,2.23,0,0,1,.49.25A.27.27,0,0,1,6.91,9.18Zm.7.66a.28.28,0,0,1-.33.05.23.23,0,0,1-.13-.2A9.4,9.4,0,0,1,7.6,8.17c.49-1.49.48-1.48.59-1.53a.33.33,0,0,1,.26,0,.27.27,0,0,1,.12.21C8.57,7,7.66,9.78,7.61,9.84Zm2.72-1.36-.59.3c-.84.39-.87.4-.94.4a.26.26,0,0,1-.19-.44,1.82,1.82,0,0,1,.47-.25l.43-.21a2.63,2.63,0,0,0-.43-.21l-.46-.24a.27.27,0,0,1,0-.42c.13-.07.15-.06.84.26s.84.39.88.46A.27.27,0,0,1,10.33,8.48Z"/><path class="cls-2" d="M8.57,6.87c0,.1-.91,2.91-1,3a.28.28,0,0,1-.33.05.23.23,0,0,1-.13-.2A9.4,9.4,0,0,1,7.6,8.17c.49-1.49.48-1.48.59-1.53a.33.33,0,0,1,.26,0A.27.27,0,0,1,8.57,6.87Z"/><path class="cls-2" d="M7.11,8.74a.27.27,0,0,1-.2.44,4.79,4.79,0,0,1-.78-.33c-.39-.19-.73-.35-.75-.37a.27.27,0,0,1-.09-.23.23.23,0,0,1,.12-.2l.74-.35c.75-.35.77-.36.9-.29a.26.26,0,0,1,0,.42l-.46.24-.43.21.42.21A2.23,2.23,0,0,1,7.11,8.74Z"/><path class="cls-2" d="M10.33,8.48l-.59.3c-.84.39-.87.4-.94.4a.26.26,0,0,1-.19-.44,1.82,1.82,0,0,1,.47-.25l.43-.21a2.63,2.63,0,0,0-.43-.21l-.46-.24a.27.27,0,0,1,0-.42c.13-.07.15-.06.84.26s.84.39.88.46A.27.27,0,0,1,10.33,8.48Z"/></g></svg>