<svg xmlns="http://www.w3.org/2000/svg" xmlns:xlink="http://www.w3.org/1999/xlink" viewBox="0 0 15.77 15.49"><defs><style>.cls-1{fill:url(#linear-gradient);}.cls-2{fill:#231f20;}</style><linearGradient id="linear-gradient" x1="15.63" y1="14.2" x2="-1.74" y2="-0.56" gradientUnits="userSpaceOnUse"><stop offset="0" stop-color="#aadfed"/><stop offset="0.96" stop-color="#1c75bc"/></linearGradient></defs><g id="Layer_6" data-name="Layer 6"><ellipse class="cls-1" cx="7.96" cy="7.69" rx="7.76" ry="7.71"/><path class="cls-2" d="M8,2s0,.07,0,.59,0,.53.06.58a.18.18,0,0,0,.25,0c.05-.05.05-.08.05-.58S8.32,2,8.27,2A.21.21,0,0,0,8,2Z"/><path class="cls-2" d="M6.46,2.82c-.1.06-.1.14,0,.38s.14.28.25.27.16-.08.16-.16a1.65,1.65,0,0,0-.19-.47A.2.2,0,0,0,6.46,2.82Z"/><path class="cls-2" d="M9.64,2.82a1,1,0,0,0-.21.48.16.16,0,0,0,.15.17.18.18,0,0,0,.17-.1c.17-.36.19-.49.07-.55A.15.15,0,0,0,9.64,2.82Z"/><path class="cls-2" d="M4.54,3.36a.17.17,0,0,0-.06.21,4.12,4.12,0,0,0,.4.41c.32.31.37.35.43.35l.11,0a.18.18,0,0,0,.07-.2,4.77,4.77,0,0,0-.4-.42C4.68,3.31,4.65,3.29,4.54,3.36Z"/><path class="cls-2" d="M11.19,3.69a4.77,4.77,0,0,0-.4.42.21.21,0,0,0,.07.2l.11,0c.07,0,.12,0,.44-.35a3.58,3.58,0,0,0,.39-.41.15.15,0,0,0-.06-.21C11.63,3.29,11.6,3.31,11.19,3.69Z"/><path class="cls-2" d="M8.92,3.73a.71.71,0,0,0-.44.4v0l-.09,0a.67.67,0,0,0-.28,0,.52.52,0,0,0-.31,0,.69.69,0,0,0-.34.31l0,.06-.09,0a1,1,0,0,0-.5,0,.75.75,0,0,0-.47.45c0,.07,0,.09-.06.08a.66.66,0,0,0-.38-.07.67.67,0,0,0-.59.37l-.06.11v1c0,.57,0,1.06,0,1.09a.18.18,0,0,0,.22.09c.1,0,.12-.1.12-.35a.93.93,0,0,1,0-.23l.11,0a.89.89,0,0,0,.56,0c.11-.05.11-.06.13,0a.86.86,0,0,0,.35.29.9.9,0,0,0,.54,0l.11-.05.07.12a.75.75,0,0,0,.67.32.86.86,0,0,0,.45-.21c.08-.1.09-.1.16,0l.05,0-.15.11a3.53,3.53,0,0,0-.59.57,2.05,2.05,0,0,0-.35.67A.18.18,0,0,0,8,8.88a.51.51,0,0,0,.11-.16A2.53,2.53,0,0,1,9.46,7.47a.92.92,0,0,0,.24-.11,3.69,3.69,0,0,0,.19-.68.17.17,0,0,0-.15-.15,11.65,11.65,0,0,1-1.37-.32.71.71,0,0,1-.26-.31c0-.12,0-.25,0-.28a6,6,0,0,1,1,0h1l.11,0c.45.21.58,1,.39,2.31a4.39,4.39,0,0,1-.24,1.11c-.07.17-.07.24,0,.29a.2.2,0,0,0,.23,0,1.57,1.57,0,0,0,.21-.49A10.81,10.81,0,0,0,11,7.8,6.32,6.32,0,0,0,11,7a2.45,2.45,0,0,0-.16-1.11.77.77,0,0,0-.23-.32.8.8,0,0,0-.6-.27H9.84V4.71c0-.51,0-.54-.06-.63a.69.69,0,0,0-.59-.38A.58.58,0,0,0,8.92,3.73Zm.37.35c.18.09.19.1.19.67v.5H8.78V4.78c0-.44,0-.47.05-.56A.34.34,0,0,1,9,4.08.29.29,0,0,1,9.29,4.08Zm-1,.38c.15.1.17.14.17.48v.31H8.25c-.27,0-.42.08-.5.28,0,0,0-.09,0-.42s0-.48,0-.54a.37.37,0,0,1,.3-.15A.31.31,0,0,1,8.25,4.46Zm-1,.33a.52.52,0,0,1,.1.11c.05,0,.05.08.05.94s0,.88-.05.94a.35.35,0,0,1-.3.16.35.35,0,0,1-.29-.16c0-.06,0-.08,0-.94V5l.07-.08a.27.27,0,0,1,.13-.11A.44.44,0,0,1,7.21,4.79Zm-1.06.48a.44.44,0,0,1,.11.12c0,.08,0,.1,0,.59s0,.51,0,.57a.36.36,0,0,1-.6,0c-.05-.07-.05-.08,0-.59s0-.58.17-.69a.27.27,0,0,1,.19,0A.42.42,0,0,1,6.15,5.27Zm1.67.86a1,1,0,0,0,.42.4l.16.07s0,0,0,.23,0,.24-.06.31a.35.35,0,0,1-.59-.06c0-.08,0-.13,0-.66,0-.37,0-.53,0-.48A1.14,1.14,0,0,0,7.82,6.13Zm1.35.63.3.07s0,.17-.12.23a.56.56,0,0,1-.18.07.38.38,0,0,1-.39-.37c0-.07,0-.08.05-.07Z"/><path class="cls-2" d="M4,5.24a.18.18,0,0,0,0,.22,1.74,1.74,0,0,0,.5.2.18.18,0,0,0,.12-.29,1.75,1.75,0,0,0-.48-.18A.18.18,0,0,0,4,5.24Z"/><path class="cls-2" d="M11.94,5.26c-.2.08-.26.13-.26.23a.19.19,0,0,0,.16.17,1.53,1.53,0,0,0,.49-.2.17.17,0,0,0,0-.22C12.24,5.17,12.17,5.17,11.94,5.26Z"/><path class="cls-2" d="M3.06,6.78a.17.17,0,0,0,0,.23s0,0,.58,0,.63,0,.68-.09a.15.15,0,0,0,0-.19l-.06,0H3.67C3.12,6.73,3.11,6.73,3.06,6.78Z"/><path class="cls-2" d="M12,6.78A.14.14,0,0,0,12,7c0,.09.1.1.68.09s.53,0,.58,0a.19.19,0,0,0,0-.24c-.05,0-.07,0-.61,0h-.56Z"/><path class="cls-2" d="M5.3,7.84c-.06.07-.07.21,0,.56A3.48,3.48,0,0,0,6,10.07c.21.26.22.31.23.74s0,.37,0,.37a.14.14,0,0,0-.09,0l-.06,0V12c0,.72,0,.78,0,.81s.11,0,.62,0,.57,0,.61-.05a.19.19,0,0,0,0-.23s-.06,0-.48,0H6.37V11.52H9.69v1.05h-1c-1,0-1,0-1,0a.15.15,0,0,0,0,.12.14.14,0,0,0,0,.11s.07.05,1.15.05H10l.05-.05c0-.05,0-.07,0-.8s0-.83-.13-.85l-.07,0v-.32c0-.35,0-.42.17-.58a1.56,1.56,0,0,0,.31-.47.14.14,0,0,0-.11-.16c-.11,0-.16,0-.39.29a1.08,1.08,0,0,0-.34.89v.36H6.55v-.35a1.26,1.26,0,0,0-.33-1,3.09,3.09,0,0,1-.5-1A4.52,4.52,0,0,1,5.6,8c0-.09,0-.12,0-.16A.19.19,0,0,0,5.3,7.84Z"/></g></svg>