<svg xmlns="http://www.w3.org/2000/svg" xmlns:xlink="http://www.w3.org/1999/xlink" viewBox="0 0 15.77 15.35"><defs><style>.cls-1{fill:url(#linear-gradient);}.cls-2{fill:#231f20;}.cls-3{fill:#fff;}.cls-4{fill:#fed6a5;}</style><linearGradient id="linear-gradient" x1="15.63" y1="14.2" x2="-1.74" y2="-0.56" gradientUnits="userSpaceOnUse"><stop offset="0" stop-color="#aadfed"/><stop offset="0.96" stop-color="#1c75bc"/></linearGradient></defs><g id="Layer_6" data-name="Layer 6"><ellipse class="cls-1" cx="7.96" cy="7.69" rx="7.76" ry="7.71"/><path class="cls-2" d="M8,1.68s0,.07,0,.58,0,.54,0,.59a.2.2,0,0,0,.26,0c0-.06,0-.09,0-.59s0-.53,0-.57A.2.2,0,0,0,8,1.68Z"/><path class="cls-2" d="M6.4,2.52c-.1,0-.1.14,0,.37s.14.29.25.27A.17.17,0,0,0,6.81,3a1.65,1.65,0,0,0-.19-.47A.21.21,0,0,0,6.4,2.52Z"/><path class="cls-2" d="M9.59,2.51A1,1,0,0,0,9.37,3a.18.18,0,0,0,.15.18.2.2,0,0,0,.18-.1c.17-.36.19-.49.07-.55A.17.17,0,0,0,9.59,2.51Z"/><path class="cls-2" d="M4.49,3.05a.15.15,0,0,0-.06.21,3.34,3.34,0,0,0,.39.42c.32.3.37.35.44.35a.18.18,0,0,0,.11,0,.19.19,0,0,0,.07-.19A4.19,4.19,0,0,0,5,3.39C4.63,3,4.6,3,4.49,3.05Z"/><path class="cls-2" d="M11.14,3.39a3.61,3.61,0,0,0-.4.42A.17.17,0,0,0,10.8,4a.24.24,0,0,0,.12,0C11,4,11,4,11.35,3.68a3.8,3.8,0,0,0,.4-.42.17.17,0,0,0-.07-.21C11.58,3,11.55,3,11.14,3.39Z"/><path class="cls-2" d="M6.24,5.67c0,.48,0,.51,0,.57a.35.35,0,0,1-.6,0c0-.07,0-.07,0-.59s0-.58.17-.68a.24.24,0,0,1,.19,0A.42.42,0,0,1,6.09,5a.65.65,0,0,1,.11.12C6.25,5.16,6.25,5.18,6.24,5.67Zm1,.81A.36.36,0,0,1,7,6.63a.37.37,0,0,1-.3-.15c0-.06,0-.09,0-1V4.65l.07-.08a.33.33,0,0,1,.13-.11.41.41,0,0,1,.34,0,.32.32,0,0,1,.1.1s0,.08,0,.94S7.3,6.42,7.25,6.48Zm1.52-.1.34.07.3.07s0,.17-.12.23a.56.56,0,0,1-.18.07.38.38,0,0,1-.39-.37C8.72,6.38,8.73,6.37,8.77,6.38Zm-.59-.16.16.07s0,0,0,.23,0,.24-.06.31a.35.35,0,0,1-.59-.06c0-.08,0-.12,0-.65,0-.38,0-.54,0-.49a.89.89,0,0,0,.07.19A1,1,0,0,0,8.18,6.22Zm0-1.28c-.27,0-.42.08-.5.28,0,0,0-.08,0-.42s0-.48,0-.54A.37.37,0,0,1,8,4.11a.31.31,0,0,1,.17,0c.16.1.17.14.17.48v.31Zm1.24,0H8.72V4.48c0-.45,0-.48,0-.57a.5.5,0,0,1,.15-.14.29.29,0,0,1,.31,0c.18.09.19.1.2.67Z"/><path class="cls-2" d="M10.81,5.54a.77.77,0,0,0-.23-.32A.76.76,0,0,0,10,5H9.8V4.41c0-.51,0-.54-.06-.63a.71.71,0,0,0-.59-.38.58.58,0,0,0-.27,0,.71.71,0,0,0-.44.4v0l-.09,0a.67.67,0,0,0-.28-.05.52.52,0,0,0-.31.05.69.69,0,0,0-.34.31l0,.06-.09,0a.84.84,0,0,0-.5,0,.71.71,0,0,0-.47.44c0,.07,0,.09-.06.08a.74.74,0,0,0-.38-.07.69.69,0,0,0-.59.37l-.06.11v1c0,.57,0,1,0,1.08s0,.24,0,.43a1.32,1.32,0,0,0,0,.49,3.38,3.38,0,0,0,.68,1.68c.21.26.22.31.23.73s0,.37,0,.37L6,10.92l0,0v.78c0,.72,0,.77,0,.81s.11,0,.61,0h1.1a9.82,9.82,0,0,0,1.07,0H9.9l0,0c.05,0,.05-.07.05-.8s0-.83-.14-.86H9.78v-.33c0-.35,0-.41.17-.57a1.54,1.54,0,0,0,.26-.36.05.05,0,0,0,0,0l.19-.26a6,6,0,0,0,.32-.73,10.81,10.81,0,0,0,.18-1.08,6.32,6.32,0,0,0,0-.85A2.45,2.45,0,0,0,10.81,5.54ZM9.63,12.26h-1c-.94,0-1.48,0-1.56,0H6.32v-1H9.63Zm.92-4.61a4.39,4.39,0,0,1-.24,1.11c0,.08-.09.15-.11.19a3.63,3.63,0,0,0-.36.59h0l-.07.08a1.06,1.06,0,0,0-.33.88v.36H6.5v-.35a1.28,1.28,0,0,0-.33-1,2.68,2.68,0,0,1-.5-1,5.65,5.65,0,0,1-.12-.77c0-.06,0-.1,0-.14v0c0-.24,0-.52,0-.64a.93.93,0,0,1,0-.23l.11,0a.89.89,0,0,0,.56,0c.11,0,.11-.06.13,0A.94.94,0,0,0,6.71,7a.9.9,0,0,0,.54,0l.11,0L7.43,7a.73.73,0,0,0,.67.32.86.86,0,0,0,.45-.21c.08-.09.09-.1.16-.05l0,0-.15.11A3.53,3.53,0,0,0,8,7.78a2.05,2.05,0,0,0-.35.67.18.18,0,0,0,.27.14.82.82,0,0,0,.11-.17A2.47,2.47,0,0,1,9.42,7.18l.23-.12a3.69,3.69,0,0,0,.19-.68.17.17,0,0,0-.15-.15,11.65,11.65,0,0,1-1.37-.32.71.71,0,0,1-.26-.31c0-.12-.05-.24,0-.28a6,6,0,0,1,1,0h1l.11.06C10.61,5.55,10.74,6.29,10.55,7.65Z"/><path class="cls-3" d="M9.63,11.21v1h-1c-.94,0-1.48,0-1.56,0H6.32v-1Z"/><path class="cls-4" d="M10.55,7.65a4.39,4.39,0,0,1-.24,1.11c0,.08-.09.15-.11.19a3.63,3.63,0,0,0-.36.59h0l-.07.08a1.06,1.06,0,0,0-.33.88v.36H6.5v-.35a1.28,1.28,0,0,0-.33-1,2.68,2.68,0,0,1-.5-1,5.65,5.65,0,0,1-.12-.77c0-.06,0-.1,0-.14v0c0-.24,0-.52,0-.64a.93.93,0,0,1,0-.23l.11,0a.89.89,0,0,0,.56,0c.11,0,.11-.06.13,0A.94.94,0,0,0,6.71,7a.9.9,0,0,0,.54,0l.11,0L7.43,7a.73.73,0,0,0,.67.32.86.86,0,0,0,.45-.21c.08-.09.09-.1.16-.05l0,0-.15.11A3.53,3.53,0,0,0,8,7.78a2.05,2.05,0,0,0-.35.67.18.18,0,0,0,.27.14.82.82,0,0,0,.11-.17A2.47,2.47,0,0,1,9.42,7.18l.23-.12a3.69,3.69,0,0,0,.19-.68.17.17,0,0,0-.15-.15,11.65,11.65,0,0,1-1.37-.32.71.71,0,0,1-.26-.31c0-.12-.05-.24,0-.28a6,6,0,0,1,1,0h1l.11.06C10.61,5.55,10.74,6.29,10.55,7.65Z"/><path class="cls-4" d="M8.37,4.94H8.19c-.27,0-.42.08-.5.28,0,0,0-.08,0-.42s0-.48,0-.54A.37.37,0,0,1,8,4.11a.31.31,0,0,1,.17,0c.16.1.17.14.17.48Z"/><path class="cls-4" d="M9.43,4.44v.5H8.72V4.48c0-.45,0-.48,0-.57a.5.5,0,0,1,.15-.14.29.29,0,0,1,.31,0C9.41,3.86,9.42,3.87,9.43,4.44Z"/><path class="cls-4" d="M8.36,6.52c0,.21,0,.24-.06.31a.35.35,0,0,1-.59-.06c0-.08,0-.12,0-.65,0-.38,0-.54,0-.49a.89.89,0,0,0,.07.19,1,1,0,0,0,.42.4l.16.07S8.37,6.33,8.36,6.52Z"/><path class="cls-4" d="M6.24,5.67c0,.48,0,.51,0,.57a.35.35,0,0,1-.6,0c0-.07,0-.07,0-.59s0-.58.17-.68a.24.24,0,0,1,.19,0A.42.42,0,0,1,6.09,5a.65.65,0,0,1,.11.12C6.25,5.16,6.25,5.18,6.24,5.67Z"/><path class="cls-4" d="M7.3,5.53c0,.86,0,.89,0,1A.36.36,0,0,1,7,6.63a.37.37,0,0,1-.3-.15c0-.06,0-.09,0-1V4.65l.07-.08a.33.33,0,0,1,.13-.11.41.41,0,0,1,.34,0,.32.32,0,0,1,.1.1S7.3,4.67,7.3,5.53Z"/><path class="cls-2" d="M3.92,4.93a.17.17,0,0,0,0,.22,1.53,1.53,0,0,0,.49.2.18.18,0,0,0,.12-.28A1.78,1.78,0,0,0,4,4.88.18.18,0,0,0,3.92,4.93Z"/><path class="cls-2" d="M11.89,5c-.21.08-.27.13-.27.23a.19.19,0,0,0,.16.16,1.36,1.36,0,0,0,.49-.2.16.16,0,0,0,0-.22C12.18,4.86,12.11,4.87,11.89,5Z"/><path class="cls-2" d="M3,6.47A.18.18,0,0,0,3,6.7s0,0,.58.06.64,0,.68-.09a.15.15,0,0,0,0-.2l-.05,0H3.62C3.06,6.42,3.06,6.42,3,6.47Z"/><path class="cls-2" d="M11.94,6.47a.15.15,0,0,0,0,.2c.05.09.11.1.68.09s.54,0,.58-.06a.16.16,0,0,0,0-.23c-.05,0-.06,0-.61,0H12Z"/></g></svg>